<?xml version="1.0" encoding="UTF-8" standalone="no"?><svg xmlns="http://www.w3.org/2000/svg" xmlns:xlink="http://www.w3.org/1999/xlink" clip-rule="evenodd" stroke-miterlimit="4.00" viewBox="0 0 1024 768"><desc>SVG generated by Keynote</desc><defs></defs><g transform="matrix(1.00, 0.00, -0.00, -1.00, 0.0, 768.0)"><path d="M 0.0 768.0 L 1024.0 768.0 L 1024.0 0.0 L 0.0 0.0 Z M 0.0 768.0 " fill="#212121"></path><g><clipPath id="clip-13"><path d="M 512.0 768.0 L 1024.0 768.0 L 1024.0 385.0 L 512.0 385.0 Z M 512.1 768.0 "></path></clipPath><g clip-path="url(#clip-13)"><image xlink:href="../../ED1E45BF-AF52-4D3E-806E-B020D8E93FF7/assets/2F36C143C06D3477D7814B1B638108FF.jpeg" width="576.00" height="383.00" transform="matrix(1.00, 0.00, -0.00, -1.00, 480.0, 768.0)"></image></g></g><g><clipPath id="clip-14"><path d="M 512.0 382.0 L 1024.0 382.0 L 1024.0 -1.0 L 512.0 -1.0 Z M 512.0 382.0 "></path></clipPath><g clip-path="url(#clip-14)"><image xlink:href="../../ED1E45BF-AF52-4D3E-806E-B020D8E93FF7/assets/7857D6BABAD1B1C3EB043BDDAAA989E4.jpeg" width="574.00" height="383.00" transform="matrix(1.00, 0.00, -0.00, -1.00, 481.0, 382.0)"></image></g></g><text xml:space="preserve" font-family="DINCondensed-Bold" font-weight="bold" font-size="48.0" fill="#FF9C35" transform="matrix(1.00, 0.00, -0.00, -1.00, 36.0, 608.0)">A</text><text xml:space="preserve" font-family="DINCondensed-Bold" font-weight="bold" font-size="48.0" fill="#FF9C35" transform="matrix(1.00, 0.00, -0.00, -1.00, 55.5, 608.0)">N</text><text xml:space="preserve" font-family="DINCondensed-Bold" font-weight="bold" font-size="48.0" fill="#FF9C35" transform="matrix(1.00, 0.00, -0.00, -1.00, 76.8, 608.0)">D</text><text xml:space="preserve" font-family="DINCondensed-Bold" font-weight="bold" font-size="48.0" fill="#FF9C35" transform="matrix(1.00, 0.00, -0.00, -1.00, 97.3, 608.0)"> </text><text xml:space="preserve" font-family="DINCondensed-Bold" font-weight="bold" font-size="48.0" fill="#FF9C35" transform="matrix(1.00, 0.00, -0.00, -1.00, 106.2, 608.0)">O</text><text xml:space="preserve" font-family="DINCondensed-Bold" font-weight="bold" font-size="48.0" fill="#FF9C35" transform="matrix(1.00, 0.00, -0.00, -1.00, 126.7, 608.0)">N</text><text xml:space="preserve" font-family="DINCondensed-Bold" font-weight="bold" font-size="48.0" fill="#FF9C35" transform="matrix(1.00, 0.00, -0.00, -1.00, 148.0, 608.0)"> </text><text xml:space="preserve" font-family="DINCondensed-Bold" font-weight="bold" font-size="48.0" fill="#FF9C35" transform="matrix(1.00, 0.00, -0.00, -1.00, 156.9, 608.0)">T</text><text xml:space="preserve" font-family="DINCondensed-Bold" font-weight="bold" font-size="48.0" fill="#FF9C35" transform="matrix(1.00, 0.00, -0.00, -1.00, 172.8, 608.0)">H</text><text xml:space="preserve" font-family="DINCondensed-Bold" font-weight="bold" font-size="48.0" fill="#FF9C35" transform="matrix(1.00, 0.00, -0.00, -1.00, 193.3, 608.0)">A</text><text xml:space="preserve" font-family="DINCondensed-Bold" font-weight="bold" font-size="48.0" fill="#FF9C35" transform="matrix(1.00, 0.00, -0.00, -1.00, 210.2, 608.0)">T</text><text xml:space="preserve" font-family="DINCondensed-Bold" font-weight="bold" font-size="48.0" fill="#FF9C35" transform="matrix(1.00, 0.00, -0.00, -1.00, 226.1, 608.0)"> </text><text xml:space="preserve" font-family="DINCondensed-Bold" font-weight="bold" font-size="48.0" fill="#FF9C35" transform="matrix(1.00, 0.00, -0.00, -1.00, 235.1, 608.0)">N</text><text xml:space="preserve" font-family="DINCondensed-Bold" font-weight="bold" font-size="48.0" fill="#FF9C35" transform="matrix(1.00, 0.00, -0.00, -1.00, 256.4, 608.0)">O</text><text xml:space="preserve" font-family="DINCondensed-Bold" font-weight="bold" font-size="48.0" fill="#FF9C35" transform="matrix(1.00, 0.00, -0.00, -1.00, 276.2, 608.0)">T</text><text xml:space="preserve" font-family="DINCondensed-Bold" font-weight="bold" font-size="48.0" fill="#FF9C35" transform="matrix(1.00, 0.00, -0.00, -1.00, 292.2, 608.0)">E</text><text xml:space="preserve" font-family="DINCondensed-Bold" font-weight="bold" font-size="48.0" fill="#FF9C35" transform="matrix(1.00, 0.00, -0.00, -1.00, 309.9, 608.0)">:</text><text xml:space="preserve" font-family="AvenirNext-Medium" font-size="34.0" fill="#FEFFFE" transform="matrix(1.00, 0.00, -0.00, -1.00, 36.0, 514.0)">W</text><text xml:space="preserve" font-family="AvenirNext-Medium" font-size="34.0" fill="#FEFFFE" transform="matrix(1.00, 0.00, -0.00, -1.00, 69.6, 514.0)">h</text><text xml:space="preserve" font-family="AvenirNext-Medium" font-size="34.0" fill="#FEFFFE" transform="matrix(1.00, 0.00, -0.00, -1.00, 89.4, 514.0)">a</text><text xml:space="preserve" font-family="AvenirNext-Medium" font-size="34.0" fill="#FEFFFE" transform="matrix(1.00, 0.00, -0.00, -1.00, 107.5, 514.0)">t</text><text xml:space="preserve" font-family="AvenirNext-Medium" font-size="34.0" fill="#FEFFFE" transform="matrix(1.00, 0.00, -0.00, -1.00, 118.7, 514.0)"> </text><text xml:space="preserve" font-family="AvenirNext-Medium" font-size="34.0" fill="#FEFFFE" transform="matrix(1.00, 0.00, -0.00, -1.00, 127.2, 514.0)">i</text><text xml:space="preserve" font-family="AvenirNext-Medium" font-size="34.0" fill="#FEFFFE" transform="matrix(1.00, 0.00, -0.00, -1.00, 136.0, 514.0)">s</text><text xml:space="preserve" font-family="AvenirNext-Medium" font-size="34.0" fill="#FEFFFE" transform="matrix(1.00, 0.00, -0.00, -1.00, 151.1, 514.0)"> </text><text xml:space="preserve" font-family="AvenirNext-Medium" font-size="34.0" fill="#FEFFFE" transform="matrix(1.00, 0.00, -0.00, -1.00, 159.6, 514.0)">t</text><text xml:space="preserve" font-family="AvenirNext-Medium" font-size="34.0" fill="#FEFFFE" transform="matrix(1.00, 0.00, -0.00, -1.00, 170.8, 514.0)">h</text><text xml:space="preserve" font-family="AvenirNext-Medium" font-size="34.0" fill="#FEFFFE" transform="matrix(1.00, 0.00, -0.00, -1.00, 190.7, 514.0)">e</text><text xml:space="preserve" font-family="AvenirNext-Medium" font-size="34.0" fill="#FEFFFE" transform="matrix(1.00, 0.00, -0.00, -1.00, 210.1, 514.0)"> </text><text xml:space="preserve" font-family="AvenirNext-Medium" font-size="34.0" fill="#FEFFFE" transform="matrix(1.00, 0.00, -0.00, -1.00, 218.6, 514.0)">d</text><text xml:space="preserve" font-family="AvenirNext-Medium" font-size="34.0" fill="#FEFFFE" transform="matrix(1.00, 0.00, -0.00, -1.00, 240.2, 514.0)">i</text><text xml:space="preserve" font-family="AvenirNext-Medium" font-size="34.0" fill="#FEFFFE" transform="matrix(1.00, 0.00, -0.00, -1.00, 249.0, 514.0)">f</text><text xml:space="preserve" font-family="AvenirNext-Medium" font-size="34.0" fill="#FEFFFE" transform="matrix(1.00, 0.00, -0.00, -1.00, 258.9, 514.0)">f</text><text xml:space="preserve" font-family="AvenirNext-Medium" font-size="34.0" fill="#FEFFFE" transform="matrix(1.00, 0.00, -0.00, -1.00, 269.4, 514.0)">e</text><text xml:space="preserve" font-family="AvenirNext-Medium" font-size="34.0" fill="#FEFFFE" transform="matrix(1.00, 0.00, -0.00, -1.00, 288.9, 514.0)">r</text><text xml:space="preserve" font-family="AvenirNext-Medium" font-size="34.0" fill="#FEFFFE" transform="matrix(1.00, 0.00, -0.00, -1.00, 300.6, 514.0)">e</text><text xml:space="preserve" font-family="AvenirNext-Medium" font-size="34.0" fill="#FEFFFE" transform="matrix(1.00, 0.00, -0.00, -1.00, 320.1, 514.0)">n</text><text xml:space="preserve" font-family="AvenirNext-Medium" font-size="34.0" fill="#FEFFFE" transform="matrix(1.00, 0.00, -0.00, -1.00, 339.9, 514.0)">c</text><text xml:space="preserve" font-family="AvenirNext-Medium" font-size="34.0" fill="#FEFFFE" transform="matrix(1.00, 0.00, -0.00, -1.00, 356.7, 514.0)">e</text><text xml:space="preserve" font-family="AvenirNext-Medium" font-size="34.0" fill="#FEFFFE" transform="matrix(1.00, 0.00, -0.00, -1.00, 376.1, 514.0)"> </text><text xml:space="preserve" font-family="AvenirNext-Medium" font-size="34.0" fill="#FEFFFE" transform="matrix(1.00, 0.00, -0.00, -1.00, 36.0, 468.0)">b</text><text xml:space="preserve" font-family="AvenirNext-Medium" font-size="34.0" fill="#FEFFFE" transform="matrix(1.00, 0.00, -0.00, -1.00, 57.6, 468.0)">e</text><text xml:space="preserve" font-family="AvenirNext-Medium" font-size="34.0" fill="#FEFFFE" transform="matrix(1.00, 0.00, -0.00, -1.00, 77.1, 468.0)">t</text><text xml:space="preserve" font-family="AvenirNext-Medium" font-size="34.0" fill="#FEFFFE" transform="matrix(1.00, 0.00, -0.00, -1.00, 88.3, 468.0)">w</text><text xml:space="preserve" font-family="AvenirNext-Medium" font-size="34.0" fill="#FEFFFE" transform="matrix(1.00, 0.00, -0.00, -1.00, 114.6, 468.0)">e</text><text xml:space="preserve" font-family="AvenirNext-Medium" font-size="34.0" fill="#FEFFFE" transform="matrix(1.00, 0.00, -0.00, -1.00, 134.1, 468.0)">e</text><text xml:space="preserve" font-family="AvenirNext-Medium" font-size="34.0" fill="#FEFFFE" transform="matrix(1.00, 0.00, -0.00, -1.00, 153.5, 468.0)">n</text><text xml:space="preserve" font-family="AvenirNext-Medium" font-size="34.0" fill="#FEFFFE" transform="matrix(1.00, 0.00, -0.00, -1.00, 173.3, 468.0)"> </text><text xml:space="preserve" font-family="AvenirNext-Medium" font-size="34.0" fill="#FEFFFE" transform="matrix(1.00, 0.00, -0.00, -1.00, 181.8, 468.0)">“</text><text xml:space="preserve" font-family="AvenirNext-Medium" font-size="34.0" fill="#FEFFFE" transform="matrix(1.00, 0.00, -0.00, -1.00, 196.3, 468.0)">S</text><text xml:space="preserve" font-family="AvenirNext-Medium" font-size="34.0" fill="#FEFFFE" transform="matrix(1.00, 0.00, -0.00, -1.00, 215.7, 468.0)">e</text><text xml:space="preserve" font-family="AvenirNext-Medium" font-size="34.0" fill="#FEFFFE" transform="matrix(1.00, 0.00, -0.00, -1.00, 235.1, 468.0)">c</text><text xml:space="preserve" font-family="AvenirNext-Medium" font-size="34.0" fill="#FEFFFE" transform="matrix(1.00, 0.00, -0.00, -1.00, 251.9, 468.0)">u</text><text xml:space="preserve" font-family="AvenirNext-Medium" font-size="34.0" fill="#FEFFFE" transform="matrix(1.00, 0.00, -0.00, -1.00, 271.7, 468.0)">r</text><text xml:space="preserve" font-family="AvenirNext-Medium" font-size="34.0" fill="#FEFFFE" transform="matrix(1.00, 0.00, -0.00, -1.00, 284.0, 468.0)">i</text><text xml:space="preserve" font-family="AvenirNext-Medium" font-size="34.0" fill="#FEFFFE" transform="matrix(1.00, 0.00, -0.00, -1.00, 292.8, 468.0)">t</text><text xml:space="preserve" font-family="AvenirNext-Medium" font-size="34.0" fill="#FEFFFE" transform="matrix(1.00, 0.00, -0.00, -1.00, 304.0, 468.0)">y</text><text xml:space="preserve" font-family="AvenirNext-Medium" font-size="34.0" fill="#FEFFFE" transform="matrix(1.00, 0.00, -0.00, -1.00, 321.2, 468.0)">”</text><text xml:space="preserve" font-family="AvenirNext-Medium" font-size="34.0" fill="#FEFFFE" transform="matrix(1.00, 0.00, -0.00, -1.00, 335.6, 468.0)"> </text><text xml:space="preserve" font-family="AvenirNext-Medium" font-size="34.0" fill="#FEFFFE" transform="matrix(1.00, 0.00, -0.00, -1.00, 344.1, 468.0)">a</text><text xml:space="preserve" font-family="AvenirNext-Medium" font-size="34.0" fill="#FEFFFE" transform="matrix(1.00, 0.00, -0.00, -1.00, 362.6, 468.0)">n</text><text xml:space="preserve" font-family="AvenirNext-Medium" font-size="34.0" fill="#FEFFFE" transform="matrix(1.00, 0.00, -0.00, -1.00, 382.4, 468.0)">d</text><text xml:space="preserve" font-family="AvenirNext-Medium" font-size="34.0" fill="#FEFFFE" transform="matrix(1.00, 0.00, -0.00, -1.00, 403.9, 468.0)"> </text><text xml:space="preserve" font-family="AvenirNext-Medium" font-size="34.0" fill="#FEFFFE" transform="matrix(1.00, 0.00, -0.00, -1.00, 36.0, 422.0)">“</text><text xml:space="preserve" font-family="AvenirNext-Medium" font-size="34.0" fill="#FEFFFE" transform="matrix(1.00, 0.00, -0.00, -1.00, 50.5, 422.0)">P</text><text xml:space="preserve" font-family="AvenirNext-Medium" font-size="34.0" fill="#FEFFFE" transform="matrix(1.00, 0.00, -0.00, -1.00, 69.2, 422.0)">r</text><text xml:space="preserve" font-family="AvenirNext-Medium" font-size="34.0" fill="#FEFFFE" transform="matrix(1.00, 0.00, -0.00, -1.00, 81.5, 422.0)">i</text><text xml:space="preserve" font-family="AvenirNext-Medium" font-size="34.0" fill="#FEFFFE" transform="matrix(1.00, 0.00, -0.00, -1.00, 90.3, 422.0)">v</text><text xml:space="preserve" font-family="AvenirNext-Medium" font-size="34.0" fill="#FEFFFE" transform="matrix(1.00, 0.00, -0.00, -1.00, 107.4, 422.0)">a</text><text xml:space="preserve" font-family="AvenirNext-Medium" font-size="34.0" fill="#FEFFFE" transform="matrix(1.00, 0.00, -0.00, -1.00, 125.8, 422.0)">c</text><text xml:space="preserve" font-family="AvenirNext-Medium" font-size="34.0" fill="#FEFFFE" transform="matrix(1.00, 0.00, -0.00, -1.00, 142.6, 422.0)">y</text><text xml:space="preserve" font-family="AvenirNext-Medium" font-size="34.0" fill="#FEFFFE" transform="matrix(1.00, 0.00, -0.00, -1.00, 159.8, 422.0)">”</text><text xml:space="preserve" font-family="AvenirNext-Medium" font-size="34.0" fill="#FEFFFE" transform="matrix(1.00, 0.00, -0.00, -1.00, 174.2, 422.0)">?</text><text xml:space="preserve" font-family="DINAlternate-Bold" font-weight="bold" font-size="24.0" fill="#FEFFFE" transform="matrix(1.00, 0.00, -0.00, -1.00, 976.1, 707.4)">4</text></g></svg>