<?xml version="1.0" encoding="UTF-8" standalone="no"?><svg xmlns="http://www.w3.org/2000/svg" xmlns:xlink="http://www.w3.org/1999/xlink" clip-rule="evenodd" stroke-miterlimit="4.00" viewBox="0 0 1024 768"><desc>SVG generated by Keynote</desc><defs></defs><g transform="matrix(1.00, 0.00, -0.00, -1.00, 0.0, 768.0)"><path d="M 0.0 768.0 L 1024.0 768.0 L 1024.0 0.0 L 0.0 0.0 Z M 0.0 768.0 " fill="#212121"></path><path d="M 0.0 0.0 L 960.0 0.0 " fill="none" stroke="#A6AAA8" stroke-width="3.00" transform="matrix(1.00, 0.00, 0.00, -1.00, 32.0, 284.5)"></path><text xml:space="preserve" font-family="DINCondensed-Bold" font-weight="bold" font-size="125.8" fill="#FF9C35" transform="matrix(1.00, 0.00, -0.00, -1.00, 36.0, 168.0)">“</text><text xml:space="preserve" font-family="DINCondensed-Bold" font-weight="bold" font-size="125.8" fill="#FF9C35" transform="matrix(1.00, 0.00, -0.00, -1.00, 71.0, 168.0)">H</text><text xml:space="preserve" font-family="DINCondensed-Bold" font-weight="bold" font-size="125.8" fill="#FF9C35" transform="matrix(1.00, 0.00, -0.00, -1.00, 124.6, 168.0)">A</text><text xml:space="preserve" font-family="DINCondensed-Bold" font-weight="bold" font-size="125.8" fill="#FF9C35" transform="matrix(1.00, 0.00, -0.00, -1.00, 175.8, 168.0)">C</text><text xml:space="preserve" font-family="DINCondensed-Bold" font-weight="bold" font-size="125.8" fill="#FF9C35" transform="matrix(1.00, 0.00, -0.00, -1.00, 227.0, 168.0)">K</text><text xml:space="preserve" font-family="DINCondensed-Bold" font-weight="bold" font-size="125.8" fill="#FF9C35" transform="matrix(1.00, 0.00, -0.00, -1.00, 280.6, 168.0)"> </text><text xml:space="preserve" font-family="DINCondensed-Bold" font-weight="bold" font-size="125.8" fill="#FF9C35" transform="matrix(1.00, 0.00, -0.00, -1.00, 304.0, 168.0)">Y</text><text xml:space="preserve" font-family="DINCondensed-Bold" font-weight="bold" font-size="125.8" fill="#FF9C35" transform="matrix(1.00, 0.00, -0.00, -1.00, 352.8, 168.0)">O</text><text xml:space="preserve" font-family="DINCondensed-Bold" font-weight="bold" font-size="125.8" fill="#FF9C35" transform="matrix(1.00, 0.00, -0.00, -1.00, 406.4, 168.0)">U</text><text xml:space="preserve" font-family="DINCondensed-Bold" font-weight="bold" font-size="125.8" fill="#FF9C35" transform="matrix(1.00, 0.00, -0.00, -1.00, 459.9, 168.0)">R</text><text xml:space="preserve" font-family="DINCondensed-Bold" font-weight="bold" font-size="125.8" fill="#FF9C35" transform="matrix(1.00, 0.00, -0.00, -1.00, 513.5, 168.0)">S</text><text xml:space="preserve" font-family="DINCondensed-Bold" font-weight="bold" font-size="125.8" fill="#FF9C35" transform="matrix(1.00, 0.00, -0.00, -1.00, 564.6, 168.0)">E</text><text xml:space="preserve" font-family="DINCondensed-Bold" font-weight="bold" font-size="125.8" fill="#FF9C35" transform="matrix(1.00, 0.00, -0.00, -1.00, 611.2, 168.0)">L</text><text xml:space="preserve" font-family="DINCondensed-Bold" font-weight="bold" font-size="125.8" fill="#FF9C35" transform="matrix(1.00, 0.00, -0.00, -1.00, 657.7, 168.0)">F</text><text xml:space="preserve" font-family="DINCondensed-Bold" font-weight="bold" font-size="125.8" fill="#FF9C35" transform="matrix(1.00, 0.00, -0.00, -1.00, 704.2, 168.0)"> </text><text xml:space="preserve" font-family="DINCondensed-Bold" font-weight="bold" font-size="125.8" fill="#FF9C35" transform="matrix(1.00, 0.00, -0.00, -1.00, 727.6, 168.0)">F</text><text xml:space="preserve" font-family="DINCondensed-Bold" font-weight="bold" font-size="125.8" fill="#FF9C35" transform="matrix(1.00, 0.00, -0.00, -1.00, 774.2, 168.0)">I</text><text xml:space="preserve" font-family="DINCondensed-Bold" font-weight="bold" font-size="125.8" fill="#FF9C35" transform="matrix(1.00, 0.00, -0.00, -1.00, 799.9, 168.0)">R</text><text xml:space="preserve" font-family="DINCondensed-Bold" font-weight="bold" font-size="125.8" fill="#FF9C35" transform="matrix(1.00, 0.00, -0.00, -1.00, 853.4, 168.0)">S</text><text xml:space="preserve" font-family="DINCondensed-Bold" font-weight="bold" font-size="125.8" fill="#FF9C35" transform="matrix(1.00, 0.00, -0.00, -1.00, 904.5, 168.0)">T</text><text xml:space="preserve" font-family="DINCondensed-Bold" font-weight="bold" font-size="125.8" fill="#FF9C35" transform="matrix(1.00, 0.00, -0.00, -1.00, 946.3, 168.0)">”</text><text xml:space="preserve" font-family="DINAlternate-Bold" font-weight="bold" font-size="54.0" fill="#FEFFFE" transform="matrix(1.00, 0.00, -0.00, -1.00, 36.0, 306.0)">T</text><text xml:space="preserve" font-family="DINAlternate-Bold" font-weight="bold" font-size="54.0" fill="#FEFFFE" transform="matrix(1.00, 0.00, -0.00, -1.00, 62.0, 306.0)">O</text><text xml:space="preserve" font-family="DINAlternate-Bold" font-weight="bold" font-size="54.0" fill="#FEFFFE" transform="matrix(1.00, 0.00, -0.00, -1.00, 94.9, 306.0)"> </text><text xml:space="preserve" font-family="DINAlternate-Bold" font-weight="bold" font-size="54.0" fill="#FF9C35" transform="matrix(1.00, 0.00, -0.00, -1.00, 107.9, 306.0)">Q</text><text xml:space="preserve" font-family="DINAlternate-Bold" font-weight="bold" font-size="54.0" fill="#FF9C35" transform="matrix(1.00, 0.00, -0.00, -1.00, 140.5, 306.0)">U</text><text xml:space="preserve" font-family="DINAlternate-Bold" font-weight="bold" font-size="54.0" fill="#FF9C35" transform="matrix(1.00, 0.00, -0.00, -1.00, 174.5, 306.0)">O</text><text xml:space="preserve" font-family="DINAlternate-Bold" font-weight="bold" font-size="54.0" fill="#FF9C35" transform="matrix(1.00, 0.00, -0.00, -1.00, 206.5, 306.0)">T</text><text xml:space="preserve" font-family="DINAlternate-Bold" font-weight="bold" font-size="54.0" fill="#FF9C35" transform="matrix(1.00, 0.00, -0.00, -1.00, 233.5, 306.0)">E</text><text xml:space="preserve" font-family="DINAlternate-Bold" font-weight="bold" font-size="54.0" fill="#FEFFFE" transform="matrix(1.00, 0.00, -0.00, -1.00, 263.5, 306.0)"> </text><text xml:space="preserve" font-family="DINAlternate-Bold" font-weight="bold" font-size="54.0" fill="#FF9C35" transform="matrix(1.00, 0.00, -0.00, -1.00, 276.5, 306.0)">T</text><text xml:space="preserve" font-family="DINAlternate-Bold" font-weight="bold" font-size="54.0" fill="#FF9C35" transform="matrix(1.00, 0.00, -0.00, -1.00, 303.5, 306.0)">R</text><text xml:space="preserve" font-family="DINAlternate-Bold" font-weight="bold" font-size="54.0" fill="#FF9C35" transform="matrix(1.00, 0.00, -0.00, -1.00, 336.4, 306.0)">O</text><text xml:space="preserve" font-family="DINAlternate-Bold" font-weight="bold" font-size="54.0" fill="#FF9C35" transform="matrix(1.00, 0.00, -0.00, -1.00, 367.7, 306.0)">Y</text><text xml:space="preserve" font-family="DINAlternate-Bold" font-weight="bold" font-size="54.0" fill="#FF9C35" transform="matrix(1.00, 0.00, -0.00, -1.00, 394.7, 306.0)"> </text><text xml:space="preserve" font-family="DINAlternate-Bold" font-weight="bold" font-size="54.0" fill="#FF9C35" transform="matrix(1.00, 0.00, -0.00, -1.00, 407.6, 306.0)">H</text><text xml:space="preserve" font-family="DINAlternate-Bold" font-weight="bold" font-size="54.0" fill="#FF9C35" transform="matrix(1.00, 0.00, -0.00, -1.00, 442.6, 306.0)">U</text><text xml:space="preserve" font-family="DINAlternate-Bold" font-weight="bold" font-size="54.0" fill="#FF9C35" transform="matrix(1.00, 0.00, -0.00, -1.00, 476.6, 306.0)">N</text><text xml:space="preserve" font-family="DINAlternate-Bold" font-weight="bold" font-size="54.0" fill="#FF9C35" transform="matrix(1.00, 0.00, -0.00, -1.00, 513.6, 306.0)">T</text><text xml:space="preserve" font-family="DINAlternate-Bold" font-weight="bold" font-size="54.0" fill="#FEFFFE" transform="matrix(1.00, 0.00, -0.00, -1.00, 540.6, 306.0)"> </text><text xml:space="preserve" font-family="DINAlternate-Bold" font-weight="bold" font-size="35.0" fill="#FEFFFE" transform="matrix(1.00, 0.00, -0.00, -1.00, 553.6, 306.0)">(</text><text xml:space="preserve" font-family="DINAlternate-Bold" font-weight="bold" font-size="35.0" fill="#FEFFFE" transform="matrix(1.00, 0.00, -0.00, -1.00, 563.3, 306.0)">V</text><text xml:space="preserve" font-family="DINAlternate-Bold" font-weight="bold" font-size="35.0" fill="#FEFFFE" transform="matrix(1.00, 0.00, -0.00, -1.00, 582.7, 306.0)">I</text><text xml:space="preserve" font-family="DINAlternate-Bold" font-weight="bold" font-size="35.0" fill="#FEFFFE" transform="matrix(1.00, 0.00, -0.00, -1.00, 591.8, 306.0)">A</text><text xml:space="preserve" font-family="DINAlternate-Bold" font-weight="bold" font-size="35.0" fill="#FEFFFE" transform="matrix(1.00, 0.00, -0.00, -1.00, 613.1, 306.0)"> </text><text xml:space="preserve" font-family="DINAlternate-Bold" font-weight="bold" font-size="35.0" fill="#FF9C35" transform="matrix(1.00, 0.00, -0.00, -1.00, 621.5, 306.0)">J</text><text xml:space="preserve" font-family="DINAlternate-Bold" font-weight="bold" font-size="35.0" fill="#FF9C35" transform="matrix(1.00, 0.00, -0.00, -1.00, 638.3, 306.0)">E</text><text xml:space="preserve" font-family="DINAlternate-Bold" font-weight="bold" font-size="35.0" fill="#FF9C35" transform="matrix(1.00, 0.00, -0.00, -1.00, 657.8, 306.0)">R</text><text xml:space="preserve" font-family="DINAlternate-Bold" font-weight="bold" font-size="35.0" fill="#FF9C35" transform="matrix(1.00, 0.00, -0.00, -1.00, 679.2, 306.0)">E</text><text xml:space="preserve" font-family="DINAlternate-Bold" font-weight="bold" font-size="35.0" fill="#FF9C35" transform="matrix(1.00, 0.00, -0.00, -1.00, 698.6, 306.0)">M</text><text xml:space="preserve" font-family="DINAlternate-Bold" font-weight="bold" font-size="35.0" fill="#FF9C35" transform="matrix(1.00, 0.00, -0.00, -1.00, 725.1, 306.0)">I</text><text xml:space="preserve" font-family="DINAlternate-Bold" font-weight="bold" font-size="35.0" fill="#FF9C35" transform="matrix(1.00, 0.00, -0.00, -1.00, 734.2, 306.0)">A</text><text xml:space="preserve" font-family="DINAlternate-Bold" font-weight="bold" font-size="35.0" fill="#FF9C35" transform="matrix(1.00, 0.00, -0.00, -1.00, 755.5, 306.0)">H</text><text xml:space="preserve" font-family="DINAlternate-Bold" font-weight="bold" font-size="35.0" fill="#FF9C35" transform="matrix(1.00, 0.00, -0.00, -1.00, 778.2, 306.0)"> </text><text xml:space="preserve" font-family="DINAlternate-Bold" font-weight="bold" font-size="35.0" fill="#FF9C35" transform="matrix(1.00, 0.00, -0.00, -1.00, 786.6, 306.0)">G</text><text xml:space="preserve" font-family="DINAlternate-Bold" font-weight="bold" font-size="35.0" fill="#FF9C35" transform="matrix(1.00, 0.00, -0.00, -1.00, 807.9, 306.0)">R</text><text xml:space="preserve" font-family="DINAlternate-Bold" font-weight="bold" font-size="35.0" fill="#FF9C35" transform="matrix(1.00, 0.00, -0.00, -1.00, 829.2, 306.0)">O</text><text xml:space="preserve" font-family="DINAlternate-Bold" font-weight="bold" font-size="35.0" fill="#FF9C35" transform="matrix(1.00, 0.00, -0.00, -1.00, 850.6, 306.0)">S</text><text xml:space="preserve" font-family="DINAlternate-Bold" font-weight="bold" font-size="35.0" fill="#FF9C35" transform="matrix(1.00, 0.00, -0.00, -1.00, 870.7, 306.0)">S</text><text xml:space="preserve" font-family="DINAlternate-Bold" font-weight="bold" font-size="35.0" fill="#FF9C35" transform="matrix(1.00, 0.00, -0.00, -1.00, 890.7, 306.0)">M</text><text xml:space="preserve" font-family="DINAlternate-Bold" font-weight="bold" font-size="35.0" fill="#FF9C35" transform="matrix(1.00, 0.00, -0.00, -1.00, 917.2, 306.0)">A</text><text xml:space="preserve" font-family="DINAlternate-Bold" font-weight="bold" font-size="35.0" fill="#FF9C35" transform="matrix(1.00, 0.00, -0.00, -1.00, 938.6, 306.0)">N</text><text xml:space="preserve" font-family="DINAlternate-Bold" font-weight="bold" font-size="35.0" fill="#FEFFFE" transform="matrix(1.00, 0.00, -0.00, -1.00, 962.6, 306.0)">)</text><text xml:space="preserve" font-family="DINAlternate-Bold" font-weight="bold" font-size="35.0" fill="#FEFFFE" transform="matrix(1.00, 0.00, -0.00, -1.00, 972.3, 306.0)">:</text><g><clipPath id="clip-15"><path d="M 106.9 298.5 L 263.5 298.5 L 263.5 303.1 L 106.9 303.1 Z M 106.9 298.5 "></path></clipPath><g clip-path="url(#clip-15)"><path d="M 75.9 131.2 L 231.5 131.2 " fill="none" stroke="#FF9C35" stroke-width="2.69" stroke-miterlimit="0.00" transform="matrix(1.00, 0.00, 0.00, -1.00, 32.0, 432.0)"></path></g></g><g><clipPath id="clip-16"><path d="M 275.5 298.5 L 540.6 298.5 L 540.6 303.1 L 275.5 303.1 Z M 275.5 298.5 "></path></clipPath><g clip-path="url(#clip-16)"><path d="M 244.5 131.2 L 508.6 131.2 " fill="none" stroke="#FF9C35" stroke-width="2.69" stroke-miterlimit="0.00" transform="matrix(1.00, 0.00, 0.00, -1.00, 32.0, 432.0)"></path></g></g><g><clipPath id="clip-17"><path d="M 620.5 300.8 L 962.6 300.8 L 962.6 304.6 L 620.5 304.6 Z M 620.5 300.8 "></path></clipPath><g clip-path="url(#clip-17)"><path d="M 589.5 129.3 L 930.6 129.3 " fill="none" stroke="#FF9C35" stroke-width="1.74" stroke-miterlimit="0.00" transform="matrix(1.00, 0.00, 0.00, -1.00, 32.0, 432.0)"></path></g></g><text xml:space="preserve" font-family="AvenirNext-Medium" font-size="20.0" fill="#838686" transform="matrix(1.00, 0.00, -0.00, -1.00, 33.0, 58.0)">F</text><text xml:space="preserve" font-family="AvenirNext-Medium" font-size="20.0" fill="#838686" transform="matrix(1.00, 0.00, -0.00, -1.00, 43.5, 58.0)">u</text><text xml:space="preserve" font-family="AvenirNext-Medium" font-size="20.0" fill="#838686" transform="matrix(1.00, 0.00, -0.00, -1.00, 55.2, 58.0)">n</text><text xml:space="preserve" font-family="AvenirNext-Medium" font-size="20.0" fill="#838686" transform="matrix(1.00, 0.00, -0.00, -1.00, 66.8, 58.0)"> </text><text xml:space="preserve" font-family="AvenirNext-Medium" font-size="20.0" fill="#838686" transform="matrix(1.00, 0.00, -0.00, -1.00, 71.8, 58.0)">r</text><text xml:space="preserve" font-family="AvenirNext-Medium" font-size="20.0" fill="#838686" transform="matrix(1.00, 0.00, -0.00, -1.00, 78.7, 58.0)">e</text><text xml:space="preserve" font-family="AvenirNext-Medium" font-size="20.0" fill="#838686" transform="matrix(1.00, 0.00, -0.00, -1.00, 90.1, 58.0)">s</text><text xml:space="preserve" font-family="AvenirNext-Medium" font-size="20.0" fill="#838686" transform="matrix(1.00, 0.00, -0.00, -1.00, 99.0, 58.0)">o</text><text xml:space="preserve" font-family="AvenirNext-Medium" font-size="20.0" fill="#838686" transform="matrix(1.00, 0.00, -0.00, -1.00, 111.2, 58.0)">u</text><text xml:space="preserve" font-family="AvenirNext-Medium" font-size="20.0" fill="#838686" transform="matrix(1.00, 0.00, -0.00, -1.00, 122.9, 58.0)">r</text><text xml:space="preserve" font-family="AvenirNext-Medium" font-size="20.0" fill="#838686" transform="matrix(1.00, 0.00, -0.00, -1.00, 129.7, 58.0)">c</text><text xml:space="preserve" font-family="AvenirNext-Medium" font-size="20.0" fill="#838686" transform="matrix(1.00, 0.00, -0.00, -1.00, 139.6, 58.0)">e</text><text xml:space="preserve" font-family="AvenirNext-Medium" font-size="20.0" fill="#838686" transform="matrix(1.00, 0.00, -0.00, -1.00, 151.1, 58.0)">:</text><text xml:space="preserve" font-family="AvenirNext-Medium" font-size="20.0" fill="#838686" transform="matrix(1.00, 0.00, -0.00, -1.00, 157.1, 58.0)"> </text><text xml:space="preserve" font-family="AvenirNext-Medium" font-size="20.0" fill="#FF9C35" transform="matrix(1.00, 0.00, -0.00, -1.00, 162.1, 58.0)">h</text><text xml:space="preserve" font-family="AvenirNext-Medium" font-size="20.0" fill="#FF9C35" transform="matrix(1.00, 0.00, -0.00, -1.00, 173.8, 58.0)">t</text><text xml:space="preserve" font-family="AvenirNext-Medium" font-size="20.0" fill="#FF9C35" transform="matrix(1.00, 0.00, -0.00, -1.00, 180.0, 58.0)">t</text><text xml:space="preserve" font-family="AvenirNext-Medium" font-size="20.0" fill="#FF9C35" transform="matrix(1.00, 0.00, -0.00, -1.00, 186.6, 58.0)">p</text><text xml:space="preserve" font-family="AvenirNext-Medium" font-size="20.0" fill="#FF9C35" transform="matrix(1.00, 0.00, -0.00, -1.00, 199.3, 58.0)">:</text><text xml:space="preserve" font-family="AvenirNext-Medium" font-size="20.0" fill="#FF9C35" transform="matrix(1.00, 0.00, -0.00, -1.00, 205.3, 58.0)">/</text><text xml:space="preserve" font-family="AvenirNext-Medium" font-size="20.0" fill="#FF9C35" transform="matrix(1.00, 0.00, -0.00, -1.00, 212.9, 58.0)">/</text><text xml:space="preserve" font-family="AvenirNext-Medium" font-size="20.0" fill="#FF9C35" transform="matrix(1.00, 0.00, -0.00, -1.00, 220.5, 58.0)">h</text><text xml:space="preserve" font-family="AvenirNext-Medium" font-size="20.0" fill="#FF9C35" transform="matrix(1.00, 0.00, -0.00, -1.00, 232.2, 58.0)">a</text><text xml:space="preserve" font-family="AvenirNext-Medium" font-size="20.0" fill="#FF9C35" transform="matrix(1.00, 0.00, -0.00, -1.00, 243.0, 58.0)">c</text><text xml:space="preserve" font-family="AvenirNext-Medium" font-size="20.0" fill="#FF9C35" transform="matrix(1.00, 0.00, -0.00, -1.00, 252.9, 58.0)">k</text><text xml:space="preserve" font-family="AvenirNext-Medium" font-size="20.0" fill="#FF9C35" transform="matrix(1.00, 0.00, -0.00, -1.00, 263.2, 58.0)">y</text><text xml:space="preserve" font-family="AvenirNext-Medium" font-size="20.0" fill="#FF9C35" transform="matrix(1.00, 0.00, -0.00, -1.00, 273.3, 58.0)">o</text><text xml:space="preserve" font-family="AvenirNext-Medium" font-size="20.0" fill="#FF9C35" transform="matrix(1.00, 0.00, -0.00, -1.00, 285.5, 58.0)">u</text><text xml:space="preserve" font-family="AvenirNext-Medium" font-size="20.0" fill="#FF9C35" transform="matrix(1.00, 0.00, -0.00, -1.00, 297.1, 58.0)">r</text><text xml:space="preserve" font-family="AvenirNext-Medium" font-size="20.0" fill="#FF9C35" transform="matrix(1.00, 0.00, -0.00, -1.00, 304.4, 58.0)">s</text><text xml:space="preserve" font-family="AvenirNext-Medium" font-size="20.0" fill="#FF9C35" transform="matrix(1.00, 0.00, -0.00, -1.00, 313.2, 58.0)">e</text><text xml:space="preserve" font-family="AvenirNext-Medium" font-size="20.0" fill="#FF9C35" transform="matrix(1.00, 0.00, -0.00, -1.00, 324.7, 58.0)">l</text><text xml:space="preserve" font-family="AvenirNext-Medium" font-size="20.0" fill="#FF9C35" transform="matrix(1.00, 0.00, -0.00, -1.00, 329.9, 58.0)">f</text><text xml:space="preserve" font-family="AvenirNext-Medium" font-size="20.0" fill="#FF9C35" transform="matrix(1.00, 0.00, -0.00, -1.00, 335.7, 58.0)">ﬁ</text><text xml:space="preserve" font-family="AvenirNext-Medium" font-size="20.0" fill="#FF9C35" transform="matrix(1.00, 0.00, -0.00, -1.00, 347.2, 58.0)">r</text><text xml:space="preserve" font-family="AvenirNext-Medium" font-size="20.0" fill="#FF9C35" transform="matrix(1.00, 0.00, -0.00, -1.00, 354.4, 58.0)">s</text><text xml:space="preserve" font-family="AvenirNext-Medium" font-size="20.0" fill="#FF9C35" transform="matrix(1.00, 0.00, -0.00, -1.00, 363.3, 58.0)">t</text><text xml:space="preserve" font-family="AvenirNext-Medium" font-size="20.0" fill="#FF9C35" transform="matrix(1.00, 0.00, -0.00, -1.00, 369.9, 58.0)">.</text><text xml:space="preserve" font-family="AvenirNext-Medium" font-size="20.0" fill="#FF9C35" transform="matrix(1.00, 0.00, -0.00, -1.00, 375.1, 58.0)">t</text><text xml:space="preserve" font-family="AvenirNext-Medium" font-size="20.0" fill="#FF9C35" transform="matrix(1.00, 0.00, -0.00, -1.00, 381.6, 58.0)">r</text><text xml:space="preserve" font-family="AvenirNext-Medium" font-size="20.0" fill="#FF9C35" transform="matrix(1.00, 0.00, -0.00, -1.00, 388.5, 58.0)">o</text><text xml:space="preserve" font-family="AvenirNext-Medium" font-size="20.0" fill="#FF9C35" transform="matrix(1.00, 0.00, -0.00, -1.00, 400.7, 58.0)">y</text><text xml:space="preserve" font-family="AvenirNext-Medium" font-size="20.0" fill="#FF9C35" transform="matrix(1.00, 0.00, -0.00, -1.00, 410.8, 58.0)">h</text><text xml:space="preserve" font-family="AvenirNext-Medium" font-size="20.0" fill="#FF9C35" transform="matrix(1.00, 0.00, -0.00, -1.00, 422.5, 58.0)">u</text><text xml:space="preserve" font-family="AvenirNext-Medium" font-size="20.0" fill="#FF9C35" transform="matrix(1.00, 0.00, -0.00, -1.00, 434.1, 58.0)">n</text><text xml:space="preserve" font-family="AvenirNext-Medium" font-size="20.0" fill="#FF9C35" transform="matrix(1.00, 0.00, -0.00, -1.00, 445.8, 58.0)">t</text><text xml:space="preserve" font-family="AvenirNext-Medium" font-size="20.0" fill="#FF9C35" transform="matrix(1.00, 0.00, -0.00, -1.00, 452.3, 58.0)">.</text><text xml:space="preserve" font-family="AvenirNext-Medium" font-size="20.0" fill="#FF9C35" transform="matrix(1.00, 0.00, -0.00, -1.00, 457.5, 58.0)">c</text><text xml:space="preserve" font-family="AvenirNext-Medium" font-size="20.0" fill="#FF9C35" transform="matrix(1.00, 0.00, -0.00, -1.00, 467.4, 58.0)">o</text><text xml:space="preserve" font-family="AvenirNext-Medium" font-size="20.0" fill="#FF9C35" transform="matrix(1.00, 0.00, -0.00, -1.00, 479.6, 58.0)">m</text><g><clipPath id="clip-18"><path d="M 160.8 55.4 L 497.1 55.4 L 497.1 58.4 L 160.8 58.4 Z M 160.8 55.4 "></path></clipPath><g clip-path="url(#clip-18)"><path d="M 133.1 25.2 L 468.4 25.2 " fill="none" stroke="#FF9C35" stroke-width="1.00" stroke-miterlimit="0.00" transform="matrix(1.00, 0.00, 0.00, -1.00, 28.7, 82.1)"></path></g></g><text xml:space="preserve" font-family="DINAlternate-Bold" font-weight="bold" font-size="24.0" fill="#838686" transform="matrix(1.00, 0.00, -0.00, -1.00, 976.7, 707.4)">7</text></g></svg>