<?xml version="1.0" encoding="UTF-8" standalone="no"?><svg xmlns="http://www.w3.org/2000/svg" xmlns:xlink="http://www.w3.org/1999/xlink" clip-rule="evenodd" stroke-miterlimit="4.00" viewBox="0 0 1024 768"><desc>SVG generated by Keynote</desc><defs></defs><g transform="matrix(1.00, 0.00, -0.00, -1.00, 0.0, 768.0)"><path d="M 0.0 768.0 L 1024.0 768.0 L 1024.0 0.0 L 0.0 0.0 Z M 0.0 768.0 " fill="#212121"></path><path d="M 0.0 0.0 L 960.0 0.0 " fill="none" stroke="#A6AAA9" stroke-width="2.00" transform="matrix(1.00, 0.00, 0.00, -1.00, 32.0, 689.8)"></path><text xml:space="preserve" font-family="DINAlternate-Bold" font-weight="bold" font-size="24.0" fill="#FEFFFE" transform="matrix(1.00, 0.00, -0.00, -1.00, 36.0, 705.0)">C</text><text xml:space="preserve" font-family="DINAlternate-Bold" font-weight="bold" font-size="24.0" fill="#FEFFFE" transform="matrix(1.00, 0.00, -0.00, -1.00, 50.6, 705.0)">S</text><text xml:space="preserve" font-family="DINAlternate-Bold" font-weight="bold" font-size="24.0" fill="#FEFFFE" transform="matrix(1.00, 0.00, -0.00, -1.00, 65.5, 705.0)">P</text><text xml:space="preserve" font-family="DINCondensed-Bold" font-weight="bold" font-size="48.0" fill="#FF9C35" transform="matrix(1.00, 0.00, -0.00, -1.00, 36.0, 608.0)">H</text><text xml:space="preserve" font-family="DINCondensed-Bold" font-weight="bold" font-size="48.0" fill="#FF9C35" transform="matrix(1.00, 0.00, -0.00, -1.00, 56.4, 608.0)">E</text><text xml:space="preserve" font-family="DINCondensed-Bold" font-weight="bold" font-size="48.0" fill="#FF9C35" transform="matrix(1.00, 0.00, -0.00, -1.00, 74.2, 608.0)">L</text><text xml:space="preserve" font-family="DINCondensed-Bold" font-weight="bold" font-size="48.0" fill="#FF9C35" transform="matrix(1.00, 0.00, -0.00, -1.00, 92.0, 608.0)">L</text><text xml:space="preserve" font-family="DINCondensed-Bold" font-weight="bold" font-size="48.0" fill="#FF9C35" transform="matrix(1.00, 0.00, -0.00, -1.00, 109.7, 608.0)">O</text><text xml:space="preserve" font-family="DINCondensed-Bold" font-weight="bold" font-size="48.0" fill="#FF9C35" transform="matrix(1.00, 0.00, -0.00, -1.00, 130.2, 608.0)"> </text><text xml:space="preserve" font-family="DINCondensed-Bold" font-weight="bold" font-size="48.0" fill="#FF9C35" transform="matrix(1.00, 0.00, -0.00, -1.00, 139.1, 608.0)">W</text><text xml:space="preserve" font-family="DINCondensed-Bold" font-weight="bold" font-size="48.0" fill="#FF9C35" transform="matrix(1.00, 0.00, -0.00, -1.00, 167.0, 608.0)">O</text><text xml:space="preserve" font-family="DINCondensed-Bold" font-weight="bold" font-size="48.0" fill="#FF9C35" transform="matrix(1.00, 0.00, -0.00, -1.00, 187.4, 608.0)">R</text><text xml:space="preserve" font-family="DINCondensed-Bold" font-weight="bold" font-size="48.0" fill="#FF9C35" transform="matrix(1.00, 0.00, -0.00, -1.00, 207.9, 608.0)">L</text><text xml:space="preserve" font-family="DINCondensed-Bold" font-weight="bold" font-size="48.0" fill="#FF9C35" transform="matrix(1.00, 0.00, -0.00, -1.00, 225.6, 608.0)">D</text><text xml:space="preserve" font-family="AndaleMono" font-size="34.0" fill="#FEFFFE" transform="matrix(1.00, 0.00, -0.00, -1.00, 36.0, 517.0)">&lt;</text><text xml:space="preserve" font-family="AndaleMono" font-size="34.0" fill="#FEFFFE" transform="matrix(1.00, 0.00, -0.00, -1.00, 56.4, 517.0)">m</text><text xml:space="preserve" font-family="AndaleMono" font-size="34.0" fill="#FEFFFE" transform="matrix(1.00, 0.00, -0.00, -1.00, 76.8, 517.0)">e</text><text xml:space="preserve" font-family="AndaleMono" font-size="34.0" fill="#FEFFFE" transform="matrix(1.00, 0.00, -0.00, -1.00, 97.2, 517.0)">t</text><text xml:space="preserve" font-family="AndaleMono" font-size="34.0" fill="#FEFFFE" transform="matrix(1.00, 0.00, -0.00, -1.00, 117.6, 517.0)">a</text><text xml:space="preserve" font-family="AndaleMono" font-size="34.0" fill="#FEFFFE" transform="matrix(1.00, 0.00, -0.00, -1.00, 138.0, 517.0)"> </text><text xml:space="preserve" font-family="AndaleMono" font-size="34.0" fill="#FEFFFE" transform="matrix(1.00, 0.00, -0.00, -1.00, 158.4, 517.0)">h</text><text xml:space="preserve" font-family="AndaleMono" font-size="34.0" fill="#FEFFFE" transform="matrix(1.00, 0.00, -0.00, -1.00, 178.8, 517.0)">t</text><text xml:space="preserve" font-family="AndaleMono" font-size="34.0" fill="#FEFFFE" transform="matrix(1.00, 0.00, -0.00, -1.00, 199.3, 517.0)">t</text><text xml:space="preserve" font-family="AndaleMono" font-size="34.0" fill="#FEFFFE" transform="matrix(1.00, 0.00, -0.00, -1.00, 219.7, 517.0)">p</text><text xml:space="preserve" font-family="AndaleMono" font-size="34.0" fill="#FEFFFE" transform="matrix(1.00, 0.00, -0.00, -1.00, 240.1, 517.0)">-</text><text xml:space="preserve" font-family="AndaleMono" font-size="34.0" fill="#FEFFFE" transform="matrix(1.00, 0.00, -0.00, -1.00, 260.5, 517.0)">e</text><text xml:space="preserve" font-family="AndaleMono" font-size="34.0" fill="#FEFFFE" transform="matrix(1.00, 0.00, -0.00, -1.00, 280.9, 517.0)">q</text><text xml:space="preserve" font-family="AndaleMono" font-size="34.0" fill="#FEFFFE" transform="matrix(1.00, 0.00, -0.00, -1.00, 301.3, 517.0)">u</text><text xml:space="preserve" font-family="AndaleMono" font-size="34.0" fill="#FEFFFE" transform="matrix(1.00, 0.00, -0.00, -1.00, 321.7, 517.0)">i</text><text xml:space="preserve" font-family="AndaleMono" font-size="34.0" fill="#FEFFFE" transform="matrix(1.00, 0.00, -0.00, -1.00, 342.1, 517.0)">v</text><text xml:space="preserve" font-family="AndaleMono" font-size="34.0" fill="#FEFFFE" transform="matrix(1.00, 0.00, -0.00, -1.00, 362.5, 517.0)">=</text><text xml:space="preserve" font-family="AndaleMono" font-size="34.0" fill="#FEFFFE" transform="matrix(1.00, 0.00, -0.00, -1.00, 382.9, 517.0)">"</text><text xml:space="preserve" font-family="AndaleMono" font-size="34.0" fill="#FEFFFE" transform="matrix(1.00, 0.00, -0.00, -1.00, 403.3, 517.0)">C</text><text xml:space="preserve" font-family="AndaleMono" font-size="34.0" fill="#FEFFFE" transform="matrix(1.00, 0.00, -0.00, -1.00, 423.7, 517.0)">o</text><text xml:space="preserve" font-family="AndaleMono" font-size="34.0" fill="#FEFFFE" transform="matrix(1.00, 0.00, -0.00, -1.00, 444.1, 517.0)">n</text><text xml:space="preserve" font-family="AndaleMono" font-size="34.0" fill="#FEFFFE" transform="matrix(1.00, 0.00, -0.00, -1.00, 464.5, 517.0)">t</text><text xml:space="preserve" font-family="AndaleMono" font-size="34.0" fill="#FEFFFE" transform="matrix(1.00, 0.00, -0.00, -1.00, 484.9, 517.0)">e</text><text xml:space="preserve" font-family="AndaleMono" font-size="34.0" fill="#FEFFFE" transform="matrix(1.00, 0.00, -0.00, -1.00, 505.4, 517.0)">n</text><text xml:space="preserve" font-family="AndaleMono" font-size="34.0" fill="#FEFFFE" transform="matrix(1.00, 0.00, -0.00, -1.00, 525.8, 517.0)">t</text><text xml:space="preserve" font-family="AndaleMono" font-size="34.0" fill="#FEFFFE" transform="matrix(1.00, 0.00, -0.00, -1.00, 546.2, 517.0)">-</text><text xml:space="preserve" font-family="AndaleMono" font-size="34.0" fill="#FEFFFE" transform="matrix(1.00, 0.00, -0.00, -1.00, 566.6, 517.0)">S</text><text xml:space="preserve" font-family="AndaleMono" font-size="34.0" fill="#FEFFFE" transform="matrix(1.00, 0.00, -0.00, -1.00, 587.0, 517.0)">e</text><text xml:space="preserve" font-family="AndaleMono" font-size="34.0" fill="#FEFFFE" transform="matrix(1.00, 0.00, -0.00, -1.00, 607.4, 517.0)">c</text><text xml:space="preserve" font-family="AndaleMono" font-size="34.0" fill="#FEFFFE" transform="matrix(1.00, 0.00, -0.00, -1.00, 627.8, 517.0)">u</text><text xml:space="preserve" font-family="AndaleMono" font-size="34.0" fill="#FEFFFE" transform="matrix(1.00, 0.00, -0.00, -1.00, 648.2, 517.0)">r</text><text xml:space="preserve" font-family="AndaleMono" font-size="34.0" fill="#FEFFFE" transform="matrix(1.00, 0.00, -0.00, -1.00, 668.6, 517.0)">i</text><text xml:space="preserve" font-family="AndaleMono" font-size="34.0" fill="#FEFFFE" transform="matrix(1.00, 0.00, -0.00, -1.00, 689.0, 517.0)">t</text><text xml:space="preserve" font-family="AndaleMono" font-size="34.0" fill="#FEFFFE" transform="matrix(1.00, 0.00, -0.00, -1.00, 709.4, 517.0)">y</text><text xml:space="preserve" font-family="AndaleMono" font-size="34.0" fill="#FEFFFE" transform="matrix(1.00, 0.00, -0.00, -1.00, 729.8, 517.0)">-</text><text xml:space="preserve" font-family="AndaleMono" font-size="34.0" fill="#FEFFFE" transform="matrix(1.00, 0.00, -0.00, -1.00, 750.2, 517.0)">P</text><text xml:space="preserve" font-family="AndaleMono" font-size="34.0" fill="#FEFFFE" transform="matrix(1.00, 0.00, -0.00, -1.00, 770.6, 517.0)">o</text><text xml:space="preserve" font-family="AndaleMono" font-size="34.0" fill="#FEFFFE" transform="matrix(1.00, 0.00, -0.00, -1.00, 791.0, 517.0)">l</text><text xml:space="preserve" font-family="AndaleMono" font-size="34.0" fill="#FEFFFE" transform="matrix(1.00, 0.00, -0.00, -1.00, 811.5, 517.0)">i</text><text xml:space="preserve" font-family="AndaleMono" font-size="34.0" fill="#FEFFFE" transform="matrix(1.00, 0.00, -0.00, -1.00, 831.9, 517.0)">c</text><text xml:space="preserve" font-family="AndaleMono" font-size="34.0" fill="#FEFFFE" transform="matrix(1.00, 0.00, -0.00, -1.00, 852.3, 517.0)">y</text><text xml:space="preserve" font-family="AndaleMono" font-size="34.0" fill="#FEFFFE" transform="matrix(1.00, 0.00, -0.00, -1.00, 872.7, 517.0)">"</text><text xml:space="preserve" font-family="AndaleMono" font-size="34.0" fill="#FEFFFE" transform="matrix(1.00, 0.00, -0.00, -1.00, 893.1, 517.0)"> </text><text xml:space="preserve" font-family="AndaleMono" font-size="34.0" fill="#FEFFFE" transform="matrix(1.00, 0.00, -0.00, -1.00, 913.3, 517.0)"> </text><text xml:space="preserve" font-family="AndaleMono" font-size="34.0" fill="#FEFFFE" transform="matrix(1.00, 0.00, -0.00, -1.00, 36.0, 451.0)">c</text><text xml:space="preserve" font-family="AndaleMono" font-size="34.0" fill="#FEFFFE" transform="matrix(1.00, 0.00, -0.00, -1.00, 56.4, 451.0)">o</text><text xml:space="preserve" font-family="AndaleMono" font-size="34.0" fill="#FEFFFE" transform="matrix(1.00, 0.00, -0.00, -1.00, 76.8, 451.0)">n</text><text xml:space="preserve" font-family="AndaleMono" font-size="34.0" fill="#FEFFFE" transform="matrix(1.00, 0.00, -0.00, -1.00, 97.2, 451.0)">t</text><text xml:space="preserve" font-family="AndaleMono" font-size="34.0" fill="#FEFFFE" transform="matrix(1.00, 0.00, -0.00, -1.00, 117.6, 451.0)">e</text><text xml:space="preserve" font-family="AndaleMono" font-size="34.0" fill="#FEFFFE" transform="matrix(1.00, 0.00, -0.00, -1.00, 138.0, 451.0)">n</text><text xml:space="preserve" font-family="AndaleMono" font-size="34.0" fill="#FEFFFE" transform="matrix(1.00, 0.00, -0.00, -1.00, 158.4, 451.0)">t</text><text xml:space="preserve" font-family="AndaleMono" font-size="34.0" fill="#FEFFFE" transform="matrix(1.00, 0.00, -0.00, -1.00, 178.8, 451.0)">=</text><text xml:space="preserve" font-family="AndaleMono" font-size="34.0" fill="#FEFFFE" transform="matrix(1.00, 0.00, -0.00, -1.00, 199.3, 451.0)">"</text><text xml:space="preserve" font-family="AndaleMono" font-size="34.0" fill="#FEFFFE" transform="matrix(1.00, 0.00, -0.00, -1.00, 219.7, 451.0)">d</text><text xml:space="preserve" font-family="AndaleMono" font-size="34.0" fill="#FEFFFE" transform="matrix(1.00, 0.00, -0.00, -1.00, 240.1, 451.0)">e</text><text xml:space="preserve" font-family="AndaleMono" font-size="34.0" fill="#FEFFFE" transform="matrix(1.00, 0.00, -0.00, -1.00, 260.5, 451.0)">f</text><text xml:space="preserve" font-family="AndaleMono" font-size="34.0" fill="#FEFFFE" transform="matrix(1.00, 0.00, -0.00, -1.00, 280.9, 451.0)">a</text><text xml:space="preserve" font-family="AndaleMono" font-size="34.0" fill="#FEFFFE" transform="matrix(1.00, 0.00, -0.00, -1.00, 301.3, 451.0)">u</text><text xml:space="preserve" font-family="AndaleMono" font-size="34.0" fill="#FEFFFE" transform="matrix(1.00, 0.00, -0.00, -1.00, 321.7, 451.0)">l</text><text xml:space="preserve" font-family="AndaleMono" font-size="34.0" fill="#FEFFFE" transform="matrix(1.00, 0.00, -0.00, -1.00, 342.1, 451.0)">t</text><text xml:space="preserve" font-family="AndaleMono" font-size="34.0" fill="#FEFFFE" transform="matrix(1.00, 0.00, -0.00, -1.00, 362.5, 451.0)">-</text><text xml:space="preserve" font-family="AndaleMono" font-size="34.0" fill="#FEFFFE" transform="matrix(1.00, 0.00, -0.00, -1.00, 382.9, 451.0)">s</text><text xml:space="preserve" font-family="AndaleMono" font-size="34.0" fill="#FEFFFE" transform="matrix(1.00, 0.00, -0.00, -1.00, 403.3, 451.0)">r</text><text xml:space="preserve" font-family="AndaleMono" font-size="34.0" fill="#FEFFFE" transform="matrix(1.00, 0.00, -0.00, -1.00, 423.7, 451.0)">c</text><text xml:space="preserve" font-family="AndaleMono" font-size="34.0" fill="#FEFFFE" transform="matrix(1.00, 0.00, -0.00, -1.00, 444.1, 451.0)"> </text><text xml:space="preserve" font-family="AndaleMono" font-size="34.0" fill="#FEFFFE" transform="matrix(1.00, 0.00, -0.00, -1.00, 464.5, 451.0)">'</text><text xml:space="preserve" font-family="AndaleMono" font-size="34.0" fill="#FEFFFE" transform="matrix(1.00, 0.00, -0.00, -1.00, 484.9, 451.0)">s</text><text xml:space="preserve" font-family="AndaleMono" font-size="34.0" fill="#FEFFFE" transform="matrix(1.00, 0.00, -0.00, -1.00, 505.4, 451.0)">e</text><text xml:space="preserve" font-family="AndaleMono" font-size="34.0" fill="#FEFFFE" transform="matrix(1.00, 0.00, -0.00, -1.00, 525.8, 451.0)">l</text><text xml:space="preserve" font-family="AndaleMono" font-size="34.0" fill="#FEFFFE" transform="matrix(1.00, 0.00, -0.00, -1.00, 546.2, 451.0)">f</text><text xml:space="preserve" font-family="AndaleMono" font-size="34.0" fill="#FEFFFE" transform="matrix(1.00, 0.00, -0.00, -1.00, 566.6, 451.0)">'</text><text xml:space="preserve" font-family="AndaleMono" font-size="34.0" fill="#FEFFFE" transform="matrix(1.00, 0.00, -0.00, -1.00, 587.0, 451.0)"> </text><text xml:space="preserve" font-family="AndaleMono" font-size="34.0" fill="#FEFFFE" transform="matrix(1.00, 0.00, -0.00, -1.00, 607.4, 451.0)">d</text><text xml:space="preserve" font-family="AndaleMono" font-size="34.0" fill="#FEFFFE" transform="matrix(1.00, 0.00, -0.00, -1.00, 627.8, 451.0)">a</text><text xml:space="preserve" font-family="AndaleMono" font-size="34.0" fill="#FEFFFE" transform="matrix(1.00, 0.00, -0.00, -1.00, 648.2, 451.0)">t</text><text xml:space="preserve" font-family="AndaleMono" font-size="34.0" fill="#FEFFFE" transform="matrix(1.00, 0.00, -0.00, -1.00, 668.6, 451.0)">a</text><text xml:space="preserve" font-family="AndaleMono" font-size="34.0" fill="#FEFFFE" transform="matrix(1.00, 0.00, -0.00, -1.00, 689.0, 451.0)">:</text><text xml:space="preserve" font-family="AndaleMono" font-size="34.0" fill="#FEFFFE" transform="matrix(1.00, 0.00, -0.00, -1.00, 709.4, 451.0)"> </text><text xml:space="preserve" font-family="AndaleMono" font-size="34.0" fill="#FEFFFE" transform="matrix(1.00, 0.00, -0.00, -1.00, 729.8, 451.0)">g</text><text xml:space="preserve" font-family="AndaleMono" font-size="34.0" fill="#FEFFFE" transform="matrix(1.00, 0.00, -0.00, -1.00, 750.2, 451.0)">a</text><text xml:space="preserve" font-family="AndaleMono" font-size="34.0" fill="#FEFFFE" transform="matrix(1.00, 0.00, -0.00, -1.00, 770.6, 451.0)">p</text><text xml:space="preserve" font-family="AndaleMono" font-size="34.0" fill="#FEFFFE" transform="matrix(1.00, 0.00, -0.00, -1.00, 791.0, 451.0)">:</text><text xml:space="preserve" font-family="AndaleMono" font-size="34.0" fill="#FEFFFE" transform="matrix(1.00, 0.00, -0.00, -1.00, 811.5, 451.0)"> </text><text xml:space="preserve" font-family="AndaleMono" font-size="34.0" fill="#FEFFFE" transform="matrix(1.00, 0.00, -0.00, -1.00, 36.0, 413.0)">h</text><text xml:space="preserve" font-family="AndaleMono" font-size="34.0" fill="#FEFFFE" transform="matrix(1.00, 0.00, -0.00, -1.00, 56.4, 413.0)">t</text><text xml:space="preserve" font-family="AndaleMono" font-size="34.0" fill="#FEFFFE" transform="matrix(1.00, 0.00, -0.00, -1.00, 76.8, 413.0)">t</text><text xml:space="preserve" font-family="AndaleMono" font-size="34.0" fill="#FEFFFE" transform="matrix(1.00, 0.00, -0.00, -1.00, 97.2, 413.0)">p</text><text xml:space="preserve" font-family="AndaleMono" font-size="34.0" fill="#FEFFFE" transform="matrix(1.00, 0.00, -0.00, -1.00, 117.6, 413.0)">s</text><text xml:space="preserve" font-family="AndaleMono" font-size="34.0" fill="#FEFFFE" transform="matrix(1.00, 0.00, -0.00, -1.00, 138.0, 413.0)">:</text><text xml:space="preserve" font-family="AndaleMono" font-size="34.0" fill="#FEFFFE" transform="matrix(1.00, 0.00, -0.00, -1.00, 158.4, 413.0)">/</text><text xml:space="preserve" font-family="AndaleMono" font-size="34.0" fill="#FEFFFE" transform="matrix(1.00, 0.00, -0.00, -1.00, 178.8, 413.0)">/</text><text xml:space="preserve" font-family="AndaleMono" font-size="34.0" fill="#FEFFFE" transform="matrix(1.00, 0.00, -0.00, -1.00, 199.3, 413.0)">s</text><text xml:space="preserve" font-family="AndaleMono" font-size="34.0" fill="#FEFFFE" transform="matrix(1.00, 0.00, -0.00, -1.00, 219.7, 413.0)">s</text><text xml:space="preserve" font-family="AndaleMono" font-size="34.0" fill="#FEFFFE" transform="matrix(1.00, 0.00, -0.00, -1.00, 240.1, 413.0)">l</text><text xml:space="preserve" font-family="AndaleMono" font-size="34.0" fill="#FEFFFE" transform="matrix(1.00, 0.00, -0.00, -1.00, 260.5, 413.0)">.</text><text xml:space="preserve" font-family="AndaleMono" font-size="34.0" fill="#FEFFFE" transform="matrix(1.00, 0.00, -0.00, -1.00, 280.9, 413.0)">g</text><text xml:space="preserve" font-family="AndaleMono" font-size="34.0" fill="#FEFFFE" transform="matrix(1.00, 0.00, -0.00, -1.00, 301.3, 413.0)">s</text><text xml:space="preserve" font-family="AndaleMono" font-size="34.0" fill="#FEFFFE" transform="matrix(1.00, 0.00, -0.00, -1.00, 321.7, 413.0)">t</text><text xml:space="preserve" font-family="AndaleMono" font-size="34.0" fill="#FEFFFE" transform="matrix(1.00, 0.00, -0.00, -1.00, 342.1, 413.0)">a</text><text xml:space="preserve" font-family="AndaleMono" font-size="34.0" fill="#FEFFFE" transform="matrix(1.00, 0.00, -0.00, -1.00, 362.5, 413.0)">t</text><text xml:space="preserve" font-family="AndaleMono" font-size="34.0" fill="#FEFFFE" transform="matrix(1.00, 0.00, -0.00, -1.00, 382.9, 413.0)">i</text><text xml:space="preserve" font-family="AndaleMono" font-size="34.0" fill="#FEFFFE" transform="matrix(1.00, 0.00, -0.00, -1.00, 403.3, 413.0)">c</text><text xml:space="preserve" font-family="AndaleMono" font-size="34.0" fill="#FEFFFE" transform="matrix(1.00, 0.00, -0.00, -1.00, 423.7, 413.0)">.</text><text xml:space="preserve" font-family="AndaleMono" font-size="34.0" fill="#FEFFFE" transform="matrix(1.00, 0.00, -0.00, -1.00, 444.1, 413.0)">c</text><text xml:space="preserve" font-family="AndaleMono" font-size="34.0" fill="#FEFFFE" transform="matrix(1.00, 0.00, -0.00, -1.00, 464.5, 413.0)">o</text><text xml:space="preserve" font-family="AndaleMono" font-size="34.0" fill="#FEFFFE" transform="matrix(1.00, 0.00, -0.00, -1.00, 484.9, 413.0)">m</text><text xml:space="preserve" font-family="AndaleMono" font-size="34.0" fill="#FEFFFE" transform="matrix(1.00, 0.00, -0.00, -1.00, 505.4, 413.0)">;</text><text xml:space="preserve" font-family="AndaleMono" font-size="34.0" fill="#FEFFFE" transform="matrix(1.00, 0.00, -0.00, -1.00, 525.8, 413.0)"> </text><text xml:space="preserve" font-family="AndaleMono" font-size="34.0" fill="#FEFFFE" transform="matrix(1.00, 0.00, -0.00, -1.00, 546.1, 413.0)"> </text><text xml:space="preserve" font-family="AndaleMono" font-size="34.0" fill="#FEFFFE" transform="matrix(1.00, 0.00, -0.00, -1.00, 36.0, 347.0)">s</text><text xml:space="preserve" font-family="AndaleMono" font-size="34.0" fill="#FEFFFE" transform="matrix(1.00, 0.00, -0.00, -1.00, 56.4, 347.0)">t</text><text xml:space="preserve" font-family="AndaleMono" font-size="34.0" fill="#FEFFFE" transform="matrix(1.00, 0.00, -0.00, -1.00, 76.8, 347.0)">y</text><text xml:space="preserve" font-family="AndaleMono" font-size="34.0" fill="#FEFFFE" transform="matrix(1.00, 0.00, -0.00, -1.00, 97.2, 347.0)">l</text><text xml:space="preserve" font-family="AndaleMono" font-size="34.0" fill="#FEFFFE" transform="matrix(1.00, 0.00, -0.00, -1.00, 117.6, 347.0)">e</text><text xml:space="preserve" font-family="AndaleMono" font-size="34.0" fill="#FEFFFE" transform="matrix(1.00, 0.00, -0.00, -1.00, 138.0, 347.0)">-</text><text xml:space="preserve" font-family="AndaleMono" font-size="34.0" fill="#FEFFFE" transform="matrix(1.00, 0.00, -0.00, -1.00, 158.4, 347.0)">s</text><text xml:space="preserve" font-family="AndaleMono" font-size="34.0" fill="#FEFFFE" transform="matrix(1.00, 0.00, -0.00, -1.00, 178.8, 347.0)">r</text><text xml:space="preserve" font-family="AndaleMono" font-size="34.0" fill="#FEFFFE" transform="matrix(1.00, 0.00, -0.00, -1.00, 199.3, 347.0)">c</text><text xml:space="preserve" font-family="AndaleMono" font-size="34.0" fill="#FEFFFE" transform="matrix(1.00, 0.00, -0.00, -1.00, 219.7, 347.0)"> </text><text xml:space="preserve" font-family="AndaleMono" font-size="34.0" fill="#FEFFFE" transform="matrix(1.00, 0.00, -0.00, -1.00, 240.1, 347.0)">'</text><text xml:space="preserve" font-family="AndaleMono" font-size="34.0" fill="#FEFFFE" transform="matrix(1.00, 0.00, -0.00, -1.00, 260.5, 347.0)">s</text><text xml:space="preserve" font-family="AndaleMono" font-size="34.0" fill="#FEFFFE" transform="matrix(1.00, 0.00, -0.00, -1.00, 280.9, 347.0)">e</text><text xml:space="preserve" font-family="AndaleMono" font-size="34.0" fill="#FEFFFE" transform="matrix(1.00, 0.00, -0.00, -1.00, 301.3, 347.0)">l</text><text xml:space="preserve" font-family="AndaleMono" font-size="34.0" fill="#FEFFFE" transform="matrix(1.00, 0.00, -0.00, -1.00, 321.7, 347.0)">f</text><text xml:space="preserve" font-family="AndaleMono" font-size="34.0" fill="#FEFFFE" transform="matrix(1.00, 0.00, -0.00, -1.00, 342.1, 347.0)">'</text><text xml:space="preserve" font-family="AndaleMono" font-size="34.0" fill="#FEFFFE" transform="matrix(1.00, 0.00, -0.00, -1.00, 362.5, 347.0)"> </text><text xml:space="preserve" font-family="AndaleMono" font-size="34.0" fill="#FEFFFE" transform="matrix(1.00, 0.00, -0.00, -1.00, 382.9, 347.0)">'</text><text xml:space="preserve" font-family="AndaleMono" font-size="34.0" fill="#FEFFFE" transform="matrix(1.00, 0.00, -0.00, -1.00, 403.3, 347.0)">u</text><text xml:space="preserve" font-family="AndaleMono" font-size="34.0" fill="#FEFFFE" transform="matrix(1.00, 0.00, -0.00, -1.00, 423.7, 347.0)">n</text><text xml:space="preserve" font-family="AndaleMono" font-size="34.0" fill="#FEFFFE" transform="matrix(1.00, 0.00, -0.00, -1.00, 444.1, 347.0)">s</text><text xml:space="preserve" font-family="AndaleMono" font-size="34.0" fill="#FEFFFE" transform="matrix(1.00, 0.00, -0.00, -1.00, 464.5, 347.0)">a</text><text xml:space="preserve" font-family="AndaleMono" font-size="34.0" fill="#FEFFFE" transform="matrix(1.00, 0.00, -0.00, -1.00, 484.9, 347.0)">f</text><text xml:space="preserve" font-family="AndaleMono" font-size="34.0" fill="#FEFFFE" transform="matrix(1.00, 0.00, -0.00, -1.00, 505.4, 347.0)">e</text><text xml:space="preserve" font-family="AndaleMono" font-size="34.0" fill="#FEFFFE" transform="matrix(1.00, 0.00, -0.00, -1.00, 525.8, 347.0)">-</text><text xml:space="preserve" font-family="AndaleMono" font-size="34.0" fill="#FEFFFE" transform="matrix(1.00, 0.00, -0.00, -1.00, 546.2, 347.0)">i</text><text xml:space="preserve" font-family="AndaleMono" font-size="34.0" fill="#FEFFFE" transform="matrix(1.00, 0.00, -0.00, -1.00, 566.6, 347.0)">n</text><text xml:space="preserve" font-family="AndaleMono" font-size="34.0" fill="#FEFFFE" transform="matrix(1.00, 0.00, -0.00, -1.00, 587.0, 347.0)">l</text><text xml:space="preserve" font-family="AndaleMono" font-size="34.0" fill="#FEFFFE" transform="matrix(1.00, 0.00, -0.00, -1.00, 607.4, 347.0)">i</text><text xml:space="preserve" font-family="AndaleMono" font-size="34.0" fill="#FEFFFE" transform="matrix(1.00, 0.00, -0.00, -1.00, 627.8, 347.0)">n</text><text xml:space="preserve" font-family="AndaleMono" font-size="34.0" fill="#FEFFFE" transform="matrix(1.00, 0.00, -0.00, -1.00, 648.2, 347.0)">e</text><text xml:space="preserve" font-family="AndaleMono" font-size="34.0" fill="#FEFFFE" transform="matrix(1.00, 0.00, -0.00, -1.00, 668.6, 347.0)">'</text><text xml:space="preserve" font-family="AndaleMono" font-size="34.0" fill="#FEFFFE" transform="matrix(1.00, 0.00, -0.00, -1.00, 689.0, 347.0)">;</text><text xml:space="preserve" font-family="AndaleMono" font-size="34.0" fill="#FEFFFE" transform="matrix(1.00, 0.00, -0.00, -1.00, 709.4, 347.0)"> </text><text xml:space="preserve" font-family="AndaleMono" font-size="34.0" fill="#FEFFFE" transform="matrix(1.00, 0.00, -0.00, -1.00, 729.7, 347.0)"> </text><text xml:space="preserve" font-family="AndaleMono" font-size="34.0" fill="#FEFFFE" transform="matrix(1.00, 0.00, -0.00, -1.00, 36.0, 281.0)">m</text><text xml:space="preserve" font-family="AndaleMono" font-size="34.0" fill="#FEFFFE" transform="matrix(1.00, 0.00, -0.00, -1.00, 56.4, 281.0)">e</text><text xml:space="preserve" font-family="AndaleMono" font-size="34.0" fill="#FEFFFE" transform="matrix(1.00, 0.00, -0.00, -1.00, 76.8, 281.0)">d</text><text xml:space="preserve" font-family="AndaleMono" font-size="34.0" fill="#FEFFFE" transform="matrix(1.00, 0.00, -0.00, -1.00, 97.2, 281.0)">i</text><text xml:space="preserve" font-family="AndaleMono" font-size="34.0" fill="#FEFFFE" transform="matrix(1.00, 0.00, -0.00, -1.00, 117.6, 281.0)">a</text><text xml:space="preserve" font-family="AndaleMono" font-size="34.0" fill="#FEFFFE" transform="matrix(1.00, 0.00, -0.00, -1.00, 138.0, 281.0)">-</text><text xml:space="preserve" font-family="AndaleMono" font-size="34.0" fill="#FEFFFE" transform="matrix(1.00, 0.00, -0.00, -1.00, 158.4, 281.0)">s</text><text xml:space="preserve" font-family="AndaleMono" font-size="34.0" fill="#FEFFFE" transform="matrix(1.00, 0.00, -0.00, -1.00, 178.8, 281.0)">r</text><text xml:space="preserve" font-family="AndaleMono" font-size="34.0" fill="#FEFFFE" transform="matrix(1.00, 0.00, -0.00, -1.00, 199.3, 281.0)">c</text><text xml:space="preserve" font-family="AndaleMono" font-size="34.0" fill="#FEFFFE" transform="matrix(1.00, 0.00, -0.00, -1.00, 219.7, 281.0)"> </text><text xml:space="preserve" font-family="AndaleMono" font-size="34.0" fill="#FEFFFE" transform="matrix(1.00, 0.00, -0.00, -1.00, 240.1, 281.0)">*</text><text xml:space="preserve" font-family="AndaleMono" font-size="34.0" fill="#FEFFFE" transform="matrix(1.00, 0.00, -0.00, -1.00, 260.5, 281.0)">"</text><text xml:space="preserve" font-family="AndaleMono" font-size="34.0" fill="#FEFFFE" transform="matrix(1.00, 0.00, -0.00, -1.00, 280.9, 281.0)">&gt;</text><text xml:space="preserve" font-family="AndaleMono" font-size="34.0" fill="#FEFFFE" transform="matrix(1.00, 0.00, -0.00, -1.00, 301.3, 281.0)"> </text><text xml:space="preserve" font-family="DINAlternate-Bold" font-weight="bold" font-size="24.0" fill="#838686" transform="matrix(1.00, 0.00, -0.00, -1.00, 964.6, 707.4)">5</text><text xml:space="preserve" font-family="DINAlternate-Bold" font-weight="bold" font-size="24.0" fill="#838686" transform="matrix(1.00, 0.00, -0.00, -1.00, 976.1, 707.4)">2</text></g></svg>