<?xml version="1.0" encoding="UTF-8" standalone="no"?><svg xmlns="http://www.w3.org/2000/svg" xmlns:xlink="http://www.w3.org/1999/xlink" clip-rule="evenodd" stroke-miterlimit="4.00" viewBox="0 0 1024 768"><desc>SVG generated by Keynote</desc><defs></defs><g transform="matrix(1.00, 0.00, -0.00, -1.00, 0.0, 768.0)"><path d="M 0.0 768.0 L 1024.0 768.0 L 1024.0 0.0 L 0.0 0.0 Z M 0.0 768.0 " fill="#212121"></path><path d="M 0.0 0.0 L 960.0 0.0 " fill="none" stroke="#A6AAA8" stroke-width="3.00" transform="matrix(1.00, 0.00, 0.00, -1.00, 32.0, 284.5)"></path><text xml:space="preserve" font-family="DINCondensed-Bold" font-weight="bold" font-size="166.6" fill="#FF9C35" transform="matrix(1.00, 0.00, -0.00, -1.00, 36.0, 139.0)">W</text><text xml:space="preserve" font-family="DINCondensed-Bold" font-weight="bold" font-size="166.6" fill="#FF9C35" transform="matrix(1.00, 0.00, -0.00, -1.00, 134.8, 139.0)">H</text><text xml:space="preserve" font-family="DINCondensed-Bold" font-weight="bold" font-size="166.6" fill="#FF9C35" transform="matrix(1.00, 0.00, -0.00, -1.00, 205.8, 139.0)">A</text><text xml:space="preserve" font-family="DINCondensed-Bold" font-weight="bold" font-size="166.6" fill="#FF9C35" transform="matrix(1.00, 0.00, -0.00, -1.00, 264.4, 139.0)">T</text><text xml:space="preserve" font-family="DINCondensed-Bold" font-weight="bold" font-size="166.6" fill="#FF9C35" transform="matrix(1.00, 0.00, -0.00, -1.00, 319.7, 139.0)"> </text><text xml:space="preserve" font-family="DINCondensed-Bold" font-weight="bold" font-size="166.6" fill="#FF9C35" transform="matrix(1.00, 0.00, -0.00, -1.00, 350.7, 139.0)">C</text><text xml:space="preserve" font-family="DINCondensed-Bold" font-weight="bold" font-size="166.6" fill="#FF9C35" transform="matrix(1.00, 0.00, -0.00, -1.00, 418.5, 139.0)">A</text><text xml:space="preserve" font-family="DINCondensed-Bold" font-weight="bold" font-size="166.6" fill="#FF9C35" transform="matrix(1.00, 0.00, -0.00, -1.00, 486.3, 139.0)">N</text><text xml:space="preserve" font-family="DINCondensed-Bold" font-weight="bold" font-size="166.6" fill="#FF9C35" transform="matrix(1.00, 0.00, -0.00, -1.00, 560.3, 139.0)"> </text><text xml:space="preserve" font-family="DINCondensed-Bold" font-weight="bold" font-size="166.6" fill="#FF9C35" transform="matrix(1.00, 0.00, -0.00, -1.00, 591.3, 139.0)">W</text><text xml:space="preserve" font-family="DINCondensed-Bold" font-weight="bold" font-size="166.6" fill="#FF9C35" transform="matrix(1.00, 0.00, -0.00, -1.00, 690.1, 139.0)">E</text><text xml:space="preserve" font-family="DINCondensed-Bold" font-weight="bold" font-size="166.6" fill="#FF9C35" transform="matrix(1.00, 0.00, -0.00, -1.00, 751.7, 139.0)"> </text><text xml:space="preserve" font-family="DINCondensed-Bold" font-weight="bold" font-size="166.6" fill="#FF9C35" transform="matrix(1.00, 0.00, -0.00, -1.00, 782.7, 139.0)">D</text><text xml:space="preserve" font-family="DINCondensed-Bold" font-weight="bold" font-size="166.6" fill="#FF9C35" transform="matrix(1.00, 0.00, -0.00, -1.00, 853.7, 139.0)">O</text><text xml:space="preserve" font-family="DINCondensed-Bold" font-weight="bold" font-size="166.6" fill="#FF9C35" transform="matrix(1.00, 0.00, -0.00, -1.00, 924.6, 139.0)">?</text><text xml:space="preserve" font-family="DINAlternate-Bold" font-weight="bold" font-size="54.0" fill="#FEFFFE" transform="matrix(1.00, 0.00, -0.00, -1.00, 36.0, 306.0)">S</text><text xml:space="preserve" font-family="DINAlternate-Bold" font-weight="bold" font-size="54.0" fill="#FEFFFE" transform="matrix(1.00, 0.00, -0.00, -1.00, 67.0, 306.0)">Q</text><text xml:space="preserve" font-family="DINAlternate-Bold" font-weight="bold" font-size="54.0" fill="#FEFFFE" transform="matrix(1.00, 0.00, -0.00, -1.00, 99.9, 306.0)">L</text><text xml:space="preserve" font-family="DINAlternate-Bold" font-weight="bold" font-size="54.0" fill="#FEFFFE" transform="matrix(1.00, 0.00, -0.00, -1.00, 129.9, 306.0)"> </text><text xml:space="preserve" font-family="DINAlternate-Bold" font-weight="bold" font-size="54.0" fill="#FEFFFE" transform="matrix(1.00, 0.00, -0.00, -1.00, 142.9, 306.0)">I</text><text xml:space="preserve" font-family="DINAlternate-Bold" font-weight="bold" font-size="54.0" fill="#FEFFFE" transform="matrix(1.00, 0.00, -0.00, -1.00, 156.8, 306.0)">N</text><text xml:space="preserve" font-family="DINAlternate-Bold" font-weight="bold" font-size="54.0" fill="#FEFFFE" transform="matrix(1.00, 0.00, -0.00, -1.00, 193.7, 306.0)">J</text><text xml:space="preserve" font-family="DINAlternate-Bold" font-weight="bold" font-size="54.0" fill="#FEFFFE" transform="matrix(1.00, 0.00, -0.00, -1.00, 219.7, 306.0)">E</text><text xml:space="preserve" font-family="DINAlternate-Bold" font-weight="bold" font-size="54.0" fill="#FEFFFE" transform="matrix(1.00, 0.00, -0.00, -1.00, 249.7, 306.0)">C</text><text xml:space="preserve" font-family="DINAlternate-Bold" font-weight="bold" font-size="54.0" fill="#FEFFFE" transform="matrix(1.00, 0.00, -0.00, -1.00, 279.8, 306.0)">T</text><text xml:space="preserve" font-family="DINAlternate-Bold" font-weight="bold" font-size="54.0" fill="#FEFFFE" transform="matrix(1.00, 0.00, -0.00, -1.00, 306.8, 306.0)">I</text><text xml:space="preserve" font-family="DINAlternate-Bold" font-weight="bold" font-size="54.0" fill="#FEFFFE" transform="matrix(1.00, 0.00, -0.00, -1.00, 320.7, 306.0)">O</text><text xml:space="preserve" font-family="DINAlternate-Bold" font-weight="bold" font-size="54.0" fill="#FEFFFE" transform="matrix(1.00, 0.00, -0.00, -1.00, 353.6, 306.0)">N</text><text xml:space="preserve" font-family="DINAlternate-Bold" font-weight="bold" font-size="24.0" fill="#838686" transform="matrix(1.00, 0.00, -0.00, -1.00, 965.2, 707.4)">1</text><text xml:space="preserve" font-family="DINAlternate-Bold" font-weight="bold" font-size="24.0" fill="#838686" transform="matrix(1.00, 0.00, -0.00, -1.00, 976.7, 707.4)">7</text></g></svg>