<?xml version="1.0" encoding="UTF-8" standalone="no"?><svg xmlns="http://www.w3.org/2000/svg" xmlns:xlink="http://www.w3.org/1999/xlink" clip-rule="evenodd" stroke-miterlimit="4.00" viewBox="0 0 1024 768"><desc>SVG generated by Keynote</desc><defs></defs><g transform="matrix(1.00, 0.00, -0.00, -1.00, 0.0, 768.0)"><path d="M 0.0 768.0 L 1024.0 768.0 L 1024.0 0.0 L 0.0 0.0 Z M 0.0 768.0 " fill="#212121"></path><path d="M 0.0 0.0 L 960.0 0.0 " fill="none" stroke="#A6AAA8" stroke-width="3.00" transform="matrix(1.00, 0.00, 0.00, -1.00, 32.0, 284.5)"></path><text xml:space="preserve" font-family="DINCondensed-Bold" font-weight="bold" font-size="170.0" fill="#FF9C35" transform="matrix(1.00, 0.00, -0.00, -1.00, 36.0, 137.0)">C</text><text xml:space="preserve" font-family="DINCondensed-Bold" font-weight="bold" font-size="170.0" fill="#FF9C35" transform="matrix(1.00, 0.00, -0.00, -1.00, 105.2, 137.0)">S</text><text xml:space="preserve" font-family="DINCondensed-Bold" font-weight="bold" font-size="170.0" fill="#FF9C35" transform="matrix(1.00, 0.00, -0.00, -1.00, 174.2, 137.0)">P</text><text xml:space="preserve" font-family="DINAlternate-Bold" font-weight="bold" font-size="54.0" fill="#FEFFFE" transform="matrix(1.00, 0.00, -0.00, -1.00, 36.0, 306.0)">C</text><text xml:space="preserve" font-family="DINAlternate-Bold" font-weight="bold" font-size="54.0" fill="#FEFFFE" transform="matrix(1.00, 0.00, -0.00, -1.00, 66.0, 306.0)">O</text><text xml:space="preserve" font-family="DINAlternate-Bold" font-weight="bold" font-size="54.0" fill="#FEFFFE" transform="matrix(1.00, 0.00, -0.00, -1.00, 99.0, 306.0)">N</text><text xml:space="preserve" font-family="DINAlternate-Bold" font-weight="bold" font-size="54.0" fill="#FEFFFE" transform="matrix(1.00, 0.00, -0.00, -1.00, 135.9, 306.0)">T</text><text xml:space="preserve" font-family="DINAlternate-Bold" font-weight="bold" font-size="54.0" fill="#FEFFFE" transform="matrix(1.00, 0.00, -0.00, -1.00, 162.9, 306.0)">E</text><text xml:space="preserve" font-family="DINAlternate-Bold" font-weight="bold" font-size="54.0" fill="#FEFFFE" transform="matrix(1.00, 0.00, -0.00, -1.00, 193.0, 306.0)">N</text><text xml:space="preserve" font-family="DINAlternate-Bold" font-weight="bold" font-size="54.0" fill="#FEFFFE" transform="matrix(1.00, 0.00, -0.00, -1.00, 229.9, 306.0)">T</text><text xml:space="preserve" font-family="DINAlternate-Bold" font-weight="bold" font-size="54.0" fill="#FEFFFE" transform="matrix(1.00, 0.00, -0.00, -1.00, 256.9, 306.0)"> </text><text xml:space="preserve" font-family="DINAlternate-Bold" font-weight="bold" font-size="54.0" fill="#FEFFFE" transform="matrix(1.00, 0.00, -0.00, -1.00, 269.8, 306.0)">S</text><text xml:space="preserve" font-family="DINAlternate-Bold" font-weight="bold" font-size="54.0" fill="#FEFFFE" transform="matrix(1.00, 0.00, -0.00, -1.00, 300.8, 306.0)">E</text><text xml:space="preserve" font-family="DINAlternate-Bold" font-weight="bold" font-size="54.0" fill="#FEFFFE" transform="matrix(1.00, 0.00, -0.00, -1.00, 330.8, 306.0)">C</text><text xml:space="preserve" font-family="DINAlternate-Bold" font-weight="bold" font-size="54.0" fill="#FEFFFE" transform="matrix(1.00, 0.00, -0.00, -1.00, 360.9, 306.0)">U</text><text xml:space="preserve" font-family="DINAlternate-Bold" font-weight="bold" font-size="54.0" fill="#FEFFFE" transform="matrix(1.00, 0.00, -0.00, -1.00, 394.9, 306.0)">R</text><text xml:space="preserve" font-family="DINAlternate-Bold" font-weight="bold" font-size="54.0" fill="#FEFFFE" transform="matrix(1.00, 0.00, -0.00, -1.00, 427.8, 306.0)">I</text><text xml:space="preserve" font-family="DINAlternate-Bold" font-weight="bold" font-size="54.0" fill="#FEFFFE" transform="matrix(1.00, 0.00, -0.00, -1.00, 441.7, 306.0)">T</text><text xml:space="preserve" font-family="DINAlternate-Bold" font-weight="bold" font-size="54.0" fill="#FEFFFE" transform="matrix(1.00, 0.00, -0.00, -1.00, 468.7, 306.0)">Y</text><text xml:space="preserve" font-family="DINAlternate-Bold" font-weight="bold" font-size="54.0" fill="#FEFFFE" transform="matrix(1.00, 0.00, -0.00, -1.00, 495.7, 306.0)"> </text><text xml:space="preserve" font-family="DINAlternate-Bold" font-weight="bold" font-size="54.0" fill="#FEFFFE" transform="matrix(1.00, 0.00, -0.00, -1.00, 508.7, 306.0)">P</text><text xml:space="preserve" font-family="DINAlternate-Bold" font-weight="bold" font-size="54.0" fill="#FEFFFE" transform="matrix(1.00, 0.00, -0.00, -1.00, 540.7, 306.0)">O</text><text xml:space="preserve" font-family="DINAlternate-Bold" font-weight="bold" font-size="54.0" fill="#FEFFFE" transform="matrix(1.00, 0.00, -0.00, -1.00, 573.6, 306.0)">L</text><text xml:space="preserve" font-family="DINAlternate-Bold" font-weight="bold" font-size="54.0" fill="#FEFFFE" transform="matrix(1.00, 0.00, -0.00, -1.00, 603.6, 306.0)">I</text><text xml:space="preserve" font-family="DINAlternate-Bold" font-weight="bold" font-size="54.0" fill="#FEFFFE" transform="matrix(1.00, 0.00, -0.00, -1.00, 617.5, 306.0)">C</text><text xml:space="preserve" font-family="DINAlternate-Bold" font-weight="bold" font-size="54.0" fill="#FEFFFE" transform="matrix(1.00, 0.00, -0.00, -1.00, 647.6, 306.0)">Y</text><text xml:space="preserve" font-family="DINAlternate-Bold" font-weight="bold" font-size="24.0" fill="#838686" transform="matrix(1.00, 0.00, -0.00, -1.00, 965.2, 707.4)">5</text><text xml:space="preserve" font-family="DINAlternate-Bold" font-weight="bold" font-size="24.0" fill="#838686" transform="matrix(1.00, 0.00, -0.00, -1.00, 976.7, 707.4)">0</text></g></svg>