<?xml version="1.0" encoding="UTF-8" standalone="no"?><svg xmlns="http://www.w3.org/2000/svg" xmlns:xlink="http://www.w3.org/1999/xlink" clip-rule="evenodd" stroke-miterlimit="4.00" viewBox="0 0 1024 768"><desc>SVG generated by Keynote</desc><defs></defs><g transform="matrix(1.00, 0.00, -0.00, -1.00, 0.0, 768.0)"><path d="M 0.0 768.0 L 1024.0 768.0 L 1024.0 0.0 L 0.0 0.0 Z M 0.0 768.0 " fill="#212121"></path><path d="M 0.0 0.0 L 960.0 0.0 " fill="none" stroke="#A6AAA9" stroke-width="2.00" transform="matrix(1.00, 0.00, 0.00, -1.00, 32.0, 689.8)"></path><text xml:space="preserve" font-family="DINAlternate-Bold" font-weight="bold" font-size="24.0" fill="#FEFFFE" transform="matrix(1.00, 0.00, -0.00, -1.00, 36.0, 705.0)">W</text><text xml:space="preserve" font-family="DINAlternate-Bold" font-weight="bold" font-size="24.0" fill="#FEFFFE" transform="matrix(1.00, 0.00, -0.00, -1.00, 57.2, 705.0)">H</text><text xml:space="preserve" font-family="DINAlternate-Bold" font-weight="bold" font-size="24.0" fill="#FEFFFE" transform="matrix(1.00, 0.00, -0.00, -1.00, 73.9, 705.0)">O</text><text xml:space="preserve" font-family="DINAlternate-Bold" font-weight="bold" font-size="24.0" fill="#FEFFFE" transform="matrix(1.00, 0.00, -0.00, -1.00, 89.8, 705.0)"> </text><text xml:space="preserve" font-family="DINAlternate-Bold" font-weight="bold" font-size="24.0" fill="#FEFFFE" transform="matrix(1.00, 0.00, -0.00, -1.00, 96.7, 705.0)">A</text><text xml:space="preserve" font-family="DINAlternate-Bold" font-weight="bold" font-size="24.0" fill="#FEFFFE" transform="matrix(1.00, 0.00, -0.00, -1.00, 112.5, 705.0)">M</text><text xml:space="preserve" font-family="DINAlternate-Bold" font-weight="bold" font-size="24.0" fill="#FEFFFE" transform="matrix(1.00, 0.00, -0.00, -1.00, 131.9, 705.0)"> </text><text xml:space="preserve" font-family="DINAlternate-Bold" font-weight="bold" font-size="24.0" fill="#FEFFFE" transform="matrix(1.00, 0.00, -0.00, -1.00, 138.9, 705.0)">I</text><text xml:space="preserve" font-family="DINAlternate-Bold" font-weight="bold" font-size="24.0" fill="#FEFFFE" transform="matrix(1.00, 0.00, -0.00, -1.00, 146.3, 705.0)">?</text><text xml:space="preserve" font-family="DINCondensed-Bold" font-weight="bold" font-size="48.0" fill="#FF9C35" transform="matrix(1.00, 0.00, -0.00, -1.00, 36.0, 608.0)">T</text><text xml:space="preserve" font-family="DINCondensed-Bold" font-weight="bold" font-size="48.0" fill="#FF9C35" transform="matrix(1.00, 0.00, -0.00, -1.00, 51.4, 608.0)">O</text><text xml:space="preserve" font-family="DINCondensed-Bold" font-weight="bold" font-size="48.0" fill="#FF9C35" transform="matrix(1.00, 0.00, -0.00, -1.00, 71.8, 608.0)">M</text><text xml:space="preserve" font-family="DINCondensed-Bold" font-weight="bold" font-size="48.0" fill="#FF9C35" transform="matrix(1.00, 0.00, -0.00, -1.00, 98.5, 608.0)">M</text><text xml:space="preserve" font-family="DINCondensed-Bold" font-weight="bold" font-size="48.0" fill="#FF9C35" transform="matrix(1.00, 0.00, -0.00, -1.00, 125.2, 608.0)">Y</text><text xml:space="preserve" font-family="DINCondensed-Bold" font-weight="bold" font-size="48.0" fill="#FF9C35" transform="matrix(1.00, 0.00, -0.00, -1.00, 140.3, 608.0)">-</text><text xml:space="preserve" font-family="DINCondensed-Bold" font-weight="bold" font-size="48.0" fill="#FF9C35" transform="matrix(1.00, 0.00, -0.00, -1.00, 158.9, 608.0)">C</text><text xml:space="preserve" font-family="DINCondensed-Bold" font-weight="bold" font-size="48.0" fill="#FF9C35" transform="matrix(1.00, 0.00, -0.00, -1.00, 178.5, 608.0)">A</text><text xml:space="preserve" font-family="DINCondensed-Bold" font-weight="bold" font-size="48.0" fill="#FF9C35" transform="matrix(1.00, 0.00, -0.00, -1.00, 198.0, 608.0)">R</text><text xml:space="preserve" font-family="DINCondensed-Bold" font-weight="bold" font-size="48.0" fill="#FF9C35" transform="matrix(1.00, 0.00, -0.00, -1.00, 218.4, 608.0)">L</text><text xml:space="preserve" font-family="DINCondensed-Bold" font-weight="bold" font-size="48.0" fill="#FF9C35" transform="matrix(1.00, 0.00, -0.00, -1.00, 236.2, 608.0)">O</text><text xml:space="preserve" font-family="DINCondensed-Bold" font-weight="bold" font-size="48.0" fill="#FF9C35" transform="matrix(1.00, 0.00, -0.00, -1.00, 256.7, 608.0)">S</text><text xml:space="preserve" font-family="DINCondensed-Bold" font-weight="bold" font-size="48.0" fill="#FF9C35" transform="matrix(1.00, 0.00, -0.00, -1.00, 276.1, 608.0)"> </text><text xml:space="preserve" font-family="DINCondensed-Bold" font-weight="bold" font-size="48.0" fill="#FF9C35" transform="matrix(1.00, 0.00, -0.00, -1.00, 285.1, 608.0)">W</text><text xml:space="preserve" font-family="DINCondensed-Bold" font-weight="bold" font-size="48.0" fill="#FF9C35" transform="matrix(1.00, 0.00, -0.00, -1.00, 313.5, 608.0)">I</text><text xml:space="preserve" font-family="DINCondensed-Bold" font-weight="bold" font-size="48.0" fill="#FF9C35" transform="matrix(1.00, 0.00, -0.00, -1.00, 323.3, 608.0)">L</text><text xml:space="preserve" font-family="DINCondensed-Bold" font-weight="bold" font-size="48.0" fill="#FF9C35" transform="matrix(1.00, 0.00, -0.00, -1.00, 341.1, 608.0)">L</text><text xml:space="preserve" font-family="DINCondensed-Bold" font-weight="bold" font-size="48.0" fill="#FF9C35" transform="matrix(1.00, 0.00, -0.00, -1.00, 358.8, 608.0)">I</text><text xml:space="preserve" font-family="DINCondensed-Bold" font-weight="bold" font-size="48.0" fill="#FF9C35" transform="matrix(1.00, 0.00, -0.00, -1.00, 368.6, 608.0)">A</text><text xml:space="preserve" font-family="DINCondensed-Bold" font-weight="bold" font-size="48.0" fill="#FF9C35" transform="matrix(1.00, 0.00, -0.00, -1.00, 388.2, 608.0)">M</text><text xml:space="preserve" font-family="DINCondensed-Bold" font-weight="bold" font-size="48.0" fill="#FF9C35" transform="matrix(1.00, 0.00, -0.00, -1.00, 414.9, 608.0)">S</text><text xml:space="preserve" font-family="DINCondensed-Bold" font-weight="bold" font-size="48.0" fill="#FF9C35" transform="matrix(1.00, 0.00, -0.00, -1.00, 434.4, 608.0)"> </text><text xml:space="preserve" font-family="DINCondensed-Bold" font-weight="bold" font-size="48.0" fill="#FF9C35" transform="matrix(1.00, 0.00, -0.00, -1.00, 443.3, 608.0)">(</text><text xml:space="preserve" font-family="DINCondensed-Bold" font-weight="bold" font-size="48.0" fill="#FF9C35" transform="matrix(1.00, 0.00, -0.00, -1.00, 453.9, 608.0)">A</text><text xml:space="preserve" font-family="DINCondensed-Bold" font-weight="bold" font-size="48.0" fill="#FF9C35" transform="matrix(1.00, 0.00, -0.00, -1.00, 473.5, 608.0)">K</text><text xml:space="preserve" font-family="DINCondensed-Bold" font-weight="bold" font-size="48.0" fill="#FF9C35" transform="matrix(1.00, 0.00, -0.00, -1.00, 493.9, 608.0)">A</text><text xml:space="preserve" font-family="DINCondensed-Bold" font-weight="bold" font-size="48.0" fill="#FF9C35" transform="matrix(1.00, 0.00, -0.00, -1.00, 513.5, 608.0)">:</text><text xml:space="preserve" font-family="DINCondensed-Bold" font-weight="bold" font-size="48.0" fill="#FF9C35" transform="matrix(1.00, 0.00, -0.00, -1.00, 522.4, 608.0)"> </text><text xml:space="preserve" font-family="DINCondensed-Bold" font-weight="bold" font-size="48.0" fill="#FF9C35" transform="matrix(1.00, 0.00, -0.00, -1.00, 531.3, 608.0)">D</text><text xml:space="preserve" font-family="DINCondensed-Bold" font-weight="bold" font-size="48.0" fill="#FF9C35" transform="matrix(1.00, 0.00, -0.00, -1.00, 551.8, 608.0)">E</text><text xml:space="preserve" font-family="DINCondensed-Bold" font-weight="bold" font-size="48.0" fill="#FF9C35" transform="matrix(1.00, 0.00, -0.00, -1.00, 569.5, 608.0)">V</text><text xml:space="preserve" font-family="DINCondensed-Bold" font-weight="bold" font-size="48.0" fill="#FF9C35" transform="matrix(1.00, 0.00, -0.00, -1.00, 589.1, 608.0)">G</text><text xml:space="preserve" font-family="DINCondensed-Bold" font-weight="bold" font-size="48.0" fill="#FF9C35" transform="matrix(1.00, 0.00, -0.00, -1.00, 609.5, 608.0)">E</text><text xml:space="preserve" font-family="DINCondensed-Bold" font-weight="bold" font-size="48.0" fill="#FF9C35" transform="matrix(1.00, 0.00, -0.00, -1.00, 627.3, 608.0)">E</text><text xml:space="preserve" font-family="DINCondensed-Bold" font-weight="bold" font-size="48.0" fill="#FF9C35" transform="matrix(1.00, 0.00, -0.00, -1.00, 645.0, 608.0)">K</text><text xml:space="preserve" font-family="DINCondensed-Bold" font-weight="bold" font-size="48.0" fill="#FF9C35" transform="matrix(1.00, 0.00, -0.00, -1.00, 665.5, 608.0)">S</text><text xml:space="preserve" font-family="DINCondensed-Bold" font-weight="bold" font-size="48.0" fill="#FF9C35" transform="matrix(1.00, 0.00, -0.00, -1.00, 685.0, 608.0)">)</text><text xml:space="preserve" font-family="LucidaGrande" font-size="35.7" fill="#34A4DA" transform="matrix(1.00, 0.00, -0.00, -1.00, 36.0, 511.0)">▸</text><text xml:space="preserve" font-family="AvenirNext-Medium" font-size="34.0" fill="#FEFFFE" transform="matrix(1.00, 0.00, -0.00, -1.00, 71.0, 514.0)">S</text><text xml:space="preserve" font-family="AvenirNext-Medium" font-size="34.0" fill="#FEFFFE" transform="matrix(1.00, 0.00, -0.00, -1.00, 90.3, 514.0)">n</text><text xml:space="preserve" font-family="AvenirNext-Medium" font-size="34.0" fill="#FEFFFE" transform="matrix(1.00, 0.00, -0.00, -1.00, 110.1, 514.0)">r</text><text xml:space="preserve" font-family="AvenirNext-Medium" font-size="34.0" fill="#FEFFFE" transform="matrix(1.00, 0.00, -0.00, -1.00, 122.4, 514.0)"> </text><text xml:space="preserve" font-family="AvenirNext-Medium" font-size="34.0" fill="#FEFFFE" transform="matrix(1.00, 0.00, -0.00, -1.00, 130.9, 514.0)">C</text><text xml:space="preserve" font-family="AvenirNext-Medium" font-size="34.0" fill="#FEFFFE" transform="matrix(1.00, 0.00, -0.00, -1.00, 154.6, 514.0)">o</text><text xml:space="preserve" font-family="AvenirNext-Medium" font-size="34.0" fill="#FEFFFE" transform="matrix(1.00, 0.00, -0.00, -1.00, 175.3, 514.0)">m</text><text xml:space="preserve" font-family="AvenirNext-Medium" font-size="34.0" fill="#FEFFFE" transform="matrix(1.00, 0.00, -0.00, -1.00, 205.5, 514.0)">p</text><text xml:space="preserve" font-family="AvenirNext-Medium" font-size="34.0" fill="#FEFFFE" transform="matrix(1.00, 0.00, -0.00, -1.00, 227.1, 514.0)">u</text><text xml:space="preserve" font-family="AvenirNext-Medium" font-size="34.0" fill="#FEFFFE" transform="matrix(1.00, 0.00, -0.00, -1.00, 246.8, 514.0)">t</text><text xml:space="preserve" font-family="AvenirNext-Medium" font-size="34.0" fill="#FEFFFE" transform="matrix(1.00, 0.00, -0.00, -1.00, 258.0, 514.0)">e</text><text xml:space="preserve" font-family="AvenirNext-Medium" font-size="34.0" fill="#FEFFFE" transform="matrix(1.00, 0.00, -0.00, -1.00, 277.5, 514.0)">r</text><text xml:space="preserve" font-family="AvenirNext-Medium" font-size="34.0" fill="#FEFFFE" transform="matrix(1.00, 0.00, -0.00, -1.00, 289.8, 514.0)"> </text><text xml:space="preserve" font-family="AvenirNext-Medium" font-size="34.0" fill="#FEFFFE" transform="matrix(1.00, 0.00, -0.00, -1.00, 298.3, 514.0)">S</text><text xml:space="preserve" font-family="AvenirNext-Medium" font-size="34.0" fill="#FEFFFE" transform="matrix(1.00, 0.00, -0.00, -1.00, 317.7, 514.0)">c</text><text xml:space="preserve" font-family="AvenirNext-Medium" font-size="34.0" fill="#FEFFFE" transform="matrix(1.00, 0.00, -0.00, -1.00, 334.5, 514.0)">i</text><text xml:space="preserve" font-family="AvenirNext-Medium" font-size="34.0" fill="#FEFFFE" transform="matrix(1.00, 0.00, -0.00, -1.00, 343.3, 514.0)">e</text><text xml:space="preserve" font-family="AvenirNext-Medium" font-size="34.0" fill="#FEFFFE" transform="matrix(1.00, 0.00, -0.00, -1.00, 362.8, 514.0)">n</text><text xml:space="preserve" font-family="AvenirNext-Medium" font-size="34.0" fill="#FEFFFE" transform="matrix(1.00, 0.00, -0.00, -1.00, 382.5, 514.0)">t</text><text xml:space="preserve" font-family="AvenirNext-Medium" font-size="34.0" fill="#FEFFFE" transform="matrix(1.00, 0.00, -0.00, -1.00, 393.7, 514.0)">i</text><text xml:space="preserve" font-family="AvenirNext-Medium" font-size="34.0" fill="#FEFFFE" transform="matrix(1.00, 0.00, -0.00, -1.00, 402.5, 514.0)">s</text><text xml:space="preserve" font-family="AvenirNext-Medium" font-size="34.0" fill="#FEFFFE" transform="matrix(1.00, 0.00, -0.00, -1.00, 417.6, 514.0)">t</text><text xml:space="preserve" font-family="AvenirNext-Medium" font-size="34.0" fill="#FEFFFE" transform="matrix(1.00, 0.00, -0.00, -1.00, 428.8, 514.0)"> </text><text xml:space="preserve" font-family="AvenirNext-Medium" font-size="34.0" fill="#FEFFFE" transform="matrix(1.00, 0.00, -0.00, -1.00, 437.3, 514.0)">a</text><text xml:space="preserve" font-family="AvenirNext-Medium" font-size="34.0" fill="#FEFFFE" transform="matrix(1.00, 0.00, -0.00, -1.00, 455.4, 514.0)">t</text><text xml:space="preserve" font-family="AvenirNext-Medium" font-size="34.0" fill="#FEFFFE" transform="matrix(1.00, 0.00, -0.00, -1.00, 466.6, 514.0)"> </text><text xml:space="preserve" font-family="AvenirNext-Medium" font-size="34.0" fill="#FEFFFE" transform="matrix(1.00, 0.00, -0.00, -1.00, 474.5, 514.0)">A</text><text xml:space="preserve" font-family="AvenirNext-Medium" font-size="34.0" fill="#FEFFFE" transform="matrix(1.00, 0.00, -0.00, -1.00, 498.7, 514.0)">d</text><text xml:space="preserve" font-family="AvenirNext-Medium" font-size="34.0" fill="#FEFFFE" transform="matrix(1.00, 0.00, -0.00, -1.00, 520.2, 514.0)">o</text><text xml:space="preserve" font-family="AvenirNext-Medium" font-size="34.0" fill="#FEFFFE" transform="matrix(1.00, 0.00, -0.00, -1.00, 541.0, 514.0)">b</text><text xml:space="preserve" font-family="AvenirNext-Medium" font-size="34.0" fill="#FEFFFE" transform="matrix(1.00, 0.00, -0.00, -1.00, 562.6, 514.0)">e</text><text xml:space="preserve" font-family="AvenirNext-Medium" font-size="34.0" fill="#FEFFFE" transform="matrix(1.00, 0.00, -0.00, -1.00, 582.1, 514.0)"> </text><text xml:space="preserve" font-family="LucidaGrande" font-size="35.7" fill="#34A4DA" transform="matrix(1.00, 0.00, -0.00, -1.00, 36.0, 437.0)">▸</text><text xml:space="preserve" font-family="AvenirNext-Medium" font-size="34.0" fill="#FF9C35" transform="matrix(1.00, 0.00, -0.00, -1.00, 71.0, 440.0)">@</text><text xml:space="preserve" font-family="AvenirNext-Medium" font-size="34.0" fill="#FF9C35" transform="matrix(1.00, 0.00, -0.00, -1.00, 98.2, 440.0)">t</text><text xml:space="preserve" font-family="AvenirNext-Medium" font-size="34.0" fill="#FF9C35" transform="matrix(1.00, 0.00, -0.00, -1.00, 109.4, 440.0)">h</text><text xml:space="preserve" font-family="AvenirNext-Medium" font-size="34.0" fill="#FF9C35" transform="matrix(1.00, 0.00, -0.00, -1.00, 129.2, 440.0)">e</text><text xml:space="preserve" font-family="AvenirNext-Medium" font-size="34.0" fill="#FF9C35" transform="matrix(1.00, 0.00, -0.00, -1.00, 148.7, 440.0)">R</text><text xml:space="preserve" font-family="AvenirNext-Medium" font-size="34.0" fill="#FF9C35" transform="matrix(1.00, 0.00, -0.00, -1.00, 169.2, 440.0)">e</text><text xml:space="preserve" font-family="AvenirNext-Medium" font-size="34.0" fill="#FF9C35" transform="matrix(1.00, 0.00, -0.00, -1.00, 188.5, 440.0)">a</text><text xml:space="preserve" font-family="AvenirNext-Medium" font-size="34.0" fill="#FF9C35" transform="matrix(1.00, 0.00, -0.00, -1.00, 206.9, 440.0)">l</text><text xml:space="preserve" font-family="AvenirNext-Medium" font-size="34.0" fill="#FF9C35" transform="matrix(1.00, 0.00, -0.00, -1.00, 215.7, 440.0)">D</text><text xml:space="preserve" font-family="AvenirNext-Medium" font-size="34.0" fill="#FF9C35" transform="matrix(1.00, 0.00, -0.00, -1.00, 241.6, 440.0)">e</text><text xml:space="preserve" font-family="AvenirNext-Medium" font-size="34.0" fill="#FF9C35" transform="matrix(1.00, 0.00, -0.00, -1.00, 261.1, 440.0)">v</text><text xml:space="preserve" font-family="AvenirNext-Medium" font-size="34.0" fill="#FF9C35" transform="matrix(1.00, 0.00, -0.00, -1.00, 278.2, 440.0)">g</text><text xml:space="preserve" font-family="AvenirNext-Medium" font-size="34.0" fill="#FF9C35" transform="matrix(1.00, 0.00, -0.00, -1.00, 299.7, 440.0)">e</text><text xml:space="preserve" font-family="AvenirNext-Medium" font-size="34.0" fill="#FF9C35" transform="matrix(1.00, 0.00, -0.00, -1.00, 319.2, 440.0)">e</text><text xml:space="preserve" font-family="AvenirNext-Medium" font-size="34.0" fill="#FF9C35" transform="matrix(1.00, 0.00, -0.00, -1.00, 338.7, 440.0)">k</text><text xml:space="preserve" font-family="AvenirNext-Medium" font-size="34.0" fill="#FF9C35" transform="matrix(1.00, 0.00, -0.00, -1.00, 356.4, 440.0)">s</text><text xml:space="preserve" font-family="AvenirNext-Medium" font-size="34.0" fill="#FF9C35" transform="matrix(1.00, 0.00, -0.00, -1.00, 371.5, 440.0)"> </text><g><clipPath id="clip-1"><path d="M 70.0 436.0 L 371.5 436.0 L 371.5 439.7 L 70.0 439.7 Z M 70.0 436.0 "></path></clipPath><g clip-path="url(#clip-1)"><path d="M 39.0 114.1 L 339.5 114.1 " fill="none" stroke="#FF9C35" stroke-width="1.70" stroke-miterlimit="0.00" transform="matrix(1.00, 0.00, 0.00, -1.00, 32.0, 552.0)"></path></g></g><text xml:space="preserve" font-family="LucidaGrande" font-size="35.7" fill="#34A4DA" transform="matrix(1.00, 0.00, -0.00, -1.00, 36.0, 363.0)">▸</text><text xml:space="preserve" font-family="AvenirNext-Medium" font-size="34.0" fill="#FF9C35" transform="matrix(1.00, 0.00, -0.00, -1.00, 71.0, 366.0)">h</text><text xml:space="preserve" font-family="AvenirNext-Medium" font-size="34.0" fill="#FF9C35" transform="matrix(1.00, 0.00, -0.00, -1.00, 90.9, 366.0)">t</text><text xml:space="preserve" font-family="AvenirNext-Medium" font-size="34.0" fill="#FF9C35" transform="matrix(1.00, 0.00, -0.00, -1.00, 101.5, 366.0)">t</text><text xml:space="preserve" font-family="AvenirNext-Medium" font-size="34.0" fill="#FF9C35" transform="matrix(1.00, 0.00, -0.00, -1.00, 112.7, 366.0)">p</text><text xml:space="preserve" font-family="AvenirNext-Medium" font-size="34.0" fill="#FF9C35" transform="matrix(1.00, 0.00, -0.00, -1.00, 134.3, 366.0)">s</text><text xml:space="preserve" font-family="AvenirNext-Medium" font-size="34.0" fill="#FF9C35" transform="matrix(1.00, 0.00, -0.00, -1.00, 149.4, 366.0)">:</text><text xml:space="preserve" font-family="AvenirNext-Medium" font-size="34.0" fill="#FF9C35" transform="matrix(1.00, 0.00, -0.00, -1.00, 159.6, 366.0)">/</text><text xml:space="preserve" font-family="AvenirNext-Medium" font-size="34.0" fill="#FF9C35" transform="matrix(1.00, 0.00, -0.00, -1.00, 172.5, 366.0)">/</text><text xml:space="preserve" font-family="AvenirNext-Medium" font-size="34.0" fill="#FF9C35" transform="matrix(1.00, 0.00, -0.00, -1.00, 185.4, 366.0)">g</text><text xml:space="preserve" font-family="AvenirNext-Medium" font-size="34.0" fill="#FF9C35" transform="matrix(1.00, 0.00, -0.00, -1.00, 206.9, 366.0)">i</text><text xml:space="preserve" font-family="AvenirNext-Medium" font-size="34.0" fill="#FF9C35" transform="matrix(1.00, 0.00, -0.00, -1.00, 215.7, 366.0)">t</text><text xml:space="preserve" font-family="AvenirNext-Medium" font-size="34.0" fill="#FF9C35" transform="matrix(1.00, 0.00, -0.00, -1.00, 226.9, 366.0)">h</text><text xml:space="preserve" font-family="AvenirNext-Medium" font-size="34.0" fill="#FF9C35" transform="matrix(1.00, 0.00, -0.00, -1.00, 246.7, 366.0)">u</text><text xml:space="preserve" font-family="AvenirNext-Medium" font-size="34.0" fill="#FF9C35" transform="matrix(1.00, 0.00, -0.00, -1.00, 266.5, 366.0)">b</text><text xml:space="preserve" font-family="AvenirNext-Medium" font-size="34.0" fill="#FF9C35" transform="matrix(1.00, 0.00, -0.00, -1.00, 287.8, 366.0)">.</text><text xml:space="preserve" font-family="AvenirNext-Medium" font-size="34.0" fill="#FF9C35" transform="matrix(1.00, 0.00, -0.00, -1.00, 296.6, 366.0)">c</text><text xml:space="preserve" font-family="AvenirNext-Medium" font-size="34.0" fill="#FF9C35" transform="matrix(1.00, 0.00, -0.00, -1.00, 313.4, 366.0)">o</text><text xml:space="preserve" font-family="AvenirNext-Medium" font-size="34.0" fill="#FF9C35" transform="matrix(1.00, 0.00, -0.00, -1.00, 334.1, 366.0)">m</text><text xml:space="preserve" font-family="AvenirNext-Medium" font-size="34.0" fill="#FF9C35" transform="matrix(1.00, 0.00, -0.00, -1.00, 364.3, 366.0)">/</text><text xml:space="preserve" font-family="AvenirNext-Medium" font-size="34.0" fill="#FF9C35" transform="matrix(1.00, 0.00, -0.00, -1.00, 377.2, 366.0)">d</text><text xml:space="preserve" font-family="AvenirNext-Medium" font-size="34.0" fill="#FF9C35" transform="matrix(1.00, 0.00, -0.00, -1.00, 398.8, 366.0)">e</text><text xml:space="preserve" font-family="AvenirNext-Medium" font-size="34.0" fill="#FF9C35" transform="matrix(1.00, 0.00, -0.00, -1.00, 418.3, 366.0)">v</text><text xml:space="preserve" font-family="AvenirNext-Medium" font-size="34.0" fill="#FF9C35" transform="matrix(1.00, 0.00, -0.00, -1.00, 435.4, 366.0)">g</text><text xml:space="preserve" font-family="AvenirNext-Medium" font-size="34.0" fill="#FF9C35" transform="matrix(1.00, 0.00, -0.00, -1.00, 456.9, 366.0)">e</text><text xml:space="preserve" font-family="AvenirNext-Medium" font-size="34.0" fill="#FF9C35" transform="matrix(1.00, 0.00, -0.00, -1.00, 476.4, 366.0)">e</text><text xml:space="preserve" font-family="AvenirNext-Medium" font-size="34.0" fill="#FF9C35" transform="matrix(1.00, 0.00, -0.00, -1.00, 495.9, 366.0)">k</text><text xml:space="preserve" font-family="AvenirNext-Medium" font-size="34.0" fill="#FF9C35" transform="matrix(1.00, 0.00, -0.00, -1.00, 513.6, 366.0)">s</text><text xml:space="preserve" font-family="AvenirNext-Medium" font-size="34.0" fill="#FEFFFE" transform="matrix(1.00, 0.00, -0.00, -1.00, 528.7, 366.0)"> </text><g><clipPath id="clip-2"><path d="M 70.0 362.0 L 528.7 362.0 L 528.7 365.7 L 70.0 365.7 Z M 70.0 362.0 "></path></clipPath><g clip-path="url(#clip-2)"><path d="M 39.0 188.1 L 496.7 188.1 " fill="none" stroke="#FF9C35" stroke-width="1.70" stroke-miterlimit="0.00" transform="matrix(1.00, 0.00, 0.00, -1.00, 32.0, 552.0)"></path></g></g><text xml:space="preserve" font-family="LucidaGrande" font-size="35.7" fill="#34A4DA" transform="matrix(1.00, 0.00, -0.00, -1.00, 36.0, 289.0)">▸</text><text xml:space="preserve" font-family="AvenirNext-Medium" font-size="34.0" fill="#FF9C35" transform="matrix(1.00, 0.00, -0.00, -1.00, 71.0, 292.0)">h</text><text xml:space="preserve" font-family="AvenirNext-Medium" font-size="34.0" fill="#FF9C35" transform="matrix(1.00, 0.00, -0.00, -1.00, 90.9, 292.0)">t</text><text xml:space="preserve" font-family="AvenirNext-Medium" font-size="34.0" fill="#FF9C35" transform="matrix(1.00, 0.00, -0.00, -1.00, 101.5, 292.0)">t</text><text xml:space="preserve" font-family="AvenirNext-Medium" font-size="34.0" fill="#FF9C35" transform="matrix(1.00, 0.00, -0.00, -1.00, 112.7, 292.0)">p</text><text xml:space="preserve" font-family="AvenirNext-Medium" font-size="34.0" fill="#FF9C35" transform="matrix(1.00, 0.00, -0.00, -1.00, 134.3, 292.0)">:</text><text xml:space="preserve" font-family="AvenirNext-Medium" font-size="34.0" fill="#FF9C35" transform="matrix(1.00, 0.00, -0.00, -1.00, 144.5, 292.0)">/</text><text xml:space="preserve" font-family="AvenirNext-Medium" font-size="34.0" fill="#FF9C35" transform="matrix(1.00, 0.00, -0.00, -1.00, 157.4, 292.0)">/</text><text xml:space="preserve" font-family="AvenirNext-Medium" font-size="34.0" fill="#FF9C35" transform="matrix(1.00, 0.00, -0.00, -1.00, 170.3, 292.0)">b</text><text xml:space="preserve" font-family="AvenirNext-Medium" font-size="34.0" fill="#FF9C35" transform="matrix(1.00, 0.00, -0.00, -1.00, 191.9, 292.0)">l</text><text xml:space="preserve" font-family="AvenirNext-Medium" font-size="34.0" fill="#FF9C35" transform="matrix(1.00, 0.00, -0.00, -1.00, 200.8, 292.0)">o</text><text xml:space="preserve" font-family="AvenirNext-Medium" font-size="34.0" fill="#FF9C35" transform="matrix(1.00, 0.00, -0.00, -1.00, 221.5, 292.0)">g</text><text xml:space="preserve" font-family="AvenirNext-Medium" font-size="34.0" fill="#FF9C35" transform="matrix(1.00, 0.00, -0.00, -1.00, 243.0, 292.0)">.</text><text xml:space="preserve" font-family="AvenirNext-Medium" font-size="34.0" fill="#FF9C35" transform="matrix(1.00, 0.00, -0.00, -1.00, 251.8, 292.0)">d</text><text xml:space="preserve" font-family="AvenirNext-Medium" font-size="34.0" fill="#FF9C35" transform="matrix(1.00, 0.00, -0.00, -1.00, 273.4, 292.0)">e</text><text xml:space="preserve" font-family="AvenirNext-Medium" font-size="34.0" fill="#FF9C35" transform="matrix(1.00, 0.00, -0.00, -1.00, 292.9, 292.0)">v</text><text xml:space="preserve" font-family="AvenirNext-Medium" font-size="34.0" fill="#FF9C35" transform="matrix(1.00, 0.00, -0.00, -1.00, 310.1, 292.0)">g</text><text xml:space="preserve" font-family="AvenirNext-Medium" font-size="34.0" fill="#FF9C35" transform="matrix(1.00, 0.00, -0.00, -1.00, 331.5, 292.0)">e</text><text xml:space="preserve" font-family="AvenirNext-Medium" font-size="34.0" fill="#FF9C35" transform="matrix(1.00, 0.00, -0.00, -1.00, 351.0, 292.0)">e</text><text xml:space="preserve" font-family="AvenirNext-Medium" font-size="34.0" fill="#FF9C35" transform="matrix(1.00, 0.00, -0.00, -1.00, 370.5, 292.0)">k</text><text xml:space="preserve" font-family="AvenirNext-Medium" font-size="34.0" fill="#FF9C35" transform="matrix(1.00, 0.00, -0.00, -1.00, 388.2, 292.0)">s</text><text xml:space="preserve" font-family="AvenirNext-Medium" font-size="34.0" fill="#FF9C35" transform="matrix(1.00, 0.00, -0.00, -1.00, 403.3, 292.0)">.</text><text xml:space="preserve" font-family="AvenirNext-Medium" font-size="34.0" fill="#FF9C35" transform="matrix(1.00, 0.00, -0.00, -1.00, 412.2, 292.0)">o</text><text xml:space="preserve" font-family="AvenirNext-Medium" font-size="34.0" fill="#FF9C35" transform="matrix(1.00, 0.00, -0.00, -1.00, 432.9, 292.0)">r</text><text xml:space="preserve" font-family="AvenirNext-Medium" font-size="34.0" fill="#FF9C35" transform="matrix(1.00, 0.00, -0.00, -1.00, 444.6, 292.0)">g</text><text xml:space="preserve" font-family="AvenirNext-Medium" font-size="34.0" fill="#FEFFFE" transform="matrix(1.00, 0.00, -0.00, -1.00, 466.1, 292.0)"> </text><g><clipPath id="clip-3"><path d="M 70.0 288.0 L 466.1 288.0 L 466.1 291.7 L 70.0 291.7 Z M 70.0 288.0 "></path></clipPath><g clip-path="url(#clip-3)"><path d="M 39.0 262.1 L 434.1 262.1 " fill="none" stroke="#FF9C35" stroke-width="1.70" stroke-miterlimit="0.00" transform="matrix(1.00, 0.00, 0.00, -1.00, 32.0, 552.0)"></path></g></g><text xml:space="preserve" font-family="LucidaGrande" font-size="35.7" fill="#34A4DA" transform="matrix(1.00, 0.00, -0.00, -1.00, 36.0, 215.0)">▸</text><text xml:space="preserve" font-family="AvenirNext-Medium" font-size="34.0" fill="#FF9C35" transform="matrix(1.00, 0.00, -0.00, -1.00, 71.0, 218.0)">t</text><text xml:space="preserve" font-family="AvenirNext-Medium" font-size="34.0" fill="#FF9C35" transform="matrix(1.00, 0.00, -0.00, -1.00, 82.2, 218.0)">o</text><text xml:space="preserve" font-family="AvenirNext-Medium" font-size="34.0" fill="#FF9C35" transform="matrix(1.00, 0.00, -0.00, -1.00, 102.9, 218.0)">m</text><text xml:space="preserve" font-family="AvenirNext-Medium" font-size="34.0" fill="#FF9C35" transform="matrix(1.00, 0.00, -0.00, -1.00, 133.1, 218.0)">m</text><text xml:space="preserve" font-family="AvenirNext-Medium" font-size="34.0" fill="#FF9C35" transform="matrix(1.00, 0.00, -0.00, -1.00, 163.2, 218.0)">y</text><text xml:space="preserve" font-family="AvenirNext-Medium" font-size="34.0" fill="#FF9C35" transform="matrix(1.00, 0.00, -0.00, -1.00, 180.4, 218.0)">@</text><text xml:space="preserve" font-family="AvenirNext-Medium" font-size="34.0" fill="#FF9C35" transform="matrix(1.00, 0.00, -0.00, -1.00, 207.6, 218.0)">d</text><text xml:space="preserve" font-family="AvenirNext-Medium" font-size="34.0" fill="#FF9C35" transform="matrix(1.00, 0.00, -0.00, -1.00, 229.2, 218.0)">e</text><text xml:space="preserve" font-family="AvenirNext-Medium" font-size="34.0" fill="#FF9C35" transform="matrix(1.00, 0.00, -0.00, -1.00, 248.7, 218.0)">v</text><text xml:space="preserve" font-family="AvenirNext-Medium" font-size="34.0" fill="#FF9C35" transform="matrix(1.00, 0.00, -0.00, -1.00, 265.8, 218.0)">g</text><text xml:space="preserve" font-family="AvenirNext-Medium" font-size="34.0" fill="#FF9C35" transform="matrix(1.00, 0.00, -0.00, -1.00, 287.3, 218.0)">e</text><text xml:space="preserve" font-family="AvenirNext-Medium" font-size="34.0" fill="#FF9C35" transform="matrix(1.00, 0.00, -0.00, -1.00, 306.8, 218.0)">e</text><text xml:space="preserve" font-family="AvenirNext-Medium" font-size="34.0" fill="#FF9C35" transform="matrix(1.00, 0.00, -0.00, -1.00, 326.2, 218.0)">k</text><text xml:space="preserve" font-family="AvenirNext-Medium" font-size="34.0" fill="#FF9C35" transform="matrix(1.00, 0.00, -0.00, -1.00, 344.0, 218.0)">s</text><text xml:space="preserve" font-family="AvenirNext-Medium" font-size="34.0" fill="#FF9C35" transform="matrix(1.00, 0.00, -0.00, -1.00, 359.0, 218.0)">.</text><text xml:space="preserve" font-family="AvenirNext-Medium" font-size="34.0" fill="#FF9C35" transform="matrix(1.00, 0.00, -0.00, -1.00, 367.9, 218.0)">o</text><text xml:space="preserve" font-family="AvenirNext-Medium" font-size="34.0" fill="#FF9C35" transform="matrix(1.00, 0.00, -0.00, -1.00, 388.6, 218.0)">r</text><text xml:space="preserve" font-family="AvenirNext-Medium" font-size="34.0" fill="#FF9C35" transform="matrix(1.00, 0.00, -0.00, -1.00, 400.3, 218.0)">g</text><g><clipPath id="clip-4"><path d="M 70.0 214.0 L 421.8 214.0 L 421.8 217.7 L 70.0 217.7 Z M 70.0 214.0 "></path></clipPath><g clip-path="url(#clip-4)"><path d="M 39.0 336.1 L 389.8 336.1 " fill="none" stroke="#FF9C35" stroke-width="1.70" stroke-miterlimit="0.00" transform="matrix(1.00, 0.00, 0.00, -1.00, 32.0, 552.0)"></path></g></g><text xml:space="preserve" font-family="DINAlternate-Bold" font-weight="bold" font-size="24.0" fill="#838686" transform="matrix(1.00, 0.00, -0.00, -1.00, 976.1, 707.4)">2</text></g></svg>