<?xml version="1.0" encoding="UTF-8" standalone="no"?><svg xmlns="http://www.w3.org/2000/svg" xmlns:xlink="http://www.w3.org/1999/xlink" clip-rule="evenodd" stroke-miterlimit="4.00" viewBox="0 0 1024 768"><desc>SVG generated by Keynote</desc><defs></defs><g transform="matrix(1.00, 0.00, -0.00, -1.00, 0.0, 768.0)"><path d="M 0.0 768.0 L 1024.0 768.0 L 1024.0 0.0 L 0.0 0.0 Z M 0.0 768.0 " fill="#212121"></path><path d="M 0.0 0.0 L 960.0 0.0 " fill="none" stroke="#A6AAA8" stroke-width="3.00" transform="matrix(1.00, 0.00, 0.00, -1.00, 32.0, 284.5)"></path><text xml:space="preserve" font-family="DINCondensed-Bold" font-weight="bold" font-size="130.9" fill="#FF9C35" transform="matrix(1.00, 0.00, -0.00, -1.00, 36.0, 165.0)">P</text><text xml:space="preserve" font-family="DINCondensed-Bold" font-weight="bold" font-size="130.9" fill="#FF9C35" transform="matrix(1.00, 0.00, -0.00, -1.00, 89.3, 165.0)">R</text><text xml:space="preserve" font-family="DINCondensed-Bold" font-weight="bold" font-size="130.9" fill="#FF9C35" transform="matrix(1.00, 0.00, -0.00, -1.00, 145.0, 165.0)">I</text><text xml:space="preserve" font-family="DINCondensed-Bold" font-weight="bold" font-size="130.9" fill="#FF9C35" transform="matrix(1.00, 0.00, -0.00, -1.00, 171.7, 165.0)">V</text><text xml:space="preserve" font-family="DINCondensed-Bold" font-weight="bold" font-size="130.9" fill="#FF9C35" transform="matrix(1.00, 0.00, -0.00, -1.00, 220.2, 165.0)">A</text><text xml:space="preserve" font-family="DINCondensed-Bold" font-weight="bold" font-size="130.9" fill="#FF9C35" transform="matrix(1.00, 0.00, -0.00, -1.00, 273.5, 165.0)">C</text><text xml:space="preserve" font-family="DINCondensed-Bold" font-weight="bold" font-size="130.9" fill="#FF9C35" transform="matrix(1.00, 0.00, -0.00, -1.00, 326.7, 165.0)">Y</text><text xml:space="preserve" font-family="DINCondensed-Bold" font-weight="bold" font-size="130.9" fill="#FF9C35" transform="matrix(1.00, 0.00, -0.00, -1.00, 377.5, 165.0)"> </text><text xml:space="preserve" font-family="DINCondensed-Bold" font-weight="bold" font-size="130.9" fill="#FF9C35" transform="matrix(1.00, 0.00, -0.00, -1.00, 401.9, 165.0)">A</text><text xml:space="preserve" font-family="DINCondensed-Bold" font-weight="bold" font-size="130.9" fill="#FF9C35" transform="matrix(1.00, 0.00, -0.00, -1.00, 455.1, 165.0)">N</text><text xml:space="preserve" font-family="DINCondensed-Bold" font-weight="bold" font-size="130.9" fill="#FF9C35" transform="matrix(1.00, 0.00, -0.00, -1.00, 513.3, 165.0)">D</text><text xml:space="preserve" font-family="DINCondensed-Bold" font-weight="bold" font-size="130.9" fill="#FF9C35" transform="matrix(1.00, 0.00, -0.00, -1.00, 569.0, 165.0)"> </text><text xml:space="preserve" font-family="DINCondensed-Bold" font-weight="bold" font-size="130.9" fill="#FF9C35" transform="matrix(1.00, 0.00, -0.00, -1.00, 593.4, 165.0)">S</text><text xml:space="preserve" font-family="DINCondensed-Bold" font-weight="bold" font-size="130.9" fill="#FF9C35" transform="matrix(1.00, 0.00, -0.00, -1.00, 646.5, 165.0)">E</text><text xml:space="preserve" font-family="DINCondensed-Bold" font-weight="bold" font-size="130.9" fill="#FF9C35" transform="matrix(1.00, 0.00, -0.00, -1.00, 695.0, 165.0)">C</text><text xml:space="preserve" font-family="DINCondensed-Bold" font-weight="bold" font-size="130.9" fill="#FF9C35" transform="matrix(1.00, 0.00, -0.00, -1.00, 748.2, 165.0)">U</text><text xml:space="preserve" font-family="DINCondensed-Bold" font-weight="bold" font-size="130.9" fill="#FF9C35" transform="matrix(1.00, 0.00, -0.00, -1.00, 804.0, 165.0)">R</text><text xml:space="preserve" font-family="DINCondensed-Bold" font-weight="bold" font-size="130.9" fill="#FF9C35" transform="matrix(1.00, 0.00, -0.00, -1.00, 859.8, 165.0)">I</text><text xml:space="preserve" font-family="DINCondensed-Bold" font-weight="bold" font-size="130.9" fill="#FF9C35" transform="matrix(1.00, 0.00, -0.00, -1.00, 886.5, 165.0)">T</text><text xml:space="preserve" font-family="DINCondensed-Bold" font-weight="bold" font-size="130.9" fill="#FF9C35" transform="matrix(1.00, 0.00, -0.00, -1.00, 929.9, 165.0)">Y</text><text xml:space="preserve" font-family="DINAlternate-Bold" font-weight="bold" font-size="54.0" fill="#FEFFFE" transform="matrix(1.00, 0.00, -0.00, -1.00, 36.0, 306.0)">P</text><text xml:space="preserve" font-family="DINAlternate-Bold" font-weight="bold" font-size="54.0" fill="#FEFFFE" transform="matrix(1.00, 0.00, -0.00, -1.00, 68.0, 306.0)">H</text><text xml:space="preserve" font-family="DINAlternate-Bold" font-weight="bold" font-size="54.0" fill="#FEFFFE" transform="matrix(1.00, 0.00, -0.00, -1.00, 103.0, 306.0)">O</text><text xml:space="preserve" font-family="DINAlternate-Bold" font-weight="bold" font-size="54.0" fill="#FEFFFE" transform="matrix(1.00, 0.00, -0.00, -1.00, 135.9, 306.0)">N</text><text xml:space="preserve" font-family="DINAlternate-Bold" font-weight="bold" font-size="54.0" fill="#FEFFFE" transform="matrix(1.00, 0.00, -0.00, -1.00, 172.8, 306.0)">E</text><text xml:space="preserve" font-family="DINAlternate-Bold" font-weight="bold" font-size="54.0" fill="#FEFFFE" transform="matrix(1.00, 0.00, -0.00, -1.00, 202.9, 306.0)">G</text><text xml:space="preserve" font-family="DINAlternate-Bold" font-weight="bold" font-size="54.0" fill="#FEFFFE" transform="matrix(1.00, 0.00, -0.00, -1.00, 235.8, 306.0)">A</text><text xml:space="preserve" font-family="DINAlternate-Bold" font-weight="bold" font-size="54.0" fill="#FEFFFE" transform="matrix(1.00, 0.00, -0.00, -1.00, 268.7, 306.0)">P</text><text xml:space="preserve" font-family="DINAlternate-Bold" font-weight="bold" font-size="54.0" fill="#838786" transform="matrix(1.00, 0.00, -0.00, -1.00, 29.0, 661.0)">P</text><text xml:space="preserve" font-family="DINAlternate-Bold" font-weight="bold" font-size="54.0" fill="#838786" transform="matrix(1.00, 0.00, -0.00, -1.00, 61.0, 661.0)">H</text><text xml:space="preserve" font-family="DINAlternate-Bold" font-weight="bold" font-size="54.0" fill="#838786" transform="matrix(1.00, 0.00, -0.00, -1.00, 96.0, 661.0)">O</text><text xml:space="preserve" font-family="DINAlternate-Bold" font-weight="bold" font-size="54.0" fill="#838786" transform="matrix(1.00, 0.00, -0.00, -1.00, 128.9, 661.0)">N</text><text xml:space="preserve" font-family="DINAlternate-Bold" font-weight="bold" font-size="54.0" fill="#838786" transform="matrix(1.00, 0.00, -0.00, -1.00, 165.9, 661.0)">E</text><text xml:space="preserve" font-family="DINAlternate-Bold" font-weight="bold" font-size="54.0" fill="#838786" transform="matrix(1.00, 0.00, -0.00, -1.00, 195.9, 661.0)">G</text><text xml:space="preserve" font-family="DINAlternate-Bold" font-weight="bold" font-size="54.0" fill="#838786" transform="matrix(1.00, 0.00, -0.00, -1.00, 228.8, 661.0)">A</text><text xml:space="preserve" font-family="DINAlternate-Bold" font-weight="bold" font-size="54.0" fill="#838786" transform="matrix(1.00, 0.00, -0.00, -1.00, 261.8, 661.0)">P</text><text xml:space="preserve" font-family="DINAlternate-Bold" font-weight="bold" font-size="54.0" fill="#838786" transform="matrix(1.00, 0.00, -0.00, -1.00, 293.8, 661.0)"> </text><text xml:space="preserve" font-family="DINAlternate-Bold" font-weight="bold" font-size="54.0" fill="#838786" transform="matrix(1.00, 0.00, -0.00, -1.00, 306.7, 661.0)">D</text><text xml:space="preserve" font-family="DINAlternate-Bold" font-weight="bold" font-size="54.0" fill="#838786" transform="matrix(1.00, 0.00, -0.00, -1.00, 339.7, 661.0)">A</text><text xml:space="preserve" font-family="DINAlternate-Bold" font-weight="bold" font-size="54.0" fill="#838786" transform="matrix(1.00, 0.00, -0.00, -1.00, 368.6, 661.0)">Y</text><text xml:space="preserve" font-family="DINAlternate-Bold" font-weight="bold" font-size="54.0" fill="#838786" transform="matrix(1.00, 0.00, -0.00, -1.00, 395.6, 661.0)"> </text><text xml:space="preserve" font-family="DINAlternate-Bold" font-weight="bold" font-size="54.0" fill="#838786" transform="matrix(1.00, 0.00, -0.00, -1.00, 408.6, 661.0)">U</text><text xml:space="preserve" font-family="DINAlternate-Bold" font-weight="bold" font-size="54.0" fill="#838786" transform="matrix(1.00, 0.00, -0.00, -1.00, 442.6, 661.0)">S</text><text xml:space="preserve" font-family="DINAlternate-Bold" font-weight="bold" font-size="54.0" fill="#838786" transform="matrix(1.00, 0.00, -0.00, -1.00, 473.5, 661.0)"> </text><text xml:space="preserve" font-family="DINAlternate-Bold" font-weight="bold" font-size="54.0" fill="#838786" transform="matrix(1.00, 0.00, -0.00, -1.00, 486.5, 661.0)">-</text><text xml:space="preserve" font-family="DINAlternate-Bold" font-weight="bold" font-size="54.0" fill="#838786" transform="matrix(1.00, 0.00, -0.00, -1.00, 508.4, 661.0)"> </text><text xml:space="preserve" font-family="DINAlternate-Bold" font-weight="bold" font-size="54.0" fill="#838786" transform="matrix(1.00, 0.00, -0.00, -1.00, 521.3, 661.0)">J</text><text xml:space="preserve" font-family="DINAlternate-Bold" font-weight="bold" font-size="54.0" fill="#838786" transform="matrix(1.00, 0.00, -0.00, -1.00, 547.3, 661.0)">A</text><text xml:space="preserve" font-family="DINAlternate-Bold" font-weight="bold" font-size="54.0" fill="#838786" transform="matrix(1.00, 0.00, -0.00, -1.00, 580.2, 661.0)">N</text><text xml:space="preserve" font-family="DINAlternate-Bold" font-weight="bold" font-size="54.0" fill="#838786" transform="matrix(1.00, 0.00, -0.00, -1.00, 617.2, 661.0)">U</text><text xml:space="preserve" font-family="DINAlternate-Bold" font-weight="bold" font-size="54.0" fill="#838786" transform="matrix(1.00, 0.00, -0.00, -1.00, 649.8, 661.0)">A</text><text xml:space="preserve" font-family="DINAlternate-Bold" font-weight="bold" font-size="54.0" fill="#838786" transform="matrix(1.00, 0.00, -0.00, -1.00, 682.8, 661.0)">R</text><text xml:space="preserve" font-family="DINAlternate-Bold" font-weight="bold" font-size="54.0" fill="#838786" transform="matrix(1.00, 0.00, -0.00, -1.00, 714.1, 661.0)">Y</text><text xml:space="preserve" font-family="DINAlternate-Bold" font-weight="bold" font-size="54.0" fill="#838786" transform="matrix(1.00, 0.00, -0.00, -1.00, 741.1, 661.0)"> </text><text xml:space="preserve" font-family="DINAlternate-Bold" font-weight="bold" font-size="54.0" fill="#838786" transform="matrix(1.00, 0.00, -0.00, -1.00, 754.0, 661.0)">2</text><text xml:space="preserve" font-family="DINAlternate-Bold" font-weight="bold" font-size="54.0" fill="#838786" transform="matrix(1.00, 0.00, -0.00, -1.00, 779.9, 661.0)">8</text><text xml:space="preserve" font-family="DINAlternate-Bold" font-weight="bold" font-size="54.0" fill="#838786" transform="matrix(1.00, 0.00, -0.00, -1.00, 805.9, 661.0)">,</text><text xml:space="preserve" font-family="DINAlternate-Bold" font-weight="bold" font-size="54.0" fill="#838786" transform="matrix(1.00, 0.00, -0.00, -1.00, 818.8, 661.0)"> </text><text xml:space="preserve" font-family="DINAlternate-Bold" font-weight="bold" font-size="54.0" fill="#838786" transform="matrix(1.00, 0.00, -0.00, -1.00, 831.7, 661.0)">2</text><text xml:space="preserve" font-family="DINAlternate-Bold" font-weight="bold" font-size="54.0" fill="#838786" transform="matrix(1.00, 0.00, -0.00, -1.00, 857.6, 661.0)">0</text><text xml:space="preserve" font-family="DINAlternate-Bold" font-weight="bold" font-size="54.0" fill="#838786" transform="matrix(1.00, 0.00, -0.00, -1.00, 883.6, 661.0)">1</text><text xml:space="preserve" font-family="DINAlternate-Bold" font-weight="bold" font-size="54.0" fill="#838786" transform="matrix(1.00, 0.00, -0.00, -1.00, 909.5, 661.0)">6</text><text xml:space="preserve" font-family="DINAlternate-Bold" font-weight="bold" font-size="24.0" fill="#838686" transform="matrix(1.00, 0.00, -0.00, -1.00, 976.7, 707.4)">1</text><g opacity="0.49"><g><clipPath id="clip-0"><path d="M 11.0 444.0 L 1013.0 444.0 L 1013.0 633.0 L 11.0 633.0 Z M 11.0 444.0 "></path></clipPath><g clip-path="url(#clip-0)"><image xlink:href="214854D42AC2BB200B7D7678FEAB77CB.png" width="960.00" height="178.00" transform="matrix(1.04, 0.00, -0.00, -1.04, 12.0, 631.0)"></image></g></g></g></g></svg>