<?xml version="1.0" encoding="UTF-8" standalone="no"?><svg xmlns="http://www.w3.org/2000/svg" xmlns:xlink="http://www.w3.org/1999/xlink" clip-rule="evenodd" stroke-miterlimit="4.00" viewBox="0 0 1024 768"><desc>SVG generated by Keynote</desc><defs></defs><g transform="matrix(1.00, 0.00, -0.00, -1.00, 0.0, 768.0)"><path d="M 0.0 768.0 L 1024.0 768.0 L 1024.0 0.0 L 0.0 0.0 Z M 0.0 768.0 " fill="#212121"></path><path d="M 0.0 0.0 L 960.0 0.0 " fill="none" stroke="#A6AAA8" stroke-width="3.00" transform="matrix(1.00, 0.00, 0.00, -1.00, 32.0, 284.5)"></path><text xml:space="preserve" font-family="DINCondensed-Bold" font-weight="bold" font-size="170.0" fill="#FF9C35" transform="matrix(1.00, 0.00, -0.00, -1.00, 36.0, 137.0)">L</text><text xml:space="preserve" font-family="DINCondensed-Bold" font-weight="bold" font-size="170.0" fill="#FF9C35" transform="matrix(1.00, 0.00, -0.00, -1.00, 98.9, 137.0)">E</text><text xml:space="preserve" font-family="DINCondensed-Bold" font-weight="bold" font-size="170.0" fill="#FF9C35" transform="matrix(1.00, 0.00, -0.00, -1.00, 161.8, 137.0)">T</text><text xml:space="preserve" font-family="DINCondensed-Bold" font-weight="bold" font-size="170.0" fill="#FF9C35" transform="matrix(1.00, 0.00, -0.00, -1.00, 218.2, 137.0)">’</text><text xml:space="preserve" font-family="DINCondensed-Bold" font-weight="bold" font-size="170.0" fill="#FF9C35" transform="matrix(1.00, 0.00, -0.00, -1.00, 249.9, 137.0)">S</text><text xml:space="preserve" font-family="DINCondensed-Bold" font-weight="bold" font-size="170.0" fill="#FF9C35" transform="matrix(1.00, 0.00, -0.00, -1.00, 318.9, 137.0)"> </text><text xml:space="preserve" font-family="DINCondensed-Bold" font-weight="bold" font-size="170.0" fill="#FF9C35" transform="matrix(1.00, 0.00, -0.00, -1.00, 350.5, 137.0)">E</text><text xml:space="preserve" font-family="DINCondensed-Bold" font-weight="bold" font-size="170.0" fill="#FF9C35" transform="matrix(1.00, 0.00, -0.00, -1.00, 413.4, 137.0)">N</text><text xml:space="preserve" font-family="DINCondensed-Bold" font-weight="bold" font-size="170.0" fill="#FF9C35" transform="matrix(1.00, 0.00, -0.00, -1.00, 488.9, 137.0)">C</text><text xml:space="preserve" font-family="DINCondensed-Bold" font-weight="bold" font-size="170.0" fill="#FF9C35" transform="matrix(1.00, 0.00, -0.00, -1.00, 558.1, 137.0)">R</text><text xml:space="preserve" font-family="DINCondensed-Bold" font-weight="bold" font-size="170.0" fill="#FF9C35" transform="matrix(1.00, 0.00, -0.00, -1.00, 627.4, 137.0)">Y</text><text xml:space="preserve" font-family="DINCondensed-Bold" font-weight="bold" font-size="170.0" fill="#FF9C35" transform="matrix(1.00, 0.00, -0.00, -1.00, 693.4, 137.0)">P</text><text xml:space="preserve" font-family="DINCondensed-Bold" font-weight="bold" font-size="170.0" fill="#FF9C35" transform="matrix(1.00, 0.00, -0.00, -1.00, 762.6, 137.0)">T</text><text xml:space="preserve" font-family="DINCondensed-Bold" font-weight="bold" font-size="170.0" fill="#FF9C35" transform="matrix(1.00, 0.00, -0.00, -1.00, 819.0, 137.0)">!</text><g><clipPath id="clip-33"><path d="M 35.0 119.0 L 859.8 119.0 L 859.8 129.5 L 35.0 129.5 Z M 35.0 119.0 "></path></clipPath><g clip-path="url(#clip-33)"><path d="M 4.0 137.8 L 827.8 137.8 " fill="none" stroke="#FF9C35" stroke-width="8.50" stroke-miterlimit="0.00" transform="matrix(1.00, 0.00, 0.00, -1.00, 32.0, 262.0)"></path></g></g><text xml:space="preserve" font-family="DINAlternate-Bold" font-weight="bold" font-size="54.0" fill="#FEFFFE" transform="matrix(1.00, 0.00, -0.00, -1.00, 36.0, 306.0)">T</text><text xml:space="preserve" font-family="DINAlternate-Bold" font-weight="bold" font-size="54.0" fill="#FEFFFE" transform="matrix(1.00, 0.00, -0.00, -1.00, 62.0, 306.0)">O</text><text xml:space="preserve" font-family="DINAlternate-Bold" font-weight="bold" font-size="54.0" fill="#FEFFFE" transform="matrix(1.00, 0.00, -0.00, -1.00, 94.9, 306.0)">O</text><text xml:space="preserve" font-family="DINAlternate-Bold" font-weight="bold" font-size="54.0" fill="#FEFFFE" transform="matrix(1.00, 0.00, -0.00, -1.00, 127.9, 306.0)"> </text><text xml:space="preserve" font-family="DINAlternate-Bold" font-weight="bold" font-size="54.0" fill="#FEFFFE" transform="matrix(1.00, 0.00, -0.00, -1.00, 140.8, 306.0)">H</text><text xml:space="preserve" font-family="DINAlternate-Bold" font-weight="bold" font-size="54.0" fill="#FEFFFE" transform="matrix(1.00, 0.00, -0.00, -1.00, 175.8, 306.0)">A</text><text xml:space="preserve" font-family="DINAlternate-Bold" font-weight="bold" font-size="54.0" fill="#FEFFFE" transform="matrix(1.00, 0.00, -0.00, -1.00, 208.7, 306.0)">R</text><text xml:space="preserve" font-family="DINAlternate-Bold" font-weight="bold" font-size="54.0" fill="#FEFFFE" transform="matrix(1.00, 0.00, -0.00, -1.00, 241.7, 306.0)">D</text><text xml:space="preserve" font-family="DINAlternate-Bold" font-weight="bold" font-size="54.0" fill="#FEFFFE" transform="matrix(1.00, 0.00, -0.00, -1.00, 275.7, 306.0)">?</text><text xml:space="preserve" font-family="DINAlternate-Bold" font-weight="bold" font-size="54.0" fill="#FEFFFE" transform="matrix(1.00, 0.00, -0.00, -1.00, 300.7, 306.0)"> </text><text xml:space="preserve" font-family="DINAlternate-Bold" font-weight="bold" font-size="54.0" fill="#FEFFFE" transform="matrix(1.00, 0.00, -0.00, -1.00, 313.6, 306.0)">T</text><text xml:space="preserve" font-family="DINAlternate-Bold" font-weight="bold" font-size="54.0" fill="#FEFFFE" transform="matrix(1.00, 0.00, -0.00, -1.00, 339.6, 306.0)">O</text><text xml:space="preserve" font-family="DINAlternate-Bold" font-weight="bold" font-size="54.0" fill="#FEFFFE" transform="matrix(1.00, 0.00, -0.00, -1.00, 372.5, 306.0)">O</text><text xml:space="preserve" font-family="DINAlternate-Bold" font-weight="bold" font-size="54.0" fill="#FEFFFE" transform="matrix(1.00, 0.00, -0.00, -1.00, 405.5, 306.0)"> </text><text xml:space="preserve" font-family="DINAlternate-Bold" font-weight="bold" font-size="54.0" fill="#FEFFFE" transform="matrix(1.00, 0.00, -0.00, -1.00, 418.4, 306.0)">E</text><text xml:space="preserve" font-family="DINAlternate-Bold" font-weight="bold" font-size="54.0" fill="#FEFFFE" transform="matrix(1.00, 0.00, -0.00, -1.00, 448.4, 306.0)">X</text><text xml:space="preserve" font-family="DINAlternate-Bold" font-weight="bold" font-size="54.0" fill="#FEFFFE" transform="matrix(1.00, 0.00, -0.00, -1.00, 477.4, 306.0)">P</text><text xml:space="preserve" font-family="DINAlternate-Bold" font-weight="bold" font-size="54.0" fill="#FEFFFE" transform="matrix(1.00, 0.00, -0.00, -1.00, 509.4, 306.0)">E</text><text xml:space="preserve" font-family="DINAlternate-Bold" font-weight="bold" font-size="54.0" fill="#FEFFFE" transform="matrix(1.00, 0.00, -0.00, -1.00, 539.4, 306.0)">N</text><text xml:space="preserve" font-family="DINAlternate-Bold" font-weight="bold" font-size="54.0" fill="#FEFFFE" transform="matrix(1.00, 0.00, -0.00, -1.00, 576.4, 306.0)">S</text><text xml:space="preserve" font-family="DINAlternate-Bold" font-weight="bold" font-size="54.0" fill="#FEFFFE" transform="matrix(1.00, 0.00, -0.00, -1.00, 607.3, 306.0)">I</text><text xml:space="preserve" font-family="DINAlternate-Bold" font-weight="bold" font-size="54.0" fill="#FEFFFE" transform="matrix(1.00, 0.00, -0.00, -1.00, 621.2, 306.0)">V</text><text xml:space="preserve" font-family="DINAlternate-Bold" font-weight="bold" font-size="54.0" fill="#FEFFFE" transform="matrix(1.00, 0.00, -0.00, -1.00, 651.3, 306.0)">E</text><text xml:space="preserve" font-family="DINAlternate-Bold" font-weight="bold" font-size="54.0" fill="#FEFFFE" transform="matrix(1.00, 0.00, -0.00, -1.00, 681.3, 306.0)">?</text><text xml:space="preserve" font-family="DINAlternate-Bold" font-weight="bold" font-size="24.0" fill="#838686" transform="matrix(1.00, 0.00, -0.00, -1.00, 965.2, 707.4)">4</text><text xml:space="preserve" font-family="DINAlternate-Bold" font-weight="bold" font-size="24.0" fill="#838686" transform="matrix(1.00, 0.00, -0.00, -1.00, 976.7, 707.4)">9</text></g></svg>