<?xml version="1.0" encoding="UTF-8" standalone="no"?><svg xmlns="http://www.w3.org/2000/svg" xmlns:xlink="http://www.w3.org/1999/xlink" clip-rule="evenodd" stroke-miterlimit="4.00" viewBox="0 0 1024 768"><desc>SVG generated by Keynote</desc><defs></defs><g transform="matrix(1.00, 0.00, -0.00, -1.00, 0.0, 768.0)"><path d="M 0.0 768.0 L 1024.0 768.0 L 1024.0 0.0 L 0.0 0.0 Z M 0.0 768.0 " fill="#212121"></path><path d="M 0.0 0.0 L 960.0 0.0 " fill="none" stroke="#A6AAA8" stroke-width="3.00" transform="matrix(1.00, 0.00, 0.00, -1.00, 32.0, 284.5)"></path><text xml:space="preserve" font-family="DINCondensed-Bold" font-weight="bold" font-size="170.0" fill="#FF9C35" transform="matrix(1.00, 0.00, -0.00, -1.00, 36.0, 137.0)">A</text><text xml:space="preserve" font-family="DINCondensed-Bold" font-weight="bold" font-size="170.0" fill="#FF9C35" transform="matrix(1.00, 0.00, -0.00, -1.00, 105.2, 137.0)">L</text><text xml:space="preserve" font-family="DINCondensed-Bold" font-weight="bold" font-size="170.0" fill="#FF9C35" transform="matrix(1.00, 0.00, -0.00, -1.00, 168.1, 137.0)">L</text><text xml:space="preserve" font-family="DINCondensed-Bold" font-weight="bold" font-size="170.0" fill="#FF9C35" transform="matrix(1.00, 0.00, -0.00, -1.00, 231.0, 137.0)"> </text><text xml:space="preserve" font-family="DINCondensed-Bold" font-weight="bold" font-size="170.0" fill="#FF9C35" transform="matrix(1.00, 0.00, -0.00, -1.00, 262.6, 137.0)">O</text><text xml:space="preserve" font-family="DINCondensed-Bold" font-weight="bold" font-size="170.0" fill="#FF9C35" transform="matrix(1.00, 0.00, -0.00, -1.00, 335.0, 137.0)">F</text><text xml:space="preserve" font-family="DINCondensed-Bold" font-weight="bold" font-size="170.0" fill="#FF9C35" transform="matrix(1.00, 0.00, -0.00, -1.00, 397.9, 137.0)"> </text><text xml:space="preserve" font-family="DINCondensed-Bold" font-weight="bold" font-size="170.0" fill="#FF9C35" transform="matrix(1.00, 0.00, -0.00, -1.00, 429.6, 137.0)">T</text><text xml:space="preserve" font-family="DINCondensed-Bold" font-weight="bold" font-size="170.0" fill="#FF9C35" transform="matrix(1.00, 0.00, -0.00, -1.00, 486.0, 137.0)">H</text><text xml:space="preserve" font-family="DINCondensed-Bold" font-weight="bold" font-size="170.0" fill="#FF9C35" transform="matrix(1.00, 0.00, -0.00, -1.00, 558.4, 137.0)">E</text><text xml:space="preserve" font-family="DINCondensed-Bold" font-weight="bold" font-size="170.0" fill="#FF9C35" transform="matrix(1.00, 0.00, -0.00, -1.00, 621.3, 137.0)">M</text><text xml:space="preserve" font-family="DINAlternate-Bold" font-weight="bold" font-size="54.0" fill="#FEFFFE" transform="matrix(1.00, 0.00, -0.00, -1.00, 36.0, 306.0)">Y</text><text xml:space="preserve" font-family="DINAlternate-Bold" font-weight="bold" font-size="54.0" fill="#FEFFFE" transform="matrix(1.00, 0.00, -0.00, -1.00, 63.0, 306.0)">E</text><text xml:space="preserve" font-family="DINAlternate-Bold" font-weight="bold" font-size="54.0" fill="#FEFFFE" transform="matrix(1.00, 0.00, -0.00, -1.00, 93.0, 306.0)">S</text><text xml:space="preserve" font-family="DINAlternate-Bold" font-weight="bold" font-size="24.0" fill="#838686" transform="matrix(1.00, 0.00, -0.00, -1.00, 965.2, 707.4)">4</text><text xml:space="preserve" font-family="DINAlternate-Bold" font-weight="bold" font-size="24.0" fill="#838686" transform="matrix(1.00, 0.00, -0.00, -1.00, 976.7, 707.4)">8</text><image xlink:href="../../1EBAB789-BF81-4B70-AFA2-DAF2E75EDBB3/assets/76EA1312E4834EC01D8F45C1D5F3EC1E.jpeg" width="400.00" height="300.00" transform="matrix(1.00, 0.00, -0.00, -1.00, 312.0, 712.0)"></image></g></svg>