<?xml version="1.0" encoding="UTF-8" standalone="no"?><svg xmlns="http://www.w3.org/2000/svg" xmlns:xlink="http://www.w3.org/1999/xlink" clip-rule="evenodd" stroke-miterlimit="4.00" viewBox="0 0 1024 768"><desc>SVG generated by Keynote</desc><defs></defs><g transform="matrix(1.00, 0.00, -0.00, -1.00, 0.0, 768.0)"><path d="M 0.0 768.0 L 1024.0 768.0 L 1024.0 0.0 L 0.0 0.0 Z M 0.0 768.0 " fill="#212121"></path><path d="M 0.0 0.0 L 960.0 0.0 " fill="none" stroke="#A6AAA9" stroke-width="2.00" transform="matrix(1.00, 0.00, 0.00, -1.00, 32.0, 689.8)"></path><text xml:space="preserve" font-family="DINAlternate-Bold" font-weight="bold" font-size="24.0" fill="#FEFFFE" transform="matrix(1.00, 0.00, -0.00, -1.00, 36.0, 705.0)">M</text><text xml:space="preserve" font-family="DINAlternate-Bold" font-weight="bold" font-size="24.0" fill="#FEFFFE" transform="matrix(1.00, 0.00, -0.00, -1.00, 55.4, 705.0)">O</text><text xml:space="preserve" font-family="DINAlternate-Bold" font-weight="bold" font-size="24.0" fill="#FEFFFE" transform="matrix(1.00, 0.00, -0.00, -1.00, 71.2, 705.0)">R</text><text xml:space="preserve" font-family="DINAlternate-Bold" font-weight="bold" font-size="24.0" fill="#FEFFFE" transform="matrix(1.00, 0.00, -0.00, -1.00, 87.0, 705.0)">E</text><text xml:space="preserve" font-family="DINAlternate-Bold" font-weight="bold" font-size="24.0" fill="#FEFFFE" transform="matrix(1.00, 0.00, -0.00, -1.00, 101.6, 705.0)">…</text><text xml:space="preserve" font-family="DINCondensed-Bold" font-weight="bold" font-size="48.0" fill="#FF9C35" transform="matrix(1.00, 0.00, -0.00, -1.00, 36.0, 608.0)">S</text><text xml:space="preserve" font-family="DINCondensed-Bold" font-weight="bold" font-size="48.0" fill="#FF9C35" transform="matrix(1.00, 0.00, -0.00, -1.00, 55.5, 608.0)">O</text><text xml:space="preserve" font-family="DINCondensed-Bold" font-weight="bold" font-size="48.0" fill="#FF9C35" transform="matrix(1.00, 0.00, -0.00, -1.00, 75.9, 608.0)">M</text><text xml:space="preserve" font-family="DINCondensed-Bold" font-weight="bold" font-size="48.0" fill="#FF9C35" transform="matrix(1.00, 0.00, -0.00, -1.00, 102.6, 608.0)">E</text><text xml:space="preserve" font-family="DINCondensed-Bold" font-weight="bold" font-size="48.0" fill="#FF9C35" transform="matrix(1.00, 0.00, -0.00, -1.00, 120.4, 608.0)"> </text><text xml:space="preserve" font-family="DINCondensed-Bold" font-weight="bold" font-size="48.0" fill="#FF9C35" transform="matrix(1.00, 0.00, -0.00, -1.00, 129.3, 608.0)">M</text><text xml:space="preserve" font-family="DINCondensed-Bold" font-weight="bold" font-size="48.0" fill="#FF9C35" transform="matrix(1.00, 0.00, -0.00, -1.00, 156.0, 608.0)">O</text><text xml:space="preserve" font-family="DINCondensed-Bold" font-weight="bold" font-size="48.0" fill="#FF9C35" transform="matrix(1.00, 0.00, -0.00, -1.00, 176.4, 608.0)">R</text><text xml:space="preserve" font-family="DINCondensed-Bold" font-weight="bold" font-size="48.0" fill="#FF9C35" transform="matrix(1.00, 0.00, -0.00, -1.00, 196.9, 608.0)">E</text><text xml:space="preserve" font-family="DINCondensed-Bold" font-weight="bold" font-size="48.0" fill="#FF9C35" transform="matrix(1.00, 0.00, -0.00, -1.00, 214.7, 608.0)"> </text><text xml:space="preserve" font-family="DINCondensed-Bold" font-weight="bold" font-size="48.0" fill="#FF9C35" transform="matrix(1.00, 0.00, -0.00, -1.00, 223.6, 608.0)">A</text><text xml:space="preserve" font-family="DINCondensed-Bold" font-weight="bold" font-size="48.0" fill="#FF9C35" transform="matrix(1.00, 0.00, -0.00, -1.00, 243.1, 608.0)">D</text><text xml:space="preserve" font-family="DINCondensed-Bold" font-weight="bold" font-size="48.0" fill="#FF9C35" transform="matrix(1.00, 0.00, -0.00, -1.00, 262.7, 608.0)">V</text><text xml:space="preserve" font-family="DINCondensed-Bold" font-weight="bold" font-size="48.0" fill="#FF9C35" transform="matrix(1.00, 0.00, -0.00, -1.00, 282.2, 608.0)">I</text><text xml:space="preserve" font-family="DINCondensed-Bold" font-weight="bold" font-size="48.0" fill="#FF9C35" transform="matrix(1.00, 0.00, -0.00, -1.00, 292.0, 608.0)">C</text><text xml:space="preserve" font-family="DINCondensed-Bold" font-weight="bold" font-size="48.0" fill="#FF9C35" transform="matrix(1.00, 0.00, -0.00, -1.00, 311.6, 608.0)">E</text><text xml:space="preserve" font-family="DINCondensed-Bold" font-weight="bold" font-size="48.0" fill="#FF9C35" transform="matrix(1.00, 0.00, -0.00, -1.00, 329.3, 608.0)"> </text><text xml:space="preserve" font-family="DINCondensed-Bold" font-weight="bold" font-size="48.0" fill="#FF9C35" transform="matrix(1.00, 0.00, -0.00, -1.00, 338.3, 608.0)">F</text><text xml:space="preserve" font-family="DINCondensed-Bold" font-weight="bold" font-size="48.0" fill="#FF9C35" transform="matrix(1.00, 0.00, -0.00, -1.00, 356.0, 608.0)">R</text><text xml:space="preserve" font-family="DINCondensed-Bold" font-weight="bold" font-size="48.0" fill="#FF9C35" transform="matrix(1.00, 0.00, -0.00, -1.00, 376.5, 608.0)">O</text><text xml:space="preserve" font-family="DINCondensed-Bold" font-weight="bold" font-size="48.0" fill="#FF9C35" transform="matrix(1.00, 0.00, -0.00, -1.00, 396.9, 608.0)">M</text><text xml:space="preserve" font-family="DINCondensed-Bold" font-weight="bold" font-size="48.0" fill="#FF9C35" transform="matrix(1.00, 0.00, -0.00, -1.00, 423.6, 608.0)"> </text><text xml:space="preserve" font-family="DINCondensed-Bold" font-weight="bold" font-size="48.0" fill="#FF9C35" transform="matrix(1.00, 0.00, -0.00, -1.00, 432.5, 608.0)">T</text><text xml:space="preserve" font-family="DINCondensed-Bold" font-weight="bold" font-size="48.0" fill="#FF9C35" transform="matrix(1.00, 0.00, -0.00, -1.00, 448.5, 608.0)">H</text><text xml:space="preserve" font-family="DINCondensed-Bold" font-weight="bold" font-size="48.0" fill="#FF9C35" transform="matrix(1.00, 0.00, -0.00, -1.00, 468.9, 608.0)">E</text><text xml:space="preserve" font-family="DINCondensed-Bold" font-weight="bold" font-size="48.0" fill="#FF9C35" transform="matrix(1.00, 0.00, -0.00, -1.00, 486.7, 608.0)"> </text><text xml:space="preserve" font-family="DINCondensed-Bold" font-weight="bold" font-size="48.0" fill="#FF9C35" transform="matrix(1.00, 0.00, -0.00, -1.00, 495.6, 608.0)">S</text><text xml:space="preserve" font-family="DINCondensed-Bold" font-weight="bold" font-size="48.0" fill="#FF9C35" transform="matrix(1.00, 0.00, -0.00, -1.00, 515.1, 608.0)">E</text><text xml:space="preserve" font-family="DINCondensed-Bold" font-weight="bold" font-size="48.0" fill="#FF9C35" transform="matrix(1.00, 0.00, -0.00, -1.00, 532.8, 608.0)">C</text><text xml:space="preserve" font-family="DINCondensed-Bold" font-weight="bold" font-size="48.0" fill="#FF9C35" transform="matrix(1.00, 0.00, -0.00, -1.00, 552.4, 608.0)">U</text><text xml:space="preserve" font-family="DINCondensed-Bold" font-weight="bold" font-size="48.0" fill="#FF9C35" transform="matrix(1.00, 0.00, -0.00, -1.00, 572.8, 608.0)">R</text><text xml:space="preserve" font-family="DINCondensed-Bold" font-weight="bold" font-size="48.0" fill="#FF9C35" transform="matrix(1.00, 0.00, -0.00, -1.00, 593.3, 608.0)">I</text><text xml:space="preserve" font-family="DINCondensed-Bold" font-weight="bold" font-size="48.0" fill="#FF9C35" transform="matrix(1.00, 0.00, -0.00, -1.00, 603.1, 608.0)">T</text><text xml:space="preserve" font-family="DINCondensed-Bold" font-weight="bold" font-size="48.0" fill="#FF9C35" transform="matrix(1.00, 0.00, -0.00, -1.00, 619.0, 608.0)">Y</text><text xml:space="preserve" font-family="DINCondensed-Bold" font-weight="bold" font-size="48.0" fill="#FF9C35" transform="matrix(1.00, 0.00, -0.00, -1.00, 637.6, 608.0)"> </text><text xml:space="preserve" font-family="DINCondensed-Bold" font-weight="bold" font-size="48.0" fill="#FF9C35" transform="matrix(1.00, 0.00, -0.00, -1.00, 646.6, 608.0)">G</text><text xml:space="preserve" font-family="DINCondensed-Bold" font-weight="bold" font-size="48.0" fill="#FF9C35" transform="matrix(1.00, 0.00, -0.00, -1.00, 667.0, 608.0)">U</text><text xml:space="preserve" font-family="DINCondensed-Bold" font-weight="bold" font-size="48.0" fill="#FF9C35" transform="matrix(1.00, 0.00, -0.00, -1.00, 687.5, 608.0)">I</text><text xml:space="preserve" font-family="DINCondensed-Bold" font-weight="bold" font-size="48.0" fill="#FF9C35" transform="matrix(1.00, 0.00, -0.00, -1.00, 697.2, 608.0)">D</text><text xml:space="preserve" font-family="DINCondensed-Bold" font-weight="bold" font-size="48.0" fill="#FF9C35" transform="matrix(1.00, 0.00, -0.00, -1.00, 717.7, 608.0)">E</text><g><clipPath id="clip-53"><path d="M 494.6 602.6 L 735.5 602.6 L 735.5 607.0 L 494.6 607.0 Z M 494.6 602.6 "></path></clipPath><g clip-path="url(#clip-53)"><path d="M 463.6 42.2 L 703.5 42.2 " fill="none" stroke="#FF9C35" stroke-width="2.40" stroke-miterlimit="0.00" transform="matrix(1.00, 0.00, 0.00, -1.00, 32.0, 647.0)"></path></g></g><text xml:space="preserve" font-family="LucidaGrande" font-size="35.7" fill="#34A4DA" transform="matrix(1.00, 0.00, -0.00, -1.00, 36.0, 516.0)">‣</text><text xml:space="preserve" font-family="AvenirNext-Medium" font-size="34.0" fill="#FEFFFE" transform="matrix(1.00, 0.00, -0.00, -1.00, 71.0, 514.0)">D</text><text xml:space="preserve" font-family="AvenirNext-Medium" font-size="34.0" fill="#FEFFFE" transform="matrix(1.00, 0.00, -0.00, -1.00, 96.9, 514.0)">o</text><text xml:space="preserve" font-family="AvenirNext-Medium" font-size="34.0" fill="#FEFFFE" transform="matrix(1.00, 0.00, -0.00, -1.00, 117.6, 514.0)"> </text><text xml:space="preserve" font-family="AvenirNext-Medium" font-size="34.0" fill="#FEFFFE" transform="matrix(1.00, 0.00, -0.00, -1.00, 126.1, 514.0)">n</text><text xml:space="preserve" font-family="AvenirNext-Medium" font-size="34.0" fill="#FEFFFE" transform="matrix(1.00, 0.00, -0.00, -1.00, 145.9, 514.0)">o</text><text xml:space="preserve" font-family="AvenirNext-Medium" font-size="34.0" fill="#FEFFFE" transform="matrix(1.00, 0.00, -0.00, -1.00, 166.6, 514.0)">t</text><text xml:space="preserve" font-family="AvenirNext-Medium" font-size="34.0" fill="#FEFFFE" transform="matrix(1.00, 0.00, -0.00, -1.00, 177.8, 514.0)"> </text><text xml:space="preserve" font-family="AvenirNext-Medium" font-size="34.0" fill="#FEFFFE" transform="matrix(1.00, 0.00, -0.00, -1.00, 186.3, 514.0)">u</text><text xml:space="preserve" font-family="AvenirNext-Medium" font-size="34.0" fill="#FEFFFE" transform="matrix(1.00, 0.00, -0.00, -1.00, 206.1, 514.0)">s</text><text xml:space="preserve" font-family="AvenirNext-Medium" font-size="34.0" fill="#FEFFFE" transform="matrix(1.00, 0.00, -0.00, -1.00, 221.2, 514.0)">e</text><text xml:space="preserve" font-family="AvenirNext-Medium" font-size="34.0" fill="#FEFFFE" transform="matrix(1.00, 0.00, -0.00, -1.00, 240.7, 514.0)"> </text><text xml:space="preserve" font-family="AvenirNext-Medium" font-size="34.0" fill="#FEFFFE" transform="matrix(1.00, 0.00, -0.00, -1.00, 248.6, 514.0)">A</text><text xml:space="preserve" font-family="AvenirNext-Medium" font-size="34.0" fill="#FEFFFE" transform="matrix(1.00, 0.00, -0.00, -1.00, 272.8, 514.0)">n</text><text xml:space="preserve" font-family="AvenirNext-Medium" font-size="34.0" fill="#FEFFFE" transform="matrix(1.00, 0.00, -0.00, -1.00, 292.5, 514.0)">d</text><text xml:space="preserve" font-family="AvenirNext-Medium" font-size="34.0" fill="#FEFFFE" transform="matrix(1.00, 0.00, -0.00, -1.00, 314.1, 514.0)">r</text><text xml:space="preserve" font-family="AvenirNext-Medium" font-size="34.0" fill="#FEFFFE" transform="matrix(1.00, 0.00, -0.00, -1.00, 325.8, 514.0)">o</text><text xml:space="preserve" font-family="AvenirNext-Medium" font-size="34.0" fill="#FEFFFE" transform="matrix(1.00, 0.00, -0.00, -1.00, 346.6, 514.0)">i</text><text xml:space="preserve" font-family="AvenirNext-Medium" font-size="34.0" fill="#FEFFFE" transform="matrix(1.00, 0.00, -0.00, -1.00, 355.4, 514.0)">d</text><text xml:space="preserve" font-family="AvenirNext-Medium" font-size="34.0" fill="#FEFFFE" transform="matrix(1.00, 0.00, -0.00, -1.00, 377.0, 514.0)"> </text><text xml:space="preserve" font-family="AvenirNext-Medium" font-size="34.0" fill="#FEFFFE" transform="matrix(1.00, 0.00, -0.00, -1.00, 385.5, 514.0)">G</text><text xml:space="preserve" font-family="AvenirNext-Medium" font-size="34.0" fill="#FEFFFE" transform="matrix(1.00, 0.00, -0.00, -1.00, 411.9, 514.0)">i</text><text xml:space="preserve" font-family="AvenirNext-Medium" font-size="34.0" fill="#FEFFFE" transform="matrix(1.00, 0.00, -0.00, -1.00, 420.7, 514.0)">n</text><text xml:space="preserve" font-family="AvenirNext-Medium" font-size="34.0" fill="#FEFFFE" transform="matrix(1.00, 0.00, -0.00, -1.00, 440.5, 514.0)">g</text><text xml:space="preserve" font-family="AvenirNext-Medium" font-size="34.0" fill="#FEFFFE" transform="matrix(1.00, 0.00, -0.00, -1.00, 462.0, 514.0)">e</text><text xml:space="preserve" font-family="AvenirNext-Medium" font-size="34.0" fill="#FEFFFE" transform="matrix(1.00, 0.00, -0.00, -1.00, 481.5, 514.0)">r</text><text xml:space="preserve" font-family="AvenirNext-Medium" font-size="34.0" fill="#FEFFFE" transform="matrix(1.00, 0.00, -0.00, -1.00, 493.8, 514.0)">b</text><text xml:space="preserve" font-family="AvenirNext-Medium" font-size="34.0" fill="#FEFFFE" transform="matrix(1.00, 0.00, -0.00, -1.00, 515.4, 514.0)">r</text><text xml:space="preserve" font-family="AvenirNext-Medium" font-size="34.0" fill="#FEFFFE" transform="matrix(1.00, 0.00, -0.00, -1.00, 527.1, 514.0)">e</text><text xml:space="preserve" font-family="AvenirNext-Medium" font-size="34.0" fill="#FEFFFE" transform="matrix(1.00, 0.00, -0.00, -1.00, 546.4, 514.0)">a</text><text xml:space="preserve" font-family="AvenirNext-Medium" font-size="34.0" fill="#FEFFFE" transform="matrix(1.00, 0.00, -0.00, -1.00, 564.8, 514.0)">d</text><text xml:space="preserve" font-family="AvenirNext-Medium" font-size="34.0" fill="#FEFFFE" transform="matrix(1.00, 0.00, -0.00, -1.00, 586.4, 514.0)"> </text><text xml:space="preserve" font-family="AvenirNext-Medium" font-size="34.0" fill="#FEFFFE" transform="matrix(1.00, 0.00, -0.00, -1.00, 594.9, 514.0)">(</text><text xml:space="preserve" font-family="AvenirNext-Medium" font-size="34.0" fill="#FEFFFE" transform="matrix(1.00, 0.00, -0.00, -1.00, 605.6, 514.0)">2</text><text xml:space="preserve" font-family="AvenirNext-Medium" font-size="34.0" fill="#FEFFFE" transform="matrix(1.00, 0.00, -0.00, -1.00, 625.8, 514.0)">.</text><text xml:space="preserve" font-family="AvenirNext-Medium" font-size="34.0" fill="#FEFFFE" transform="matrix(1.00, 0.00, -0.00, -1.00, 634.7, 514.0)">3</text><text xml:space="preserve" font-family="AvenirNext-Medium" font-size="34.0" fill="#FEFFFE" transform="matrix(1.00, 0.00, -0.00, -1.00, 654.9, 514.0)">)</text><text xml:space="preserve" font-family="AvenirNext-Medium" font-size="34.0" fill="#FEFFFE" transform="matrix(1.00, 0.00, -0.00, -1.00, 665.6, 514.0)">!</text><text xml:space="preserve" font-family="AvenirNext-Medium" font-size="34.0" fill="#FEFFFE" transform="matrix(1.00, 0.00, -0.00, -1.00, 677.0, 514.0)"> </text><text xml:space="preserve" font-family="LucidaGrande" font-size="35.7" fill="#34A4DA" transform="matrix(1.00, 0.00, -0.00, -1.00, 36.0, 442.0)">‣</text><text xml:space="preserve" font-family="AvenirNext-Medium" font-size="34.0" fill="#FEFFFE" transform="matrix(1.00, 0.00, -0.00, -1.00, 71.0, 440.0)">U</text><text xml:space="preserve" font-family="AvenirNext-Medium" font-size="34.0" fill="#FEFFFE" transform="matrix(1.00, 0.00, -0.00, -1.00, 95.2, 440.0)">s</text><text xml:space="preserve" font-family="AvenirNext-Medium" font-size="34.0" fill="#FEFFFE" transform="matrix(1.00, 0.00, -0.00, -1.00, 110.3, 440.0)">e</text><text xml:space="preserve" font-family="AvenirNext-Medium" font-size="34.0" fill="#FEFFFE" transform="matrix(1.00, 0.00, -0.00, -1.00, 129.8, 440.0)"> </text><text xml:space="preserve" font-family="AvenirNext-Medium" font-size="34.0" fill="#FEFFFE" transform="matrix(1.00, 0.00, -0.00, -1.00, 138.3, 440.0)">I</text><text xml:space="preserve" font-family="AvenirNext-Medium" font-size="34.0" fill="#FEFFFE" transform="matrix(1.00, 0.00, -0.00, -1.00, 147.5, 440.0)">n</text><text xml:space="preserve" font-family="AvenirNext-Medium" font-size="34.0" fill="#FEFFFE" transform="matrix(1.00, 0.00, -0.00, -1.00, 167.3, 440.0)">A</text><text xml:space="preserve" font-family="AvenirNext-Medium" font-size="34.0" fill="#FEFFFE" transform="matrix(1.00, 0.00, -0.00, -1.00, 191.5, 440.0)">p</text><text xml:space="preserve" font-family="AvenirNext-Medium" font-size="34.0" fill="#FEFFFE" transform="matrix(1.00, 0.00, -0.00, -1.00, 213.0, 440.0)">p</text><text xml:space="preserve" font-family="AvenirNext-Medium" font-size="34.0" fill="#FEFFFE" transform="matrix(1.00, 0.00, -0.00, -1.00, 234.6, 440.0)">B</text><text xml:space="preserve" font-family="AvenirNext-Medium" font-size="34.0" fill="#FEFFFE" transform="matrix(1.00, 0.00, -0.00, -1.00, 256.4, 440.0)">r</text><text xml:space="preserve" font-family="AvenirNext-Medium" font-size="34.0" fill="#FEFFFE" transform="matrix(1.00, 0.00, -0.00, -1.00, 268.1, 440.0)">o</text><text xml:space="preserve" font-family="AvenirNext-Medium" font-size="34.0" fill="#FEFFFE" transform="matrix(1.00, 0.00, -0.00, -1.00, 288.8, 440.0)">w</text><text xml:space="preserve" font-family="AvenirNext-Medium" font-size="34.0" fill="#FEFFFE" transform="matrix(1.00, 0.00, -0.00, -1.00, 315.1, 440.0)">s</text><text xml:space="preserve" font-family="AvenirNext-Medium" font-size="34.0" fill="#FEFFFE" transform="matrix(1.00, 0.00, -0.00, -1.00, 330.2, 440.0)">e</text><text xml:space="preserve" font-family="AvenirNext-Medium" font-size="34.0" fill="#FEFFFE" transform="matrix(1.00, 0.00, -0.00, -1.00, 349.7, 440.0)">r</text><text xml:space="preserve" font-family="AvenirNext-Medium" font-size="34.0" fill="#FEFFFE" transform="matrix(1.00, 0.00, -0.00, -1.00, 362.0, 440.0)"> </text><text xml:space="preserve" font-family="AvenirNext-Medium" font-size="34.0" fill="#FEFFFE" transform="matrix(1.00, 0.00, -0.00, -1.00, 370.5, 440.0)">f</text><text xml:space="preserve" font-family="AvenirNext-Medium" font-size="34.0" fill="#FEFFFE" transform="matrix(1.00, 0.00, -0.00, -1.00, 381.0, 440.0)">o</text><text xml:space="preserve" font-family="AvenirNext-Medium" font-size="34.0" fill="#FEFFFE" transform="matrix(1.00, 0.00, -0.00, -1.00, 401.8, 440.0)">r</text><text xml:space="preserve" font-family="AvenirNext-Medium" font-size="34.0" fill="#FEFFFE" transform="matrix(1.00, 0.00, -0.00, -1.00, 414.1, 440.0)"> </text><text xml:space="preserve" font-family="AvenirNext-Medium" font-size="34.0" fill="#FEFFFE" transform="matrix(1.00, 0.00, -0.00, -1.00, 422.6, 440.0)">o</text><text xml:space="preserve" font-family="AvenirNext-Medium" font-size="34.0" fill="#FEFFFE" transform="matrix(1.00, 0.00, -0.00, -1.00, 443.3, 440.0)">u</text><text xml:space="preserve" font-family="AvenirNext-Medium" font-size="34.0" fill="#FEFFFE" transform="matrix(1.00, 0.00, -0.00, -1.00, 463.1, 440.0)">t</text><text xml:space="preserve" font-family="AvenirNext-Medium" font-size="34.0" fill="#FEFFFE" transform="matrix(1.00, 0.00, -0.00, -1.00, 474.3, 440.0)">s</text><text xml:space="preserve" font-family="AvenirNext-Medium" font-size="34.0" fill="#FEFFFE" transform="matrix(1.00, 0.00, -0.00, -1.00, 489.4, 440.0)">i</text><text xml:space="preserve" font-family="AvenirNext-Medium" font-size="34.0" fill="#FEFFFE" transform="matrix(1.00, 0.00, -0.00, -1.00, 498.2, 440.0)">d</text><text xml:space="preserve" font-family="AvenirNext-Medium" font-size="34.0" fill="#FEFFFE" transform="matrix(1.00, 0.00, -0.00, -1.00, 519.8, 440.0)">e</text><text xml:space="preserve" font-family="AvenirNext-Medium" font-size="34.0" fill="#FEFFFE" transform="matrix(1.00, 0.00, -0.00, -1.00, 539.3, 440.0)"> </text><text xml:space="preserve" font-family="AvenirNext-Medium" font-size="34.0" fill="#FEFFFE" transform="matrix(1.00, 0.00, -0.00, -1.00, 547.8, 440.0)">l</text><text xml:space="preserve" font-family="AvenirNext-Medium" font-size="34.0" fill="#FEFFFE" transform="matrix(1.00, 0.00, -0.00, -1.00, 556.6, 440.0)">i</text><text xml:space="preserve" font-family="AvenirNext-Medium" font-size="34.0" fill="#FEFFFE" transform="matrix(1.00, 0.00, -0.00, -1.00, 565.4, 440.0)">n</text><text xml:space="preserve" font-family="AvenirNext-Medium" font-size="34.0" fill="#FEFFFE" transform="matrix(1.00, 0.00, -0.00, -1.00, 585.2, 440.0)">k</text><text xml:space="preserve" font-family="AvenirNext-Medium" font-size="34.0" fill="#FEFFFE" transform="matrix(1.00, 0.00, -0.00, -1.00, 602.9, 440.0)">s</text><text xml:space="preserve" font-family="AvenirNext-Medium" font-size="34.0" fill="#FEFFFE" transform="matrix(1.00, 0.00, -0.00, -1.00, 618.0, 440.0)"> </text><text xml:space="preserve" font-family="LucidaGrande" font-size="35.7" fill="#34A4DA" transform="matrix(1.00, 0.00, -0.00, -1.00, 36.0, 368.0)">‣</text><text xml:space="preserve" font-family="AvenirNext-Medium" font-size="34.0" fill="#FEFFFE" transform="matrix(1.00, 0.00, -0.00, -1.00, 71.0, 366.0)">V</text><text xml:space="preserve" font-family="AvenirNext-Medium" font-size="34.0" fill="#FEFFFE" transform="matrix(1.00, 0.00, -0.00, -1.00, 91.4, 366.0)">a</text><text xml:space="preserve" font-family="AvenirNext-Medium" font-size="34.0" fill="#FEFFFE" transform="matrix(1.00, 0.00, -0.00, -1.00, 109.8, 366.0)">l</text><text xml:space="preserve" font-family="AvenirNext-Medium" font-size="34.0" fill="#FEFFFE" transform="matrix(1.00, 0.00, -0.00, -1.00, 118.7, 366.0)">i</text><text xml:space="preserve" font-family="AvenirNext-Medium" font-size="34.0" fill="#FEFFFE" transform="matrix(1.00, 0.00, -0.00, -1.00, 127.5, 366.0)">d</text><text xml:space="preserve" font-family="AvenirNext-Medium" font-size="34.0" fill="#FEFFFE" transform="matrix(1.00, 0.00, -0.00, -1.00, 149.1, 366.0)">a</text><text xml:space="preserve" font-family="AvenirNext-Medium" font-size="34.0" fill="#FEFFFE" transform="matrix(1.00, 0.00, -0.00, -1.00, 167.2, 366.0)">t</text><text xml:space="preserve" font-family="AvenirNext-Medium" font-size="34.0" fill="#FEFFFE" transform="matrix(1.00, 0.00, -0.00, -1.00, 178.3, 366.0)">e</text><text xml:space="preserve" font-family="AvenirNext-Medium" font-size="34.0" fill="#FEFFFE" transform="matrix(1.00, 0.00, -0.00, -1.00, 197.8, 366.0)"> </text><text xml:space="preserve" font-family="AvenirNext-Medium" font-size="34.0" fill="#FEFFFE" transform="matrix(1.00, 0.00, -0.00, -1.00, 206.3, 366.0)">a</text><text xml:space="preserve" font-family="AvenirNext-Medium" font-size="34.0" fill="#FEFFFE" transform="matrix(1.00, 0.00, -0.00, -1.00, 224.7, 366.0)">l</text><text xml:space="preserve" font-family="AvenirNext-Medium" font-size="34.0" fill="#FEFFFE" transform="matrix(1.00, 0.00, -0.00, -1.00, 233.6, 366.0)">l</text><text xml:space="preserve" font-family="AvenirNext-Medium" font-size="34.0" fill="#FEFFFE" transform="matrix(1.00, 0.00, -0.00, -1.00, 242.4, 366.0)"> </text><text xml:space="preserve" font-family="AvenirNext-Medium" font-size="34.0" fill="#FEFFFE" transform="matrix(1.00, 0.00, -0.00, -1.00, 250.9, 366.0)">u</text><text xml:space="preserve" font-family="AvenirNext-Medium" font-size="34.0" fill="#FEFFFE" transform="matrix(1.00, 0.00, -0.00, -1.00, 270.7, 366.0)">s</text><text xml:space="preserve" font-family="AvenirNext-Medium" font-size="34.0" fill="#FEFFFE" transform="matrix(1.00, 0.00, -0.00, -1.00, 285.8, 366.0)">e</text><text xml:space="preserve" font-family="AvenirNext-Medium" font-size="34.0" fill="#FEFFFE" transform="matrix(1.00, 0.00, -0.00, -1.00, 305.3, 366.0)">r</text><text xml:space="preserve" font-family="AvenirNext-Medium" font-size="34.0" fill="#FEFFFE" transform="matrix(1.00, 0.00, -0.00, -1.00, 317.6, 366.0)"> </text><text xml:space="preserve" font-family="AvenirNext-Medium" font-size="34.0" fill="#FEFFFE" transform="matrix(1.00, 0.00, -0.00, -1.00, 326.1, 366.0)">i</text><text xml:space="preserve" font-family="AvenirNext-Medium" font-size="34.0" fill="#FEFFFE" transform="matrix(1.00, 0.00, -0.00, -1.00, 334.9, 366.0)">n</text><text xml:space="preserve" font-family="AvenirNext-Medium" font-size="34.0" fill="#FEFFFE" transform="matrix(1.00, 0.00, -0.00, -1.00, 354.7, 366.0)">p</text><text xml:space="preserve" font-family="AvenirNext-Medium" font-size="34.0" fill="#FEFFFE" transform="matrix(1.00, 0.00, -0.00, -1.00, 376.3, 366.0)">u</text><text xml:space="preserve" font-family="AvenirNext-Medium" font-size="34.0" fill="#FEFFFE" transform="matrix(1.00, 0.00, -0.00, -1.00, 396.0, 366.0)">t</text><text xml:space="preserve" font-family="AvenirNext-Medium" font-size="34.0" fill="#FEFFFE" transform="matrix(1.00, 0.00, -0.00, -1.00, 407.2, 366.0)"> </text><text xml:space="preserve" font-family="AvenirNext-Medium" font-size="34.0" fill="#FEFFFE" transform="matrix(1.00, 0.00, -0.00, -1.00, 415.7, 366.0)">(</text><text xml:space="preserve" font-family="AvenirNext-Medium" font-size="34.0" fill="#FEFFFE" transform="matrix(1.00, 0.00, -0.00, -1.00, 426.4, 366.0)">w</text><text xml:space="preserve" font-family="AvenirNext-Medium" font-size="34.0" fill="#FEFFFE" transform="matrix(1.00, 0.00, -0.00, -1.00, 452.7, 366.0)">o</text><text xml:space="preserve" font-family="AvenirNext-Medium" font-size="34.0" fill="#FEFFFE" transform="matrix(1.00, 0.00, -0.00, -1.00, 473.5, 366.0)">r</text><text xml:space="preserve" font-family="AvenirNext-Medium" font-size="34.0" fill="#FEFFFE" transform="matrix(1.00, 0.00, -0.00, -1.00, 485.4, 366.0)">t</text><text xml:space="preserve" font-family="AvenirNext-Medium" font-size="34.0" fill="#FEFFFE" transform="matrix(1.00, 0.00, -0.00, -1.00, 496.5, 366.0)">h</text><text xml:space="preserve" font-family="AvenirNext-Medium" font-size="34.0" fill="#FEFFFE" transform="matrix(1.00, 0.00, -0.00, -1.00, 516.4, 366.0)"> </text><text xml:space="preserve" font-family="AvenirNext-Medium" font-size="34.0" fill="#FEFFFE" transform="matrix(1.00, 0.00, -0.00, -1.00, 524.9, 366.0)">r</text><text xml:space="preserve" font-family="AvenirNext-Medium" font-size="34.0" fill="#FEFFFE" transform="matrix(1.00, 0.00, -0.00, -1.00, 536.6, 366.0)">e</text><text xml:space="preserve" font-family="AvenirNext-Medium" font-size="34.0" fill="#FEFFFE" transform="matrix(1.00, 0.00, -0.00, -1.00, 556.1, 366.0)">p</text><text xml:space="preserve" font-family="AvenirNext-Medium" font-size="34.0" fill="#FEFFFE" transform="matrix(1.00, 0.00, -0.00, -1.00, 577.6, 366.0)">e</text><text xml:space="preserve" font-family="AvenirNext-Medium" font-size="34.0" fill="#FEFFFE" transform="matrix(1.00, 0.00, -0.00, -1.00, 596.9, 366.0)">a</text><text xml:space="preserve" font-family="AvenirNext-Medium" font-size="34.0" fill="#FEFFFE" transform="matrix(1.00, 0.00, -0.00, -1.00, 615.0, 366.0)">t</text><text xml:space="preserve" font-family="AvenirNext-Medium" font-size="34.0" fill="#FEFFFE" transform="matrix(1.00, 0.00, -0.00, -1.00, 626.2, 366.0)">i</text><text xml:space="preserve" font-family="AvenirNext-Medium" font-size="34.0" fill="#FEFFFE" transform="matrix(1.00, 0.00, -0.00, -1.00, 635.0, 366.0)">n</text><text xml:space="preserve" font-family="AvenirNext-Medium" font-size="34.0" fill="#FEFFFE" transform="matrix(1.00, 0.00, -0.00, -1.00, 654.8, 366.0)">g</text><text xml:space="preserve" font-family="AvenirNext-Medium" font-size="34.0" fill="#FEFFFE" transform="matrix(1.00, 0.00, -0.00, -1.00, 676.3, 366.0)">)</text><text xml:space="preserve" font-family="AvenirNext-Medium" font-size="34.0" fill="#FEFFFE" transform="matrix(1.00, 0.00, -0.00, -1.00, 687.0, 366.0)"> </text><text xml:space="preserve" font-family="LucidaGrande" font-size="35.7" fill="#34A4DA" transform="matrix(1.00, 0.00, -0.00, -1.00, 36.0, 294.0)">‣</text><text xml:space="preserve" font-family="AvenirNext-Medium" font-size="34.0" fill="#FEFFFE" transform="matrix(1.00, 0.00, -0.00, -1.00, 71.0, 292.0)">D</text><text xml:space="preserve" font-family="AvenirNext-Medium" font-size="34.0" fill="#FEFFFE" transform="matrix(1.00, 0.00, -0.00, -1.00, 96.9, 292.0)">o</text><text xml:space="preserve" font-family="AvenirNext-Medium" font-size="34.0" fill="#FEFFFE" transform="matrix(1.00, 0.00, -0.00, -1.00, 117.6, 292.0)"> </text><text xml:space="preserve" font-family="AvenirNext-Medium" font-size="34.0" fill="#FEFFFE" transform="matrix(1.00, 0.00, -0.00, -1.00, 126.1, 292.0)">n</text><text xml:space="preserve" font-family="AvenirNext-Medium" font-size="34.0" fill="#FEFFFE" transform="matrix(1.00, 0.00, -0.00, -1.00, 145.9, 292.0)">o</text><text xml:space="preserve" font-family="AvenirNext-Medium" font-size="34.0" fill="#FEFFFE" transform="matrix(1.00, 0.00, -0.00, -1.00, 166.6, 292.0)">t</text><text xml:space="preserve" font-family="AvenirNext-Medium" font-size="34.0" fill="#FEFFFE" transform="matrix(1.00, 0.00, -0.00, -1.00, 177.8, 292.0)"> </text><text xml:space="preserve" font-family="AvenirNext-Medium" font-size="34.0" fill="#FEFFFE" transform="matrix(1.00, 0.00, -0.00, -1.00, 186.3, 292.0)">c</text><text xml:space="preserve" font-family="AvenirNext-Medium" font-size="34.0" fill="#FEFFFE" transform="matrix(1.00, 0.00, -0.00, -1.00, 203.1, 292.0)">a</text><text xml:space="preserve" font-family="AvenirNext-Medium" font-size="34.0" fill="#FEFFFE" transform="matrix(1.00, 0.00, -0.00, -1.00, 221.6, 292.0)">c</text><text xml:space="preserve" font-family="AvenirNext-Medium" font-size="34.0" fill="#FEFFFE" transform="matrix(1.00, 0.00, -0.00, -1.00, 238.3, 292.0)">h</text><text xml:space="preserve" font-family="AvenirNext-Medium" font-size="34.0" fill="#FEFFFE" transform="matrix(1.00, 0.00, -0.00, -1.00, 258.2, 292.0)">e</text><text xml:space="preserve" font-family="AvenirNext-Medium" font-size="34.0" fill="#FEFFFE" transform="matrix(1.00, 0.00, -0.00, -1.00, 277.7, 292.0)"> </text><text xml:space="preserve" font-family="AvenirNext-Medium" font-size="34.0" fill="#FEFFFE" transform="matrix(1.00, 0.00, -0.00, -1.00, 286.2, 292.0)">s</text><text xml:space="preserve" font-family="AvenirNext-Medium" font-size="34.0" fill="#FEFFFE" transform="matrix(1.00, 0.00, -0.00, -1.00, 301.3, 292.0)">e</text><text xml:space="preserve" font-family="AvenirNext-Medium" font-size="34.0" fill="#FEFFFE" transform="matrix(1.00, 0.00, -0.00, -1.00, 320.8, 292.0)">n</text><text xml:space="preserve" font-family="AvenirNext-Medium" font-size="34.0" fill="#FEFFFE" transform="matrix(1.00, 0.00, -0.00, -1.00, 340.6, 292.0)">s</text><text xml:space="preserve" font-family="AvenirNext-Medium" font-size="34.0" fill="#FEFFFE" transform="matrix(1.00, 0.00, -0.00, -1.00, 355.6, 292.0)">i</text><text xml:space="preserve" font-family="AvenirNext-Medium" font-size="34.0" fill="#FEFFFE" transform="matrix(1.00, 0.00, -0.00, -1.00, 364.5, 292.0)">t</text><text xml:space="preserve" font-family="AvenirNext-Medium" font-size="34.0" fill="#FEFFFE" transform="matrix(1.00, 0.00, -0.00, -1.00, 375.6, 292.0)">i</text><text xml:space="preserve" font-family="AvenirNext-Medium" font-size="34.0" fill="#FEFFFE" transform="matrix(1.00, 0.00, -0.00, -1.00, 384.4, 292.0)">v</text><text xml:space="preserve" font-family="AvenirNext-Medium" font-size="34.0" fill="#FEFFFE" transform="matrix(1.00, 0.00, -0.00, -1.00, 401.6, 292.0)">e</text><text xml:space="preserve" font-family="AvenirNext-Medium" font-size="34.0" fill="#FEFFFE" transform="matrix(1.00, 0.00, -0.00, -1.00, 421.1, 292.0)"> </text><text xml:space="preserve" font-family="AvenirNext-Medium" font-size="34.0" fill="#FEFFFE" transform="matrix(1.00, 0.00, -0.00, -1.00, 429.6, 292.0)">d</text><text xml:space="preserve" font-family="AvenirNext-Medium" font-size="34.0" fill="#FEFFFE" transform="matrix(1.00, 0.00, -0.00, -1.00, 451.2, 292.0)">a</text><text xml:space="preserve" font-family="AvenirNext-Medium" font-size="34.0" fill="#FEFFFE" transform="matrix(1.00, 0.00, -0.00, -1.00, 469.2, 292.0)">t</text><text xml:space="preserve" font-family="AvenirNext-Medium" font-size="34.0" fill="#FEFFFE" transform="matrix(1.00, 0.00, -0.00, -1.00, 480.4, 292.0)">a</text><text xml:space="preserve" font-family="AvenirNext-Medium" font-size="34.0" fill="#FEFFFE" transform="matrix(1.00, 0.00, -0.00, -1.00, 498.9, 292.0)"> </text><text xml:space="preserve" font-family="LucidaGrande" font-size="35.7" fill="#34A4DA" transform="matrix(1.00, 0.00, -0.00, -1.00, 36.0, 220.0)">‣</text><text xml:space="preserve" font-family="AvenirNext-Medium" font-size="34.0" fill="#FEFFFE" transform="matrix(1.00, 0.00, -0.00, -1.00, 71.0, 218.0)">D</text><text xml:space="preserve" font-family="AvenirNext-Medium" font-size="34.0" fill="#FEFFFE" transform="matrix(1.00, 0.00, -0.00, -1.00, 96.9, 218.0)">o</text><text xml:space="preserve" font-family="AvenirNext-Medium" font-size="34.0" fill="#FEFFFE" transform="matrix(1.00, 0.00, -0.00, -1.00, 117.6, 218.0)">n</text><text xml:space="preserve" font-family="AvenirNext-Medium" font-size="34.0" fill="#FEFFFE" transform="matrix(1.00, 0.00, -0.00, -1.00, 137.4, 218.0)">'</text><text xml:space="preserve" font-family="AvenirNext-Medium" font-size="34.0" fill="#FEFFFE" transform="matrix(1.00, 0.00, -0.00, -1.00, 146.3, 218.0)">t</text><text xml:space="preserve" font-family="AvenirNext-Medium" font-size="34.0" fill="#FEFFFE" transform="matrix(1.00, 0.00, -0.00, -1.00, 157.5, 218.0)"> </text><text xml:space="preserve" font-family="AvenirNext-Medium" font-size="34.0" fill="#FEFFFE" transform="matrix(1.00, 0.00, -0.00, -1.00, 166.0, 218.0)">u</text><text xml:space="preserve" font-family="AvenirNext-Medium" font-size="34.0" fill="#FEFFFE" transform="matrix(1.00, 0.00, -0.00, -1.00, 185.8, 218.0)">s</text><text xml:space="preserve" font-family="AvenirNext-Medium" font-size="34.0" fill="#FEFFFE" transform="matrix(1.00, 0.00, -0.00, -1.00, 200.9, 218.0)">e</text><text xml:space="preserve" font-family="AvenirNext-Medium" font-size="34.0" fill="#FEFFFE" transform="matrix(1.00, 0.00, -0.00, -1.00, 220.4, 218.0)"> </text><text xml:space="preserve" font-family="AvenirNext-Medium" font-size="34.0" fill="#FEFFFE" transform="matrix(1.00, 0.00, -0.00, -1.00, 228.9, 218.0)">e</text><text xml:space="preserve" font-family="AvenirNext-Medium" font-size="34.0" fill="#FEFFFE" transform="matrix(1.00, 0.00, -0.00, -1.00, 248.3, 218.0)">v</text><text xml:space="preserve" font-family="AvenirNext-Medium" font-size="34.0" fill="#FEFFFE" transform="matrix(1.00, 0.00, -0.00, -1.00, 265.5, 218.0)">a</text><text xml:space="preserve" font-family="AvenirNext-Medium" font-size="34.0" fill="#FEFFFE" transform="matrix(1.00, 0.00, -0.00, -1.00, 283.9, 218.0)">l</text><text xml:space="preserve" font-family="AvenirNext-Medium" font-size="34.0" fill="#FEFFFE" transform="matrix(1.00, 0.00, -0.00, -1.00, 292.7, 218.0)">(</text><text xml:space="preserve" font-family="AvenirNext-Medium" font-size="34.0" fill="#FEFFFE" transform="matrix(1.00, 0.00, -0.00, -1.00, 303.5, 218.0)">)</text><text xml:space="preserve" font-family="AvenirNext-Medium" font-size="34.0" fill="#FEFFFE" transform="matrix(1.00, 0.00, -0.00, -1.00, 314.2, 218.0)"> </text><text xml:space="preserve" font-family="AvenirNext-Medium" font-size="34.0" fill="#FEFFFE" transform="matrix(1.00, 0.00, -0.00, -1.00, 322.7, 218.0)">u</text><text xml:space="preserve" font-family="AvenirNext-Medium" font-size="34.0" fill="#FEFFFE" transform="matrix(1.00, 0.00, -0.00, -1.00, 342.5, 218.0)">n</text><text xml:space="preserve" font-family="AvenirNext-Medium" font-size="34.0" fill="#FEFFFE" transform="matrix(1.00, 0.00, -0.00, -1.00, 362.2, 218.0)">l</text><text xml:space="preserve" font-family="AvenirNext-Medium" font-size="34.0" fill="#FEFFFE" transform="matrix(1.00, 0.00, -0.00, -1.00, 371.1, 218.0)">e</text><text xml:space="preserve" font-family="AvenirNext-Medium" font-size="34.0" fill="#FEFFFE" transform="matrix(1.00, 0.00, -0.00, -1.00, 390.6, 218.0)">s</text><text xml:space="preserve" font-family="AvenirNext-Medium" font-size="34.0" fill="#FEFFFE" transform="matrix(1.00, 0.00, -0.00, -1.00, 405.7, 218.0)">s</text><text xml:space="preserve" font-family="AvenirNext-Medium" font-size="34.0" fill="#FEFFFE" transform="matrix(1.00, 0.00, -0.00, -1.00, 420.8, 218.0)"> </text><text xml:space="preserve" font-family="AvenirNext-Medium" font-size="34.0" fill="#FEFFFE" transform="matrix(1.00, 0.00, -0.00, -1.00, 429.3, 218.0)">y</text><text xml:space="preserve" font-family="AvenirNext-Medium" font-size="34.0" fill="#FEFFFE" transform="matrix(1.00, 0.00, -0.00, -1.00, 446.4, 218.0)">o</text><text xml:space="preserve" font-family="AvenirNext-Medium" font-size="34.0" fill="#FEFFFE" transform="matrix(1.00, 0.00, -0.00, -1.00, 467.1, 218.0)">u</text><text xml:space="preserve" font-family="AvenirNext-Medium" font-size="34.0" fill="#FEFFFE" transform="matrix(1.00, 0.00, -0.00, -1.00, 486.9, 218.0)"> </text><text xml:space="preserve" font-family="AvenirNext-Medium" font-size="34.0" fill="#FEFFFE" transform="matrix(1.00, 0.00, -0.00, -1.00, 495.4, 218.0)">k</text><text xml:space="preserve" font-family="AvenirNext-Medium" font-size="34.0" fill="#FEFFFE" transform="matrix(1.00, 0.00, -0.00, -1.00, 513.3, 218.0)">n</text><text xml:space="preserve" font-family="AvenirNext-Medium" font-size="34.0" fill="#FEFFFE" transform="matrix(1.00, 0.00, -0.00, -1.00, 533.1, 218.0)">o</text><text xml:space="preserve" font-family="AvenirNext-Medium" font-size="34.0" fill="#FEFFFE" transform="matrix(1.00, 0.00, -0.00, -1.00, 553.9, 218.0)">w</text><text xml:space="preserve" font-family="AvenirNext-Medium" font-size="34.0" fill="#FEFFFE" transform="matrix(1.00, 0.00, -0.00, -1.00, 580.2, 218.0)"> </text><text xml:space="preserve" font-family="AvenirNext-Medium" font-size="34.0" fill="#FEFFFE" transform="matrix(1.00, 0.00, -0.00, -1.00, 588.7, 218.0)">w</text><text xml:space="preserve" font-family="AvenirNext-Medium" font-size="34.0" fill="#FEFFFE" transform="matrix(1.00, 0.00, -0.00, -1.00, 614.9, 218.0)">h</text><text xml:space="preserve" font-family="AvenirNext-Medium" font-size="34.0" fill="#FEFFFE" transform="matrix(1.00, 0.00, -0.00, -1.00, 634.8, 218.0)">a</text><text xml:space="preserve" font-family="AvenirNext-Medium" font-size="34.0" fill="#FEFFFE" transform="matrix(1.00, 0.00, -0.00, -1.00, 652.9, 218.0)">t</text><text xml:space="preserve" font-family="AvenirNext-Medium" font-size="34.0" fill="#FEFFFE" transform="matrix(1.00, 0.00, -0.00, -1.00, 664.1, 218.0)"> </text><text xml:space="preserve" font-family="AvenirNext-Medium" font-size="34.0" fill="#FEFFFE" transform="matrix(1.00, 0.00, -0.00, -1.00, 672.6, 218.0)">y</text><text xml:space="preserve" font-family="AvenirNext-Medium" font-size="34.0" fill="#FEFFFE" transform="matrix(1.00, 0.00, -0.00, -1.00, 689.7, 218.0)">o</text><text xml:space="preserve" font-family="AvenirNext-Medium" font-size="34.0" fill="#FEFFFE" transform="matrix(1.00, 0.00, -0.00, -1.00, 710.4, 218.0)">u</text><text xml:space="preserve" font-family="AvenirNext-Medium" font-size="34.0" fill="#FEFFFE" transform="matrix(1.00, 0.00, -0.00, -1.00, 730.2, 218.0)">'</text><text xml:space="preserve" font-family="AvenirNext-Medium" font-size="34.0" fill="#FEFFFE" transform="matrix(1.00, 0.00, -0.00, -1.00, 739.1, 218.0)">r</text><text xml:space="preserve" font-family="AvenirNext-Medium" font-size="34.0" fill="#FEFFFE" transform="matrix(1.00, 0.00, -0.00, -1.00, 750.8, 218.0)">e</text><text xml:space="preserve" font-family="AvenirNext-Medium" font-size="34.0" fill="#FEFFFE" transform="matrix(1.00, 0.00, -0.00, -1.00, 770.3, 218.0)"> </text><text xml:space="preserve" font-family="AvenirNext-Medium" font-size="34.0" fill="#FEFFFE" transform="matrix(1.00, 0.00, -0.00, -1.00, 778.8, 218.0)">d</text><text xml:space="preserve" font-family="AvenirNext-Medium" font-size="34.0" fill="#FEFFFE" transform="matrix(1.00, 0.00, -0.00, -1.00, 800.4, 218.0)">o</text><text xml:space="preserve" font-family="AvenirNext-Medium" font-size="34.0" fill="#FEFFFE" transform="matrix(1.00, 0.00, -0.00, -1.00, 821.1, 218.0)">i</text><text xml:space="preserve" font-family="AvenirNext-Medium" font-size="34.0" fill="#FEFFFE" transform="matrix(1.00, 0.00, -0.00, -1.00, 829.9, 218.0)">n</text><text xml:space="preserve" font-family="AvenirNext-Medium" font-size="34.0" fill="#FEFFFE" transform="matrix(1.00, 0.00, -0.00, -1.00, 849.7, 218.0)">g</text><text xml:space="preserve" font-family="AvenirNext-Medium" font-size="34.0" fill="#FEFFFE" transform="matrix(1.00, 0.00, -0.00, -1.00, 871.2, 218.0)"> </text><text xml:space="preserve" font-family="LucidaGrande" font-size="35.7" fill="#34A4DA" transform="matrix(1.00, 0.00, -0.00, -1.00, 36.0, 146.0)">‣</text><text xml:space="preserve" font-family="AvenirNext-Medium" font-size="34.0" fill="#FEFFFE" transform="matrix(1.00, 0.00, -0.00, -1.00, 71.0, 144.0)">D</text><text xml:space="preserve" font-family="AvenirNext-Medium" font-size="34.0" fill="#FEFFFE" transform="matrix(1.00, 0.00, -0.00, -1.00, 96.9, 144.0)">o</text><text xml:space="preserve" font-family="AvenirNext-Medium" font-size="34.0" fill="#FEFFFE" transform="matrix(1.00, 0.00, -0.00, -1.00, 117.6, 144.0)"> </text><text xml:space="preserve" font-family="AvenirNext-Medium" font-size="34.0" fill="#FEFFFE" transform="matrix(1.00, 0.00, -0.00, -1.00, 126.1, 144.0)">n</text><text xml:space="preserve" font-family="AvenirNext-Medium" font-size="34.0" fill="#FEFFFE" transform="matrix(1.00, 0.00, -0.00, -1.00, 145.9, 144.0)">o</text><text xml:space="preserve" font-family="AvenirNext-Medium" font-size="34.0" fill="#FEFFFE" transform="matrix(1.00, 0.00, -0.00, -1.00, 166.6, 144.0)">t</text><text xml:space="preserve" font-family="AvenirNext-Medium" font-size="34.0" fill="#FEFFFE" transform="matrix(1.00, 0.00, -0.00, -1.00, 177.8, 144.0)"> </text><text xml:space="preserve" font-family="AvenirNext-Medium" font-size="34.0" fill="#FEFFFE" transform="matrix(1.00, 0.00, -0.00, -1.00, 186.3, 144.0)">a</text><text xml:space="preserve" font-family="AvenirNext-Medium" font-size="34.0" fill="#FEFFFE" transform="matrix(1.00, 0.00, -0.00, -1.00, 204.8, 144.0)">s</text><text xml:space="preserve" font-family="AvenirNext-Medium" font-size="34.0" fill="#FEFFFE" transform="matrix(1.00, 0.00, -0.00, -1.00, 219.9, 144.0)">s</text><text xml:space="preserve" font-family="AvenirNext-Medium" font-size="34.0" fill="#FEFFFE" transform="matrix(1.00, 0.00, -0.00, -1.00, 234.9, 144.0)">u</text><text xml:space="preserve" font-family="AvenirNext-Medium" font-size="34.0" fill="#FEFFFE" transform="matrix(1.00, 0.00, -0.00, -1.00, 254.7, 144.0)">m</text><text xml:space="preserve" font-family="AvenirNext-Medium" font-size="34.0" fill="#FEFFFE" transform="matrix(1.00, 0.00, -0.00, -1.00, 284.9, 144.0)">e</text><text xml:space="preserve" font-family="AvenirNext-Medium" font-size="34.0" fill="#FEFFFE" transform="matrix(1.00, 0.00, -0.00, -1.00, 304.4, 144.0)"> </text><text xml:space="preserve" font-family="AvenirNext-Medium" font-size="34.0" fill="#FEFFFE" transform="matrix(1.00, 0.00, -0.00, -1.00, 312.9, 144.0)">t</text><text xml:space="preserve" font-family="AvenirNext-Medium" font-size="34.0" fill="#FEFFFE" transform="matrix(1.00, 0.00, -0.00, -1.00, 324.1, 144.0)">h</text><text xml:space="preserve" font-family="AvenirNext-Medium" font-size="34.0" fill="#FEFFFE" transform="matrix(1.00, 0.00, -0.00, -1.00, 343.9, 144.0)">a</text><text xml:space="preserve" font-family="AvenirNext-Medium" font-size="34.0" fill="#FEFFFE" transform="matrix(1.00, 0.00, -0.00, -1.00, 362.0, 144.0)">t</text><text xml:space="preserve" font-family="AvenirNext-Medium" font-size="34.0" fill="#FEFFFE" transform="matrix(1.00, 0.00, -0.00, -1.00, 373.2, 144.0)"> </text><text xml:space="preserve" font-family="AvenirNext-Medium" font-size="34.0" fill="#FEFFFE" transform="matrix(1.00, 0.00, -0.00, -1.00, 381.7, 144.0)">y</text><text xml:space="preserve" font-family="AvenirNext-Medium" font-size="34.0" fill="#FEFFFE" transform="matrix(1.00, 0.00, -0.00, -1.00, 398.8, 144.0)">o</text><text xml:space="preserve" font-family="AvenirNext-Medium" font-size="34.0" fill="#FEFFFE" transform="matrix(1.00, 0.00, -0.00, -1.00, 419.6, 144.0)">u</text><text xml:space="preserve" font-family="AvenirNext-Medium" font-size="34.0" fill="#FEFFFE" transform="matrix(1.00, 0.00, -0.00, -1.00, 439.4, 144.0)">r</text><text xml:space="preserve" font-family="AvenirNext-Medium" font-size="34.0" fill="#FEFFFE" transform="matrix(1.00, 0.00, -0.00, -1.00, 451.7, 144.0)"> </text><text xml:space="preserve" font-family="AvenirNext-Medium" font-size="34.0" fill="#FEFFFE" transform="matrix(1.00, 0.00, -0.00, -1.00, 460.2, 144.0)">s</text><text xml:space="preserve" font-family="AvenirNext-Medium" font-size="34.0" fill="#FEFFFE" transform="matrix(1.00, 0.00, -0.00, -1.00, 475.3, 144.0)">o</text><text xml:space="preserve" font-family="AvenirNext-Medium" font-size="34.0" fill="#FEFFFE" transform="matrix(1.00, 0.00, -0.00, -1.00, 496.0, 144.0)">u</text><text xml:space="preserve" font-family="AvenirNext-Medium" font-size="34.0" fill="#FEFFFE" transform="matrix(1.00, 0.00, -0.00, -1.00, 515.8, 144.0)">r</text><text xml:space="preserve" font-family="AvenirNext-Medium" font-size="34.0" fill="#FEFFFE" transform="matrix(1.00, 0.00, -0.00, -1.00, 527.5, 144.0)">c</text><text xml:space="preserve" font-family="AvenirNext-Medium" font-size="34.0" fill="#FEFFFE" transform="matrix(1.00, 0.00, -0.00, -1.00, 544.3, 144.0)">e</text><text xml:space="preserve" font-family="AvenirNext-Medium" font-size="34.0" fill="#FEFFFE" transform="matrix(1.00, 0.00, -0.00, -1.00, 563.8, 144.0)"> </text><text xml:space="preserve" font-family="AvenirNext-Medium" font-size="34.0" fill="#FEFFFE" transform="matrix(1.00, 0.00, -0.00, -1.00, 572.3, 144.0)">c</text><text xml:space="preserve" font-family="AvenirNext-Medium" font-size="34.0" fill="#FEFFFE" transform="matrix(1.00, 0.00, -0.00, -1.00, 589.1, 144.0)">o</text><text xml:space="preserve" font-family="AvenirNext-Medium" font-size="34.0" fill="#FEFFFE" transform="matrix(1.00, 0.00, -0.00, -1.00, 609.8, 144.0)">d</text><text xml:space="preserve" font-family="AvenirNext-Medium" font-size="34.0" fill="#FEFFFE" transform="matrix(1.00, 0.00, -0.00, -1.00, 631.4, 144.0)">e</text><text xml:space="preserve" font-family="AvenirNext-Medium" font-size="34.0" fill="#FEFFFE" transform="matrix(1.00, 0.00, -0.00, -1.00, 650.9, 144.0)"> </text><text xml:space="preserve" font-family="AvenirNext-Medium" font-size="34.0" fill="#FEFFFE" transform="matrix(1.00, 0.00, -0.00, -1.00, 659.4, 144.0)">i</text><text xml:space="preserve" font-family="AvenirNext-Medium" font-size="34.0" fill="#FEFFFE" transform="matrix(1.00, 0.00, -0.00, -1.00, 668.2, 144.0)">s</text><text xml:space="preserve" font-family="AvenirNext-Medium" font-size="34.0" fill="#FEFFFE" transform="matrix(1.00, 0.00, -0.00, -1.00, 683.3, 144.0)"> </text><text xml:space="preserve" font-family="AvenirNext-Medium" font-size="34.0" fill="#FEFFFE" transform="matrix(1.00, 0.00, -0.00, -1.00, 691.8, 144.0)">s</text><text xml:space="preserve" font-family="AvenirNext-Medium" font-size="34.0" fill="#FEFFFE" transform="matrix(1.00, 0.00, -0.00, -1.00, 706.9, 144.0)">e</text><text xml:space="preserve" font-family="AvenirNext-Medium" font-size="34.0" fill="#FEFFFE" transform="matrix(1.00, 0.00, -0.00, -1.00, 726.4, 144.0)">c</text><text xml:space="preserve" font-family="AvenirNext-Medium" font-size="34.0" fill="#FEFFFE" transform="matrix(1.00, 0.00, -0.00, -1.00, 743.1, 144.0)">u</text><text xml:space="preserve" font-family="AvenirNext-Medium" font-size="34.0" fill="#FEFFFE" transform="matrix(1.00, 0.00, -0.00, -1.00, 762.9, 144.0)">r</text><text xml:space="preserve" font-family="AvenirNext-Medium" font-size="34.0" fill="#FEFFFE" transform="matrix(1.00, 0.00, -0.00, -1.00, 774.6, 144.0)">e</text><text xml:space="preserve" font-family="DINAlternate-Bold" font-weight="bold" font-size="24.0" fill="#838686" transform="matrix(1.00, 0.00, -0.00, -1.00, 964.6, 707.4)">6</text><text xml:space="preserve" font-family="DINAlternate-Bold" font-weight="bold" font-size="24.0" fill="#838686" transform="matrix(1.00, 0.00, -0.00, -1.00, 976.1, 707.4)">1</text></g></svg>