<?xml version="1.0" encoding="UTF-8" standalone="no"?><svg xmlns="http://www.w3.org/2000/svg" xmlns:xlink="http://www.w3.org/1999/xlink" clip-rule="evenodd" stroke-miterlimit="4.00" viewBox="0 0 1024 768"><desc>SVG generated by Keynote</desc><defs></defs><g transform="matrix(1.00, 0.00, -0.00, -1.00, 0.0, 768.0)"><path d="M 0.0 768.0 L 1024.0 768.0 L 1024.0 0.0 L 0.0 0.0 Z M 0.0 768.0 " fill="#212121"></path><path d="M 0.0 0.0 L 960.0 0.0 " fill="none" stroke="#A6AAA8" stroke-width="3.00" transform="matrix(1.00, 0.00, 0.00, -1.00, 32.0, 284.5)"></path><text xml:space="preserve" font-family="DINCondensed-Bold" font-weight="bold" font-size="56.7" fill="#FF9C35" transform="matrix(1.00, 0.00, -0.00, -1.00, 36.0, 219.0)">H</text><text xml:space="preserve" font-family="DINCondensed-Bold" font-weight="bold" font-size="56.7" fill="#FF9C35" transform="matrix(1.00, 0.00, -0.00, -1.00, 60.2, 219.0)">T</text><text xml:space="preserve" font-family="DINCondensed-Bold" font-weight="bold" font-size="56.7" fill="#FF9C35" transform="matrix(1.00, 0.00, -0.00, -1.00, 79.0, 219.0)">T</text><text xml:space="preserve" font-family="DINCondensed-Bold" font-weight="bold" font-size="56.7" fill="#FF9C35" transform="matrix(1.00, 0.00, -0.00, -1.00, 97.8, 219.0)">P</text><text xml:space="preserve" font-family="DINCondensed-Bold" font-weight="bold" font-size="56.7" fill="#FF9C35" transform="matrix(1.00, 0.00, -0.00, -1.00, 120.9, 219.0)">S</text><text xml:space="preserve" font-family="DINCondensed-Bold" font-weight="bold" font-size="56.7" fill="#FF9C35" transform="matrix(1.00, 0.00, -0.00, -1.00, 143.9, 219.0)">:</text><text xml:space="preserve" font-family="DINCondensed-Bold" font-weight="bold" font-size="56.7" fill="#FF9C35" transform="matrix(1.00, 0.00, -0.00, -1.00, 154.4, 219.0)">/</text><text xml:space="preserve" font-family="DINCondensed-Bold" font-weight="bold" font-size="56.7" fill="#FF9C35" transform="matrix(1.00, 0.00, -0.00, -1.00, 167.0, 219.0)">/</text><text xml:space="preserve" font-family="DINCondensed-Bold" font-weight="bold" font-size="56.7" fill="#FF9C35" transform="matrix(1.00, 0.00, -0.00, -1.00, 179.6, 219.0)">W</text><text xml:space="preserve" font-family="DINCondensed-Bold" font-weight="bold" font-size="56.7" fill="#FF9C35" transform="matrix(1.00, 0.00, -0.00, -1.00, 213.2, 219.0)">W</text><text xml:space="preserve" font-family="DINCondensed-Bold" font-weight="bold" font-size="56.7" fill="#FF9C35" transform="matrix(1.00, 0.00, -0.00, -1.00, 246.9, 219.0)">W</text><text xml:space="preserve" font-family="DINCondensed-Bold" font-weight="bold" font-size="56.7" fill="#FF9C35" transform="matrix(1.00, 0.00, -0.00, -1.00, 276.3, 219.0)">.</text><text xml:space="preserve" font-family="DINCondensed-Bold" font-weight="bold" font-size="56.7" fill="#FF9C35" transform="matrix(1.00, 0.00, -0.00, -1.00, 286.8, 219.0)">S</text><text xml:space="preserve" font-family="DINCondensed-Bold" font-weight="bold" font-size="56.7" fill="#FF9C35" transform="matrix(1.00, 0.00, -0.00, -1.00, 309.9, 219.0)">E</text><text xml:space="preserve" font-family="DINCondensed-Bold" font-weight="bold" font-size="56.7" fill="#FF9C35" transform="matrix(1.00, 0.00, -0.00, -1.00, 330.8, 219.0)">A</text><text xml:space="preserve" font-family="DINCondensed-Bold" font-weight="bold" font-size="56.7" fill="#FF9C35" transform="matrix(1.00, 0.00, -0.00, -1.00, 353.9, 219.0)">N</text><text xml:space="preserve" font-family="DINCondensed-Bold" font-weight="bold" font-size="56.7" fill="#FF9C35" transform="matrix(1.00, 0.00, -0.00, -1.00, 379.1, 219.0)">C</text><text xml:space="preserve" font-family="DINCondensed-Bold" font-weight="bold" font-size="56.7" fill="#FF9C35" transform="matrix(1.00, 0.00, -0.00, -1.00, 402.2, 219.0)">A</text><text xml:space="preserve" font-family="DINCondensed-Bold" font-weight="bold" font-size="56.7" fill="#FF9C35" transform="matrix(1.00, 0.00, -0.00, -1.00, 425.2, 219.0)">S</text><text xml:space="preserve" font-family="DINCondensed-Bold" font-weight="bold" font-size="56.7" fill="#FF9C35" transform="matrix(1.00, 0.00, -0.00, -1.00, 448.3, 219.0)">S</text><text xml:space="preserve" font-family="DINCondensed-Bold" font-weight="bold" font-size="56.7" fill="#FF9C35" transform="matrix(1.00, 0.00, -0.00, -1.00, 471.3, 219.0)">I</text><text xml:space="preserve" font-family="DINCondensed-Bold" font-weight="bold" font-size="56.7" fill="#FF9C35" transform="matrix(1.00, 0.00, -0.00, -1.00, 482.9, 219.0)">D</text><text xml:space="preserve" font-family="DINCondensed-Bold" font-weight="bold" font-size="56.7" fill="#FF9C35" transform="matrix(1.00, 0.00, -0.00, -1.00, 506.0, 219.0)">Y</text><text xml:space="preserve" font-family="DINCondensed-Bold" font-weight="bold" font-size="56.7" fill="#FF9C35" transform="matrix(1.00, 0.00, -0.00, -1.00, 522.8, 219.0)">.</text><text xml:space="preserve" font-family="DINCondensed-Bold" font-weight="bold" font-size="56.7" fill="#FF9C35" transform="matrix(1.00, 0.00, -0.00, -1.00, 533.3, 219.0)">M</text><text xml:space="preserve" font-family="DINCondensed-Bold" font-weight="bold" font-size="56.7" fill="#FF9C35" transform="matrix(1.00, 0.00, -0.00, -1.00, 564.8, 219.0)">E</text><text xml:space="preserve" font-family="DINCondensed-Bold" font-weight="bold" font-size="56.7" fill="#FF9C35" transform="matrix(1.00, 0.00, -0.00, -1.00, 585.8, 219.0)">/</text><text xml:space="preserve" font-family="DINCondensed-Bold" font-weight="bold" font-size="56.7" fill="#FF9C35" transform="matrix(1.00, 0.00, -0.00, -1.00, 598.4, 219.0)">L</text><text xml:space="preserve" font-family="DINCondensed-Bold" font-weight="bold" font-size="56.7" fill="#FF9C35" transform="matrix(1.00, 0.00, -0.00, -1.00, 619.4, 219.0)">O</text><text xml:space="preserve" font-family="DINCondensed-Bold" font-weight="bold" font-size="56.7" fill="#FF9C35" transform="matrix(1.00, 0.00, -0.00, -1.00, 643.5, 219.0)">S</text><text xml:space="preserve" font-family="DINCondensed-Bold" font-weight="bold" font-size="56.7" fill="#FF9C35" transform="matrix(1.00, 0.00, -0.00, -1.00, 666.6, 219.0)">T</text><text xml:space="preserve" font-family="DINCondensed-Bold" font-weight="bold" font-size="56.7" fill="#FF9C35" transform="matrix(1.00, 0.00, -0.00, -1.00, 685.4, 219.0)">P</text><text xml:space="preserve" font-family="DINCondensed-Bold" font-weight="bold" font-size="56.7" fill="#FF9C35" transform="matrix(1.00, 0.00, -0.00, -1.00, 706.4, 219.0)">A</text><text xml:space="preserve" font-family="DINCondensed-Bold" font-weight="bold" font-size="56.7" fill="#FF9C35" transform="matrix(1.00, 0.00, -0.00, -1.00, 729.4, 219.0)">S</text><text xml:space="preserve" font-family="DINCondensed-Bold" font-weight="bold" font-size="56.7" fill="#FF9C35" transform="matrix(1.00, 0.00, -0.00, -1.00, 752.5, 219.0)">S</text><text xml:space="preserve" font-family="DINCondensed-Bold" font-weight="bold" font-size="56.7" fill="#FF9C35" transform="matrix(1.00, 0.00, -0.00, -1.00, 775.5, 219.0)">.</text><text xml:space="preserve" font-family="DINCondensed-Bold" font-weight="bold" font-size="56.7" fill="#FF9C35" transform="matrix(1.00, 0.00, -0.00, -1.00, 786.0, 219.0)">H</text><text xml:space="preserve" font-family="DINCondensed-Bold" font-weight="bold" font-size="56.7" fill="#FF9C35" transform="matrix(1.00, 0.00, -0.00, -1.00, 810.2, 219.0)">T</text><text xml:space="preserve" font-family="DINCondensed-Bold" font-weight="bold" font-size="56.7" fill="#FF9C35" transform="matrix(1.00, 0.00, -0.00, -1.00, 829.0, 219.0)">M</text><text xml:space="preserve" font-family="DINCondensed-Bold" font-weight="bold" font-size="56.7" fill="#FF9C35" transform="matrix(1.00, 0.00, -0.00, -1.00, 860.5, 219.0)">L</text><text xml:space="preserve" font-family="DINCondensed-Bold" font-weight="bold" font-size="56.7" fill="#FF9C35" transform="matrix(1.00, 0.00, -0.00, -1.00, 881.5, 219.0)"> </text><g><clipPath id="clip-31"><path d="M 35.0 212.0 L 881.5 212.0 L 881.5 216.8 L 35.0 216.8 Z M 35.0 212.0 "></path></clipPath><g clip-path="url(#clip-31)"><path d="M 4.0 47.6 L 849.5 47.6 " fill="none" stroke="#FF9C35" stroke-width="2.84" stroke-miterlimit="0.00" transform="matrix(1.00, 0.00, 0.00, -1.00, 32.0, 262.0)"></path></g></g><text xml:space="preserve" font-family="KannadaSangamMN-Bold" font-weight="bold" font-size="56.7" fill="#FEFFFE" transform="matrix(1.00, 0.00, -0.00, -1.00, 36.0, 90.0)">ಠ</text><text xml:space="preserve" font-family="DINCondensed-Bold" font-weight="bold" font-size="56.7" fill="#FEFFFE" transform="matrix(1.00, 0.00, -0.00, -1.00, 73.6, 90.0)">_</text><text xml:space="preserve" font-family="KannadaSangamMN-Bold" font-weight="bold" font-size="56.7" fill="#FEFFFE" transform="matrix(1.00, 0.00, -0.00, -1.00, 101.9, 90.0)">ಠ</text><text xml:space="preserve" font-family="DINAlternate-Bold" font-weight="bold" font-size="54.0" fill="#FEFFFE" transform="matrix(1.00, 0.00, -0.00, -1.00, 36.0, 306.0)">B</text><text xml:space="preserve" font-family="DINAlternate-Bold" font-weight="bold" font-size="54.0" fill="#FEFFFE" transform="matrix(1.00, 0.00, -0.00, -1.00, 68.9, 306.0)">U</text><text xml:space="preserve" font-family="DINAlternate-Bold" font-weight="bold" font-size="54.0" fill="#FEFFFE" transform="matrix(1.00, 0.00, -0.00, -1.00, 102.9, 306.0)">T</text><text xml:space="preserve" font-family="DINAlternate-Bold" font-weight="bold" font-size="54.0" fill="#FEFFFE" transform="matrix(1.00, 0.00, -0.00, -1.00, 129.9, 306.0)"> </text><text xml:space="preserve" font-family="DINAlternate-Bold" font-weight="bold" font-size="54.0" fill="#FEFFFE" transform="matrix(1.00, 0.00, -0.00, -1.00, 142.9, 306.0)">I</text><text xml:space="preserve" font-family="DINAlternate-Bold" font-weight="bold" font-size="54.0" fill="#FEFFFE" transform="matrix(1.00, 0.00, -0.00, -1.00, 156.8, 306.0)">S</text><text xml:space="preserve" font-family="DINAlternate-Bold" font-weight="bold" font-size="54.0" fill="#FEFFFE" transform="matrix(1.00, 0.00, -0.00, -1.00, 187.7, 306.0)"> </text><text xml:space="preserve" font-family="DINAlternate-Bold" font-weight="bold" font-size="54.0" fill="#FEFFFE" transform="matrix(1.00, 0.00, -0.00, -1.00, 200.7, 306.0)">X</text><text xml:space="preserve" font-family="DINAlternate-Bold" font-weight="bold" font-size="54.0" fill="#FEFFFE" transform="matrix(1.00, 0.00, -0.00, -1.00, 229.6, 306.0)">S</text><text xml:space="preserve" font-family="DINAlternate-Bold" font-weight="bold" font-size="54.0" fill="#FEFFFE" transform="matrix(1.00, 0.00, -0.00, -1.00, 260.6, 306.0)">S</text><text xml:space="preserve" font-family="DINAlternate-Bold" font-weight="bold" font-size="54.0" fill="#FEFFFE" transform="matrix(1.00, 0.00, -0.00, -1.00, 291.6, 306.0)"> </text><text xml:space="preserve" font-family="DINAlternate-Bold" font-weight="bold" font-size="54.0" fill="#FEFFFE" transform="matrix(1.00, 0.00, -0.00, -1.00, 304.5, 306.0)">T</text><text xml:space="preserve" font-family="DINAlternate-Bold" font-weight="bold" font-size="54.0" fill="#FEFFFE" transform="matrix(1.00, 0.00, -0.00, -1.00, 331.5, 306.0)">H</text><text xml:space="preserve" font-family="DINAlternate-Bold" font-weight="bold" font-size="54.0" fill="#FEFFFE" transform="matrix(1.00, 0.00, -0.00, -1.00, 366.5, 306.0)">A</text><text xml:space="preserve" font-family="DINAlternate-Bold" font-weight="bold" font-size="54.0" fill="#FEFFFE" transform="matrix(1.00, 0.00, -0.00, -1.00, 395.4, 306.0)">T</text><text xml:space="preserve" font-family="DINAlternate-Bold" font-weight="bold" font-size="54.0" fill="#FEFFFE" transform="matrix(1.00, 0.00, -0.00, -1.00, 422.4, 306.0)"> </text><text xml:space="preserve" font-family="DINAlternate-Bold" font-weight="bold" font-size="54.0" fill="#FEFFFE" transform="matrix(1.00, 0.00, -0.00, -1.00, 435.3, 306.0)">B</text><text xml:space="preserve" font-family="DINAlternate-Bold" font-weight="bold" font-size="54.0" fill="#FEFFFE" transform="matrix(1.00, 0.00, -0.00, -1.00, 468.2, 306.0)">I</text><text xml:space="preserve" font-family="DINAlternate-Bold" font-weight="bold" font-size="54.0" fill="#FEFFFE" transform="matrix(1.00, 0.00, -0.00, -1.00, 482.2, 306.0)">G</text><text xml:space="preserve" font-family="DINAlternate-Bold" font-weight="bold" font-size="54.0" fill="#FEFFFE" transform="matrix(1.00, 0.00, -0.00, -1.00, 515.1, 306.0)"> </text><text xml:space="preserve" font-family="DINAlternate-Bold" font-weight="bold" font-size="54.0" fill="#FEFFFE" transform="matrix(1.00, 0.00, -0.00, -1.00, 528.0, 306.0)">O</text><text xml:space="preserve" font-family="DINAlternate-Bold" font-weight="bold" font-size="54.0" fill="#FEFFFE" transform="matrix(1.00, 0.00, -0.00, -1.00, 560.9, 306.0)">F</text><text xml:space="preserve" font-family="DINAlternate-Bold" font-weight="bold" font-size="54.0" fill="#FEFFFE" transform="matrix(1.00, 0.00, -0.00, -1.00, 590.0, 306.0)"> </text><text xml:space="preserve" font-family="DINAlternate-Bold" font-weight="bold" font-size="54.0" fill="#FEFFFE" transform="matrix(1.00, 0.00, -0.00, -1.00, 602.9, 306.0)">A</text><text xml:space="preserve" font-family="DINAlternate-Bold" font-weight="bold" font-size="54.0" fill="#FEFFFE" transform="matrix(1.00, 0.00, -0.00, -1.00, 635.8, 306.0)"> </text><text xml:space="preserve" font-family="DINAlternate-Bold" font-weight="bold" font-size="54.0" fill="#FEFFFE" transform="matrix(1.00, 0.00, -0.00, -1.00, 648.7, 306.0)">D</text><text xml:space="preserve" font-family="DINAlternate-Bold" font-weight="bold" font-size="54.0" fill="#FEFFFE" transform="matrix(1.00, 0.00, -0.00, -1.00, 682.7, 306.0)">E</text><text xml:space="preserve" font-family="DINAlternate-Bold" font-weight="bold" font-size="54.0" fill="#FEFFFE" transform="matrix(1.00, 0.00, -0.00, -1.00, 712.8, 306.0)">A</text><text xml:space="preserve" font-family="DINAlternate-Bold" font-weight="bold" font-size="54.0" fill="#FEFFFE" transform="matrix(1.00, 0.00, -0.00, -1.00, 745.7, 306.0)">L</text><text xml:space="preserve" font-family="DINAlternate-Bold" font-weight="bold" font-size="54.0" fill="#FEFFFE" transform="matrix(1.00, 0.00, -0.00, -1.00, 775.8, 306.0)">?</text><text xml:space="preserve" font-family="DINAlternate-Bold" font-weight="bold" font-size="24.0" fill="#838686" transform="matrix(1.00, 0.00, -0.00, -1.00, 965.2, 707.4)">2</text><text xml:space="preserve" font-family="DINAlternate-Bold" font-weight="bold" font-size="24.0" fill="#838686" transform="matrix(1.00, 0.00, -0.00, -1.00, 976.7, 707.4)">0</text></g></svg>