<?xml version="1.0" encoding="UTF-8" standalone="no"?><svg xmlns="http://www.w3.org/2000/svg" xmlns:xlink="http://www.w3.org/1999/xlink" clip-rule="evenodd" stroke-miterlimit="4.00" viewBox="0 0 1024 768"><desc>SVG generated by Keynote</desc><defs></defs><g transform="matrix(1.00, 0.00, -0.00, -1.00, 0.0, 768.0)"><path d="M 0.0 768.0 L 1024.0 768.0 L 1024.0 0.0 L 0.0 0.0 Z M 0.0 768.0 " fill="#212121"></path><path d="M 0.0 0.0 L 960.0 0.0 " fill="none" stroke="#A6AAA9" stroke-width="2.00" transform="matrix(1.00, 0.00, 0.00, -1.00, 32.0, 689.8)"></path><text xml:space="preserve" font-family="DINAlternate-Bold" font-weight="bold" font-size="24.0" fill="#FEFFFE" transform="matrix(1.00, 0.00, -0.00, -1.00, 36.0, 705.0)">X</text><text xml:space="preserve" font-family="DINAlternate-Bold" font-weight="bold" font-size="24.0" fill="#FEFFFE" transform="matrix(1.00, 0.00, -0.00, -1.00, 50.1, 705.0)">S</text><text xml:space="preserve" font-family="DINAlternate-Bold" font-weight="bold" font-size="24.0" fill="#FEFFFE" transform="matrix(1.00, 0.00, -0.00, -1.00, 65.0, 705.0)">S</text><text xml:space="preserve" font-family="DINCondensed-Bold" font-weight="bold" font-size="48.0" fill="#FF9C35" transform="matrix(1.00, 0.00, -0.00, -1.00, 36.0, 608.0)">F</text><text xml:space="preserve" font-family="DINCondensed-Bold" font-weight="bold" font-size="48.0" fill="#FF9C35" transform="matrix(1.00, 0.00, -0.00, -1.00, 53.8, 608.0)">R</text><text xml:space="preserve" font-family="DINCondensed-Bold" font-weight="bold" font-size="48.0" fill="#FF9C35" transform="matrix(1.00, 0.00, -0.00, -1.00, 74.2, 608.0)">A</text><text xml:space="preserve" font-family="DINCondensed-Bold" font-weight="bold" font-size="48.0" fill="#FF9C35" transform="matrix(1.00, 0.00, -0.00, -1.00, 93.7, 608.0)">M</text><text xml:space="preserve" font-family="DINCondensed-Bold" font-weight="bold" font-size="48.0" fill="#FF9C35" transform="matrix(1.00, 0.00, -0.00, -1.00, 120.4, 608.0)">E</text><text xml:space="preserve" font-family="DINCondensed-Bold" font-weight="bold" font-size="48.0" fill="#FF9C35" transform="matrix(1.00, 0.00, -0.00, -1.00, 138.2, 608.0)">W</text><text xml:space="preserve" font-family="DINCondensed-Bold" font-weight="bold" font-size="48.0" fill="#FF9C35" transform="matrix(1.00, 0.00, -0.00, -1.00, 166.1, 608.0)">O</text><text xml:space="preserve" font-family="DINCondensed-Bold" font-weight="bold" font-size="48.0" fill="#FF9C35" transform="matrix(1.00, 0.00, -0.00, -1.00, 186.5, 608.0)">R</text><text xml:space="preserve" font-family="DINCondensed-Bold" font-weight="bold" font-size="48.0" fill="#FF9C35" transform="matrix(1.00, 0.00, -0.00, -1.00, 207.0, 608.0)">K</text><text xml:space="preserve" font-family="DINCondensed-Bold" font-weight="bold" font-size="48.0" fill="#FF9C35" transform="matrix(1.00, 0.00, -0.00, -1.00, 227.4, 608.0)">S</text><text xml:space="preserve" font-family="DINCondensed-Bold" font-weight="bold" font-size="48.0" fill="#FF9C35" transform="matrix(1.00, 0.00, -0.00, -1.00, 246.9, 608.0)"> </text><text xml:space="preserve" font-family="DINCondensed-Bold" font-weight="bold" font-size="48.0" fill="#FF9C35" transform="matrix(1.00, 0.00, -0.00, -1.00, 255.8, 608.0)">-</text><text xml:space="preserve" font-family="DINCondensed-Bold" font-weight="bold" font-size="48.0" fill="#FF9C35" transform="matrix(1.00, 0.00, -0.00, -1.00, 274.5, 608.0)"> </text><text xml:space="preserve" font-family="DINCondensed-Bold" font-weight="bold" font-size="48.0" fill="#FF9C35" transform="matrix(1.00, 0.00, -0.00, -1.00, 283.4, 608.0)">A</text><text xml:space="preserve" font-family="DINCondensed-Bold" font-weight="bold" font-size="48.0" fill="#FF9C35" transform="matrix(1.00, 0.00, -0.00, -1.00, 303.0, 608.0)">N</text><text xml:space="preserve" font-family="DINCondensed-Bold" font-weight="bold" font-size="48.0" fill="#FF9C35" transform="matrix(1.00, 0.00, -0.00, -1.00, 324.3, 608.0)">G</text><text xml:space="preserve" font-family="DINCondensed-Bold" font-weight="bold" font-size="48.0" fill="#FF9C35" transform="matrix(1.00, 0.00, -0.00, -1.00, 344.7, 608.0)">U</text><text xml:space="preserve" font-family="DINCondensed-Bold" font-weight="bold" font-size="48.0" fill="#FF9C35" transform="matrix(1.00, 0.00, -0.00, -1.00, 365.2, 608.0)">L</text><text xml:space="preserve" font-family="DINCondensed-Bold" font-weight="bold" font-size="48.0" fill="#FF9C35" transform="matrix(1.00, 0.00, -0.00, -1.00, 382.9, 608.0)">A</text><text xml:space="preserve" font-family="DINCondensed-Bold" font-weight="bold" font-size="48.0" fill="#FF9C35" transform="matrix(1.00, 0.00, -0.00, -1.00, 402.5, 608.0)">R</text><text xml:space="preserve" font-family="LucidaGrande" font-size="35.7" fill="#34A4DA" transform="matrix(1.00, 0.00, -0.00, -1.00, 36.0, 511.0)">▸</text><text xml:space="preserve" font-family="AvenirNext-Medium" font-size="34.0" fill="#FEFFFE" transform="matrix(1.00, 0.00, -0.00, -1.00, 71.0, 514.0)">O</text><text xml:space="preserve" font-family="AvenirNext-Medium" font-size="34.0" fill="#FEFFFE" transform="matrix(1.00, 0.00, -0.00, -1.00, 99.9, 514.0)">l</text><text xml:space="preserve" font-family="AvenirNext-Medium" font-size="34.0" fill="#FEFFFE" transform="matrix(1.00, 0.00, -0.00, -1.00, 108.7, 514.0)">d</text><text xml:space="preserve" font-family="AvenirNext-Medium" font-size="34.0" fill="#FEFFFE" transform="matrix(1.00, 0.00, -0.00, -1.00, 130.3, 514.0)"> </text><text xml:space="preserve" font-family="AvenirNext-Medium" font-size="34.0" fill="#FEFFFE" transform="matrix(1.00, 0.00, -0.00, -1.00, 138.8, 514.0)">v</text><text xml:space="preserve" font-family="AvenirNext-Medium" font-size="34.0" fill="#FEFFFE" transform="matrix(1.00, 0.00, -0.00, -1.00, 155.9, 514.0)">e</text><text xml:space="preserve" font-family="AvenirNext-Medium" font-size="34.0" fill="#FEFFFE" transform="matrix(1.00, 0.00, -0.00, -1.00, 175.4, 514.0)">r</text><text xml:space="preserve" font-family="AvenirNext-Medium" font-size="34.0" fill="#FEFFFE" transform="matrix(1.00, 0.00, -0.00, -1.00, 187.7, 514.0)">s</text><text xml:space="preserve" font-family="AvenirNext-Medium" font-size="34.0" fill="#FEFFFE" transform="matrix(1.00, 0.00, -0.00, -1.00, 202.8, 514.0)">i</text><text xml:space="preserve" font-family="AvenirNext-Medium" font-size="34.0" fill="#FEFFFE" transform="matrix(1.00, 0.00, -0.00, -1.00, 211.6, 514.0)">o</text><text xml:space="preserve" font-family="AvenirNext-Medium" font-size="34.0" fill="#FEFFFE" transform="matrix(1.00, 0.00, -0.00, -1.00, 232.4, 514.0)">n</text><text xml:space="preserve" font-family="AvenirNext-Medium" font-size="34.0" fill="#FEFFFE" transform="matrix(1.00, 0.00, -0.00, -1.00, 252.2, 514.0)">s</text><text xml:space="preserve" font-family="AvenirNext-Medium" font-size="34.0" fill="#FEFFFE" transform="matrix(1.00, 0.00, -0.00, -1.00, 267.2, 514.0)"> </text><text xml:space="preserve" font-family="AvenirNext-Medium" font-size="34.0" fill="#FEFFFE" transform="matrix(1.00, 0.00, -0.00, -1.00, 275.7, 514.0)">s</text><text xml:space="preserve" font-family="AvenirNext-Medium" font-size="34.0" fill="#FEFFFE" transform="matrix(1.00, 0.00, -0.00, -1.00, 290.8, 514.0)">h</text><text xml:space="preserve" font-family="AvenirNext-Medium" font-size="34.0" fill="#FEFFFE" transform="matrix(1.00, 0.00, -0.00, -1.00, 310.7, 514.0)">o</text><text xml:space="preserve" font-family="AvenirNext-Medium" font-size="34.0" fill="#FEFFFE" transform="matrix(1.00, 0.00, -0.00, -1.00, 331.4, 514.0)">u</text><text xml:space="preserve" font-family="AvenirNext-Medium" font-size="34.0" fill="#FEFFFE" transform="matrix(1.00, 0.00, -0.00, -1.00, 351.2, 514.0)">l</text><text xml:space="preserve" font-family="AvenirNext-Medium" font-size="34.0" fill="#FEFFFE" transform="matrix(1.00, 0.00, -0.00, -1.00, 360.1, 514.0)">d</text><text xml:space="preserve" font-family="AvenirNext-Medium" font-size="34.0" fill="#FEFFFE" transform="matrix(1.00, 0.00, -0.00, -1.00, 381.7, 514.0)"> </text><text xml:space="preserve" font-family="AvenirNext-Medium" font-size="34.0" fill="#FEFFFE" transform="matrix(1.00, 0.00, -0.00, -1.00, 390.2, 514.0)">b</text><text xml:space="preserve" font-family="AvenirNext-Medium" font-size="34.0" fill="#FEFFFE" transform="matrix(1.00, 0.00, -0.00, -1.00, 411.8, 514.0)">e</text><text xml:space="preserve" font-family="AvenirNext-Medium" font-size="34.0" fill="#FEFFFE" transform="matrix(1.00, 0.00, -0.00, -1.00, 431.3, 514.0)"> </text><text xml:space="preserve" font-family="AvenirNext-Medium" font-size="34.0" fill="#FEFFFE" transform="matrix(1.00, 0.00, -0.00, -1.00, 439.8, 514.0)">a</text><text xml:space="preserve" font-family="AvenirNext-Medium" font-size="34.0" fill="#FEFFFE" transform="matrix(1.00, 0.00, -0.00, -1.00, 458.2, 514.0)">v</text><text xml:space="preserve" font-family="AvenirNext-Medium" font-size="34.0" fill="#FEFFFE" transform="matrix(1.00, 0.00, -0.00, -1.00, 475.3, 514.0)">o</text><text xml:space="preserve" font-family="AvenirNext-Medium" font-size="34.0" fill="#FEFFFE" transform="matrix(1.00, 0.00, -0.00, -1.00, 496.1, 514.0)">i</text><text xml:space="preserve" font-family="AvenirNext-Medium" font-size="34.0" fill="#FEFFFE" transform="matrix(1.00, 0.00, -0.00, -1.00, 504.9, 514.0)">d</text><text xml:space="preserve" font-family="AvenirNext-Medium" font-size="34.0" fill="#FEFFFE" transform="matrix(1.00, 0.00, -0.00, -1.00, 526.5, 514.0)">e</text><text xml:space="preserve" font-family="AvenirNext-Medium" font-size="34.0" fill="#FEFFFE" transform="matrix(1.00, 0.00, -0.00, -1.00, 545.9, 514.0)">d</text><text xml:space="preserve" font-family="AvenirNext-Medium" font-size="34.0" fill="#FEFFFE" transform="matrix(1.00, 0.00, -0.00, -1.00, 567.5, 514.0)"> </text><text xml:space="preserve" font-family="AvenirNext-Medium" font-size="34.0" fill="#FEFFFE" transform="matrix(1.00, 0.00, -0.00, -1.00, 576.0, 514.0)">a</text><text xml:space="preserve" font-family="AvenirNext-Medium" font-size="34.0" fill="#FEFFFE" transform="matrix(1.00, 0.00, -0.00, -1.00, 594.5, 514.0)">n</text><text xml:space="preserve" font-family="AvenirNext-Medium" font-size="34.0" fill="#FEFFFE" transform="matrix(1.00, 0.00, -0.00, -1.00, 614.3, 514.0)">d</text><text xml:space="preserve" font-family="AvenirNext-Medium" font-size="34.0" fill="#FEFFFE" transform="matrix(1.00, 0.00, -0.00, -1.00, 635.8, 514.0)"> </text><text xml:space="preserve" font-family="AvenirNext-Medium" font-size="34.0" fill="#FEFFFE" transform="matrix(1.00, 0.00, -0.00, -1.00, 644.3, 514.0)">u</text><text xml:space="preserve" font-family="AvenirNext-Medium" font-size="34.0" fill="#FEFFFE" transform="matrix(1.00, 0.00, -0.00, -1.00, 664.1, 514.0)">p</text><text xml:space="preserve" font-family="AvenirNext-Medium" font-size="34.0" fill="#FEFFFE" transform="matrix(1.00, 0.00, -0.00, -1.00, 685.7, 514.0)">d</text><text xml:space="preserve" font-family="AvenirNext-Medium" font-size="34.0" fill="#FEFFFE" transform="matrix(1.00, 0.00, -0.00, -1.00, 707.3, 514.0)">a</text><text xml:space="preserve" font-family="AvenirNext-Medium" font-size="34.0" fill="#FEFFFE" transform="matrix(1.00, 0.00, -0.00, -1.00, 725.4, 514.0)">t</text><text xml:space="preserve" font-family="AvenirNext-Medium" font-size="34.0" fill="#FEFFFE" transform="matrix(1.00, 0.00, -0.00, -1.00, 736.6, 514.0)">e</text><text xml:space="preserve" font-family="AvenirNext-Medium" font-size="34.0" fill="#FEFFFE" transform="matrix(1.00, 0.00, -0.00, -1.00, 756.0, 514.0)">d</text><text xml:space="preserve" font-family="AvenirNext-Medium" font-size="34.0" fill="#FEFFFE" transform="matrix(1.00, 0.00, -0.00, -1.00, 777.6, 514.0)"> </text><text xml:space="preserve" font-family="LucidaGrande" font-size="35.7" fill="#34A4DA" transform="matrix(1.00, 0.00, -0.00, -1.00, 71.0, 437.0)">▸</text><text xml:space="preserve" font-family="AvenirNext-Medium" font-size="34.0" fill="#FEFFFE" transform="matrix(1.00, 0.00, -0.00, -1.00, 106.0, 440.0)">1</text><text xml:space="preserve" font-family="AvenirNext-Medium" font-size="34.0" fill="#FEFFFE" transform="matrix(1.00, 0.00, -0.00, -1.00, 126.2, 440.0)">.</text><text xml:space="preserve" font-family="AvenirNext-Medium" font-size="34.0" fill="#FEFFFE" transform="matrix(1.00, 0.00, -0.00, -1.00, 135.1, 440.0)">1</text><text xml:space="preserve" font-family="AvenirNext-Medium" font-size="34.0" fill="#FEFFFE" transform="matrix(1.00, 0.00, -0.00, -1.00, 155.3, 440.0)">.</text><text xml:space="preserve" font-family="AvenirNext-Medium" font-size="34.0" fill="#FEFFFE" transform="matrix(1.00, 0.00, -0.00, -1.00, 164.1, 440.0)">5</text><text xml:space="preserve" font-family="AvenirNext-Medium" font-size="34.0" fill="#FEFFFE" transform="matrix(1.00, 0.00, -0.00, -1.00, 184.4, 440.0)">?</text><text xml:space="preserve" font-family="LucidaGrande-Bold" font-weight="bold" font-size="34.0" fill="#FEFFFE" transform="matrix(1.00, 0.00, -0.00, -1.00, 201.4, 440.0)"> </text><text xml:space="preserve" font-family="AndaleMono" font-size="24.0" fill="#FF9C35" transform="matrix(1.00, 0.00, -0.00, -1.00, 106.0, 406.0)">&lt;</text><text xml:space="preserve" font-family="AndaleMono" font-size="24.0" fill="#FF9C35" transform="matrix(1.00, 0.00, -0.00, -1.00, 120.4, 406.0)">d</text><text xml:space="preserve" font-family="AndaleMono" font-size="24.0" fill="#FF9C35" transform="matrix(1.00, 0.00, -0.00, -1.00, 134.8, 406.0)">i</text><text xml:space="preserve" font-family="AndaleMono" font-size="24.0" fill="#FF9C35" transform="matrix(1.00, 0.00, -0.00, -1.00, 149.2, 406.0)">v</text><text xml:space="preserve" font-family="AndaleMono" font-size="24.0" fill="#FF9C35" transform="matrix(1.00, 0.00, -0.00, -1.00, 163.6, 406.0)"> </text><text xml:space="preserve" font-family="AndaleMono" font-size="24.0" fill="#FF9C35" transform="matrix(1.00, 0.00, -0.00, -1.00, 178.0, 406.0)">c</text><text xml:space="preserve" font-family="AndaleMono" font-size="24.0" fill="#FF9C35" transform="matrix(1.00, 0.00, -0.00, -1.00, 192.4, 406.0)">l</text><text xml:space="preserve" font-family="AndaleMono" font-size="24.0" fill="#FF9C35" transform="matrix(1.00, 0.00, -0.00, -1.00, 206.8, 406.0)">a</text><text xml:space="preserve" font-family="AndaleMono" font-size="24.0" fill="#FF9C35" transform="matrix(1.00, 0.00, -0.00, -1.00, 221.2, 406.0)">s</text><text xml:space="preserve" font-family="AndaleMono" font-size="24.0" fill="#FF9C35" transform="matrix(1.00, 0.00, -0.00, -1.00, 235.6, 406.0)">s</text><text xml:space="preserve" font-family="AndaleMono" font-size="24.0" fill="#FF9C35" transform="matrix(1.00, 0.00, -0.00, -1.00, 250.0, 406.0)">=</text><text xml:space="preserve" font-family="AndaleMono" font-size="24.0" fill="#FF9C35" transform="matrix(1.00, 0.00, -0.00, -1.00, 264.5, 406.0)">“</text><text xml:space="preserve" font-family="AndaleMono" font-size="24.0" fill="#FF9C35" transform="matrix(1.00, 0.00, -0.00, -1.00, 278.9, 406.0)">n</text><text xml:space="preserve" font-family="AndaleMono" font-size="24.0" fill="#FF9C35" transform="matrix(1.00, 0.00, -0.00, -1.00, 293.3, 406.0)">g</text><text xml:space="preserve" font-family="AndaleMono" font-size="24.0" fill="#FF9C35" transform="matrix(1.00, 0.00, -0.00, -1.00, 307.7, 406.0)">-</text><text xml:space="preserve" font-family="AndaleMono" font-size="24.0" fill="#FF9C35" transform="matrix(1.00, 0.00, -0.00, -1.00, 322.1, 406.0)">a</text><text xml:space="preserve" font-family="AndaleMono" font-size="24.0" fill="#FF9C35" transform="matrix(1.00, 0.00, -0.00, -1.00, 336.5, 406.0)">p</text><text xml:space="preserve" font-family="AndaleMono" font-size="24.0" fill="#FF9C35" transform="matrix(1.00, 0.00, -0.00, -1.00, 350.9, 406.0)">p</text><text xml:space="preserve" font-family="AndaleMono" font-size="24.0" fill="#FF9C35" transform="matrix(1.00, 0.00, -0.00, -1.00, 365.3, 406.0)">"</text><text xml:space="preserve" font-family="AndaleMono" font-size="24.0" fill="#FF9C35" transform="matrix(1.00, 0.00, -0.00, -1.00, 379.7, 406.0)">&gt;</text><text xml:space="preserve" font-family="Monaco" font-size="24.0" fill="#FF9C35" transform="matrix(1.00, 0.00, -0.00, -1.00, 394.0, 406.0)"> </text><text xml:space="preserve" font-family="AndaleMono" font-size="24.0" fill="#FF9C35" transform="matrix(1.00, 0.00, -0.00, -1.00, 106.0, 379.0)"> </text><text xml:space="preserve" font-family="AndaleMono" font-size="24.0" fill="#FF9C35" transform="matrix(1.00, 0.00, -0.00, -1.00, 120.4, 379.0)"> </text><text xml:space="preserve" font-family="AndaleMono" font-size="24.0" fill="#FF9C35" transform="matrix(1.00, 0.00, -0.00, -1.00, 134.8, 379.0)">{</text><text xml:space="preserve" font-family="AndaleMono" font-size="24.0" fill="#FF9C35" transform="matrix(1.00, 0.00, -0.00, -1.00, 149.2, 379.0)">{</text><text xml:space="preserve" font-family="AndaleMono" font-size="24.0" fill="#FF9C35" transform="matrix(1.00, 0.00, -0.00, -1.00, 163.6, 379.0)">c</text><text xml:space="preserve" font-family="AndaleMono" font-size="24.0" fill="#FF9C35" transform="matrix(1.00, 0.00, -0.00, -1.00, 178.0, 379.0)">o</text><text xml:space="preserve" font-family="AndaleMono" font-size="24.0" fill="#FF9C35" transform="matrix(1.00, 0.00, -0.00, -1.00, 192.4, 379.0)">n</text><text xml:space="preserve" font-family="AndaleMono" font-size="24.0" fill="#FF9C35" transform="matrix(1.00, 0.00, -0.00, -1.00, 206.8, 379.0)">s</text><text xml:space="preserve" font-family="AndaleMono" font-size="24.0" fill="#FF9C35" transform="matrix(1.00, 0.00, -0.00, -1.00, 221.2, 379.0)">t</text><text xml:space="preserve" font-family="AndaleMono" font-size="24.0" fill="#FF9C35" transform="matrix(1.00, 0.00, -0.00, -1.00, 235.6, 379.0)">r</text><text xml:space="preserve" font-family="AndaleMono" font-size="24.0" fill="#FF9C35" transform="matrix(1.00, 0.00, -0.00, -1.00, 250.0, 379.0)">u</text><text xml:space="preserve" font-family="AndaleMono" font-size="24.0" fill="#FF9C35" transform="matrix(1.00, 0.00, -0.00, -1.00, 264.5, 379.0)">c</text><text xml:space="preserve" font-family="AndaleMono" font-size="24.0" fill="#FF9C35" transform="matrix(1.00, 0.00, -0.00, -1.00, 278.9, 379.0)">t</text><text xml:space="preserve" font-family="AndaleMono" font-size="24.0" fill="#FF9C35" transform="matrix(1.00, 0.00, -0.00, -1.00, 293.3, 379.0)">o</text><text xml:space="preserve" font-family="AndaleMono" font-size="24.0" fill="#FF9C35" transform="matrix(1.00, 0.00, -0.00, -1.00, 307.7, 379.0)">r</text><text xml:space="preserve" font-family="AndaleMono" font-size="24.0" fill="#FF9C35" transform="matrix(1.00, 0.00, -0.00, -1.00, 322.1, 379.0)">.</text><text xml:space="preserve" font-family="AndaleMono" font-size="24.0" fill="#FF9C35" transform="matrix(1.00, 0.00, -0.00, -1.00, 336.5, 379.0)">c</text><text xml:space="preserve" font-family="AndaleMono" font-size="24.0" fill="#FF9C35" transform="matrix(1.00, 0.00, -0.00, -1.00, 350.9, 379.0)">o</text><text xml:space="preserve" font-family="AndaleMono" font-size="24.0" fill="#FF9C35" transform="matrix(1.00, 0.00, -0.00, -1.00, 365.3, 379.0)">n</text><text xml:space="preserve" font-family="AndaleMono" font-size="24.0" fill="#FF9C35" transform="matrix(1.00, 0.00, -0.00, -1.00, 379.7, 379.0)">s</text><text xml:space="preserve" font-family="AndaleMono" font-size="24.0" fill="#FF9C35" transform="matrix(1.00, 0.00, -0.00, -1.00, 394.1, 379.0)">t</text><text xml:space="preserve" font-family="AndaleMono" font-size="24.0" fill="#FF9C35" transform="matrix(1.00, 0.00, -0.00, -1.00, 408.5, 379.0)">r</text><text xml:space="preserve" font-family="AndaleMono" font-size="24.0" fill="#FF9C35" transform="matrix(1.00, 0.00, -0.00, -1.00, 422.9, 379.0)">u</text><text xml:space="preserve" font-family="AndaleMono" font-size="24.0" fill="#FF9C35" transform="matrix(1.00, 0.00, -0.00, -1.00, 437.3, 379.0)">c</text><text xml:space="preserve" font-family="AndaleMono" font-size="24.0" fill="#FF9C35" transform="matrix(1.00, 0.00, -0.00, -1.00, 451.7, 379.0)">t</text><text xml:space="preserve" font-family="AndaleMono" font-size="24.0" fill="#FF9C35" transform="matrix(1.00, 0.00, -0.00, -1.00, 466.1, 379.0)">o</text><text xml:space="preserve" font-family="AndaleMono" font-size="24.0" fill="#FF9C35" transform="matrix(1.00, 0.00, -0.00, -1.00, 480.5, 379.0)">r</text><text xml:space="preserve" font-family="AndaleMono" font-size="24.0" fill="#FF9C35" transform="matrix(1.00, 0.00, -0.00, -1.00, 494.9, 379.0)">(</text><text xml:space="preserve" font-family="AndaleMono" font-size="24.0" fill="#FF9C35" transform="matrix(1.00, 0.00, -0.00, -1.00, 509.3, 379.0)">'</text><text xml:space="preserve" font-family="AndaleMono" font-size="24.0" fill="#FF9C35" transform="matrix(1.00, 0.00, -0.00, -1.00, 523.7, 379.0)">a</text><text xml:space="preserve" font-family="AndaleMono" font-size="24.0" fill="#FF9C35" transform="matrix(1.00, 0.00, -0.00, -1.00, 538.1, 379.0)">l</text><text xml:space="preserve" font-family="AndaleMono" font-size="24.0" fill="#FF9C35" transform="matrix(1.00, 0.00, -0.00, -1.00, 552.5, 379.0)">e</text><text xml:space="preserve" font-family="AndaleMono" font-size="24.0" fill="#FF9C35" transform="matrix(1.00, 0.00, -0.00, -1.00, 567.0, 379.0)">r</text><text xml:space="preserve" font-family="AndaleMono" font-size="24.0" fill="#FF9C35" transform="matrix(1.00, 0.00, -0.00, -1.00, 581.4, 379.0)">t</text><text xml:space="preserve" font-family="AndaleMono" font-size="24.0" fill="#FF9C35" transform="matrix(1.00, 0.00, -0.00, -1.00, 595.8, 379.0)">(</text><text xml:space="preserve" font-family="AndaleMono" font-size="24.0" fill="#FF9C35" transform="matrix(1.00, 0.00, -0.00, -1.00, 610.2, 379.0)">1</text><text xml:space="preserve" font-family="AndaleMono" font-size="24.0" fill="#FF9C35" transform="matrix(1.00, 0.00, -0.00, -1.00, 624.6, 379.0)">)</text><text xml:space="preserve" font-family="AndaleMono" font-size="24.0" fill="#FF9C35" transform="matrix(1.00, 0.00, -0.00, -1.00, 639.0, 379.0)">'</text><text xml:space="preserve" font-family="AndaleMono" font-size="24.0" fill="#FF9C35" transform="matrix(1.00, 0.00, -0.00, -1.00, 653.4, 379.0)">)</text><text xml:space="preserve" font-family="AndaleMono" font-size="24.0" fill="#FF9C35" transform="matrix(1.00, 0.00, -0.00, -1.00, 667.8, 379.0)">(</text><text xml:space="preserve" font-family="AndaleMono" font-size="24.0" fill="#FF9C35" transform="matrix(1.00, 0.00, -0.00, -1.00, 682.2, 379.0)">)</text><text xml:space="preserve" font-family="AndaleMono" font-size="24.0" fill="#FF9C35" transform="matrix(1.00, 0.00, -0.00, -1.00, 696.6, 379.0)">}</text><text xml:space="preserve" font-family="AndaleMono" font-size="24.0" fill="#FF9C35" transform="matrix(1.00, 0.00, -0.00, -1.00, 711.0, 379.0)">}</text><text xml:space="preserve" font-family="Monaco" font-size="24.0" fill="#FF9C35" transform="matrix(1.00, 0.00, -0.00, -1.00, 725.3, 379.0)"> </text><text xml:space="preserve" font-family="AndaleMono" font-size="24.0" fill="#FF9C35" transform="matrix(1.00, 0.00, -0.00, -1.00, 106.0, 352.0)">&lt;</text><text xml:space="preserve" font-family="AndaleMono" font-size="24.0" fill="#FF9C35" transform="matrix(1.00, 0.00, -0.00, -1.00, 120.4, 352.0)">/</text><text xml:space="preserve" font-family="AndaleMono" font-size="24.0" fill="#FF9C35" transform="matrix(1.00, 0.00, -0.00, -1.00, 134.8, 352.0)">d</text><text xml:space="preserve" font-family="AndaleMono" font-size="24.0" fill="#FF9C35" transform="matrix(1.00, 0.00, -0.00, -1.00, 149.2, 352.0)">i</text><text xml:space="preserve" font-family="AndaleMono" font-size="24.0" fill="#FF9C35" transform="matrix(1.00, 0.00, -0.00, -1.00, 163.6, 352.0)">v</text><text xml:space="preserve" font-family="AndaleMono" font-size="24.0" fill="#FF9C35" transform="matrix(1.00, 0.00, -0.00, -1.00, 178.0, 352.0)">&gt;</text><text xml:space="preserve" font-family="AndaleMono" font-size="34.0" fill="#FEFFFE" transform="matrix(1.00, 0.00, -0.00, -1.00, 192.4, 352.0)"> </text><text xml:space="preserve" font-family="LucidaGrande" font-size="35.7" fill="#34A4DA" transform="matrix(1.00, 0.00, -0.00, -1.00, 71.0, 282.0)">▸</text><text xml:space="preserve" font-family="AvenirNext-Medium" font-size="34.0" fill="#FEFFFE" transform="matrix(1.00, 0.00, -0.00, -1.00, 106.0, 285.0)">F</text><text xml:space="preserve" font-family="AvenirNext-Medium" font-size="34.0" fill="#FEFFFE" transform="matrix(1.00, 0.00, -0.00, -1.00, 124.7, 285.0)">i</text><text xml:space="preserve" font-family="AvenirNext-Medium" font-size="34.0" fill="#FEFFFE" transform="matrix(1.00, 0.00, -0.00, -1.00, 133.5, 285.0)">x</text><text xml:space="preserve" font-family="AvenirNext-Medium" font-size="34.0" fill="#FEFFFE" transform="matrix(1.00, 0.00, -0.00, -1.00, 150.5, 285.0)">e</text><text xml:space="preserve" font-family="AvenirNext-Medium" font-size="34.0" fill="#FEFFFE" transform="matrix(1.00, 0.00, -0.00, -1.00, 170.0, 285.0)">d</text><text xml:space="preserve" font-family="AvenirNext-Medium" font-size="34.0" fill="#FEFFFE" transform="matrix(1.00, 0.00, -0.00, -1.00, 191.6, 285.0)"> </text><text xml:space="preserve" font-family="AvenirNext-Medium" font-size="34.0" fill="#FEFFFE" transform="matrix(1.00, 0.00, -0.00, -1.00, 200.1, 285.0)">n</text><text xml:space="preserve" font-family="AvenirNext-Medium" font-size="34.0" fill="#FEFFFE" transform="matrix(1.00, 0.00, -0.00, -1.00, 219.9, 285.0)">o</text><text xml:space="preserve" font-family="AvenirNext-Medium" font-size="34.0" fill="#FEFFFE" transform="matrix(1.00, 0.00, -0.00, -1.00, 240.6, 285.0)">w</text><text xml:space="preserve" font-family="AvenirNext-Medium" font-size="34.0" fill="#FEFFFE" transform="matrix(1.00, 0.00, -0.00, -1.00, 265.7, 285.0)">,</text><text xml:space="preserve" font-family="AvenirNext-Medium" font-size="34.0" fill="#FEFFFE" transform="matrix(1.00, 0.00, -0.00, -1.00, 273.5, 285.0)"> </text><text xml:space="preserve" font-family="AvenirNext-Medium" font-size="34.0" fill="#FEFFFE" transform="matrix(1.00, 0.00, -0.00, -1.00, 282.0, 285.0)">b</text><text xml:space="preserve" font-family="AvenirNext-Medium" font-size="34.0" fill="#FEFFFE" transform="matrix(1.00, 0.00, -0.00, -1.00, 303.6, 285.0)">u</text><text xml:space="preserve" font-family="AvenirNext-Medium" font-size="34.0" fill="#FEFFFE" transform="matrix(1.00, 0.00, -0.00, -1.00, 323.4, 285.0)">t</text><text xml:space="preserve" font-family="AvenirNext-Medium" font-size="34.0" fill="#FEFFFE" transform="matrix(1.00, 0.00, -0.00, -1.00, 334.6, 285.0)"> </text><text xml:space="preserve" font-family="AvenirNext-Medium" font-size="34.0" fill="#FEFFFE" transform="matrix(1.00, 0.00, -0.00, -1.00, 343.1, 285.0)">b</text><text xml:space="preserve" font-family="AvenirNext-Medium" font-size="34.0" fill="#FEFFFE" transform="matrix(1.00, 0.00, -0.00, -1.00, 364.7, 285.0)">e</text><text xml:space="preserve" font-family="AvenirNext-Medium" font-size="34.0" fill="#FEFFFE" transform="matrix(1.00, 0.00, -0.00, -1.00, 384.2, 285.0)">w</text><text xml:space="preserve" font-family="AvenirNext-Medium" font-size="34.0" fill="#FEFFFE" transform="matrix(1.00, 0.00, -0.00, -1.00, 410.5, 285.0)">a</text><text xml:space="preserve" font-family="AvenirNext-Medium" font-size="34.0" fill="#FEFFFE" transform="matrix(1.00, 0.00, -0.00, -1.00, 428.9, 285.0)">r</text><text xml:space="preserve" font-family="AvenirNext-Medium" font-size="34.0" fill="#FEFFFE" transform="matrix(1.00, 0.00, -0.00, -1.00, 440.6, 285.0)">e</text><text xml:space="preserve" font-family="AvenirNext-Medium" font-size="34.0" fill="#FEFFFE" transform="matrix(1.00, 0.00, -0.00, -1.00, 460.1, 285.0)"> </text><text xml:space="preserve" font-family="AvenirNext-Medium" font-size="34.0" fill="#FEFFFE" transform="matrix(1.00, 0.00, -0.00, -1.00, 468.6, 285.0)">o</text><text xml:space="preserve" font-family="AvenirNext-Medium" font-size="34.0" fill="#FEFFFE" transform="matrix(1.00, 0.00, -0.00, -1.00, 489.4, 285.0)">l</text><text xml:space="preserve" font-family="AvenirNext-Medium" font-size="34.0" fill="#FEFFFE" transform="matrix(1.00, 0.00, -0.00, -1.00, 498.2, 285.0)">d</text><text xml:space="preserve" font-family="AvenirNext-Medium" font-size="34.0" fill="#FEFFFE" transform="matrix(1.00, 0.00, -0.00, -1.00, 519.8, 285.0)">e</text><text xml:space="preserve" font-family="AvenirNext-Medium" font-size="34.0" fill="#FEFFFE" transform="matrix(1.00, 0.00, -0.00, -1.00, 539.3, 285.0)">r</text><text xml:space="preserve" font-family="AvenirNext-Medium" font-size="34.0" fill="#FEFFFE" transform="matrix(1.00, 0.00, -0.00, -1.00, 551.6, 285.0)"> </text><text xml:space="preserve" font-family="AvenirNext-Medium" font-size="34.0" fill="#FEFFFE" transform="matrix(1.00, 0.00, -0.00, -1.00, 560.1, 285.0)">v</text><text xml:space="preserve" font-family="AvenirNext-Medium" font-size="34.0" fill="#FEFFFE" transform="matrix(1.00, 0.00, -0.00, -1.00, 577.2, 285.0)">e</text><text xml:space="preserve" font-family="AvenirNext-Medium" font-size="34.0" fill="#FEFFFE" transform="matrix(1.00, 0.00, -0.00, -1.00, 596.7, 285.0)">r</text><text xml:space="preserve" font-family="AvenirNext-Medium" font-size="34.0" fill="#FEFFFE" transform="matrix(1.00, 0.00, -0.00, -1.00, 609.0, 285.0)">s</text><text xml:space="preserve" font-family="AvenirNext-Medium" font-size="34.0" fill="#FEFFFE" transform="matrix(1.00, 0.00, -0.00, -1.00, 624.1, 285.0)">i</text><text xml:space="preserve" font-family="AvenirNext-Medium" font-size="34.0" fill="#FEFFFE" transform="matrix(1.00, 0.00, -0.00, -1.00, 632.9, 285.0)">o</text><text xml:space="preserve" font-family="AvenirNext-Medium" font-size="34.0" fill="#FEFFFE" transform="matrix(1.00, 0.00, -0.00, -1.00, 653.6, 285.0)">n</text><text xml:space="preserve" font-family="AvenirNext-Medium" font-size="34.0" fill="#FEFFFE" transform="matrix(1.00, 0.00, -0.00, -1.00, 673.4, 285.0)">s</text><text xml:space="preserve" font-family="DINAlternate-Bold" font-weight="bold" font-size="24.0" fill="#838686" transform="matrix(1.00, 0.00, -0.00, -1.00, 964.6, 707.4)">3</text><text xml:space="preserve" font-family="DINAlternate-Bold" font-weight="bold" font-size="24.0" fill="#838686" transform="matrix(1.00, 0.00, -0.00, -1.00, 976.1, 707.4)">2</text></g></svg>