<?xml version="1.0" encoding="UTF-8" standalone="no"?><svg xmlns="http://www.w3.org/2000/svg" xmlns:xlink="http://www.w3.org/1999/xlink" clip-rule="evenodd" stroke-miterlimit="4.00" viewBox="0 0 1024 768"><desc>SVG generated by Keynote</desc><defs></defs><g transform="matrix(1.00, 0.00, -0.00, -1.00, 0.0, 768.0)"><path d="M 0.0 768.0 L 1024.0 768.0 L 1024.0 0.0 L 0.0 0.0 Z M 0.0 768.0 " fill="#212121"></path><path d="M 0.0 0.0 L 960.0 0.0 " fill="none" stroke="#A6AAA8" stroke-width="3.00" transform="matrix(1.00, 0.00, 0.00, -1.00, 32.0, 284.5)"></path><text xml:space="preserve" font-family="DINCondensed-Bold" font-weight="bold" font-size="91.8" fill="#FF9C35" transform="matrix(1.00, 0.00, -0.00, -1.00, 36.0, 194.0)">A</text><text xml:space="preserve" font-family="DINCondensed-Bold" font-weight="bold" font-size="91.8" fill="#FF9C35" transform="matrix(1.00, 0.00, -0.00, -1.00, 73.4, 194.0)">S</text><text xml:space="preserve" font-family="DINCondensed-Bold" font-weight="bold" font-size="91.8" fill="#FF9C35" transform="matrix(1.00, 0.00, -0.00, -1.00, 110.6, 194.0)"> </text><text xml:space="preserve" font-family="DINCondensed-Bold" font-weight="bold" font-size="91.8" fill="#FF9C35" transform="matrix(1.00, 0.00, -0.00, -1.00, 127.7, 194.0)">W</text><text xml:space="preserve" font-family="DINCondensed-Bold" font-weight="bold" font-size="91.8" fill="#FF9C35" transform="matrix(1.00, 0.00, -0.00, -1.00, 182.1, 194.0)">E</text><text xml:space="preserve" font-family="DINCondensed-Bold" font-weight="bold" font-size="91.8" fill="#FF9C35" transform="matrix(1.00, 0.00, -0.00, -1.00, 216.1, 194.0)"> </text><text xml:space="preserve" font-family="DINCondensed-Bold" font-weight="bold" font-size="91.8" fill="#FF9C35" transform="matrix(1.00, 0.00, -0.00, -1.00, 233.2, 194.0)">S</text><text xml:space="preserve" font-family="DINCondensed-Bold" font-weight="bold" font-size="91.8" fill="#FF9C35" transform="matrix(1.00, 0.00, -0.00, -1.00, 270.5, 194.0)">A</text><text xml:space="preserve" font-family="DINCondensed-Bold" font-weight="bold" font-size="91.8" fill="#FF9C35" transform="matrix(1.00, 0.00, -0.00, -1.00, 302.8, 194.0)">Y</text><text xml:space="preserve" font-family="DINCondensed-Bold" font-weight="bold" font-size="91.8" fill="#FF9C35" transform="matrix(1.00, 0.00, -0.00, -1.00, 338.4, 194.0)"> </text><text xml:space="preserve" font-family="DINCondensed-Bold" font-weight="bold" font-size="91.8" fill="#FF9C35" transform="matrix(1.00, 0.00, -0.00, -1.00, 355.5, 194.0)">I</text><text xml:space="preserve" font-family="DINCondensed-Bold" font-weight="bold" font-size="91.8" fill="#FF9C35" transform="matrix(1.00, 0.00, -0.00, -1.00, 374.2, 194.0)">N</text><text xml:space="preserve" font-family="DINCondensed-Bold" font-weight="bold" font-size="91.8" fill="#FF9C35" transform="matrix(1.00, 0.00, -0.00, -1.00, 415.0, 194.0)"> </text><text xml:space="preserve" font-family="DINCondensed-Bold" font-weight="bold" font-size="91.8" fill="#FF9C35" transform="matrix(1.00, 0.00, -0.00, -1.00, 432.0, 194.0)">A</text><text xml:space="preserve" font-family="DINCondensed-Bold" font-weight="bold" font-size="91.8" fill="#FF9C35" transform="matrix(1.00, 0.00, -0.00, -1.00, 469.4, 194.0)">U</text><text xml:space="preserve" font-family="DINCondensed-Bold" font-weight="bold" font-size="91.8" fill="#FF9C35" transform="matrix(1.00, 0.00, -0.00, -1.00, 508.5, 194.0)">S</text><text xml:space="preserve" font-family="DINCondensed-Bold" font-weight="bold" font-size="91.8" fill="#FF9C35" transform="matrix(1.00, 0.00, -0.00, -1.00, 545.8, 194.0)">T</text><text xml:space="preserve" font-family="DINCondensed-Bold" font-weight="bold" font-size="91.8" fill="#FF9C35" transform="matrix(1.00, 0.00, -0.00, -1.00, 576.2, 194.0)">R</text><text xml:space="preserve" font-family="DINCondensed-Bold" font-weight="bold" font-size="91.8" fill="#FF9C35" transform="matrix(1.00, 0.00, -0.00, -1.00, 615.3, 194.0)">A</text><text xml:space="preserve" font-family="DINCondensed-Bold" font-weight="bold" font-size="91.8" fill="#FF9C35" transform="matrix(1.00, 0.00, -0.00, -1.00, 652.7, 194.0)">L</text><text xml:space="preserve" font-family="DINCondensed-Bold" font-weight="bold" font-size="91.8" fill="#FF9C35" transform="matrix(1.00, 0.00, -0.00, -1.00, 686.7, 194.0)">I</text><text xml:space="preserve" font-family="DINCondensed-Bold" font-weight="bold" font-size="91.8" fill="#FF9C35" transform="matrix(1.00, 0.00, -0.00, -1.00, 705.4, 194.0)">A</text><text xml:space="preserve" font-family="DINCondensed-Bold" font-weight="bold" font-size="91.8" fill="#FF9C35" transform="matrix(1.00, 0.00, -0.00, -1.00, 742.8, 194.0)">:</text><text xml:space="preserve" font-family="LucidaGrande-Bold" font-weight="bold" font-size="91.8" fill="#FF9C35" transform="matrix(1.00, 0.00, -0.00, -1.00, 759.8, 194.0)"> </text><text xml:space="preserve" font-family="DINCondensed-Bold" font-weight="bold" font-size="91.8" fill="#FF9C35" transform="matrix(1.00, 0.00, -0.00, -1.00, 36.0, 103.0)">“</text><text xml:space="preserve" font-family="DINCondensed-Bold" font-weight="bold" font-size="91.8" fill="#FF9C35" transform="matrix(1.00, 0.00, -0.00, -1.00, 61.5, 103.0)">Y</text><text xml:space="preserve" font-family="DINCondensed-Bold" font-weight="bold" font-size="91.8" fill="#FF9C35" transform="matrix(1.00, 0.00, -0.00, -1.00, 97.1, 103.0)">E</text><text xml:space="preserve" font-family="DINCondensed-Bold" font-weight="bold" font-size="91.8" fill="#FF9C35" transform="matrix(1.00, 0.00, -0.00, -1.00, 131.1, 103.0)">A</text><text xml:space="preserve" font-family="DINCondensed-Bold" font-weight="bold" font-size="91.8" fill="#FF9C35" transform="matrix(1.00, 0.00, -0.00, -1.00, 168.5, 103.0)">H</text><text xml:space="preserve" font-family="DINCondensed-Bold" font-weight="bold" font-size="91.8" fill="#FF9C35" transform="matrix(1.00, 0.00, -0.00, -1.00, 207.6, 103.0)">,</text><text xml:space="preserve" font-family="DINCondensed-Bold" font-weight="bold" font-size="91.8" fill="#FF9C35" transform="matrix(1.00, 0.00, -0.00, -1.00, 224.6, 103.0)"> </text><text xml:space="preserve" font-family="DINCondensed-Bold" font-weight="bold" font-size="91.8" fill="#FF9C35" transform="matrix(1.00, 0.00, -0.00, -1.00, 241.7, 103.0)">N</text><text xml:space="preserve" font-family="DINCondensed-Bold" font-weight="bold" font-size="91.8" fill="#FF9C35" transform="matrix(1.00, 0.00, -0.00, -1.00, 282.5, 103.0)">A</text><text xml:space="preserve" font-family="DINCondensed-Bold" font-weight="bold" font-size="91.8" fill="#FF9C35" transform="matrix(1.00, 0.00, -0.00, -1.00, 319.8, 103.0)">H</text><text xml:space="preserve" font-family="DINCondensed-Bold" font-weight="bold" font-size="91.8" fill="#FF9C35" transform="matrix(1.00, 0.00, -0.00, -1.00, 359.0, 103.0)">…</text><text xml:space="preserve" font-family="DINCondensed-Bold" font-weight="bold" font-size="91.8" fill="#FF9C35" transform="matrix(1.00, 0.00, -0.00, -1.00, 450.8, 103.0)">”</text><text xml:space="preserve" font-family="DINCondensed-Bold" font-weight="bold" font-size="91.8" fill="#FF9C35" transform="matrix(1.00, 0.00, -0.00, -1.00, 476.3, 103.0)">*</text><text xml:space="preserve" font-family="DINAlternate-Bold" font-weight="bold" font-size="44.0" fill="#FEFFFE" transform="matrix(1.00, 0.00, -0.00, -1.00, 36.0, 304.0)">I</text><text xml:space="preserve" font-family="DINAlternate-Bold" font-weight="bold" font-size="44.0" fill="#FEFFFE" transform="matrix(1.00, 0.00, -0.00, -1.00, 47.3, 304.0)">S</text><text xml:space="preserve" font-family="DINAlternate-Bold" font-weight="bold" font-size="44.0" fill="#FEFFFE" transform="matrix(1.00, 0.00, -0.00, -1.00, 72.6, 304.0)"> </text><text xml:space="preserve" font-family="DINAlternate-Bold" font-weight="bold" font-size="44.0" fill="#FEFFFE" transform="matrix(1.00, 0.00, -0.00, -1.00, 83.1, 304.0)">H</text><text xml:space="preserve" font-family="DINAlternate-Bold" font-weight="bold" font-size="44.0" fill="#FEFFFE" transform="matrix(1.00, 0.00, -0.00, -1.00, 111.6, 304.0)">A</text><text xml:space="preserve" font-family="DINAlternate-Bold" font-weight="bold" font-size="44.0" fill="#FEFFFE" transform="matrix(1.00, 0.00, -0.00, -1.00, 137.6, 304.0)">C</text><text xml:space="preserve" font-family="DINAlternate-Bold" font-weight="bold" font-size="44.0" fill="#FEFFFE" transform="matrix(1.00, 0.00, -0.00, -1.00, 162.1, 304.0)">K</text><text xml:space="preserve" font-family="DINAlternate-Bold" font-weight="bold" font-size="44.0" fill="#FEFFFE" transform="matrix(1.00, 0.00, -0.00, -1.00, 189.8, 304.0)">I</text><text xml:space="preserve" font-family="DINAlternate-Bold" font-weight="bold" font-size="44.0" fill="#FEFFFE" transform="matrix(1.00, 0.00, -0.00, -1.00, 201.2, 304.0)">N</text><text xml:space="preserve" font-family="DINAlternate-Bold" font-weight="bold" font-size="44.0" fill="#FEFFFE" transform="matrix(1.00, 0.00, -0.00, -1.00, 231.3, 304.0)">G</text><text xml:space="preserve" font-family="DINAlternate-Bold" font-weight="bold" font-size="44.0" fill="#FEFFFE" transform="matrix(1.00, 0.00, -0.00, -1.00, 258.1, 304.0)"> </text><text xml:space="preserve" font-family="DINAlternate-Bold" font-weight="bold" font-size="44.0" fill="#FEFFFE" transform="matrix(1.00, 0.00, -0.00, -1.00, 268.6, 304.0)">H</text><text xml:space="preserve" font-family="DINAlternate-Bold" font-weight="bold" font-size="44.0" fill="#FEFFFE" transform="matrix(1.00, 0.00, -0.00, -1.00, 297.1, 304.0)">A</text><text xml:space="preserve" font-family="DINAlternate-Bold" font-weight="bold" font-size="44.0" fill="#FEFFFE" transform="matrix(1.00, 0.00, -0.00, -1.00, 324.0, 304.0)">R</text><text xml:space="preserve" font-family="DINAlternate-Bold" font-weight="bold" font-size="44.0" fill="#FEFFFE" transform="matrix(1.00, 0.00, -0.00, -1.00, 350.8, 304.0)">D</text><text xml:space="preserve" font-family="DINAlternate-Bold" font-weight="bold" font-size="44.0" fill="#FEFFFE" transform="matrix(1.00, 0.00, -0.00, -1.00, 378.5, 304.0)">?</text><text xml:space="preserve" font-family="DINAlternate-Bold" font-weight="bold" font-size="44.0" fill="#FEFFFE" transform="matrix(1.00, 0.00, -0.00, -1.00, 398.9, 304.0)"> </text><text xml:space="preserve" font-family="DINAlternate-Bold" font-weight="bold" font-size="44.0" fill="#FEFFFE" transform="matrix(1.00, 0.00, -0.00, -1.00, 409.4, 304.0)">D</text><text xml:space="preserve" font-family="DINAlternate-Bold" font-weight="bold" font-size="44.0" fill="#FEFFFE" transform="matrix(1.00, 0.00, -0.00, -1.00, 437.1, 304.0)">O</text><text xml:space="preserve" font-family="DINAlternate-Bold" font-weight="bold" font-size="44.0" fill="#FEFFFE" transform="matrix(1.00, 0.00, -0.00, -1.00, 463.9, 304.0)">E</text><text xml:space="preserve" font-family="DINAlternate-Bold" font-weight="bold" font-size="44.0" fill="#FEFFFE" transform="matrix(1.00, 0.00, -0.00, -1.00, 488.4, 304.0)">S</text><text xml:space="preserve" font-family="DINAlternate-Bold" font-weight="bold" font-size="44.0" fill="#FEFFFE" transform="matrix(1.00, 0.00, -0.00, -1.00, 513.7, 304.0)"> </text><text xml:space="preserve" font-family="DINAlternate-Bold" font-weight="bold" font-size="44.0" fill="#FEFFFE" transform="matrix(1.00, 0.00, -0.00, -1.00, 524.2, 304.0)">I</text><text xml:space="preserve" font-family="DINAlternate-Bold" font-weight="bold" font-size="44.0" fill="#FEFFFE" transform="matrix(1.00, 0.00, -0.00, -1.00, 535.5, 304.0)">T</text><text xml:space="preserve" font-family="DINAlternate-Bold" font-weight="bold" font-size="44.0" fill="#FEFFFE" transform="matrix(1.00, 0.00, -0.00, -1.00, 557.5, 304.0)"> </text><text xml:space="preserve" font-family="DINAlternate-Bold" font-weight="bold" font-size="44.0" fill="#FEFFFE" transform="matrix(1.00, 0.00, -0.00, -1.00, 568.1, 304.0)">T</text><text xml:space="preserve" font-family="DINAlternate-Bold" font-weight="bold" font-size="44.0" fill="#FEFFFE" transform="matrix(1.00, 0.00, -0.00, -1.00, 586.8, 304.0)">A</text><text xml:space="preserve" font-family="DINAlternate-Bold" font-weight="bold" font-size="44.0" fill="#FEFFFE" transform="matrix(1.00, 0.00, -0.00, -1.00, 613.6, 304.0)">K</text><text xml:space="preserve" font-family="DINAlternate-Bold" font-weight="bold" font-size="44.0" fill="#FEFFFE" transform="matrix(1.00, 0.00, -0.00, -1.00, 641.3, 304.0)">E</text><text xml:space="preserve" font-family="DINAlternate-Bold" font-weight="bold" font-size="44.0" fill="#FEFFFE" transform="matrix(1.00, 0.00, -0.00, -1.00, 665.8, 304.0)"> </text><text xml:space="preserve" font-family="DINAlternate-Bold" font-weight="bold" font-size="44.0" fill="#FEFFFE" transform="matrix(1.00, 0.00, -0.00, -1.00, 676.4, 304.0)">M</text><text xml:space="preserve" font-family="DINAlternate-Bold" font-weight="bold" font-size="44.0" fill="#FEFFFE" transform="matrix(1.00, 0.00, -0.00, -1.00, 709.7, 304.0)">A</text><text xml:space="preserve" font-family="DINAlternate-Bold" font-weight="bold" font-size="44.0" fill="#FEFFFE" transform="matrix(1.00, 0.00, -0.00, -1.00, 736.5, 304.0)">D</text><text xml:space="preserve" font-family="DINAlternate-Bold" font-weight="bold" font-size="44.0" fill="#FEFFFE" transform="matrix(1.00, 0.00, -0.00, -1.00, 764.2, 304.0)"> </text><text xml:space="preserve" font-family="DINAlternate-Bold" font-weight="bold" font-size="44.0" fill="#FEFFFE" transform="matrix(1.00, 0.00, -0.00, -1.00, 774.8, 304.0)">S</text><text xml:space="preserve" font-family="DINAlternate-Bold" font-weight="bold" font-size="44.0" fill="#FEFFFE" transform="matrix(1.00, 0.00, -0.00, -1.00, 800.0, 304.0)">K</text><text xml:space="preserve" font-family="DINAlternate-Bold" font-weight="bold" font-size="44.0" fill="#FEFFFE" transform="matrix(1.00, 0.00, -0.00, -1.00, 827.7, 304.0)">I</text><text xml:space="preserve" font-family="DINAlternate-Bold" font-weight="bold" font-size="44.0" fill="#FEFFFE" transform="matrix(1.00, 0.00, -0.00, -1.00, 839.0, 304.0)">L</text><text xml:space="preserve" font-family="DINAlternate-Bold" font-weight="bold" font-size="44.0" fill="#FEFFFE" transform="matrix(1.00, 0.00, -0.00, -1.00, 863.5, 304.0)">L</text><text xml:space="preserve" font-family="DINAlternate-Bold" font-weight="bold" font-size="44.0" fill="#FEFFFE" transform="matrix(1.00, 0.00, -0.00, -1.00, 888.0, 304.0)">Z</text><text xml:space="preserve" font-family="DINAlternate-Bold" font-weight="bold" font-size="44.0" fill="#FEFFFE" transform="matrix(1.00, 0.00, -0.00, -1.00, 910.8, 304.0)">?</text><text xml:space="preserve" font-family="DINAlternate-Bold" font-weight="bold" font-size="28.0" fill="#A6AAA8" transform="matrix(1.00, 0.00, -0.00, -1.00, 36.0, 41.0)">*</text><text xml:space="preserve" font-family="DINAlternate-Bold" font-weight="bold" font-size="28.0" fill="#A6AAA8" transform="matrix(1.00, 0.00, -0.00, -1.00, 45.9, 41.0)"> </text><text xml:space="preserve" font-family="DINAlternate-Bold" font-weight="bold" font-size="28.0" fill="#A6AAA8" transform="matrix(1.00, 0.00, -0.00, -1.00, 52.6, 41.0)">S</text><text xml:space="preserve" font-family="DINAlternate-Bold" font-weight="bold" font-size="28.0" fill="#A6AAA8" transform="matrix(1.00, 0.00, -0.00, -1.00, 68.6, 41.0)">A</text><text xml:space="preserve" font-family="DINAlternate-Bold" font-weight="bold" font-size="28.0" fill="#A6AAA8" transform="matrix(1.00, 0.00, -0.00, -1.00, 85.7, 41.0)">D</text><text xml:space="preserve" font-family="DINAlternate-Bold" font-weight="bold" font-size="28.0" fill="#A6AAA8" transform="matrix(1.00, 0.00, -0.00, -1.00, 103.3, 41.0)">L</text><text xml:space="preserve" font-family="DINAlternate-Bold" font-weight="bold" font-size="28.0" fill="#A6AAA8" transform="matrix(1.00, 0.00, -0.00, -1.00, 115.3, 41.0)">Y</text><text xml:space="preserve" font-family="DINAlternate-Bold" font-weight="bold" font-size="28.0" fill="#A6AAA8" transform="matrix(1.00, 0.00, -0.00, -1.00, 129.3, 41.0)"> </text><text xml:space="preserve" font-family="DINAlternate-Bold" font-weight="bold" font-size="28.0" fill="#A6AAA8" transform="matrix(1.00, 0.00, -0.00, -1.00, 136.0, 41.0)">A</text><text xml:space="preserve" font-family="DINAlternate-Bold" font-weight="bold" font-size="28.0" fill="#A6AAA8" transform="matrix(1.00, 0.00, -0.00, -1.00, 153.1, 41.0)">N</text><text xml:space="preserve" font-family="DINAlternate-Bold" font-weight="bold" font-size="28.0" fill="#A6AAA8" transform="matrix(1.00, 0.00, -0.00, -1.00, 172.2, 41.0)">D</text><text xml:space="preserve" font-family="DINAlternate-Bold" font-weight="bold" font-size="28.0" fill="#A6AAA8" transform="matrix(1.00, 0.00, -0.00, -1.00, 189.9, 41.0)"> </text><text xml:space="preserve" font-family="DINAlternate-Bold" font-weight="bold" font-size="28.0" fill="#A6AAA8" transform="matrix(1.00, 0.00, -0.00, -1.00, 196.6, 41.0)">C</text><text xml:space="preserve" font-family="DINAlternate-Bold" font-weight="bold" font-size="28.0" fill="#A6AAA8" transform="matrix(1.00, 0.00, -0.00, -1.00, 212.1, 41.0)">O</text><text xml:space="preserve" font-family="DINAlternate-Bold" font-weight="bold" font-size="28.0" fill="#A6AAA8" transform="matrix(1.00, 0.00, -0.00, -1.00, 229.2, 41.0)">N</text><text xml:space="preserve" font-family="DINAlternate-Bold" font-weight="bold" font-size="28.0" fill="#A6AAA8" transform="matrix(1.00, 0.00, -0.00, -1.00, 248.4, 41.0)">F</text><text xml:space="preserve" font-family="DINAlternate-Bold" font-weight="bold" font-size="28.0" fill="#A6AAA8" transform="matrix(1.00, 0.00, -0.00, -1.00, 263.4, 41.0)">U</text><text xml:space="preserve" font-family="DINAlternate-Bold" font-weight="bold" font-size="28.0" fill="#A6AAA8" transform="matrix(1.00, 0.00, -0.00, -1.00, 281.1, 41.0)">S</text><text xml:space="preserve" font-family="DINAlternate-Bold" font-weight="bold" font-size="28.0" fill="#A6AAA8" transform="matrix(1.00, 0.00, -0.00, -1.00, 297.1, 41.0)">I</text><text xml:space="preserve" font-family="DINAlternate-Bold" font-weight="bold" font-size="28.0" fill="#A6AAA8" transform="matrix(1.00, 0.00, -0.00, -1.00, 304.3, 41.0)">N</text><text xml:space="preserve" font-family="DINAlternate-Bold" font-weight="bold" font-size="28.0" fill="#A6AAA8" transform="matrix(1.00, 0.00, -0.00, -1.00, 323.5, 41.0)">G</text><text xml:space="preserve" font-family="DINAlternate-Bold" font-weight="bold" font-size="28.0" fill="#A6AAA8" transform="matrix(1.00, 0.00, -0.00, -1.00, 340.6, 41.0)">L</text><text xml:space="preserve" font-family="DINAlternate-Bold" font-weight="bold" font-size="28.0" fill="#A6AAA8" transform="matrix(1.00, 0.00, -0.00, -1.00, 352.5, 41.0)">Y</text><text xml:space="preserve" font-family="DINAlternate-Bold" font-weight="bold" font-size="28.0" fill="#A6AAA8" transform="matrix(1.00, 0.00, -0.00, -1.00, 363.4, 41.0)">,</text><text xml:space="preserve" font-family="DINAlternate-Bold" font-weight="bold" font-size="28.0" fill="#A6AAA8" transform="matrix(1.00, 0.00, -0.00, -1.00, 370.1, 41.0)"> </text><text xml:space="preserve" font-family="DINAlternate-Bold" font-weight="bold" font-size="28.0" fill="#A6AAA8" transform="matrix(1.00, 0.00, -0.00, -1.00, 376.8, 41.0)">T</text><text xml:space="preserve" font-family="DINAlternate-Bold" font-weight="bold" font-size="28.0" fill="#A6AAA8" transform="matrix(1.00, 0.00, -0.00, -1.00, 390.8, 41.0)">H</text><text xml:space="preserve" font-family="DINAlternate-Bold" font-weight="bold" font-size="28.0" fill="#A6AAA8" transform="matrix(1.00, 0.00, -0.00, -1.00, 409.0, 41.0)">A</text><text xml:space="preserve" font-family="DINAlternate-Bold" font-weight="bold" font-size="28.0" fill="#A6AAA8" transform="matrix(1.00, 0.00, -0.00, -1.00, 424.0, 41.0)">T</text><text xml:space="preserve" font-family="DINAlternate-Bold" font-weight="bold" font-size="28.0" fill="#A6AAA8" transform="matrix(1.00, 0.00, -0.00, -1.00, 438.0, 41.0)"> </text><text xml:space="preserve" font-family="DINAlternate-Bold" font-weight="bold" font-size="28.0" fill="#A6AAA8" transform="matrix(1.00, 0.00, -0.00, -1.00, 444.7, 41.0)">M</text><text xml:space="preserve" font-family="DINAlternate-Bold" font-weight="bold" font-size="28.0" fill="#A6AAA8" transform="matrix(1.00, 0.00, -0.00, -1.00, 465.9, 41.0)">E</text><text xml:space="preserve" font-family="DINAlternate-Bold" font-weight="bold" font-size="28.0" fill="#A6AAA8" transform="matrix(1.00, 0.00, -0.00, -1.00, 481.5, 41.0)">A</text><text xml:space="preserve" font-family="DINAlternate-Bold" font-weight="bold" font-size="28.0" fill="#A6AAA8" transform="matrix(1.00, 0.00, -0.00, -1.00, 498.5, 41.0)">N</text><text xml:space="preserve" font-family="DINAlternate-Bold" font-weight="bold" font-size="28.0" fill="#A6AAA8" transform="matrix(1.00, 0.00, -0.00, -1.00, 517.7, 41.0)">S</text><text xml:space="preserve" font-family="DINAlternate-Bold" font-weight="bold" font-size="28.0" fill="#A6AAA8" transform="matrix(1.00, 0.00, -0.00, -1.00, 533.7, 41.0)"> </text><text xml:space="preserve" font-family="DINAlternate-Bold" font-weight="bold" font-size="28.0" fill="#A6AAA8" transform="matrix(1.00, 0.00, -0.00, -1.00, 540.4, 41.0)">“</text><text xml:space="preserve" font-family="DINAlternate-Bold" font-weight="bold" font-size="28.0" fill="#A6AAA8" transform="matrix(1.00, 0.00, -0.00, -1.00, 549.8, 41.0)">N</text><text xml:space="preserve" font-family="DINAlternate-Bold" font-weight="bold" font-size="28.0" fill="#A6AAA8" transform="matrix(1.00, 0.00, -0.00, -1.00, 568.9, 41.0)">O</text><text xml:space="preserve" font-family="DINAlternate-Bold" font-weight="bold" font-size="28.0" fill="#A6AAA8" transform="matrix(1.00, 0.00, -0.00, -1.00, 586.0, 41.0)">”</text><text xml:space="preserve" font-family="DINAlternate-Bold" font-weight="bold" font-size="24.0" fill="#838686" transform="matrix(1.00, 0.00, -0.00, -1.00, 976.7, 707.4)">9</text></g></svg>