<?xml version="1.0" encoding="UTF-8" standalone="no"?><svg xmlns="http://www.w3.org/2000/svg" xmlns:xlink="http://www.w3.org/1999/xlink" clip-rule="evenodd" stroke-miterlimit="4.00" viewBox="0 0 1024 768"><desc>SVG generated by Keynote</desc><defs></defs><g transform="matrix(1.00, 0.00, -0.00, -1.00, 0.0, 768.0)"><path d="M 0.0 768.0 L 1024.0 768.0 L 1024.0 0.0 L 0.0 0.0 Z M 0.0 768.0 " fill="#212121"></path><path d="M 0.0 0.0 L 528.0 0.0 " fill="none" stroke="#A6AAA8" stroke-width="3.00" transform="matrix(1.00, 0.00, 0.00, -1.00, 464.0, 284.5)"></path><g><clipPath id="clip-24"><path d="M 0.0 768.0 L 432.0 768.0 L 432.0 0.0 L 0.0 0.0 Z M 0.0 768.0 "></path></clipPath><g clip-path="url(#clip-24)"><image xlink:href="../../5B78801E-1335-48FB-B8F9-7D3588A18934/assets/ADFA7DC4BB82A7EA913ADC04E4A63E56.png" width="567.00" height="540.00" transform="matrix(1.42, 0.00, -0.00, -1.42, -117.0, 768.0)"></image></g></g><text xml:space="preserve" font-family="DINCondensed-Bold" font-weight="bold" font-size="43.9" fill="#FF9C35" transform="matrix(1.00, 0.00, -0.00, -1.00, 468.0, 226.0)">W</text><text xml:space="preserve" font-family="DINCondensed-Bold" font-weight="bold" font-size="43.9" fill="#FF9C35" transform="matrix(1.00, 0.00, -0.00, -1.00, 494.0, 226.0)">H</text><text xml:space="preserve" font-family="DINCondensed-Bold" font-weight="bold" font-size="43.9" fill="#FF9C35" transform="matrix(1.00, 0.00, -0.00, -1.00, 512.7, 226.0)">O</text><text xml:space="preserve" font-family="DINCondensed-Bold" font-weight="bold" font-size="43.9" fill="#FF9C35" transform="matrix(1.00, 0.00, -0.00, -1.00, 531.4, 226.0)"> </text><text xml:space="preserve" font-family="DINCondensed-Bold" font-weight="bold" font-size="43.9" fill="#FF9C35" transform="matrix(1.00, 0.00, -0.00, -1.00, 539.5, 226.0)">A</text><text xml:space="preserve" font-family="DINCondensed-Bold" font-weight="bold" font-size="43.9" fill="#FF9C35" transform="matrix(1.00, 0.00, -0.00, -1.00, 557.4, 226.0)">R</text><text xml:space="preserve" font-family="DINCondensed-Bold" font-weight="bold" font-size="43.9" fill="#FF9C35" transform="matrix(1.00, 0.00, -0.00, -1.00, 576.1, 226.0)">E</text><text xml:space="preserve" font-family="DINCondensed-Bold" font-weight="bold" font-size="43.9" fill="#FF9C35" transform="matrix(1.00, 0.00, -0.00, -1.00, 592.3, 226.0)"> </text><text xml:space="preserve" font-family="DINCondensed-Bold" font-weight="bold" font-size="43.9" fill="#FF9C35" transform="matrix(1.00, 0.00, -0.00, -1.00, 600.5, 226.0)">Y</text><text xml:space="preserve" font-family="DINCondensed-Bold" font-weight="bold" font-size="43.9" fill="#FF9C35" transform="matrix(1.00, 0.00, -0.00, -1.00, 617.5, 226.0)">O</text><text xml:space="preserve" font-family="DINCondensed-Bold" font-weight="bold" font-size="43.9" fill="#FF9C35" transform="matrix(1.00, 0.00, -0.00, -1.00, 636.2, 226.0)">U</text><text xml:space="preserve" font-family="DINCondensed-Bold" font-weight="bold" font-size="43.9" fill="#FF9C35" transform="matrix(1.00, 0.00, -0.00, -1.00, 654.8, 226.0)"> </text><text xml:space="preserve" font-family="DINCondensed-Bold" font-weight="bold" font-size="43.9" fill="#FF9C35" transform="matrix(1.00, 0.00, -0.00, -1.00, 663.0, 226.0)">C</text><text xml:space="preserve" font-family="DINCondensed-Bold" font-weight="bold" font-size="43.9" fill="#FF9C35" transform="matrix(1.00, 0.00, -0.00, -1.00, 680.9, 226.0)">A</text><text xml:space="preserve" font-family="DINCondensed-Bold" font-weight="bold" font-size="43.9" fill="#FF9C35" transform="matrix(1.00, 0.00, -0.00, -1.00, 698.7, 226.0)">L</text><text xml:space="preserve" font-family="DINCondensed-Bold" font-weight="bold" font-size="43.9" fill="#FF9C35" transform="matrix(1.00, 0.00, -0.00, -1.00, 714.9, 226.0)">L</text><text xml:space="preserve" font-family="DINCondensed-Bold" font-weight="bold" font-size="43.9" fill="#FF9C35" transform="matrix(1.00, 0.00, -0.00, -1.00, 731.2, 226.0)">I</text><text xml:space="preserve" font-family="DINCondensed-Bold" font-weight="bold" font-size="43.9" fill="#FF9C35" transform="matrix(1.00, 0.00, -0.00, -1.00, 740.1, 226.0)">N</text><text xml:space="preserve" font-family="DINCondensed-Bold" font-weight="bold" font-size="43.9" fill="#FF9C35" transform="matrix(1.00, 0.00, -0.00, -1.00, 759.6, 226.0)">G</text><text xml:space="preserve" font-family="DINCondensed-Bold" font-weight="bold" font-size="43.9" fill="#FF9C35" transform="matrix(1.00, 0.00, -0.00, -1.00, 778.3, 226.0)"> </text><text xml:space="preserve" font-family="DINCondensed-Bold" font-weight="bold" font-size="43.9" fill="#FF9C35" transform="matrix(1.00, 0.00, -0.00, -1.00, 786.4, 226.0)">A</text><text xml:space="preserve" font-family="DINCondensed-Bold" font-weight="bold" font-size="43.9" fill="#FF9C35" transform="matrix(1.00, 0.00, -0.00, -1.00, 804.3, 226.0)"> </text><text xml:space="preserve" font-family="DINCondensed-Bold" font-weight="bold" font-size="43.9" fill="#FF9C35" transform="matrix(1.00, 0.00, -0.00, -1.00, 812.4, 226.0)">D</text><text xml:space="preserve" font-family="DINCondensed-Bold" font-weight="bold" font-size="43.9" fill="#FF9C35" transform="matrix(1.00, 0.00, -0.00, -1.00, 831.1, 226.0)">O</text><text xml:space="preserve" font-family="DINCondensed-Bold" font-weight="bold" font-size="43.9" fill="#FF9C35" transform="matrix(1.00, 0.00, -0.00, -1.00, 849.8, 226.0)">R</text><text xml:space="preserve" font-family="DINCondensed-Bold" font-weight="bold" font-size="43.9" fill="#FF9C35" transform="matrix(1.00, 0.00, -0.00, -1.00, 868.5, 226.0)">K</text><text xml:space="preserve" font-family="DINCondensed-Bold" font-weight="bold" font-size="43.9" fill="#FF9C35" transform="matrix(1.00, 0.00, -0.00, -1.00, 887.2, 226.0)">…</text><text xml:space="preserve" font-family="DINCondensed-Bold" font-weight="bold" font-size="43.9" fill="#FF9C35" transform="matrix(1.00, 0.00, -0.00, -1.00, 931.0, 226.0)"> </text><text xml:space="preserve" font-family="DINCondensed-Bold" font-weight="bold" font-size="43.9" fill="#FF9C35" transform="matrix(1.00, 0.00, -0.00, -1.00, 468.0, 182.0)">Y</text><text xml:space="preserve" font-family="DINCondensed-Bold" font-weight="bold" font-size="43.9" fill="#FF9C35" transform="matrix(1.00, 0.00, -0.00, -1.00, 482.6, 182.0)">A</text><text xml:space="preserve" font-family="DINCondensed-Bold" font-weight="bold" font-size="43.9" fill="#FF9C35" transform="matrix(1.00, 0.00, -0.00, -1.00, 500.5, 182.0)"> </text><text xml:space="preserve" font-family="DINCondensed-Bold" font-weight="bold" font-size="43.9" fill="#FF9C35" transform="matrix(1.00, 0.00, -0.00, -1.00, 508.6, 182.0)">D</text><text xml:space="preserve" font-family="DINCondensed-Bold" font-weight="bold" font-size="43.9" fill="#FF9C35" transform="matrix(1.00, 0.00, -0.00, -1.00, 527.3, 182.0)">O</text><text xml:space="preserve" font-family="DINCondensed-Bold" font-weight="bold" font-size="43.9" fill="#FF9C35" transform="matrix(1.00, 0.00, -0.00, -1.00, 546.0, 182.0)">R</text><text xml:space="preserve" font-family="DINCondensed-Bold" font-weight="bold" font-size="43.9" fill="#FF9C35" transform="matrix(1.00, 0.00, -0.00, -1.00, 564.7, 182.0)">K</text><text xml:space="preserve" font-family="DINCondensed-Bold" font-weight="bold" font-size="43.9" fill="#FF9C35" transform="matrix(1.00, 0.00, -0.00, -1.00, 583.4, 182.0)">?</text><text xml:space="preserve" font-family="DINCondensed-Bold" font-weight="bold" font-size="43.9" fill="#FF9C35" transform="matrix(1.00, 0.00, -0.00, -1.00, 599.6, 182.0)"> </text><text xml:space="preserve" font-family="DINCondensed-Bold" font-weight="bold" font-size="29.2" fill="#FF9C35" transform="matrix(1.00, 0.00, -0.00, -1.00, 468.0, 61.0)">N</text><text xml:space="preserve" font-family="DINCondensed-Bold" font-weight="bold" font-size="29.2" fill="#FF9C35" transform="matrix(1.00, 0.00, -0.00, -1.00, 481.0, 61.0)">O</text><text xml:space="preserve" font-family="DINCondensed-Bold" font-weight="bold" font-size="29.2" fill="#FF9C35" transform="matrix(1.00, 0.00, -0.00, -1.00, 493.1, 61.0)">T</text><text xml:space="preserve" font-family="DINCondensed-Bold" font-weight="bold" font-size="29.2" fill="#FF9C35" transform="matrix(1.00, 0.00, -0.00, -1.00, 502.8, 61.0)"> </text><text xml:space="preserve" font-family="DINCondensed-Bold" font-weight="bold" font-size="29.2" fill="#FF9C35" transform="matrix(1.00, 0.00, -0.00, -1.00, 508.2, 61.0)">G</text><text xml:space="preserve" font-family="DINCondensed-Bold" font-weight="bold" font-size="29.2" fill="#FF9C35" transform="matrix(1.00, 0.00, -0.00, -1.00, 520.7, 61.0)">O</text><text xml:space="preserve" font-family="DINCondensed-Bold" font-weight="bold" font-size="29.2" fill="#FF9C35" transform="matrix(1.00, 0.00, -0.00, -1.00, 533.1, 61.0)">I</text><text xml:space="preserve" font-family="DINCondensed-Bold" font-weight="bold" font-size="29.2" fill="#FF9C35" transform="matrix(1.00, 0.00, -0.00, -1.00, 539.1, 61.0)">N</text><text xml:space="preserve" font-family="DINCondensed-Bold" font-weight="bold" font-size="29.2" fill="#FF9C35" transform="matrix(1.00, 0.00, -0.00, -1.00, 552.1, 61.0)">G</text><text xml:space="preserve" font-family="DINCondensed-Bold" font-weight="bold" font-size="29.2" fill="#FF9C35" transform="matrix(1.00, 0.00, -0.00, -1.00, 564.6, 61.0)"> </text><text xml:space="preserve" font-family="DINCondensed-Bold" font-weight="bold" font-size="29.2" fill="#FF9C35" transform="matrix(1.00, 0.00, -0.00, -1.00, 570.0, 61.0)">T</text><text xml:space="preserve" font-family="DINCondensed-Bold" font-weight="bold" font-size="29.2" fill="#FF9C35" transform="matrix(1.00, 0.00, -0.00, -1.00, 579.3, 61.0)">O</text><text xml:space="preserve" font-family="DINCondensed-Bold" font-weight="bold" font-size="29.2" fill="#FF9C35" transform="matrix(1.00, 0.00, -0.00, -1.00, 591.8, 61.0)"> </text><text xml:space="preserve" font-family="DINCondensed-Bold" font-weight="bold" font-size="29.2" fill="#FF9C35" transform="matrix(1.00, 0.00, -0.00, -1.00, 597.2, 61.0)">B</text><text xml:space="preserve" font-family="DINCondensed-Bold" font-weight="bold" font-size="29.2" fill="#FF9C35" transform="matrix(1.00, 0.00, -0.00, -1.00, 609.7, 61.0)">O</text><text xml:space="preserve" font-family="DINCondensed-Bold" font-weight="bold" font-size="29.2" fill="#FF9C35" transform="matrix(1.00, 0.00, -0.00, -1.00, 621.8, 61.0)">T</text><text xml:space="preserve" font-family="DINCondensed-Bold" font-weight="bold" font-size="29.2" fill="#FF9C35" transform="matrix(1.00, 0.00, -0.00, -1.00, 631.5, 61.0)">H</text><text xml:space="preserve" font-family="DINCondensed-Bold" font-weight="bold" font-size="29.2" fill="#FF9C35" transform="matrix(1.00, 0.00, -0.00, -1.00, 644.0, 61.0)">E</text><text xml:space="preserve" font-family="DINCondensed-Bold" font-weight="bold" font-size="29.2" fill="#FF9C35" transform="matrix(1.00, 0.00, -0.00, -1.00, 654.8, 61.0)">R</text><text xml:space="preserve" font-family="DINCondensed-Bold" font-weight="bold" font-size="29.2" fill="#FF9C35" transform="matrix(1.00, 0.00, -0.00, -1.00, 667.2, 61.0)"> </text><text xml:space="preserve" font-family="DINCondensed-Bold" font-weight="bold" font-size="29.2" fill="#FF9C35" transform="matrix(1.00, 0.00, -0.00, -1.00, 672.7, 61.0)">D</text><text xml:space="preserve" font-family="DINCondensed-Bold" font-weight="bold" font-size="29.2" fill="#FF9C35" transform="matrix(1.00, 0.00, -0.00, -1.00, 685.1, 61.0)">E</text><text xml:space="preserve" font-family="DINCondensed-Bold" font-weight="bold" font-size="29.2" fill="#FF9C35" transform="matrix(1.00, 0.00, -0.00, -1.00, 696.0, 61.0)">M</text><text xml:space="preserve" font-family="DINCondensed-Bold" font-weight="bold" font-size="29.2" fill="#FF9C35" transform="matrix(1.00, 0.00, -0.00, -1.00, 712.2, 61.0)">O</text><text xml:space="preserve" font-family="DINCondensed-Bold" font-weight="bold" font-size="29.2" fill="#FF9C35" transform="matrix(1.00, 0.00, -0.00, -1.00, 724.7, 61.0)">I</text><text xml:space="preserve" font-family="DINCondensed-Bold" font-weight="bold" font-size="29.2" fill="#FF9C35" transform="matrix(1.00, 0.00, -0.00, -1.00, 730.6, 61.0)">N</text><text xml:space="preserve" font-family="DINCondensed-Bold" font-weight="bold" font-size="29.2" fill="#FF9C35" transform="matrix(1.00, 0.00, -0.00, -1.00, 743.6, 61.0)">G</text><text xml:space="preserve" font-family="DINCondensed-Bold" font-weight="bold" font-size="29.2" fill="#FF9C35" transform="matrix(1.00, 0.00, -0.00, -1.00, 756.1, 61.0)"> </text><text xml:space="preserve" font-family="DINCondensed-Bold" font-weight="bold" font-size="29.2" fill="#FF9C35" transform="matrix(1.00, 0.00, -0.00, -1.00, 761.5, 61.0)">T</text><text xml:space="preserve" font-family="DINCondensed-Bold" font-weight="bold" font-size="29.2" fill="#FF9C35" transform="matrix(1.00, 0.00, -0.00, -1.00, 771.2, 61.0)">H</text><text xml:space="preserve" font-family="DINCondensed-Bold" font-weight="bold" font-size="29.2" fill="#FF9C35" transform="matrix(1.00, 0.00, -0.00, -1.00, 783.7, 61.0)">I</text><text xml:space="preserve" font-family="DINCondensed-Bold" font-weight="bold" font-size="29.2" fill="#FF9C35" transform="matrix(1.00, 0.00, -0.00, -1.00, 789.6, 61.0)">S</text><text xml:space="preserve" font-family="DINCondensed-Bold" font-weight="bold" font-size="29.2" fill="#FF9C35" transform="matrix(1.00, 0.00, -0.00, -1.00, 801.5, 61.0)">,</text><text xml:space="preserve" font-family="DINCondensed-Bold" font-weight="bold" font-size="29.2" fill="#FF9C35" transform="matrix(1.00, 0.00, -0.00, -1.00, 807.0, 61.0)"> </text><text xml:space="preserve" font-family="DINCondensed-Bold" font-weight="bold" font-size="29.2" fill="#FF9C35" transform="matrix(1.00, 0.00, -0.00, -1.00, 812.4, 61.0)">Y</text><text xml:space="preserve" font-family="DINCondensed-Bold" font-weight="bold" font-size="29.2" fill="#FF9C35" transform="matrix(1.00, 0.00, -0.00, -1.00, 823.7, 61.0)">O</text><text xml:space="preserve" font-family="DINCondensed-Bold" font-weight="bold" font-size="29.2" fill="#FF9C35" transform="matrix(1.00, 0.00, -0.00, -1.00, 836.2, 61.0)">U</text><text xml:space="preserve" font-family="DINCondensed-Bold" font-weight="bold" font-size="29.2" fill="#FF9C35" transform="matrix(1.00, 0.00, -0.00, -1.00, 848.6, 61.0)"> </text><text xml:space="preserve" font-family="DINCondensed-Bold" font-weight="bold" font-size="29.2" fill="#FF9C35" transform="matrix(1.00, 0.00, -0.00, -1.00, 854.1, 61.0)">G</text><text xml:space="preserve" font-family="DINCondensed-Bold" font-weight="bold" font-size="29.2" fill="#FF9C35" transform="matrix(1.00, 0.00, -0.00, -1.00, 866.5, 61.0)">E</text><text xml:space="preserve" font-family="DINCondensed-Bold" font-weight="bold" font-size="29.2" fill="#FF9C35" transform="matrix(1.00, 0.00, -0.00, -1.00, 877.4, 61.0)">T</text><text xml:space="preserve" font-family="DINCondensed-Bold" font-weight="bold" font-size="29.2" fill="#FF9C35" transform="matrix(1.00, 0.00, -0.00, -1.00, 887.1, 61.0)"> </text><text xml:space="preserve" font-family="DINCondensed-Bold" font-weight="bold" font-size="29.2" fill="#FF9C35" transform="matrix(1.00, 0.00, -0.00, -1.00, 892.5, 61.0)">T</text><text xml:space="preserve" font-family="DINCondensed-Bold" font-weight="bold" font-size="29.2" fill="#FF9C35" transform="matrix(1.00, 0.00, -0.00, -1.00, 902.2, 61.0)">H</text><text xml:space="preserve" font-family="DINCondensed-Bold" font-weight="bold" font-size="29.2" fill="#FF9C35" transform="matrix(1.00, 0.00, -0.00, -1.00, 914.7, 61.0)">E</text><text xml:space="preserve" font-family="DINCondensed-Bold" font-weight="bold" font-size="29.2" fill="#FF9C35" transform="matrix(1.00, 0.00, -0.00, -1.00, 925.5, 61.0)"> </text><text xml:space="preserve" font-family="DINCondensed-Bold" font-weight="bold" font-size="29.2" fill="#FF9C35" transform="matrix(1.00, 0.00, -0.00, -1.00, 930.9, 61.0)">I</text><text xml:space="preserve" font-family="DINCondensed-Bold" font-weight="bold" font-size="29.2" fill="#FF9C35" transform="matrix(1.00, 0.00, -0.00, -1.00, 936.9, 61.0)">D</text><text xml:space="preserve" font-family="DINCondensed-Bold" font-weight="bold" font-size="29.2" fill="#FF9C35" transform="matrix(1.00, 0.00, -0.00, -1.00, 949.3, 61.0)">E</text><text xml:space="preserve" font-family="DINCondensed-Bold" font-weight="bold" font-size="29.2" fill="#FF9C35" transform="matrix(1.00, 0.00, -0.00, -1.00, 960.2, 61.0)">A</text><text xml:space="preserve" font-family="DINAlternate-Bold" font-weight="bold" font-size="54.0" fill="#FEFFFE" transform="matrix(1.00, 0.00, -0.00, -1.00, 468.0, 306.0)">G</text><text xml:space="preserve" font-family="DINAlternate-Bold" font-weight="bold" font-size="54.0" fill="#FEFFFE" transform="matrix(1.00, 0.00, -0.00, -1.00, 500.9, 306.0)">O</text><text xml:space="preserve" font-family="DINAlternate-Bold" font-weight="bold" font-size="54.0" fill="#FEFFFE" transform="matrix(1.00, 0.00, -0.00, -1.00, 533.9, 306.0)">O</text><text xml:space="preserve" font-family="DINAlternate-Bold" font-weight="bold" font-size="54.0" fill="#FEFFFE" transform="matrix(1.00, 0.00, -0.00, -1.00, 566.8, 306.0)">G</text><text xml:space="preserve" font-family="DINAlternate-Bold" font-weight="bold" font-size="54.0" fill="#FEFFFE" transform="matrix(1.00, 0.00, -0.00, -1.00, 599.7, 306.0)">L</text><text xml:space="preserve" font-family="DINAlternate-Bold" font-weight="bold" font-size="54.0" fill="#FEFFFE" transform="matrix(1.00, 0.00, -0.00, -1.00, 629.7, 306.0)">E</text><text xml:space="preserve" font-family="DINAlternate-Bold" font-weight="bold" font-size="54.0" fill="#FEFFFE" transform="matrix(1.00, 0.00, -0.00, -1.00, 659.8, 306.0)"> </text><text xml:space="preserve" font-family="DINAlternate-Bold" font-weight="bold" font-size="54.0" fill="#FEFFFE" transform="matrix(1.00, 0.00, -0.00, -1.00, 672.7, 306.0)">D</text><text xml:space="preserve" font-family="DINAlternate-Bold" font-weight="bold" font-size="54.0" fill="#FEFFFE" transform="matrix(1.00, 0.00, -0.00, -1.00, 706.7, 306.0)">O</text><text xml:space="preserve" font-family="DINAlternate-Bold" font-weight="bold" font-size="54.0" fill="#FEFFFE" transform="matrix(1.00, 0.00, -0.00, -1.00, 739.6, 306.0)">R</text><text xml:space="preserve" font-family="DINAlternate-Bold" font-weight="bold" font-size="54.0" fill="#FEFFFE" transform="matrix(1.00, 0.00, -0.00, -1.00, 772.6, 306.0)">K</text><text xml:space="preserve" font-family="DINAlternate-Bold" font-weight="bold" font-size="54.0" fill="#FEFFFE" transform="matrix(1.00, 0.00, -0.00, -1.00, 806.6, 306.0)">S</text><text xml:space="preserve" font-family="DINAlternate-Bold" font-weight="bold" font-size="24.0" fill="#838686" transform="matrix(1.00, 0.00, -0.00, -1.00, 965.2, 707.4)">1</text><text xml:space="preserve" font-family="DINAlternate-Bold" font-weight="bold" font-size="24.0" fill="#838686" transform="matrix(1.00, 0.00, -0.00, -1.00, 976.7, 707.4)">0</text></g></svg>