<?xml version="1.0" encoding="UTF-8" standalone="no"?><svg xmlns="http://www.w3.org/2000/svg" xmlns:xlink="http://www.w3.org/1999/xlink" clip-rule="evenodd" stroke-miterlimit="4.00" viewBox="0 0 1024 768"><desc>SVG generated by Keynote</desc><defs></defs><g transform="matrix(1.00, 0.00, -0.00, -1.00, 0.0, 768.0)"><path d="M 0.0 768.0 L 1024.0 768.0 L 1024.0 0.0 L 0.0 0.0 Z M 0.0 768.0 " fill="#212121"></path><path d="M 0.0 0.0 L 960.0 0.0 " fill="none" stroke="#A6AAA9" stroke-width="2.00" transform="matrix(1.00, 0.00, 0.00, -1.00, 32.0, 689.8)"></path><text xml:space="preserve" font-family="DINAlternate-Bold" font-weight="bold" font-size="24.0" fill="#FEFFFE" transform="matrix(1.00, 0.00, -0.00, -1.00, 36.0, 705.0)">X</text><text xml:space="preserve" font-family="DINAlternate-Bold" font-weight="bold" font-size="24.0" fill="#FEFFFE" transform="matrix(1.00, 0.00, -0.00, -1.00, 50.1, 705.0)">S</text><text xml:space="preserve" font-family="DINAlternate-Bold" font-weight="bold" font-size="24.0" fill="#FEFFFE" transform="matrix(1.00, 0.00, -0.00, -1.00, 65.0, 705.0)">S</text><text xml:space="preserve" font-family="DINCondensed-Bold" font-weight="bold" font-size="48.0" fill="#FF9C35" transform="matrix(1.00, 0.00, -0.00, -1.00, 36.0, 608.0)">F</text><text xml:space="preserve" font-family="DINCondensed-Bold" font-weight="bold" font-size="48.0" fill="#FF9C35" transform="matrix(1.00, 0.00, -0.00, -1.00, 53.8, 608.0)">R</text><text xml:space="preserve" font-family="DINCondensed-Bold" font-weight="bold" font-size="48.0" fill="#FF9C35" transform="matrix(1.00, 0.00, -0.00, -1.00, 74.2, 608.0)">A</text><text xml:space="preserve" font-family="DINCondensed-Bold" font-weight="bold" font-size="48.0" fill="#FF9C35" transform="matrix(1.00, 0.00, -0.00, -1.00, 93.7, 608.0)">M</text><text xml:space="preserve" font-family="DINCondensed-Bold" font-weight="bold" font-size="48.0" fill="#FF9C35" transform="matrix(1.00, 0.00, -0.00, -1.00, 120.4, 608.0)">E</text><text xml:space="preserve" font-family="DINCondensed-Bold" font-weight="bold" font-size="48.0" fill="#FF9C35" transform="matrix(1.00, 0.00, -0.00, -1.00, 138.2, 608.0)">W</text><text xml:space="preserve" font-family="DINCondensed-Bold" font-weight="bold" font-size="48.0" fill="#FF9C35" transform="matrix(1.00, 0.00, -0.00, -1.00, 166.1, 608.0)">O</text><text xml:space="preserve" font-family="DINCondensed-Bold" font-weight="bold" font-size="48.0" fill="#FF9C35" transform="matrix(1.00, 0.00, -0.00, -1.00, 186.5, 608.0)">R</text><text xml:space="preserve" font-family="DINCondensed-Bold" font-weight="bold" font-size="48.0" fill="#FF9C35" transform="matrix(1.00, 0.00, -0.00, -1.00, 207.0, 608.0)">K</text><text xml:space="preserve" font-family="DINCondensed-Bold" font-weight="bold" font-size="48.0" fill="#FF9C35" transform="matrix(1.00, 0.00, -0.00, -1.00, 227.4, 608.0)">S</text><text xml:space="preserve" font-family="DINCondensed-Bold" font-weight="bold" font-size="48.0" fill="#FF9C35" transform="matrix(1.00, 0.00, -0.00, -1.00, 246.9, 608.0)"> </text><text xml:space="preserve" font-family="DINCondensed-Bold" font-weight="bold" font-size="48.0" fill="#FF9C35" transform="matrix(1.00, 0.00, -0.00, -1.00, 255.8, 608.0)">-</text><text xml:space="preserve" font-family="DINCondensed-Bold" font-weight="bold" font-size="48.0" fill="#FF9C35" transform="matrix(1.00, 0.00, -0.00, -1.00, 274.5, 608.0)"> </text><text xml:space="preserve" font-family="DINCondensed-Bold" font-weight="bold" font-size="48.0" fill="#FF9C35" transform="matrix(1.00, 0.00, -0.00, -1.00, 283.4, 608.0)">J</text><text xml:space="preserve" font-family="DINCondensed-Bold" font-weight="bold" font-size="48.0" fill="#FF9C35" transform="matrix(1.00, 0.00, -0.00, -1.00, 299.4, 608.0)">Q</text><text xml:space="preserve" font-family="DINCondensed-Bold" font-weight="bold" font-size="48.0" fill="#FF9C35" transform="matrix(1.00, 0.00, -0.00, -1.00, 319.9, 608.0)">U</text><text xml:space="preserve" font-family="DINCondensed-Bold" font-weight="bold" font-size="48.0" fill="#FF9C35" transform="matrix(1.00, 0.00, -0.00, -1.00, 340.3, 608.0)">E</text><text xml:space="preserve" font-family="DINCondensed-Bold" font-weight="bold" font-size="48.0" fill="#FF9C35" transform="matrix(1.00, 0.00, -0.00, -1.00, 358.1, 608.0)">R</text><text xml:space="preserve" font-family="DINCondensed-Bold" font-weight="bold" font-size="48.0" fill="#FF9C35" transform="matrix(1.00, 0.00, -0.00, -1.00, 377.7, 608.0)">Y</text><text xml:space="preserve" font-family="LucidaGrande" font-size="35.7" fill="#34A4DA" transform="matrix(1.00, 0.00, -0.00, -1.00, 36.0, 511.0)">▸</text><text xml:space="preserve" font-family="AvenirNext-Medium" font-size="34.0" fill="#FEFFFE" transform="matrix(1.00, 0.00, -0.00, -1.00, 71.0, 514.0)">j</text><text xml:space="preserve" font-family="AvenirNext-Medium" font-size="34.0" fill="#FEFFFE" transform="matrix(1.00, 0.00, -0.00, -1.00, 79.8, 514.0)">Q</text><text xml:space="preserve" font-family="AvenirNext-Medium" font-size="34.0" fill="#FEFFFE" transform="matrix(1.00, 0.00, -0.00, -1.00, 108.6, 514.0)">u</text><text xml:space="preserve" font-family="AvenirNext-Medium" font-size="34.0" fill="#FEFFFE" transform="matrix(1.00, 0.00, -0.00, -1.00, 128.4, 514.0)">e</text><text xml:space="preserve" font-family="AvenirNext-Medium" font-size="34.0" fill="#FEFFFE" transform="matrix(1.00, 0.00, -0.00, -1.00, 147.9, 514.0)">r</text><text xml:space="preserve" font-family="AvenirNext-Medium" font-size="34.0" fill="#FEFFFE" transform="matrix(1.00, 0.00, -0.00, -1.00, 160.2, 514.0)">y</text><text xml:space="preserve" font-family="AvenirNext-Medium" font-size="34.0" fill="#FEFFFE" transform="matrix(1.00, 0.00, -0.00, -1.00, 177.3, 514.0)"> </text><text xml:space="preserve" font-family="AvenirNext-Medium" font-size="34.0" fill="#FEFFFE" transform="matrix(1.00, 0.00, -0.00, -1.00, 185.8, 514.0)">i</text><text xml:space="preserve" font-family="AvenirNext-Medium" font-size="34.0" fill="#FEFFFE" transform="matrix(1.00, 0.00, -0.00, -1.00, 194.6, 514.0)">s</text><text xml:space="preserve" font-family="AvenirNext-Medium" font-size="34.0" fill="#FEFFFE" transform="matrix(1.00, 0.00, -0.00, -1.00, 209.7, 514.0)"> </text><text xml:space="preserve" font-family="AvenirNext-Medium" font-size="34.0" fill="#FEFFFE" transform="matrix(1.00, 0.00, -0.00, -1.00, 218.2, 514.0)">p</text><text xml:space="preserve" font-family="AvenirNext-Medium" font-size="34.0" fill="#FEFFFE" transform="matrix(1.00, 0.00, -0.00, -1.00, 239.8, 514.0)">r</text><text xml:space="preserve" font-family="AvenirNext-Medium" font-size="34.0" fill="#FEFFFE" transform="matrix(1.00, 0.00, -0.00, -1.00, 251.6, 514.0)">a</text><text xml:space="preserve" font-family="AvenirNext-Medium" font-size="34.0" fill="#FEFFFE" transform="matrix(1.00, 0.00, -0.00, -1.00, 270.1, 514.0)">c</text><text xml:space="preserve" font-family="AvenirNext-Medium" font-size="34.0" fill="#FEFFFE" transform="matrix(1.00, 0.00, -0.00, -1.00, 286.9, 514.0)">t</text><text xml:space="preserve" font-family="AvenirNext-Medium" font-size="34.0" fill="#FEFFFE" transform="matrix(1.00, 0.00, -0.00, -1.00, 298.1, 514.0)">i</text><text xml:space="preserve" font-family="AvenirNext-Medium" font-size="34.0" fill="#FEFFFE" transform="matrix(1.00, 0.00, -0.00, -1.00, 306.9, 514.0)">c</text><text xml:space="preserve" font-family="AvenirNext-Medium" font-size="34.0" fill="#FEFFFE" transform="matrix(1.00, 0.00, -0.00, -1.00, 323.7, 514.0)">a</text><text xml:space="preserve" font-family="AvenirNext-Medium" font-size="34.0" fill="#FEFFFE" transform="matrix(1.00, 0.00, -0.00, -1.00, 342.1, 514.0)">l</text><text xml:space="preserve" font-family="AvenirNext-Medium" font-size="34.0" fill="#FEFFFE" transform="matrix(1.00, 0.00, -0.00, -1.00, 350.9, 514.0)">l</text><text xml:space="preserve" font-family="AvenirNext-Medium" font-size="34.0" fill="#FEFFFE" transform="matrix(1.00, 0.00, -0.00, -1.00, 359.8, 514.0)">y</text><text xml:space="preserve" font-family="AvenirNext-Medium" font-size="34.0" fill="#FEFFFE" transform="matrix(1.00, 0.00, -0.00, -1.00, 376.9, 514.0)"> </text><text xml:space="preserve" font-family="AvenirNext-Medium" font-size="34.0" fill="#FEFFFE" transform="matrix(1.00, 0.00, -0.00, -1.00, 385.4, 514.0)">a</text><text xml:space="preserve" font-family="AvenirNext-Medium" font-size="34.0" fill="#FEFFFE" transform="matrix(1.00, 0.00, -0.00, -1.00, 403.8, 514.0)"> </text><text xml:space="preserve" font-family="AvenirNext-Medium" font-size="34.0" fill="#FEFFFE" transform="matrix(1.00, 0.00, -0.00, -1.00, 412.3, 514.0)">t</text><text xml:space="preserve" font-family="AvenirNext-Medium" font-size="34.0" fill="#FEFFFE" transform="matrix(1.00, 0.00, -0.00, -1.00, 423.5, 514.0)">a</text><text xml:space="preserve" font-family="AvenirNext-Medium" font-size="34.0" fill="#FEFFFE" transform="matrix(1.00, 0.00, -0.00, -1.00, 441.9, 514.0)">r</text><text xml:space="preserve" font-family="AvenirNext-Medium" font-size="34.0" fill="#FEFFFE" transform="matrix(1.00, 0.00, -0.00, -1.00, 453.6, 514.0)">g</text><text xml:space="preserve" font-family="AvenirNext-Medium" font-size="34.0" fill="#FEFFFE" transform="matrix(1.00, 0.00, -0.00, -1.00, 475.1, 514.0)">e</text><text xml:space="preserve" font-family="AvenirNext-Medium" font-size="34.0" fill="#FEFFFE" transform="matrix(1.00, 0.00, -0.00, -1.00, 494.6, 514.0)">t</text><text xml:space="preserve" font-family="AvenirNext-Medium" font-size="34.0" fill="#FEFFFE" transform="matrix(1.00, 0.00, -0.00, -1.00, 505.8, 514.0)"> </text><text xml:space="preserve" font-family="AvenirNext-Medium" font-size="34.0" fill="#FEFFFE" transform="matrix(1.00, 0.00, -0.00, -1.00, 514.3, 514.0)">i</text><text xml:space="preserve" font-family="AvenirNext-Medium" font-size="34.0" fill="#FEFFFE" transform="matrix(1.00, 0.00, -0.00, -1.00, 523.1, 514.0)">n</text><text xml:space="preserve" font-family="AvenirNext-Medium" font-size="34.0" fill="#FEFFFE" transform="matrix(1.00, 0.00, -0.00, -1.00, 542.9, 514.0)"> </text><text xml:space="preserve" font-family="AvenirNext-Medium" font-size="34.0" fill="#FEFFFE" transform="matrix(1.00, 0.00, -0.00, -1.00, 551.4, 514.0)">a</text><text xml:space="preserve" font-family="AvenirNext-Medium" font-size="34.0" fill="#FEFFFE" transform="matrix(1.00, 0.00, -0.00, -1.00, 569.8, 514.0)">n</text><text xml:space="preserve" font-family="AvenirNext-Medium" font-size="34.0" fill="#FEFFFE" transform="matrix(1.00, 0.00, -0.00, -1.00, 589.6, 514.0)">d</text><text xml:space="preserve" font-family="AvenirNext-Medium" font-size="34.0" fill="#FEFFFE" transform="matrix(1.00, 0.00, -0.00, -1.00, 611.2, 514.0)"> </text><text xml:space="preserve" font-family="AvenirNext-Medium" font-size="34.0" fill="#FEFFFE" transform="matrix(1.00, 0.00, -0.00, -1.00, 619.7, 514.0)">o</text><text xml:space="preserve" font-family="AvenirNext-Medium" font-size="34.0" fill="#FEFFFE" transform="matrix(1.00, 0.00, -0.00, -1.00, 640.4, 514.0)">f</text><text xml:space="preserve" font-family="AvenirNext-Medium" font-size="34.0" fill="#FEFFFE" transform="matrix(1.00, 0.00, -0.00, -1.00, 651.8, 514.0)"> </text><text xml:space="preserve" font-family="AvenirNext-Medium" font-size="34.0" fill="#FEFFFE" transform="matrix(1.00, 0.00, -0.00, -1.00, 660.3, 514.0)">i</text><text xml:space="preserve" font-family="AvenirNext-Medium" font-size="34.0" fill="#FEFFFE" transform="matrix(1.00, 0.00, -0.00, -1.00, 669.1, 514.0)">t</text><text xml:space="preserve" font-family="AvenirNext-Medium" font-size="34.0" fill="#FEFFFE" transform="matrix(1.00, 0.00, -0.00, -1.00, 680.3, 514.0)">s</text><text xml:space="preserve" font-family="AvenirNext-Medium" font-size="34.0" fill="#FEFFFE" transform="matrix(1.00, 0.00, -0.00, -1.00, 695.4, 514.0)">e</text><text xml:space="preserve" font-family="AvenirNext-Medium" font-size="34.0" fill="#FEFFFE" transform="matrix(1.00, 0.00, -0.00, -1.00, 714.9, 514.0)">l</text><text xml:space="preserve" font-family="AvenirNext-Medium" font-size="34.0" fill="#FEFFFE" transform="matrix(1.00, 0.00, -0.00, -1.00, 723.7, 514.0)">f</text><text xml:space="preserve" font-family="AvenirNext-Medium" font-size="34.0" fill="#FEFFFE" transform="matrix(1.00, 0.00, -0.00, -1.00, 735.1, 514.0)"> </text><text xml:space="preserve" font-family="AvenirNext-Medium" font-size="34.0" fill="#FEFFFE" transform="matrix(1.00, 0.00, -0.00, -1.00, 743.6, 514.0)">(</text><text xml:space="preserve" font-family="AvenirNext-Medium" font-size="34.0" fill="#FEFFFE" transform="matrix(1.00, 0.00, -0.00, -1.00, 754.3, 514.0)">m</text><text xml:space="preserve" font-family="AvenirNext-Medium" font-size="34.0" fill="#FEFFFE" transform="matrix(1.00, 0.00, -0.00, -1.00, 784.4, 514.0)">o</text><text xml:space="preserve" font-family="AvenirNext-Medium" font-size="34.0" fill="#FEFFFE" transform="matrix(1.00, 0.00, -0.00, -1.00, 805.2, 514.0)">s</text><text xml:space="preserve" font-family="AvenirNext-Medium" font-size="34.0" fill="#FEFFFE" transform="matrix(1.00, 0.00, -0.00, -1.00, 820.3, 514.0)">t</text><text xml:space="preserve" font-family="AvenirNext-Medium" font-size="34.0" fill="#FEFFFE" transform="matrix(1.00, 0.00, -0.00, -1.00, 831.4, 514.0)">l</text><text xml:space="preserve" font-family="AvenirNext-Medium" font-size="34.0" fill="#FEFFFE" transform="matrix(1.00, 0.00, -0.00, -1.00, 840.3, 514.0)">y</text><text xml:space="preserve" font-family="AvenirNext-Medium" font-size="34.0" fill="#FEFFFE" transform="matrix(1.00, 0.00, -0.00, -1.00, 857.4, 514.0)"> </text><text xml:space="preserve" font-family="AvenirNext-Medium" font-size="34.0" fill="#FEFFFE" transform="matrix(1.00, 0.00, -0.00, -1.00, 865.9, 514.0)">ﬁ</text><text xml:space="preserve" font-family="AvenirNext-Medium" font-size="34.0" fill="#FEFFFE" transform="matrix(1.00, 0.00, -0.00, -1.00, 885.4, 514.0)">x</text><text xml:space="preserve" font-family="AvenirNext-Medium" font-size="34.0" fill="#FEFFFE" transform="matrix(1.00, 0.00, -0.00, -1.00, 902.5, 514.0)">e</text><text xml:space="preserve" font-family="AvenirNext-Medium" font-size="34.0" fill="#FEFFFE" transform="matrix(1.00, 0.00, -0.00, -1.00, 922.0, 514.0)">d</text><text xml:space="preserve" font-family="AvenirNext-Medium" font-size="34.0" fill="#FEFFFE" transform="matrix(1.00, 0.00, -0.00, -1.00, 943.5, 514.0)">)</text><text xml:space="preserve" font-family="AvenirNext-Medium" font-size="34.0" fill="#FEFFFE" transform="matrix(1.00, 0.00, -0.00, -1.00, 954.3, 514.0)"> </text><text xml:space="preserve" font-family="LucidaGrande" font-size="35.7" fill="#34A4DA" transform="matrix(1.00, 0.00, -0.00, -1.00, 71.0, 437.0)">▸</text><text xml:space="preserve" font-family="AvenirNext-Medium" font-size="34.0" fill="#FEFFFE" transform="matrix(1.00, 0.00, -0.00, -1.00, 106.0, 440.0)">b</text><text xml:space="preserve" font-family="AvenirNext-Medium" font-size="34.0" fill="#FEFFFE" transform="matrix(1.00, 0.00, -0.00, -1.00, 127.6, 440.0)">e</text><text xml:space="preserve" font-family="AvenirNext-Medium" font-size="34.0" fill="#FEFFFE" transform="matrix(1.00, 0.00, -0.00, -1.00, 147.1, 440.0)"> </text><text xml:space="preserve" font-family="AvenirNext-Medium" font-size="34.0" fill="#FEFFFE" transform="matrix(1.00, 0.00, -0.00, -1.00, 155.6, 440.0)">a</text><text xml:space="preserve" font-family="AvenirNext-Medium" font-size="34.0" fill="#FEFFFE" transform="matrix(1.00, 0.00, -0.00, -1.00, 174.0, 440.0)">w</text><text xml:space="preserve" font-family="AvenirNext-Medium" font-size="34.0" fill="#FEFFFE" transform="matrix(1.00, 0.00, -0.00, -1.00, 200.3, 440.0)">a</text><text xml:space="preserve" font-family="AvenirNext-Medium" font-size="34.0" fill="#FEFFFE" transform="matrix(1.00, 0.00, -0.00, -1.00, 218.7, 440.0)">r</text><text xml:space="preserve" font-family="AvenirNext-Medium" font-size="34.0" fill="#FEFFFE" transform="matrix(1.00, 0.00, -0.00, -1.00, 230.4, 440.0)">e</text><text xml:space="preserve" font-family="AvenirNext-Medium" font-size="34.0" fill="#FEFFFE" transform="matrix(1.00, 0.00, -0.00, -1.00, 249.9, 440.0)"> </text><text xml:space="preserve" font-family="AvenirNext-Medium" font-size="34.0" fill="#FEFFFE" transform="matrix(1.00, 0.00, -0.00, -1.00, 258.4, 440.0)">t</text><text xml:space="preserve" font-family="AvenirNext-Medium" font-size="34.0" fill="#FEFFFE" transform="matrix(1.00, 0.00, -0.00, -1.00, 269.6, 440.0)">h</text><text xml:space="preserve" font-family="AvenirNext-Medium" font-size="34.0" fill="#FEFFFE" transform="matrix(1.00, 0.00, -0.00, -1.00, 289.5, 440.0)">a</text><text xml:space="preserve" font-family="AvenirNext-Medium" font-size="34.0" fill="#FEFFFE" transform="matrix(1.00, 0.00, -0.00, -1.00, 307.6, 440.0)">t</text><text xml:space="preserve" font-family="AvenirNext-Medium" font-size="34.0" fill="#FEFFFE" transform="matrix(1.00, 0.00, -0.00, -1.00, 318.7, 440.0)"> </text><text xml:space="preserve" font-family="AvenirNext-Medium" font-size="34.0" fill="#FEFFFE" transform="matrix(1.00, 0.00, -0.00, -1.00, 327.2, 440.0)">o</text><text xml:space="preserve" font-family="AvenirNext-Medium" font-size="34.0" fill="#FEFFFE" transform="matrix(1.00, 0.00, -0.00, -1.00, 348.0, 440.0)">l</text><text xml:space="preserve" font-family="AvenirNext-Medium" font-size="34.0" fill="#FEFFFE" transform="matrix(1.00, 0.00, -0.00, -1.00, 356.8, 440.0)">d</text><text xml:space="preserve" font-family="AvenirNext-Medium" font-size="34.0" fill="#FEFFFE" transform="matrix(1.00, 0.00, -0.00, -1.00, 378.4, 440.0)"> </text><text xml:space="preserve" font-family="AvenirNext-Medium" font-size="34.0" fill="#FEFFFE" transform="matrix(1.00, 0.00, -0.00, -1.00, 386.9, 440.0)">v</text><text xml:space="preserve" font-family="AvenirNext-Medium" font-size="34.0" fill="#FEFFFE" transform="matrix(1.00, 0.00, -0.00, -1.00, 404.0, 440.0)">e</text><text xml:space="preserve" font-family="AvenirNext-Medium" font-size="34.0" fill="#FEFFFE" transform="matrix(1.00, 0.00, -0.00, -1.00, 423.5, 440.0)">r</text><text xml:space="preserve" font-family="AvenirNext-Medium" font-size="34.0" fill="#FEFFFE" transform="matrix(1.00, 0.00, -0.00, -1.00, 435.8, 440.0)">s</text><text xml:space="preserve" font-family="AvenirNext-Medium" font-size="34.0" fill="#FEFFFE" transform="matrix(1.00, 0.00, -0.00, -1.00, 450.9, 440.0)">i</text><text xml:space="preserve" font-family="AvenirNext-Medium" font-size="34.0" fill="#FEFFFE" transform="matrix(1.00, 0.00, -0.00, -1.00, 459.7, 440.0)">o</text><text xml:space="preserve" font-family="AvenirNext-Medium" font-size="34.0" fill="#FEFFFE" transform="matrix(1.00, 0.00, -0.00, -1.00, 480.5, 440.0)">n</text><text xml:space="preserve" font-family="AvenirNext-Medium" font-size="34.0" fill="#FEFFFE" transform="matrix(1.00, 0.00, -0.00, -1.00, 500.3, 440.0)">s</text><text xml:space="preserve" font-family="AvenirNext-Medium" font-size="34.0" fill="#FEFFFE" transform="matrix(1.00, 0.00, -0.00, -1.00, 515.4, 440.0)"> </text><text xml:space="preserve" font-family="AvenirNext-Medium" font-size="34.0" fill="#FEFFFE" transform="matrix(1.00, 0.00, -0.00, -1.00, 523.9, 440.0)">m</text><text xml:space="preserve" font-family="AvenirNext-Medium" font-size="34.0" fill="#FEFFFE" transform="matrix(1.00, 0.00, -0.00, -1.00, 554.0, 440.0)">i</text><text xml:space="preserve" font-family="AvenirNext-Medium" font-size="34.0" fill="#FEFFFE" transform="matrix(1.00, 0.00, -0.00, -1.00, 562.8, 440.0)">g</text><text xml:space="preserve" font-family="AvenirNext-Medium" font-size="34.0" fill="#FEFFFE" transform="matrix(1.00, 0.00, -0.00, -1.00, 584.3, 440.0)">h</text><text xml:space="preserve" font-family="AvenirNext-Medium" font-size="34.0" fill="#FEFFFE" transform="matrix(1.00, 0.00, -0.00, -1.00, 604.2, 440.0)">t</text><text xml:space="preserve" font-family="AvenirNext-Medium" font-size="34.0" fill="#FEFFFE" transform="matrix(1.00, 0.00, -0.00, -1.00, 615.4, 440.0)"> </text><text xml:space="preserve" font-family="AvenirNext-Medium" font-size="34.0" fill="#FEFFFE" transform="matrix(1.00, 0.00, -0.00, -1.00, 623.9, 440.0)">b</text><text xml:space="preserve" font-family="AvenirNext-Medium" font-size="34.0" fill="#FEFFFE" transform="matrix(1.00, 0.00, -0.00, -1.00, 645.5, 440.0)">e</text><text xml:space="preserve" font-family="AvenirNext-Medium" font-size="34.0" fill="#FEFFFE" transform="matrix(1.00, 0.00, -0.00, -1.00, 665.0, 440.0)"> </text><text xml:space="preserve" font-family="AvenirNext-Medium" font-size="34.0" fill="#FEFFFE" transform="matrix(1.00, 0.00, -0.00, -1.00, 673.5, 440.0)">t</text><text xml:space="preserve" font-family="AvenirNext-Medium" font-size="34.0" fill="#FEFFFE" transform="matrix(1.00, 0.00, -0.00, -1.00, 684.6, 440.0)">a</text><text xml:space="preserve" font-family="AvenirNext-Medium" font-size="34.0" fill="#FEFFFE" transform="matrix(1.00, 0.00, -0.00, -1.00, 703.1, 440.0)">r</text><text xml:space="preserve" font-family="AvenirNext-Medium" font-size="34.0" fill="#FEFFFE" transform="matrix(1.00, 0.00, -0.00, -1.00, 714.8, 440.0)">g</text><text xml:space="preserve" font-family="AvenirNext-Medium" font-size="34.0" fill="#FEFFFE" transform="matrix(1.00, 0.00, -0.00, -1.00, 736.3, 440.0)">e</text><text xml:space="preserve" font-family="AvenirNext-Medium" font-size="34.0" fill="#FEFFFE" transform="matrix(1.00, 0.00, -0.00, -1.00, 755.7, 440.0)">t</text><text xml:space="preserve" font-family="AvenirNext-Medium" font-size="34.0" fill="#FEFFFE" transform="matrix(1.00, 0.00, -0.00, -1.00, 766.9, 440.0)">s</text><text xml:space="preserve" font-family="AvenirNext-Medium" font-size="34.0" fill="#FEFFFE" transform="matrix(1.00, 0.00, -0.00, -1.00, 782.0, 440.0)"> </text><text xml:space="preserve" font-family="LucidaGrande" font-size="35.7" fill="#34A4DA" transform="matrix(1.00, 0.00, -0.00, -1.00, 71.0, 363.0)">▸</text><text xml:space="preserve" font-family="AvenirNext-Medium" font-size="34.0" fill="#FEFFFE" transform="matrix(1.00, 0.00, -0.00, -1.00, 106.0, 366.0)">C</text><text xml:space="preserve" font-family="AvenirNext-Medium" font-size="34.0" fill="#FEFFFE" transform="matrix(1.00, 0.00, -0.00, -1.00, 130.1, 366.0)">h</text><text xml:space="preserve" font-family="AvenirNext-Medium" font-size="34.0" fill="#FEFFFE" transform="matrix(1.00, 0.00, -0.00, -1.00, 149.9, 366.0)">o</text><text xml:space="preserve" font-family="AvenirNext-Medium" font-size="34.0" fill="#FEFFFE" transform="matrix(1.00, 0.00, -0.00, -1.00, 170.7, 366.0)">c</text><text xml:space="preserve" font-family="AvenirNext-Medium" font-size="34.0" fill="#FEFFFE" transform="matrix(1.00, 0.00, -0.00, -1.00, 187.5, 366.0)">-</text><text xml:space="preserve" font-family="AvenirNext-Medium" font-size="34.0" fill="#FEFFFE" transform="matrix(1.00, 0.00, -0.00, -1.00, 198.3, 366.0)">f</text><text xml:space="preserve" font-family="AvenirNext-Medium" font-size="34.0" fill="#FEFFFE" transform="matrix(1.00, 0.00, -0.00, -1.00, 208.9, 366.0)">u</text><text xml:space="preserve" font-family="AvenirNext-Medium" font-size="34.0" fill="#FEFFFE" transform="matrix(1.00, 0.00, -0.00, -1.00, 228.7, 366.0)">l</text><text xml:space="preserve" font-family="AvenirNext-Medium" font-size="34.0" fill="#FEFFFE" transform="matrix(1.00, 0.00, -0.00, -1.00, 237.5, 366.0)">l</text><text xml:space="preserve" font-family="AvenirNext-Medium" font-size="34.0" fill="#FEFFFE" transform="matrix(1.00, 0.00, -0.00, -1.00, 246.4, 366.0)"> </text><text xml:space="preserve" font-family="AvenirNext-Medium" font-size="34.0" fill="#FEFFFE" transform="matrix(1.00, 0.00, -0.00, -1.00, 254.9, 366.0)">o</text><text xml:space="preserve" font-family="AvenirNext-Medium" font-size="34.0" fill="#FEFFFE" transform="matrix(1.00, 0.00, -0.00, -1.00, 275.6, 366.0)">f</text><text xml:space="preserve" font-family="AvenirNext-Medium" font-size="34.0" fill="#FEFFFE" transform="matrix(1.00, 0.00, -0.00, -1.00, 286.9, 366.0)"> </text><text xml:space="preserve" font-family="AvenirNext-Medium" font-size="34.0" fill="#FEFFFE" transform="matrix(1.00, 0.00, -0.00, -1.00, 295.4, 366.0)">H</text><text xml:space="preserve" font-family="AvenirNext-Medium" font-size="34.0" fill="#FEFFFE" transform="matrix(1.00, 0.00, -0.00, -1.00, 320.2, 366.0)">T</text><text xml:space="preserve" font-family="AvenirNext-Medium" font-size="34.0" fill="#FEFFFE" transform="matrix(1.00, 0.00, -0.00, -1.00, 339.6, 366.0)">M</text><text xml:space="preserve" font-family="AvenirNext-Medium" font-size="34.0" fill="#FEFFFE" transform="matrix(1.00, 0.00, -0.00, -1.00, 370.3, 366.0)">L</text><text xml:space="preserve" font-family="AvenirNext-Medium" font-size="34.0" fill="#FEFFFE" transform="matrix(1.00, 0.00, -0.00, -1.00, 386.8, 366.0)"> </text><text xml:space="preserve" font-family="AvenirNext-Medium" font-size="34.0" fill="#FEFFFE" transform="matrix(1.00, 0.00, -0.00, -1.00, 395.3, 366.0)">e</text><text xml:space="preserve" font-family="AvenirNext-Medium" font-size="34.0" fill="#FEFFFE" transform="matrix(1.00, 0.00, -0.00, -1.00, 414.8, 366.0)">l</text><text xml:space="preserve" font-family="AvenirNext-Medium" font-size="34.0" fill="#FEFFFE" transform="matrix(1.00, 0.00, -0.00, -1.00, 423.7, 366.0)">e</text><text xml:space="preserve" font-family="AvenirNext-Medium" font-size="34.0" fill="#FEFFFE" transform="matrix(1.00, 0.00, -0.00, -1.00, 443.1, 366.0)">m</text><text xml:space="preserve" font-family="AvenirNext-Medium" font-size="34.0" fill="#FEFFFE" transform="matrix(1.00, 0.00, -0.00, -1.00, 473.3, 366.0)">e</text><text xml:space="preserve" font-family="AvenirNext-Medium" font-size="34.0" fill="#FEFFFE" transform="matrix(1.00, 0.00, -0.00, -1.00, 492.8, 366.0)">n</text><text xml:space="preserve" font-family="AvenirNext-Medium" font-size="34.0" fill="#FEFFFE" transform="matrix(1.00, 0.00, -0.00, -1.00, 512.6, 366.0)">t</text><text xml:space="preserve" font-family="AvenirNext-Medium" font-size="34.0" fill="#FEFFFE" transform="matrix(1.00, 0.00, -0.00, -1.00, 523.8, 366.0)"> </text><text xml:space="preserve" font-family="AvenirNext-Medium" font-size="34.0" fill="#FEFFFE" transform="matrix(1.00, 0.00, -0.00, -1.00, 532.3, 366.0)">t</text><text xml:space="preserve" font-family="AvenirNext-Medium" font-size="34.0" fill="#FEFFFE" transform="matrix(1.00, 0.00, -0.00, -1.00, 543.4, 366.0)">a</text><text xml:space="preserve" font-family="AvenirNext-Medium" font-size="34.0" fill="#FEFFFE" transform="matrix(1.00, 0.00, -0.00, -1.00, 561.9, 366.0)">r</text><text xml:space="preserve" font-family="AvenirNext-Medium" font-size="34.0" fill="#FEFFFE" transform="matrix(1.00, 0.00, -0.00, -1.00, 573.6, 366.0)">g</text><text xml:space="preserve" font-family="AvenirNext-Medium" font-size="34.0" fill="#FEFFFE" transform="matrix(1.00, 0.00, -0.00, -1.00, 595.1, 366.0)">e</text><text xml:space="preserve" font-family="AvenirNext-Medium" font-size="34.0" fill="#FEFFFE" transform="matrix(1.00, 0.00, -0.00, -1.00, 614.5, 366.0)">t</text><text xml:space="preserve" font-family="AvenirNext-Medium" font-size="34.0" fill="#FEFFFE" transform="matrix(1.00, 0.00, -0.00, -1.00, 625.7, 366.0)">s</text><text xml:space="preserve" font-family="AvenirNext-Medium" font-size="34.0" fill="#FEFFFE" transform="matrix(1.00, 0.00, -0.00, -1.00, 640.8, 366.0)">:</text><text xml:space="preserve" font-family="LucidaGrande-Bold" font-weight="bold" font-size="34.0" fill="#FEFFFE" transform="matrix(1.00, 0.00, -0.00, -1.00, 651.0, 366.0)"> </text><text xml:space="preserve" font-family="AvenirNext-Medium" font-size="34.0" fill="#FEFFFE" transform="matrix(1.00, 0.00, -0.00, -1.00, 106.0, 320.0)">e</text><text xml:space="preserve" font-family="AvenirNext-Medium" font-size="34.0" fill="#FEFFFE" transform="matrix(1.00, 0.00, -0.00, -1.00, 125.5, 320.0)">l</text><text xml:space="preserve" font-family="AvenirNext-Medium" font-size="34.0" fill="#FEFFFE" transform="matrix(1.00, 0.00, -0.00, -1.00, 134.3, 320.0)">e</text><text xml:space="preserve" font-family="AvenirNext-Medium" font-size="34.0" fill="#FEFFFE" transform="matrix(1.00, 0.00, -0.00, -1.00, 153.8, 320.0)">m</text><text xml:space="preserve" font-family="AvenirNext-Medium" font-size="34.0" fill="#FEFFFE" transform="matrix(1.00, 0.00, -0.00, -1.00, 184.0, 320.0)">e</text><text xml:space="preserve" font-family="AvenirNext-Medium" font-size="34.0" fill="#FEFFFE" transform="matrix(1.00, 0.00, -0.00, -1.00, 203.4, 320.0)">n</text><text xml:space="preserve" font-family="AvenirNext-Medium" font-size="34.0" fill="#FEFFFE" transform="matrix(1.00, 0.00, -0.00, -1.00, 223.2, 320.0)">t</text><text xml:space="preserve" font-family="AvenirNext-Medium" font-size="34.0" fill="#FEFFFE" transform="matrix(1.00, 0.00, -0.00, -1.00, 234.4, 320.0)">.</text><text xml:space="preserve" font-family="AvenirNext-Medium" font-size="34.0" fill="#FEFFFE" transform="matrix(1.00, 0.00, -0.00, -1.00, 243.3, 320.0)">a</text><text xml:space="preserve" font-family="AvenirNext-Medium" font-size="34.0" fill="#FEFFFE" transform="matrix(1.00, 0.00, -0.00, -1.00, 261.7, 320.0)">d</text><text xml:space="preserve" font-family="AvenirNext-Medium" font-size="34.0" fill="#FEFFFE" transform="matrix(1.00, 0.00, -0.00, -1.00, 283.3, 320.0)">d</text><text xml:space="preserve" font-family="AvenirNext-Medium" font-size="34.0" fill="#FEFFFE" transform="matrix(1.00, 0.00, -0.00, -1.00, 304.9, 320.0)">(</text><text xml:space="preserve" font-family="AvenirNext-Medium" font-size="34.0" fill="#FEFFFE" transform="matrix(1.00, 0.00, -0.00, -1.00, 315.6, 320.0)">u</text><text xml:space="preserve" font-family="AvenirNext-Medium" font-size="34.0" fill="#FEFFFE" transform="matrix(1.00, 0.00, -0.00, -1.00, 335.4, 320.0)">s</text><text xml:space="preserve" font-family="AvenirNext-Medium" font-size="34.0" fill="#FEFFFE" transform="matrix(1.00, 0.00, -0.00, -1.00, 350.5, 320.0)">e</text><text xml:space="preserve" font-family="AvenirNext-Medium" font-size="34.0" fill="#FEFFFE" transform="matrix(1.00, 0.00, -0.00, -1.00, 369.9, 320.0)">r</text><text xml:space="preserve" font-family="AvenirNext-Medium" font-size="34.0" fill="#FEFFFE" transform="matrix(1.00, 0.00, -0.00, -1.00, 382.3, 320.0)">C</text><text xml:space="preserve" font-family="AvenirNext-Medium" font-size="34.0" fill="#FEFFFE" transform="matrix(1.00, 0.00, -0.00, -1.00, 405.9, 320.0)">o</text><text xml:space="preserve" font-family="AvenirNext-Medium" font-size="34.0" fill="#FEFFFE" transform="matrix(1.00, 0.00, -0.00, -1.00, 426.7, 320.0)">n</text><text xml:space="preserve" font-family="AvenirNext-Medium" font-size="34.0" fill="#FEFFFE" transform="matrix(1.00, 0.00, -0.00, -1.00, 446.4, 320.0)">t</text><text xml:space="preserve" font-family="AvenirNext-Medium" font-size="34.0" fill="#FEFFFE" transform="matrix(1.00, 0.00, -0.00, -1.00, 457.6, 320.0)">e</text><text xml:space="preserve" font-family="AvenirNext-Medium" font-size="34.0" fill="#FEFFFE" transform="matrix(1.00, 0.00, -0.00, -1.00, 477.1, 320.0)">n</text><text xml:space="preserve" font-family="AvenirNext-Medium" font-size="34.0" fill="#FEFFFE" transform="matrix(1.00, 0.00, -0.00, -1.00, 496.9, 320.0)">t</text><text xml:space="preserve" font-family="AvenirNext-Medium" font-size="34.0" fill="#FEFFFE" transform="matrix(1.00, 0.00, -0.00, -1.00, 508.1, 320.0)">)</text><text xml:space="preserve" font-family="LucidaGrande-Bold" font-weight="bold" font-size="34.0" fill="#FEFFFE" transform="matrix(1.00, 0.00, -0.00, -1.00, 518.8, 320.0)"> </text><text xml:space="preserve" font-family="AvenirNext-Medium" font-size="34.0" fill="#FEFFFE" transform="matrix(1.00, 0.00, -0.00, -1.00, 106.0, 274.0)">e</text><text xml:space="preserve" font-family="AvenirNext-Medium" font-size="34.0" fill="#FEFFFE" transform="matrix(1.00, 0.00, -0.00, -1.00, 125.5, 274.0)">l</text><text xml:space="preserve" font-family="AvenirNext-Medium" font-size="34.0" fill="#FEFFFE" transform="matrix(1.00, 0.00, -0.00, -1.00, 134.3, 274.0)">e</text><text xml:space="preserve" font-family="AvenirNext-Medium" font-size="34.0" fill="#FEFFFE" transform="matrix(1.00, 0.00, -0.00, -1.00, 153.8, 274.0)">m</text><text xml:space="preserve" font-family="AvenirNext-Medium" font-size="34.0" fill="#FEFFFE" transform="matrix(1.00, 0.00, -0.00, -1.00, 184.0, 274.0)">e</text><text xml:space="preserve" font-family="AvenirNext-Medium" font-size="34.0" fill="#FEFFFE" transform="matrix(1.00, 0.00, -0.00, -1.00, 203.4, 274.0)">n</text><text xml:space="preserve" font-family="AvenirNext-Medium" font-size="34.0" fill="#FEFFFE" transform="matrix(1.00, 0.00, -0.00, -1.00, 223.2, 274.0)">t</text><text xml:space="preserve" font-family="AvenirNext-Medium" font-size="34.0" fill="#FEFFFE" transform="matrix(1.00, 0.00, -0.00, -1.00, 234.4, 274.0)">.</text><text xml:space="preserve" font-family="AvenirNext-Medium" font-size="34.0" fill="#FEFFFE" transform="matrix(1.00, 0.00, -0.00, -1.00, 243.3, 274.0)">a</text><text xml:space="preserve" font-family="AvenirNext-Medium" font-size="34.0" fill="#FEFFFE" transform="matrix(1.00, 0.00, -0.00, -1.00, 261.7, 274.0)">p</text><text xml:space="preserve" font-family="AvenirNext-Medium" font-size="34.0" fill="#FEFFFE" transform="matrix(1.00, 0.00, -0.00, -1.00, 283.2, 274.0)">p</text><text xml:space="preserve" font-family="AvenirNext-Medium" font-size="34.0" fill="#FEFFFE" transform="matrix(1.00, 0.00, -0.00, -1.00, 304.8, 274.0)">e</text><text xml:space="preserve" font-family="AvenirNext-Medium" font-size="34.0" fill="#FEFFFE" transform="matrix(1.00, 0.00, -0.00, -1.00, 324.3, 274.0)">n</text><text xml:space="preserve" font-family="AvenirNext-Medium" font-size="34.0" fill="#FEFFFE" transform="matrix(1.00, 0.00, -0.00, -1.00, 344.1, 274.0)">d</text><text xml:space="preserve" font-family="AvenirNext-Medium" font-size="34.0" fill="#FEFFFE" transform="matrix(1.00, 0.00, -0.00, -1.00, 365.7, 274.0)">(</text><text xml:space="preserve" font-family="AvenirNext-Medium" font-size="34.0" fill="#FEFFFE" transform="matrix(1.00, 0.00, -0.00, -1.00, 376.4, 274.0)">u</text><text xml:space="preserve" font-family="AvenirNext-Medium" font-size="34.0" fill="#FEFFFE" transform="matrix(1.00, 0.00, -0.00, -1.00, 396.2, 274.0)">s</text><text xml:space="preserve" font-family="AvenirNext-Medium" font-size="34.0" fill="#FEFFFE" transform="matrix(1.00, 0.00, -0.00, -1.00, 411.3, 274.0)">e</text><text xml:space="preserve" font-family="AvenirNext-Medium" font-size="34.0" fill="#FEFFFE" transform="matrix(1.00, 0.00, -0.00, -1.00, 430.7, 274.0)">r</text><text xml:space="preserve" font-family="AvenirNext-Medium" font-size="34.0" fill="#FEFFFE" transform="matrix(1.00, 0.00, -0.00, -1.00, 443.0, 274.0)">C</text><text xml:space="preserve" font-family="AvenirNext-Medium" font-size="34.0" fill="#FEFFFE" transform="matrix(1.00, 0.00, -0.00, -1.00, 466.7, 274.0)">o</text><text xml:space="preserve" font-family="AvenirNext-Medium" font-size="34.0" fill="#FEFFFE" transform="matrix(1.00, 0.00, -0.00, -1.00, 487.4, 274.0)">n</text><text xml:space="preserve" font-family="AvenirNext-Medium" font-size="34.0" fill="#FEFFFE" transform="matrix(1.00, 0.00, -0.00, -1.00, 507.2, 274.0)">t</text><text xml:space="preserve" font-family="AvenirNext-Medium" font-size="34.0" fill="#FEFFFE" transform="matrix(1.00, 0.00, -0.00, -1.00, 518.4, 274.0)">e</text><text xml:space="preserve" font-family="AvenirNext-Medium" font-size="34.0" fill="#FEFFFE" transform="matrix(1.00, 0.00, -0.00, -1.00, 537.9, 274.0)">n</text><text xml:space="preserve" font-family="AvenirNext-Medium" font-size="34.0" fill="#FEFFFE" transform="matrix(1.00, 0.00, -0.00, -1.00, 557.7, 274.0)">t</text><text xml:space="preserve" font-family="AvenirNext-Medium" font-size="34.0" fill="#FEFFFE" transform="matrix(1.00, 0.00, -0.00, -1.00, 568.9, 274.0)">)</text><text xml:space="preserve" font-family="LucidaGrande-Bold" font-weight="bold" font-size="34.0" fill="#FEFFFE" transform="matrix(1.00, 0.00, -0.00, -1.00, 579.6, 274.0)"> </text><text xml:space="preserve" font-family="AvenirNext-Medium" font-size="34.0" fill="#FEFFFE" transform="matrix(1.00, 0.00, -0.00, -1.00, 106.0, 228.0)">e</text><text xml:space="preserve" font-family="AvenirNext-Medium" font-size="34.0" fill="#FEFFFE" transform="matrix(1.00, 0.00, -0.00, -1.00, 125.5, 228.0)">l</text><text xml:space="preserve" font-family="AvenirNext-Medium" font-size="34.0" fill="#FEFFFE" transform="matrix(1.00, 0.00, -0.00, -1.00, 134.3, 228.0)">e</text><text xml:space="preserve" font-family="AvenirNext-Medium" font-size="34.0" fill="#FEFFFE" transform="matrix(1.00, 0.00, -0.00, -1.00, 153.8, 228.0)">m</text><text xml:space="preserve" font-family="AvenirNext-Medium" font-size="34.0" fill="#FEFFFE" transform="matrix(1.00, 0.00, -0.00, -1.00, 184.0, 228.0)">e</text><text xml:space="preserve" font-family="AvenirNext-Medium" font-size="34.0" fill="#FEFFFE" transform="matrix(1.00, 0.00, -0.00, -1.00, 203.4, 228.0)">n</text><text xml:space="preserve" font-family="AvenirNext-Medium" font-size="34.0" fill="#FEFFFE" transform="matrix(1.00, 0.00, -0.00, -1.00, 223.2, 228.0)">t</text><text xml:space="preserve" font-family="AvenirNext-Medium" font-size="34.0" fill="#FEFFFE" transform="matrix(1.00, 0.00, -0.00, -1.00, 234.4, 228.0)">.</text><text xml:space="preserve" font-family="AvenirNext-Medium" font-size="34.0" fill="#FEFFFE" transform="matrix(1.00, 0.00, -0.00, -1.00, 243.3, 228.0)">a</text><text xml:space="preserve" font-family="AvenirNext-Medium" font-size="34.0" fill="#FEFFFE" transform="matrix(1.00, 0.00, -0.00, -1.00, 261.7, 228.0)">f</text><text xml:space="preserve" font-family="AvenirNext-Medium" font-size="34.0" fill="#FEFFFE" transform="matrix(1.00, 0.00, -0.00, -1.00, 271.7, 228.0)">t</text><text xml:space="preserve" font-family="AvenirNext-Medium" font-size="34.0" fill="#FEFFFE" transform="matrix(1.00, 0.00, -0.00, -1.00, 282.9, 228.0)">e</text><text xml:space="preserve" font-family="AvenirNext-Medium" font-size="34.0" fill="#FEFFFE" transform="matrix(1.00, 0.00, -0.00, -1.00, 302.4, 228.0)">r</text><text xml:space="preserve" font-family="AvenirNext-Medium" font-size="34.0" fill="#FEFFFE" transform="matrix(1.00, 0.00, -0.00, -1.00, 314.7, 228.0)">(</text><text xml:space="preserve" font-family="AvenirNext-Medium" font-size="34.0" fill="#FEFFFE" transform="matrix(1.00, 0.00, -0.00, -1.00, 325.4, 228.0)">u</text><text xml:space="preserve" font-family="AvenirNext-Medium" font-size="34.0" fill="#FEFFFE" transform="matrix(1.00, 0.00, -0.00, -1.00, 345.2, 228.0)">s</text><text xml:space="preserve" font-family="AvenirNext-Medium" font-size="34.0" fill="#FEFFFE" transform="matrix(1.00, 0.00, -0.00, -1.00, 360.3, 228.0)">e</text><text xml:space="preserve" font-family="AvenirNext-Medium" font-size="34.0" fill="#FEFFFE" transform="matrix(1.00, 0.00, -0.00, -1.00, 379.8, 228.0)">r</text><text xml:space="preserve" font-family="AvenirNext-Medium" font-size="34.0" fill="#FEFFFE" transform="matrix(1.00, 0.00, -0.00, -1.00, 392.1, 228.0)">C</text><text xml:space="preserve" font-family="AvenirNext-Medium" font-size="34.0" fill="#FEFFFE" transform="matrix(1.00, 0.00, -0.00, -1.00, 415.7, 228.0)">o</text><text xml:space="preserve" font-family="AvenirNext-Medium" font-size="34.0" fill="#FEFFFE" transform="matrix(1.00, 0.00, -0.00, -1.00, 436.5, 228.0)">n</text><text xml:space="preserve" font-family="AvenirNext-Medium" font-size="34.0" fill="#FEFFFE" transform="matrix(1.00, 0.00, -0.00, -1.00, 456.3, 228.0)">t</text><text xml:space="preserve" font-family="AvenirNext-Medium" font-size="34.0" fill="#FEFFFE" transform="matrix(1.00, 0.00, -0.00, -1.00, 467.5, 228.0)">e</text><text xml:space="preserve" font-family="AvenirNext-Medium" font-size="34.0" fill="#FEFFFE" transform="matrix(1.00, 0.00, -0.00, -1.00, 486.9, 228.0)">n</text><text xml:space="preserve" font-family="AvenirNext-Medium" font-size="34.0" fill="#FEFFFE" transform="matrix(1.00, 0.00, -0.00, -1.00, 506.7, 228.0)">t</text><text xml:space="preserve" font-family="AvenirNext-Medium" font-size="34.0" fill="#FEFFFE" transform="matrix(1.00, 0.00, -0.00, -1.00, 517.9, 228.0)">)</text><text xml:space="preserve" font-family="LucidaGrande-Bold" font-weight="bold" font-size="34.0" fill="#FEFFFE" transform="matrix(1.00, 0.00, -0.00, -1.00, 528.6, 228.0)"> </text><text xml:space="preserve" font-family="AvenirNext-Medium" font-size="34.0" fill="#FEFFFE" transform="matrix(1.00, 0.00, -0.00, -1.00, 106.0, 182.0)">e</text><text xml:space="preserve" font-family="AvenirNext-Medium" font-size="34.0" fill="#FEFFFE" transform="matrix(1.00, 0.00, -0.00, -1.00, 125.5, 182.0)">l</text><text xml:space="preserve" font-family="AvenirNext-Medium" font-size="34.0" fill="#FEFFFE" transform="matrix(1.00, 0.00, -0.00, -1.00, 134.3, 182.0)">e</text><text xml:space="preserve" font-family="AvenirNext-Medium" font-size="34.0" fill="#FEFFFE" transform="matrix(1.00, 0.00, -0.00, -1.00, 153.8, 182.0)">m</text><text xml:space="preserve" font-family="AvenirNext-Medium" font-size="34.0" fill="#FEFFFE" transform="matrix(1.00, 0.00, -0.00, -1.00, 184.0, 182.0)">e</text><text xml:space="preserve" font-family="AvenirNext-Medium" font-size="34.0" fill="#FEFFFE" transform="matrix(1.00, 0.00, -0.00, -1.00, 203.4, 182.0)">n</text><text xml:space="preserve" font-family="AvenirNext-Medium" font-size="34.0" fill="#FEFFFE" transform="matrix(1.00, 0.00, -0.00, -1.00, 223.2, 182.0)">t</text><text xml:space="preserve" font-family="AvenirNext-Medium" font-size="34.0" fill="#FEFFFE" transform="matrix(1.00, 0.00, -0.00, -1.00, 234.4, 182.0)">.</text><text xml:space="preserve" font-family="AvenirNext-Medium" font-size="34.0" fill="#FEFFFE" transform="matrix(1.00, 0.00, -0.00, -1.00, 243.3, 182.0)">h</text><text xml:space="preserve" font-family="AvenirNext-Medium" font-size="34.0" fill="#FEFFFE" transform="matrix(1.00, 0.00, -0.00, -1.00, 263.1, 182.0)">t</text><text xml:space="preserve" font-family="AvenirNext-Medium" font-size="34.0" fill="#FEFFFE" transform="matrix(1.00, 0.00, -0.00, -1.00, 274.3, 182.0)">m</text><text xml:space="preserve" font-family="AvenirNext-Medium" font-size="34.0" fill="#FEFFFE" transform="matrix(1.00, 0.00, -0.00, -1.00, 304.5, 182.0)">l</text><text xml:space="preserve" font-family="AvenirNext-Medium" font-size="34.0" fill="#FEFFFE" transform="matrix(1.00, 0.00, -0.00, -1.00, 313.3, 182.0)">(</text><text xml:space="preserve" font-family="AvenirNext-Medium" font-size="34.0" fill="#FEFFFE" transform="matrix(1.00, 0.00, -0.00, -1.00, 324.0, 182.0)">u</text><text xml:space="preserve" font-family="AvenirNext-Medium" font-size="34.0" fill="#FEFFFE" transform="matrix(1.00, 0.00, -0.00, -1.00, 343.8, 182.0)">s</text><text xml:space="preserve" font-family="AvenirNext-Medium" font-size="34.0" fill="#FEFFFE" transform="matrix(1.00, 0.00, -0.00, -1.00, 358.9, 182.0)">e</text><text xml:space="preserve" font-family="AvenirNext-Medium" font-size="34.0" fill="#FEFFFE" transform="matrix(1.00, 0.00, -0.00, -1.00, 378.4, 182.0)">r</text><text xml:space="preserve" font-family="AvenirNext-Medium" font-size="34.0" fill="#FEFFFE" transform="matrix(1.00, 0.00, -0.00, -1.00, 390.7, 182.0)">C</text><text xml:space="preserve" font-family="AvenirNext-Medium" font-size="34.0" fill="#FEFFFE" transform="matrix(1.00, 0.00, -0.00, -1.00, 414.3, 182.0)">o</text><text xml:space="preserve" font-family="AvenirNext-Medium" font-size="34.0" fill="#FEFFFE" transform="matrix(1.00, 0.00, -0.00, -1.00, 435.1, 182.0)">n</text><text xml:space="preserve" font-family="AvenirNext-Medium" font-size="34.0" fill="#FEFFFE" transform="matrix(1.00, 0.00, -0.00, -1.00, 454.9, 182.0)">t</text><text xml:space="preserve" font-family="AvenirNext-Medium" font-size="34.0" fill="#FEFFFE" transform="matrix(1.00, 0.00, -0.00, -1.00, 466.1, 182.0)">e</text><text xml:space="preserve" font-family="AvenirNext-Medium" font-size="34.0" fill="#FEFFFE" transform="matrix(1.00, 0.00, -0.00, -1.00, 485.5, 182.0)">n</text><text xml:space="preserve" font-family="AvenirNext-Medium" font-size="34.0" fill="#FEFFFE" transform="matrix(1.00, 0.00, -0.00, -1.00, 505.3, 182.0)">t</text><text xml:space="preserve" font-family="AvenirNext-Medium" font-size="34.0" fill="#FEFFFE" transform="matrix(1.00, 0.00, -0.00, -1.00, 516.5, 182.0)">)</text><text xml:space="preserve" font-family="LucidaGrande-Bold" font-weight="bold" font-size="34.0" fill="#FEFFFE" transform="matrix(1.00, 0.00, -0.00, -1.00, 527.2, 182.0)"> </text><text xml:space="preserve" font-family="AvenirNext-Medium" font-size="34.0" fill="#FEFFFE" transform="matrix(1.00, 0.00, -0.00, -1.00, 106.0, 136.0)">e</text><text xml:space="preserve" font-family="AvenirNext-Medium" font-size="34.0" fill="#FEFFFE" transform="matrix(1.00, 0.00, -0.00, -1.00, 125.5, 136.0)">t</text><text xml:space="preserve" font-family="AvenirNext-Medium" font-size="34.0" fill="#FEFFFE" transform="matrix(1.00, 0.00, -0.00, -1.00, 136.7, 136.0)">c</text><text xml:space="preserve" font-family="AvenirNext-Medium" font-size="34.0" fill="#FEFFFE" transform="matrix(1.00, 0.00, -0.00, -1.00, 153.5, 136.0)">…</text><text xml:space="preserve" font-family="DINAlternate-Bold" font-weight="bold" font-size="24.0" fill="#838686" transform="matrix(1.00, 0.00, -0.00, -1.00, 964.6, 707.4)">3</text><text xml:space="preserve" font-family="DINAlternate-Bold" font-weight="bold" font-size="24.0" fill="#838686" transform="matrix(1.00, 0.00, -0.00, -1.00, 976.1, 707.4)">1</text></g></svg>