<?xml version="1.0" encoding="UTF-8" standalone="no"?><svg xmlns="http://www.w3.org/2000/svg" xmlns:xlink="http://www.w3.org/1999/xlink" clip-rule="evenodd" stroke-miterlimit="4.00" viewBox="0 0 1024 768"><desc>SVG generated by Keynote</desc><defs></defs><g transform="matrix(1.00, 0.00, -0.00, -1.00, 0.0, 768.0)"><path d="M 0.0 768.0 L 1024.0 768.0 L 1024.0 0.0 L 0.0 0.0 Z M 0.0 768.0 " fill="#212121"></path><path d="M 0.0 0.0 L 960.0 0.0 " fill="none" stroke="#A6AAA9" stroke-width="2.00" transform="matrix(1.00, 0.00, 0.00, -1.00, 32.0, 689.8)"></path><text xml:space="preserve" font-family="DINAlternate-Bold" font-weight="bold" font-size="24.0" fill="#FEFFFE" transform="matrix(1.00, 0.00, -0.00, -1.00, 36.0, 705.0)">X</text><text xml:space="preserve" font-family="DINAlternate-Bold" font-weight="bold" font-size="24.0" fill="#FEFFFE" transform="matrix(1.00, 0.00, -0.00, -1.00, 50.1, 705.0)">S</text><text xml:space="preserve" font-family="DINAlternate-Bold" font-weight="bold" font-size="24.0" fill="#FEFFFE" transform="matrix(1.00, 0.00, -0.00, -1.00, 65.0, 705.0)">S</text><text xml:space="preserve" font-family="DINCondensed-Bold" font-weight="bold" font-size="48.0" fill="#FF9C35" transform="matrix(1.00, 0.00, -0.00, -1.00, 36.0, 608.0)">A</text><text xml:space="preserve" font-family="DINCondensed-Bold" font-weight="bold" font-size="48.0" fill="#FF9C35" transform="matrix(1.00, 0.00, -0.00, -1.00, 53.8, 608.0)">V</text><text xml:space="preserve" font-family="DINCondensed-Bold" font-weight="bold" font-size="48.0" fill="#FF9C35" transform="matrix(1.00, 0.00, -0.00, -1.00, 73.3, 608.0)">O</text><text xml:space="preserve" font-family="DINCondensed-Bold" font-weight="bold" font-size="48.0" fill="#FF9C35" transform="matrix(1.00, 0.00, -0.00, -1.00, 93.7, 608.0)">I</text><text xml:space="preserve" font-family="DINCondensed-Bold" font-weight="bold" font-size="48.0" fill="#FF9C35" transform="matrix(1.00, 0.00, -0.00, -1.00, 103.5, 608.0)">D</text><text xml:space="preserve" font-family="DINCondensed-Bold" font-weight="bold" font-size="48.0" fill="#FF9C35" transform="matrix(1.00, 0.00, -0.00, -1.00, 124.0, 608.0)"> </text><text xml:space="preserve" font-family="DINCondensed-Bold" font-weight="bold" font-size="48.0" fill="#FF9C35" transform="matrix(1.00, 0.00, -0.00, -1.00, 132.9, 608.0)">C</text><text xml:space="preserve" font-family="DINCondensed-Bold" font-weight="bold" font-size="48.0" fill="#FF9C35" transform="matrix(1.00, 0.00, -0.00, -1.00, 152.4, 608.0)">O</text><text xml:space="preserve" font-family="DINCondensed-Bold" font-weight="bold" font-size="48.0" fill="#FF9C35" transform="matrix(1.00, 0.00, -0.00, -1.00, 172.9, 608.0)">N</text><text xml:space="preserve" font-family="DINCondensed-Bold" font-weight="bold" font-size="48.0" fill="#FF9C35" transform="matrix(1.00, 0.00, -0.00, -1.00, 194.2, 608.0)">V</text><text xml:space="preserve" font-family="DINCondensed-Bold" font-weight="bold" font-size="48.0" fill="#FF9C35" transform="matrix(1.00, 0.00, -0.00, -1.00, 213.7, 608.0)">E</text><text xml:space="preserve" font-family="DINCondensed-Bold" font-weight="bold" font-size="48.0" fill="#FF9C35" transform="matrix(1.00, 0.00, -0.00, -1.00, 231.5, 608.0)">R</text><text xml:space="preserve" font-family="DINCondensed-Bold" font-weight="bold" font-size="48.0" fill="#FF9C35" transform="matrix(1.00, 0.00, -0.00, -1.00, 251.1, 608.0)">T</text><text xml:space="preserve" font-family="DINCondensed-Bold" font-weight="bold" font-size="48.0" fill="#FF9C35" transform="matrix(1.00, 0.00, -0.00, -1.00, 267.0, 608.0)">I</text><text xml:space="preserve" font-family="DINCondensed-Bold" font-weight="bold" font-size="48.0" fill="#FF9C35" transform="matrix(1.00, 0.00, -0.00, -1.00, 276.8, 608.0)">N</text><text xml:space="preserve" font-family="DINCondensed-Bold" font-weight="bold" font-size="48.0" fill="#FF9C35" transform="matrix(1.00, 0.00, -0.00, -1.00, 298.1, 608.0)">G</text><text xml:space="preserve" font-family="DINCondensed-Bold" font-weight="bold" font-size="48.0" fill="#FF9C35" transform="matrix(1.00, 0.00, -0.00, -1.00, 318.6, 608.0)"> </text><text xml:space="preserve" font-family="DINCondensed-Bold" font-weight="bold" font-size="48.0" fill="#FF9C35" transform="matrix(1.00, 0.00, -0.00, -1.00, 327.5, 608.0)">S</text><text xml:space="preserve" font-family="DINCondensed-Bold" font-weight="bold" font-size="48.0" fill="#FF9C35" transform="matrix(1.00, 0.00, -0.00, -1.00, 347.0, 608.0)">T</text><text xml:space="preserve" font-family="DINCondensed-Bold" font-weight="bold" font-size="48.0" fill="#FF9C35" transform="matrix(1.00, 0.00, -0.00, -1.00, 362.9, 608.0)">R</text><text xml:space="preserve" font-family="DINCondensed-Bold" font-weight="bold" font-size="48.0" fill="#FF9C35" transform="matrix(1.00, 0.00, -0.00, -1.00, 383.4, 608.0)">I</text><text xml:space="preserve" font-family="DINCondensed-Bold" font-weight="bold" font-size="48.0" fill="#FF9C35" transform="matrix(1.00, 0.00, -0.00, -1.00, 393.2, 608.0)">N</text><text xml:space="preserve" font-family="DINCondensed-Bold" font-weight="bold" font-size="48.0" fill="#FF9C35" transform="matrix(1.00, 0.00, -0.00, -1.00, 414.5, 608.0)">G</text><text xml:space="preserve" font-family="DINCondensed-Bold" font-weight="bold" font-size="48.0" fill="#FF9C35" transform="matrix(1.00, 0.00, -0.00, -1.00, 434.9, 608.0)">S</text><text xml:space="preserve" font-family="DINCondensed-Bold" font-weight="bold" font-size="48.0" fill="#FF9C35" transform="matrix(1.00, 0.00, -0.00, -1.00, 454.4, 608.0)"> </text><text xml:space="preserve" font-family="DINCondensed-Bold" font-weight="bold" font-size="48.0" fill="#FF9C35" transform="matrix(1.00, 0.00, -0.00, -1.00, 463.3, 608.0)">T</text><text xml:space="preserve" font-family="DINCondensed-Bold" font-weight="bold" font-size="48.0" fill="#FF9C35" transform="matrix(1.00, 0.00, -0.00, -1.00, 478.7, 608.0)">O</text><text xml:space="preserve" font-family="DINCondensed-Bold" font-weight="bold" font-size="48.0" fill="#FF9C35" transform="matrix(1.00, 0.00, -0.00, -1.00, 499.2, 608.0)"> </text><text xml:space="preserve" font-family="DINCondensed-Bold" font-weight="bold" font-size="48.0" fill="#FF9C35" transform="matrix(1.00, 0.00, -0.00, -1.00, 508.1, 608.0)">S</text><text xml:space="preserve" font-family="DINCondensed-Bold" font-weight="bold" font-size="48.0" fill="#FF9C35" transform="matrix(1.00, 0.00, -0.00, -1.00, 527.6, 608.0)">C</text><text xml:space="preserve" font-family="DINCondensed-Bold" font-weight="bold" font-size="48.0" fill="#FF9C35" transform="matrix(1.00, 0.00, -0.00, -1.00, 547.1, 608.0)">R</text><text xml:space="preserve" font-family="DINCondensed-Bold" font-weight="bold" font-size="48.0" fill="#FF9C35" transform="matrix(1.00, 0.00, -0.00, -1.00, 567.6, 608.0)">I</text><text xml:space="preserve" font-family="DINCondensed-Bold" font-weight="bold" font-size="48.0" fill="#FF9C35" transform="matrix(1.00, 0.00, -0.00, -1.00, 577.3, 608.0)">P</text><text xml:space="preserve" font-family="DINCondensed-Bold" font-weight="bold" font-size="48.0" fill="#FF9C35" transform="matrix(1.00, 0.00, -0.00, -1.00, 596.9, 608.0)">T</text><text xml:space="preserve" font-family="DINCondensed-Bold" font-weight="bold" font-size="48.0" fill="#FF9C35" transform="matrix(1.00, 0.00, -0.00, -1.00, 612.8, 608.0)">S</text><text xml:space="preserve" font-family="LucidaGrande" font-size="35.7" fill="#34A4DA" transform="matrix(1.00, 0.00, -0.00, -1.00, 36.0, 511.0)">▸</text><text xml:space="preserve" font-family="AvenirNext-Medium" font-size="34.0" fill="#FEFFFE" transform="matrix(1.00, 0.00, -0.00, -1.00, 71.0, 514.0)">e</text><text xml:space="preserve" font-family="AvenirNext-Medium" font-size="34.0" fill="#FEFFFE" transform="matrix(1.00, 0.00, -0.00, -1.00, 90.5, 514.0)">v</text><text xml:space="preserve" font-family="AvenirNext-Medium" font-size="34.0" fill="#FEFFFE" transform="matrix(1.00, 0.00, -0.00, -1.00, 107.6, 514.0)">a</text><text xml:space="preserve" font-family="AvenirNext-Medium" font-size="34.0" fill="#FEFFFE" transform="matrix(1.00, 0.00, -0.00, -1.00, 126.0, 514.0)">l</text><text xml:space="preserve" font-family="AvenirNext-Medium" font-size="34.0" fill="#FEFFFE" transform="matrix(1.00, 0.00, -0.00, -1.00, 134.9, 514.0)">,</text><text xml:space="preserve" font-family="AvenirNext-Medium" font-size="34.0" fill="#FEFFFE" transform="matrix(1.00, 0.00, -0.00, -1.00, 142.7, 514.0)"> </text><text xml:space="preserve" font-family="AvenirNext-Medium" font-size="34.0" fill="#FEFFFE" transform="matrix(1.00, 0.00, -0.00, -1.00, 151.2, 514.0)">F</text><text xml:space="preserve" font-family="AvenirNext-Medium" font-size="34.0" fill="#FEFFFE" transform="matrix(1.00, 0.00, -0.00, -1.00, 169.1, 514.0)">u</text><text xml:space="preserve" font-family="AvenirNext-Medium" font-size="34.0" fill="#FEFFFE" transform="matrix(1.00, 0.00, -0.00, -1.00, 188.9, 514.0)">n</text><text xml:space="preserve" font-family="AvenirNext-Medium" font-size="34.0" fill="#FEFFFE" transform="matrix(1.00, 0.00, -0.00, -1.00, 208.7, 514.0)">c</text><text xml:space="preserve" font-family="AvenirNext-Medium" font-size="34.0" fill="#FEFFFE" transform="matrix(1.00, 0.00, -0.00, -1.00, 225.5, 514.0)">t</text><text xml:space="preserve" font-family="AvenirNext-Medium" font-size="34.0" fill="#FEFFFE" transform="matrix(1.00, 0.00, -0.00, -1.00, 236.6, 514.0)">i</text><text xml:space="preserve" font-family="AvenirNext-Medium" font-size="34.0" fill="#FEFFFE" transform="matrix(1.00, 0.00, -0.00, -1.00, 245.5, 514.0)">o</text><text xml:space="preserve" font-family="AvenirNext-Medium" font-size="34.0" fill="#FEFFFE" transform="matrix(1.00, 0.00, -0.00, -1.00, 266.2, 514.0)">n</text><text xml:space="preserve" font-family="AvenirNext-Medium" font-size="34.0" fill="#FEFFFE" transform="matrix(1.00, 0.00, -0.00, -1.00, 286.0, 514.0)">.</text><text xml:space="preserve" font-family="AvenirNext-Medium" font-size="34.0" fill="#FEFFFE" transform="matrix(1.00, 0.00, -0.00, -1.00, 294.8, 514.0)">a</text><text xml:space="preserve" font-family="AvenirNext-Medium" font-size="34.0" fill="#FEFFFE" transform="matrix(1.00, 0.00, -0.00, -1.00, 313.3, 514.0)">p</text><text xml:space="preserve" font-family="AvenirNext-Medium" font-size="34.0" fill="#FEFFFE" transform="matrix(1.00, 0.00, -0.00, -1.00, 334.8, 514.0)">p</text><text xml:space="preserve" font-family="AvenirNext-Medium" font-size="34.0" fill="#FEFFFE" transform="matrix(1.00, 0.00, -0.00, -1.00, 356.4, 514.0)">l</text><text xml:space="preserve" font-family="AvenirNext-Medium" font-size="34.0" fill="#FEFFFE" transform="matrix(1.00, 0.00, -0.00, -1.00, 365.2, 514.0)">y</text><text xml:space="preserve" font-family="AvenirNext-Medium" font-size="34.0" fill="#FEFFFE" transform="matrix(1.00, 0.00, -0.00, -1.00, 381.1, 514.0)">,</text><text xml:space="preserve" font-family="AvenirNext-Medium" font-size="34.0" fill="#FEFFFE" transform="matrix(1.00, 0.00, -0.00, -1.00, 388.9, 514.0)"> </text><text xml:space="preserve" font-family="AvenirNext-Medium" font-size="34.0" fill="#FEFFFE" transform="matrix(1.00, 0.00, -0.00, -1.00, 397.4, 514.0)">s</text><text xml:space="preserve" font-family="AvenirNext-Medium" font-size="34.0" fill="#FEFFFE" transform="matrix(1.00, 0.00, -0.00, -1.00, 412.5, 514.0)">e</text><text xml:space="preserve" font-family="AvenirNext-Medium" font-size="34.0" fill="#FEFFFE" transform="matrix(1.00, 0.00, -0.00, -1.00, 432.0, 514.0)">t</text><text xml:space="preserve" font-family="AvenirNext-Medium" font-size="34.0" fill="#FEFFFE" transform="matrix(1.00, 0.00, -0.00, -1.00, 443.2, 514.0)">T</text><text xml:space="preserve" font-family="AvenirNext-Medium" font-size="34.0" fill="#FEFFFE" transform="matrix(1.00, 0.00, -0.00, -1.00, 462.1, 514.0)">i</text><text xml:space="preserve" font-family="AvenirNext-Medium" font-size="34.0" fill="#FEFFFE" transform="matrix(1.00, 0.00, -0.00, -1.00, 470.9, 514.0)">m</text><text xml:space="preserve" font-family="AvenirNext-Medium" font-size="34.0" fill="#FEFFFE" transform="matrix(1.00, 0.00, -0.00, -1.00, 501.1, 514.0)">e</text><text xml:space="preserve" font-family="AvenirNext-Medium" font-size="34.0" fill="#FEFFFE" transform="matrix(1.00, 0.00, -0.00, -1.00, 520.6, 514.0)">o</text><text xml:space="preserve" font-family="AvenirNext-Medium" font-size="34.0" fill="#FEFFFE" transform="matrix(1.00, 0.00, -0.00, -1.00, 541.3, 514.0)">u</text><text xml:space="preserve" font-family="AvenirNext-Medium" font-size="34.0" fill="#FEFFFE" transform="matrix(1.00, 0.00, -0.00, -1.00, 561.1, 514.0)">t</text><text xml:space="preserve" font-family="AvenirNext-Medium" font-size="34.0" fill="#FEFFFE" transform="matrix(1.00, 0.00, -0.00, -1.00, 572.3, 514.0)">(</text><text xml:space="preserve" font-family="AvenirNext-Medium" font-size="34.0" fill="#FEFFFE" transform="matrix(1.00, 0.00, -0.00, -1.00, 583.0, 514.0)">"</text><text xml:space="preserve" font-family="AvenirNext-Medium" font-size="34.0" fill="#FEFFFE" transform="matrix(1.00, 0.00, -0.00, -1.00, 597.4, 514.0)">s</text><text xml:space="preserve" font-family="AvenirNext-Medium" font-size="34.0" fill="#FEFFFE" transform="matrix(1.00, 0.00, -0.00, -1.00, 612.5, 514.0)">t</text><text xml:space="preserve" font-family="AvenirNext-Medium" font-size="34.0" fill="#FEFFFE" transform="matrix(1.00, 0.00, -0.00, -1.00, 623.7, 514.0)">r</text><text xml:space="preserve" font-family="AvenirNext-Medium" font-size="34.0" fill="#FEFFFE" transform="matrix(1.00, 0.00, -0.00, -1.00, 636.0, 514.0)">i</text><text xml:space="preserve" font-family="AvenirNext-Medium" font-size="34.0" fill="#FEFFFE" transform="matrix(1.00, 0.00, -0.00, -1.00, 644.8, 514.0)">n</text><text xml:space="preserve" font-family="AvenirNext-Medium" font-size="34.0" fill="#FEFFFE" transform="matrix(1.00, 0.00, -0.00, -1.00, 664.6, 514.0)">g</text><text xml:space="preserve" font-family="AvenirNext-Medium" font-size="34.0" fill="#FEFFFE" transform="matrix(1.00, 0.00, -0.00, -1.00, 686.1, 514.0)">"</text><text xml:space="preserve" font-family="AvenirNext-Medium" font-size="34.0" fill="#FEFFFE" transform="matrix(1.00, 0.00, -0.00, -1.00, 700.4, 514.0)">)</text><text xml:space="preserve" font-family="AvenirNext-Medium" font-size="34.0" fill="#FEFFFE" transform="matrix(1.00, 0.00, -0.00, -1.00, 711.2, 514.0)">,</text><text xml:space="preserve" font-family="AvenirNext-Medium" font-size="34.0" fill="#FEFFFE" transform="matrix(1.00, 0.00, -0.00, -1.00, 719.0, 514.0)"> </text><text xml:space="preserve" font-family="AvenirNext-Medium" font-size="34.0" fill="#FEFFFE" transform="matrix(1.00, 0.00, -0.00, -1.00, 727.5, 514.0)">e</text><text xml:space="preserve" font-family="AvenirNext-Medium" font-size="34.0" fill="#FEFFFE" transform="matrix(1.00, 0.00, -0.00, -1.00, 747.0, 514.0)">t</text><text xml:space="preserve" font-family="AvenirNext-Medium" font-size="34.0" fill="#FEFFFE" transform="matrix(1.00, 0.00, -0.00, -1.00, 758.1, 514.0)">c</text><text xml:space="preserve" font-family="AvenirNext-Medium" font-size="34.0" fill="#FEFFFE" transform="matrix(1.00, 0.00, -0.00, -1.00, 774.9, 514.0)"> </text><text xml:space="preserve" font-family="LucidaGrande" font-size="35.7" fill="#34A4DA" transform="matrix(1.00, 0.00, -0.00, -1.00, 36.0, 437.0)">▸</text><text xml:space="preserve" font-family="AvenirNext-Medium" font-size="34.0" fill="#FEFFFE" transform="matrix(1.00, 0.00, -0.00, -1.00, 71.0, 440.0)">i</text><text xml:space="preserve" font-family="AvenirNext-Medium" font-size="34.0" fill="#FEFFFE" transform="matrix(1.00, 0.00, -0.00, -1.00, 79.8, 440.0)">n</text><text xml:space="preserve" font-family="AvenirNext-Medium" font-size="34.0" fill="#FEFFFE" transform="matrix(1.00, 0.00, -0.00, -1.00, 99.6, 440.0)">l</text><text xml:space="preserve" font-family="AvenirNext-Medium" font-size="34.0" fill="#FEFFFE" transform="matrix(1.00, 0.00, -0.00, -1.00, 108.4, 440.0)">i</text><text xml:space="preserve" font-family="AvenirNext-Medium" font-size="34.0" fill="#FEFFFE" transform="matrix(1.00, 0.00, -0.00, -1.00, 117.2, 440.0)">n</text><text xml:space="preserve" font-family="AvenirNext-Medium" font-size="34.0" fill="#FEFFFE" transform="matrix(1.00, 0.00, -0.00, -1.00, 137.0, 440.0)">e</text><text xml:space="preserve" font-family="AvenirNext-Medium" font-size="34.0" fill="#FEFFFE" transform="matrix(1.00, 0.00, -0.00, -1.00, 156.5, 440.0)"> </text><text xml:space="preserve" font-family="AvenirNext-Medium" font-size="34.0" fill="#FEFFFE" transform="matrix(1.00, 0.00, -0.00, -1.00, 165.0, 440.0)">e</text><text xml:space="preserve" font-family="AvenirNext-Medium" font-size="34.0" fill="#FEFFFE" transform="matrix(1.00, 0.00, -0.00, -1.00, 184.5, 440.0)">v</text><text xml:space="preserve" font-family="AvenirNext-Medium" font-size="34.0" fill="#FEFFFE" transform="matrix(1.00, 0.00, -0.00, -1.00, 201.6, 440.0)">e</text><text xml:space="preserve" font-family="AvenirNext-Medium" font-size="34.0" fill="#FEFFFE" transform="matrix(1.00, 0.00, -0.00, -1.00, 221.1, 440.0)">n</text><text xml:space="preserve" font-family="AvenirNext-Medium" font-size="34.0" fill="#FEFFFE" transform="matrix(1.00, 0.00, -0.00, -1.00, 240.9, 440.0)">t</text><text xml:space="preserve" font-family="AvenirNext-Medium" font-size="34.0" fill="#FEFFFE" transform="matrix(1.00, 0.00, -0.00, -1.00, 252.1, 440.0)"> </text><text xml:space="preserve" font-family="AvenirNext-Medium" font-size="34.0" fill="#FEFFFE" transform="matrix(1.00, 0.00, -0.00, -1.00, 260.6, 440.0)">h</text><text xml:space="preserve" font-family="AvenirNext-Medium" font-size="34.0" fill="#FEFFFE" transform="matrix(1.00, 0.00, -0.00, -1.00, 280.4, 440.0)">a</text><text xml:space="preserve" font-family="AvenirNext-Medium" font-size="34.0" fill="#FEFFFE" transform="matrix(1.00, 0.00, -0.00, -1.00, 298.9, 440.0)">n</text><text xml:space="preserve" font-family="AvenirNext-Medium" font-size="34.0" fill="#FEFFFE" transform="matrix(1.00, 0.00, -0.00, -1.00, 318.7, 440.0)">d</text><text xml:space="preserve" font-family="AvenirNext-Medium" font-size="34.0" fill="#FEFFFE" transform="matrix(1.00, 0.00, -0.00, -1.00, 340.2, 440.0)">l</text><text xml:space="preserve" font-family="AvenirNext-Medium" font-size="34.0" fill="#FEFFFE" transform="matrix(1.00, 0.00, -0.00, -1.00, 349.1, 440.0)">e</text><text xml:space="preserve" font-family="AvenirNext-Medium" font-size="34.0" fill="#FEFFFE" transform="matrix(1.00, 0.00, -0.00, -1.00, 368.6, 440.0)">r</text><text xml:space="preserve" font-family="AvenirNext-Medium" font-size="34.0" fill="#FEFFFE" transform="matrix(1.00, 0.00, -0.00, -1.00, 380.9, 440.0)">s</text><text xml:space="preserve" font-family="AvenirNext-Medium" font-size="34.0" fill="#FEFFFE" transform="matrix(1.00, 0.00, -0.00, -1.00, 396.0, 440.0)"> </text><text xml:space="preserve" font-family="AvenirNext-Medium" font-size="34.0" fill="#FEFFFE" transform="matrix(1.00, 0.00, -0.00, -1.00, 404.5, 440.0)">l</text><text xml:space="preserve" font-family="AvenirNext-Medium" font-size="34.0" fill="#FEFFFE" transform="matrix(1.00, 0.00, -0.00, -1.00, 413.3, 440.0)">i</text><text xml:space="preserve" font-family="AvenirNext-Medium" font-size="34.0" fill="#FEFFFE" transform="matrix(1.00, 0.00, -0.00, -1.00, 422.1, 440.0)">k</text><text xml:space="preserve" font-family="AvenirNext-Medium" font-size="34.0" fill="#FEFFFE" transform="matrix(1.00, 0.00, -0.00, -1.00, 439.4, 440.0)">e</text><text xml:space="preserve" font-family="AvenirNext-Medium" font-size="34.0" fill="#FEFFFE" transform="matrix(1.00, 0.00, -0.00, -1.00, 458.9, 440.0)"> </text><text xml:space="preserve" font-family="AvenirNext-Medium" font-size="34.0" fill="#FEFFFE" transform="matrix(1.00, 0.00, -0.00, -1.00, 467.4, 440.0)">o</text><text xml:space="preserve" font-family="AvenirNext-Medium" font-size="34.0" fill="#FEFFFE" transform="matrix(1.00, 0.00, -0.00, -1.00, 488.1, 440.0)">n</text><text xml:space="preserve" font-family="AvenirNext-Medium" font-size="34.0" fill="#FEFFFE" transform="matrix(1.00, 0.00, -0.00, -1.00, 507.9, 440.0)">c</text><text xml:space="preserve" font-family="AvenirNext-Medium" font-size="34.0" fill="#FEFFFE" transform="matrix(1.00, 0.00, -0.00, -1.00, 524.7, 440.0)">l</text><text xml:space="preserve" font-family="AvenirNext-Medium" font-size="34.0" fill="#FEFFFE" transform="matrix(1.00, 0.00, -0.00, -1.00, 533.6, 440.0)">i</text><text xml:space="preserve" font-family="AvenirNext-Medium" font-size="34.0" fill="#FEFFFE" transform="matrix(1.00, 0.00, -0.00, -1.00, 542.4, 440.0)">c</text><text xml:space="preserve" font-family="AvenirNext-Medium" font-size="34.0" fill="#FEFFFE" transform="matrix(1.00, 0.00, -0.00, -1.00, 559.2, 440.0)">k</text><text xml:space="preserve" font-family="AvenirNext-Medium" font-size="34.0" fill="#FEFFFE" transform="matrix(1.00, 0.00, -0.00, -1.00, 577.1, 440.0)">=</text><text xml:space="preserve" font-family="AvenirNext-Medium" font-size="34.0" fill="#FEFFFE" transform="matrix(1.00, 0.00, -0.00, -1.00, 599.7, 440.0)">"</text><text xml:space="preserve" font-family="AvenirNext-Medium" font-size="34.0" fill="#FEFFFE" transform="matrix(1.00, 0.00, -0.00, -1.00, 614.1, 440.0)">s</text><text xml:space="preserve" font-family="AvenirNext-Medium" font-size="34.0" fill="#FEFFFE" transform="matrix(1.00, 0.00, -0.00, -1.00, 629.2, 440.0)">t</text><text xml:space="preserve" font-family="AvenirNext-Medium" font-size="34.0" fill="#FEFFFE" transform="matrix(1.00, 0.00, -0.00, -1.00, 640.4, 440.0)">r</text><text xml:space="preserve" font-family="AvenirNext-Medium" font-size="34.0" fill="#FEFFFE" transform="matrix(1.00, 0.00, -0.00, -1.00, 652.7, 440.0)">i</text><text xml:space="preserve" font-family="AvenirNext-Medium" font-size="34.0" fill="#FEFFFE" transform="matrix(1.00, 0.00, -0.00, -1.00, 661.5, 440.0)">n</text><text xml:space="preserve" font-family="AvenirNext-Medium" font-size="34.0" fill="#FEFFFE" transform="matrix(1.00, 0.00, -0.00, -1.00, 681.3, 440.0)">g</text><text xml:space="preserve" font-family="AvenirNext-Medium" font-size="34.0" fill="#FEFFFE" transform="matrix(1.00, 0.00, -0.00, -1.00, 702.8, 440.0)">"</text><text xml:space="preserve" font-family="AvenirNext-Medium" font-size="34.0" fill="#FEFFFE" transform="matrix(1.00, 0.00, -0.00, -1.00, 717.2, 440.0)">,</text><text xml:space="preserve" font-family="AvenirNext-Medium" font-size="34.0" fill="#FEFFFE" transform="matrix(1.00, 0.00, -0.00, -1.00, 725.0, 440.0)"> </text><text xml:space="preserve" font-family="AvenirNext-Medium" font-size="34.0" fill="#FEFFFE" transform="matrix(1.00, 0.00, -0.00, -1.00, 733.5, 440.0)">e</text><text xml:space="preserve" font-family="AvenirNext-Medium" font-size="34.0" fill="#FEFFFE" transform="matrix(1.00, 0.00, -0.00, -1.00, 753.0, 440.0)">t</text><text xml:space="preserve" font-family="AvenirNext-Medium" font-size="34.0" fill="#FEFFFE" transform="matrix(1.00, 0.00, -0.00, -1.00, 764.2, 440.0)">c</text><text xml:space="preserve" font-family="DINAlternate-Bold" font-weight="bold" font-size="24.0" fill="#838686" transform="matrix(1.00, 0.00, -0.00, -1.00, 964.6, 707.4)">3</text><text xml:space="preserve" font-family="DINAlternate-Bold" font-weight="bold" font-size="24.0" fill="#838686" transform="matrix(1.00, 0.00, -0.00, -1.00, 976.1, 707.4)">8</text></g></svg>