<?xml version="1.0" encoding="UTF-8" standalone="no"?><svg xmlns="http://www.w3.org/2000/svg" xmlns:xlink="http://www.w3.org/1999/xlink" clip-rule="evenodd" stroke-miterlimit="4.00" viewBox="0 0 1024 768"><desc>SVG generated by Keynote</desc><defs></defs><g transform="matrix(1.00, 0.00, -0.00, -1.00, 0.0, 768.0)"><path d="M 0.0 768.0 L 1024.0 768.0 L 1024.0 0.0 L 0.0 0.0 Z M 0.0 768.0 " fill="#212121"></path><path d="M 0.0 0.0 L 960.0 0.0 " fill="none" stroke="#A6AAA8" stroke-width="3.00" transform="matrix(1.00, 0.00, 0.00, -1.00, 32.0, 284.5)"></path><text xml:space="preserve" font-family="DINCondensed-Bold" font-weight="bold" font-size="102.0" fill="#FF9C35" transform="matrix(1.00, 0.00, -0.00, -1.00, 36.0, 186.0)">R</text><text xml:space="preserve" font-family="DINCondensed-Bold" font-weight="bold" font-size="102.0" fill="#FF9C35" transform="matrix(1.00, 0.00, -0.00, -1.00, 79.5, 186.0)">O</text><text xml:space="preserve" font-family="DINCondensed-Bold" font-weight="bold" font-size="102.0" fill="#FF9C35" transform="matrix(1.00, 0.00, -0.00, -1.00, 122.9, 186.0)">B</text><text xml:space="preserve" font-family="DINCondensed-Bold" font-weight="bold" font-size="102.0" fill="#FF9C35" transform="matrix(1.00, 0.00, -0.00, -1.00, 166.4, 186.0)">E</text><text xml:space="preserve" font-family="DINCondensed-Bold" font-weight="bold" font-size="102.0" fill="#FF9C35" transform="matrix(1.00, 0.00, -0.00, -1.00, 204.1, 186.0)">R</text><text xml:space="preserve" font-family="DINCondensed-Bold" font-weight="bold" font-size="102.0" fill="#FF9C35" transform="matrix(1.00, 0.00, -0.00, -1.00, 245.7, 186.0)">T</text><text xml:space="preserve" font-family="DINCondensed-Bold" font-weight="bold" font-size="102.0" fill="#FF9C35" transform="matrix(1.00, 0.00, -0.00, -1.00, 279.6, 186.0)">’</text><text xml:space="preserve" font-family="DINCondensed-Bold" font-weight="bold" font-size="102.0" fill="#FF9C35" transform="matrix(1.00, 0.00, -0.00, -1.00, 298.5, 186.0)">;</text><text xml:space="preserve" font-family="DINCondensed-Bold" font-weight="bold" font-size="102.0" fill="#FF9C35" transform="matrix(1.00, 0.00, -0.00, -1.00, 317.5, 186.0)"> </text><text xml:space="preserve" font-family="DINCondensed-Bold" font-weight="bold" font-size="102.0" fill="#FF9C35" transform="matrix(1.00, 0.00, -0.00, -1.00, 336.5, 186.0)">D</text><text xml:space="preserve" font-family="DINCondensed-Bold" font-weight="bold" font-size="102.0" fill="#FF9C35" transform="matrix(1.00, 0.00, -0.00, -1.00, 379.9, 186.0)">R</text><text xml:space="preserve" font-family="DINCondensed-Bold" font-weight="bold" font-size="102.0" fill="#FF9C35" transform="matrix(1.00, 0.00, -0.00, -1.00, 423.4, 186.0)">O</text><text xml:space="preserve" font-family="DINCondensed-Bold" font-weight="bold" font-size="102.0" fill="#FF9C35" transform="matrix(1.00, 0.00, -0.00, -1.00, 466.8, 186.0)">P</text><text xml:space="preserve" font-family="DINCondensed-Bold" font-weight="bold" font-size="102.0" fill="#FF9C35" transform="matrix(1.00, 0.00, -0.00, -1.00, 508.4, 186.0)"> </text><text xml:space="preserve" font-family="DINCondensed-Bold" font-weight="bold" font-size="102.0" fill="#FF9C35" transform="matrix(1.00, 0.00, -0.00, -1.00, 527.3, 186.0)">T</text><text xml:space="preserve" font-family="DINCondensed-Bold" font-weight="bold" font-size="102.0" fill="#FF9C35" transform="matrix(1.00, 0.00, -0.00, -1.00, 555.6, 186.0)">A</text><text xml:space="preserve" font-family="DINCondensed-Bold" font-weight="bold" font-size="102.0" fill="#FF9C35" transform="matrix(1.00, 0.00, -0.00, -1.00, 597.1, 186.0)">B</text><text xml:space="preserve" font-family="DINCondensed-Bold" font-weight="bold" font-size="102.0" fill="#FF9C35" transform="matrix(1.00, 0.00, -0.00, -1.00, 640.6, 186.0)">L</text><text xml:space="preserve" font-family="DINCondensed-Bold" font-weight="bold" font-size="102.0" fill="#FF9C35" transform="matrix(1.00, 0.00, -0.00, -1.00, 678.3, 186.0)">E</text><text xml:space="preserve" font-family="DINCondensed-Bold" font-weight="bold" font-size="102.0" fill="#FF9C35" transform="matrix(1.00, 0.00, -0.00, -1.00, 716.0, 186.0)"> </text><text xml:space="preserve" font-family="DINCondensed-Bold" font-weight="bold" font-size="102.0" fill="#FF9C35" transform="matrix(1.00, 0.00, -0.00, -1.00, 36.0, 84.0)">S</text><text xml:space="preserve" font-family="DINCondensed-Bold" font-weight="bold" font-size="102.0" fill="#FF9C35" transform="matrix(1.00, 0.00, -0.00, -1.00, 77.4, 84.0)">T</text><text xml:space="preserve" font-family="DINCondensed-Bold" font-weight="bold" font-size="102.0" fill="#FF9C35" transform="matrix(1.00, 0.00, -0.00, -1.00, 111.3, 84.0)">U</text><text xml:space="preserve" font-family="DINCondensed-Bold" font-weight="bold" font-size="102.0" fill="#FF9C35" transform="matrix(1.00, 0.00, -0.00, -1.00, 154.7, 84.0)">D</text><text xml:space="preserve" font-family="DINCondensed-Bold" font-weight="bold" font-size="102.0" fill="#FF9C35" transform="matrix(1.00, 0.00, -0.00, -1.00, 198.2, 84.0)">E</text><text xml:space="preserve" font-family="DINCondensed-Bold" font-weight="bold" font-size="102.0" fill="#FF9C35" transform="matrix(1.00, 0.00, -0.00, -1.00, 235.9, 84.0)">N</text><text xml:space="preserve" font-family="DINCondensed-Bold" font-weight="bold" font-size="102.0" fill="#FF9C35" transform="matrix(1.00, 0.00, -0.00, -1.00, 281.2, 84.0)">T</text><text xml:space="preserve" font-family="DINCondensed-Bold" font-weight="bold" font-size="102.0" fill="#FF9C35" transform="matrix(1.00, 0.00, -0.00, -1.00, 315.1, 84.0)">S</text><text xml:space="preserve" font-family="DINCondensed-Bold" font-weight="bold" font-size="102.0" fill="#FF9C35" transform="matrix(1.00, 0.00, -0.00, -1.00, 356.5, 84.0)">;</text><text xml:space="preserve" font-family="DINCondensed-Bold" font-weight="bold" font-size="102.0" fill="#FF9C35" transform="matrix(1.00, 0.00, -0.00, -1.00, 375.5, 84.0)"> </text><text xml:space="preserve" font-family="DINCondensed-Bold" font-weight="bold" font-size="102.0" fill="#FF9C35" transform="matrix(1.00, 0.00, -0.00, -1.00, 394.4, 84.0)">-</text><text xml:space="preserve" font-family="DINCondensed-Bold" font-weight="bold" font-size="102.0" fill="#FF9C35" transform="matrix(1.00, 0.00, -0.00, -1.00, 434.1, 84.0)">-</text><text xml:space="preserve" font-family="DINCondensed-Bold" font-weight="bold" font-size="102.0" fill="#FF9C35" transform="matrix(1.00, 0.00, -0.00, -1.00, 473.8, 84.0)"> </text><text xml:space="preserve" font-family="DINAlternate-Bold" font-weight="bold" font-size="54.0" fill="#FEFFFE" transform="matrix(1.00, 0.00, -0.00, -1.00, 36.0, 306.0)">L</text><text xml:space="preserve" font-family="DINAlternate-Bold" font-weight="bold" font-size="54.0" fill="#FEFFFE" transform="matrix(1.00, 0.00, -0.00, -1.00, 66.0, 306.0)">I</text><text xml:space="preserve" font-family="DINAlternate-Bold" font-weight="bold" font-size="54.0" fill="#FEFFFE" transform="matrix(1.00, 0.00, -0.00, -1.00, 80.0, 306.0)">T</text><text xml:space="preserve" font-family="DINAlternate-Bold" font-weight="bold" font-size="54.0" fill="#FEFFFE" transform="matrix(1.00, 0.00, -0.00, -1.00, 107.0, 306.0)">T</text><text xml:space="preserve" font-family="DINAlternate-Bold" font-weight="bold" font-size="54.0" fill="#FEFFFE" transform="matrix(1.00, 0.00, -0.00, -1.00, 134.0, 306.0)">L</text><text xml:space="preserve" font-family="DINAlternate-Bold" font-weight="bold" font-size="54.0" fill="#FEFFFE" transform="matrix(1.00, 0.00, -0.00, -1.00, 164.0, 306.0)">E</text><text xml:space="preserve" font-family="DINAlternate-Bold" font-weight="bold" font-size="54.0" fill="#FEFFFE" transform="matrix(1.00, 0.00, -0.00, -1.00, 194.0, 306.0)"> </text><text xml:space="preserve" font-family="DINAlternate-Bold" font-weight="bold" font-size="54.0" fill="#FEFFFE" transform="matrix(1.00, 0.00, -0.00, -1.00, 207.0, 306.0)">B</text><text xml:space="preserve" font-family="DINAlternate-Bold" font-weight="bold" font-size="54.0" fill="#FEFFFE" transform="matrix(1.00, 0.00, -0.00, -1.00, 239.9, 306.0)">O</text><text xml:space="preserve" font-family="DINAlternate-Bold" font-weight="bold" font-size="54.0" fill="#FEFFFE" transform="matrix(1.00, 0.00, -0.00, -1.00, 272.8, 306.0)">B</text><text xml:space="preserve" font-family="DINAlternate-Bold" font-weight="bold" font-size="54.0" fill="#FEFFFE" transform="matrix(1.00, 0.00, -0.00, -1.00, 305.8, 306.0)">B</text><text xml:space="preserve" font-family="DINAlternate-Bold" font-weight="bold" font-size="54.0" fill="#FEFFFE" transform="matrix(1.00, 0.00, -0.00, -1.00, 338.7, 306.0)">Y</text><text xml:space="preserve" font-family="DINAlternate-Bold" font-weight="bold" font-size="54.0" fill="#FEFFFE" transform="matrix(1.00, 0.00, -0.00, -1.00, 365.7, 306.0)"> </text><text xml:space="preserve" font-family="DINAlternate-Bold" font-weight="bold" font-size="54.0" fill="#FEFFFE" transform="matrix(1.00, 0.00, -0.00, -1.00, 378.6, 306.0)">T</text><text xml:space="preserve" font-family="DINAlternate-Bold" font-weight="bold" font-size="54.0" fill="#FEFFFE" transform="matrix(1.00, 0.00, -0.00, -1.00, 401.6, 306.0)">A</text><text xml:space="preserve" font-family="DINAlternate-Bold" font-weight="bold" font-size="54.0" fill="#FEFFFE" transform="matrix(1.00, 0.00, -0.00, -1.00, 434.5, 306.0)">B</text><text xml:space="preserve" font-family="DINAlternate-Bold" font-weight="bold" font-size="54.0" fill="#FEFFFE" transform="matrix(1.00, 0.00, -0.00, -1.00, 467.5, 306.0)">L</text><text xml:space="preserve" font-family="DINAlternate-Bold" font-weight="bold" font-size="54.0" fill="#FEFFFE" transform="matrix(1.00, 0.00, -0.00, -1.00, 497.5, 306.0)">E</text><text xml:space="preserve" font-family="DINAlternate-Bold" font-weight="bold" font-size="54.0" fill="#FEFFFE" transform="matrix(1.00, 0.00, -0.00, -1.00, 527.5, 306.0)">S</text><g><clipPath id="clip-29"><path d="M 35.0 298.5 L 558.5 298.5 L 558.5 303.1 L 35.0 303.1 Z M 35.0 298.5 "></path></clipPath><g clip-path="url(#clip-29)"><path d="M 4.0 131.2 L 526.5 131.2 " fill="none" stroke="#FEFFFE" stroke-width="2.69" stroke-miterlimit="0.00" transform="matrix(1.00, 0.00, 0.00, -1.00, 32.0, 432.0)"></path></g></g><g opacity="0.71"><g><clipPath id="clip-30"><path d="M 167.0 328.0 L 857.0 328.0 L 857.0 749.0 L 167.0 749.0 Z M 167.0 328.0 "></path></clipPath><g clip-path="url(#clip-30)"><image xlink:href="../../AA3F1C26-5451-4053-A839-D57C1D931DCF/assets/C700E6FB5A3769A5520845558B2E7E08.png" width="666.00" height="205.00" transform="matrix(1.00, 0.00, -0.00, -1.00, 179.0, 641.0)"></image><image xlink:href="../../AA3F1C26-5451-4053-A839-D57C1D931DCF/assets/93E89E9CD5E8F67AEA2EC9E16C6D9FF7.png" width="688.00" height="231.00" transform="matrix(1.00, 0.00, -0.00, 1.00, 168.0, 423.0)"></image><image xlink:href="../../AA3F1C26-5451-4053-A839-D57C1D931DCF/assets/5EA0B319DE26037E6316181A6594BF74.png" width="2867.00" height="390.00" transform="matrix(0.24, 0.00, -0.00, -0.24, 168.0, 423.0)"></image></g></g></g><text xml:space="preserve" font-family="DINAlternate-Bold" font-weight="bold" font-size="24.0" fill="#838686" transform="matrix(1.00, 0.00, -0.00, -1.00, 965.2, 707.4)">1</text><text xml:space="preserve" font-family="DINAlternate-Bold" font-weight="bold" font-size="24.0" fill="#838686" transform="matrix(1.00, 0.00, -0.00, -1.00, 976.7, 707.4)">5</text></g></svg>